solid ascii
  facet normal 1.000000e+000 0.000000e+000 -0.000000e+000
    outer loop
      vertex   0.000000e+000 6.168390e+001 1.016000e+000
      vertex   0.000000e+000 6.768338e+001 1.016000e+000
      vertex   0.000000e+000 6.168390e+001 5.161280e+000
    endloop
  endfacet
  facet normal 1.000000e+000 -0.000000e+000 0.000000e+000
    outer loop
      vertex   0.000000e+000 6.168390e+001 5.161280e+000
      vertex   0.000000e+000 6.768338e+001 1.016000e+000
      vertex   0.000000e+000 6.768338e+001 5.161280e+000
    endloop
  endfacet
  facet normal 0.000000e+000 1.000000e+000 -0.000000e+000
    outer loop
      vertex   0.000000e+000 6.768338e+001 1.016000e+000
      vertex   -5.999480e+000 6.768338e+001 1.016000e+000
      vertex   0.000000e+000 6.768338e+001 5.161280e+000
    endloop
  endfacet
  facet normal 0.000000e+000 1.000000e+000 -0.000000e+000
    outer loop
      vertex   0.000000e+000 6.768338e+001 5.161280e+000
      vertex   -5.999480e+000 6.768338e+001 1.016000e+000
      vertex   -5.999480e+000 6.768338e+001 5.161280e+000
    endloop
  endfacet
  facet normal 0.000000e+000 -1.000000e+000 0.000000e+000
    outer loop
      vertex   -5.999480e+000 6.168390e+001 1.016000e+000
      vertex   0.000000e+000 6.168390e+001 1.016000e+000
      vertex   -5.999480e+000 6.168390e+001 5.161280e+000
    endloop
  endfacet
  facet normal 0.000000e+000 -1.000000e+000 0.000000e+000
    outer loop
      vertex   -5.999480e+000 6.168390e+001 5.161280e+000
      vertex   0.000000e+000 6.168390e+001 1.016000e+000
      vertex   0.000000e+000 6.168390e+001 5.161280e+000
    endloop
  endfacet
  facet normal -1.000000e+000 0.000000e+000 0.000000e+000
    outer loop
      vertex   -5.999480e+000 6.768338e+001 1.016000e+000
      vertex   -5.999480e+000 6.168390e+001 1.016000e+000
      vertex   -5.999480e+000 6.768338e+001 5.161280e+000
    endloop
  endfacet
  facet normal -1.000000e+000 -0.000000e+000 0.000000e+000
    outer loop
      vertex   -5.999480e+000 6.768338e+001 5.161280e+000
      vertex   -5.999480e+000 6.168390e+001 1.016000e+000
      vertex   -5.999480e+000 6.168390e+001 5.161280e+000
    endloop
  endfacet
  facet normal 0.000000e+000 0.000000e+000 1.000000e+000
    outer loop
      vertex   0.000000e+000 6.768338e+001 5.161280e+000
      vertex   -5.999480e+000 6.768338e+001 5.161280e+000
      vertex   0.000000e+000 6.168390e+001 5.161280e+000
    endloop
  endfacet
  facet normal 0.000000e+000 0.000000e+000 1.000000e+000
    outer loop
      vertex   0.000000e+000 6.168390e+001 5.161280e+000
      vertex   -5.999480e+000 6.768338e+001 5.161280e+000
      vertex   -5.999480e+000 6.168390e+001 5.161280e+000
    endloop
  endfacet
  facet normal 1.000000e+000 0.000000e+000 -0.000000e+000
    outer loop
      vertex   0.000000e+000 1.233678e+001 1.016000e+000
      vertex   0.000000e+000 1.833626e+001 1.016000e+000
      vertex   0.000000e+000 1.233678e+001 5.161280e+000
    endloop
  endfacet
  facet normal 1.000000e+000 -0.000000e+000 0.000000e+000
    outer loop
      vertex   0.000000e+000 1.233678e+001 5.161280e+000
      vertex   0.000000e+000 1.833626e+001 1.016000e+000
      vertex   0.000000e+000 1.833626e+001 5.161280e+000
    endloop
  endfacet
  facet normal 0.000000e+000 1.000000e+000 -8.570504e-016
    outer loop
      vertex   0.000000e+000 1.833626e+001 1.016000e+000
      vertex   -5.999480e+000 1.833626e+001 1.016000e+000
      vertex   0.000000e+000 1.833626e+001 5.161280e+000
    endloop
  endfacet
  facet normal 0.000000e+000 1.000000e+000 -8.570504e-016
    outer loop
      vertex   0.000000e+000 1.833626e+001 5.161280e+000
      vertex   -5.999480e+000 1.833626e+001 1.016000e+000
      vertex   -5.999480e+000 1.833626e+001 5.161280e+000
    endloop
  endfacet
  facet normal 0.000000e+000 -1.000000e+000 -4.285252e-016
    outer loop
      vertex   -5.999480e+000 1.233678e+001 1.016000e+000
      vertex   0.000000e+000 1.233678e+001 1.016000e+000
      vertex   -5.999480e+000 1.233678e+001 5.161280e+000
    endloop
  endfacet
  facet normal 0.000000e+000 -1.000000e+000 -4.285252e-016
    outer loop
      vertex   -5.999480e+000 1.233678e+001 5.161280e+000
      vertex   0.000000e+000 1.233678e+001 1.016000e+000
      vertex   0.000000e+000 1.233678e+001 5.161280e+000
    endloop
  endfacet
  facet normal -1.000000e+000 0.000000e+000 0.000000e+000
    outer loop
      vertex   -5.999480e+000 1.833626e+001 1.016000e+000
      vertex   -5.999480e+000 1.233678e+001 1.016000e+000
      vertex   -5.999480e+000 1.833626e+001 5.161280e+000
    endloop
  endfacet
  facet normal -1.000000e+000 -0.000000e+000 0.000000e+000
    outer loop
      vertex   -5.999480e+000 1.833626e+001 5.161280e+000
      vertex   -5.999480e+000 1.233678e+001 1.016000e+000
      vertex   -5.999480e+000 1.233678e+001 5.161280e+000
    endloop
  endfacet
  facet normal 0.000000e+000 0.000000e+000 1.000000e+000
    outer loop
      vertex   0.000000e+000 1.833626e+001 5.161280e+000
      vertex   -5.999480e+000 1.833626e+001 5.161280e+000
      vertex   0.000000e+000 1.233678e+001 5.161280e+000
    endloop
  endfacet
  facet normal 0.000000e+000 0.000000e+000 1.000000e+000
    outer loop
      vertex   0.000000e+000 1.233678e+001 5.161280e+000
      vertex   -5.999480e+000 1.833626e+001 5.161280e+000
      vertex   -5.999480e+000 1.233678e+001 5.161280e+000
    endloop
  endfacet
  facet normal 1.000000e+000 0.000000e+000 -0.000000e+000
    outer loop
      vertex   0.000000e+000 2.467356e+001 1.016000e+000
      vertex   0.000000e+000 3.067304e+001 1.016000e+000
      vertex   0.000000e+000 2.467356e+001 5.161280e+000
    endloop
  endfacet
  facet normal 1.000000e+000 -0.000000e+000 0.000000e+000
    outer loop
      vertex   0.000000e+000 2.467356e+001 5.161280e+000
      vertex   0.000000e+000 3.067304e+001 1.016000e+000
      vertex   0.000000e+000 3.067304e+001 5.161280e+000
    endloop
  endfacet
  facet normal 0.000000e+000 1.000000e+000 -0.000000e+000
    outer loop
      vertex   0.000000e+000 3.067304e+001 1.016000e+000
      vertex   -5.999480e+000 3.067304e+001 1.016000e+000
      vertex   0.000000e+000 3.067304e+001 5.161280e+000
    endloop
  endfacet
  facet normal 0.000000e+000 1.000000e+000 -0.000000e+000
    outer loop
      vertex   0.000000e+000 3.067304e+001 5.161280e+000
      vertex   -5.999480e+000 3.067304e+001 1.016000e+000
      vertex   -5.999480e+000 3.067304e+001 5.161280e+000
    endloop
  endfacet
  facet normal 0.000000e+000 -1.000000e+000 1.714101e-015
    outer loop
      vertex   -5.999480e+000 2.467356e+001 1.016000e+000
      vertex   0.000000e+000 2.467356e+001 1.016000e+000
      vertex   -5.999480e+000 2.467356e+001 5.161280e+000
    endloop
  endfacet
  facet normal 0.000000e+000 -1.000000e+000 1.714101e-015
    outer loop
      vertex   -5.999480e+000 2.467356e+001 5.161280e+000
      vertex   0.000000e+000 2.467356e+001 1.016000e+000
      vertex   0.000000e+000 2.467356e+001 5.161280e+000
    endloop
  endfacet
  facet normal -1.000000e+000 0.000000e+000 0.000000e+000
    outer loop
      vertex   -5.999480e+000 3.067304e+001 1.016000e+000
      vertex   -5.999480e+000 2.467356e+001 1.016000e+000
      vertex   -5.999480e+000 3.067304e+001 5.161280e+000
    endloop
  endfacet
  facet normal -1.000000e+000 -0.000000e+000 0.000000e+000
    outer loop
      vertex   -5.999480e+000 3.067304e+001 5.161280e+000
      vertex   -5.999480e+000 2.467356e+001 1.016000e+000
      vertex   -5.999480e+000 2.467356e+001 5.161280e+000
    endloop
  endfacet
  facet normal 0.000000e+000 0.000000e+000 1.000000e+000
    outer loop
      vertex   0.000000e+000 3.067304e+001 5.161280e+000
      vertex   -5.999480e+000 3.067304e+001 5.161280e+000
      vertex   0.000000e+000 2.467356e+001 5.161280e+000
    endloop
  endfacet
  facet normal 0.000000e+000 0.000000e+000 1.000000e+000
    outer loop
      vertex   0.000000e+000 2.467356e+001 5.161280e+000
      vertex   -5.999480e+000 3.067304e+001 5.161280e+000
      vertex   -5.999480e+000 2.467356e+001 5.161280e+000
    endloop
  endfacet
  facet normal 1.000000e+000 0.000000e+000 -0.000000e+000
    outer loop
      vertex   0.000000e+000 4.934712e+001 1.016000e+000
      vertex   0.000000e+000 5.534660e+001 1.016000e+000
      vertex   0.000000e+000 4.934712e+001 5.161280e+000
    endloop
  endfacet
  facet normal 1.000000e+000 -0.000000e+000 0.000000e+000
    outer loop
      vertex   0.000000e+000 4.934712e+001 5.161280e+000
      vertex   0.000000e+000 5.534660e+001 1.016000e+000
      vertex   0.000000e+000 5.534660e+001 5.161280e+000
    endloop
  endfacet
  facet normal 0.000000e+000 1.000000e+000 -0.000000e+000
    outer loop
      vertex   0.000000e+000 5.534660e+001 1.016000e+000
      vertex   -5.999480e+000 5.534660e+001 1.016000e+000
      vertex   0.000000e+000 5.534660e+001 5.161280e+000
    endloop
  endfacet
  facet normal 0.000000e+000 1.000000e+000 -0.000000e+000
    outer loop
      vertex   0.000000e+000 5.534660e+001 5.161280e+000
      vertex   -5.999480e+000 5.534660e+001 1.016000e+000
      vertex   -5.999480e+000 5.534660e+001 5.161280e+000
    endloop
  endfacet
  facet normal 0.000000e+000 -1.000000e+000 0.000000e+000
    outer loop
      vertex   -5.999480e+000 4.934712e+001 1.016000e+000
      vertex   0.000000e+000 4.934712e+001 1.016000e+000
      vertex   -5.999480e+000 4.934712e+001 5.161280e+000
    endloop
  endfacet
  facet normal 0.000000e+000 -1.000000e+000 0.000000e+000
    outer loop
      vertex   -5.999480e+000 4.934712e+001 5.161280e+000
      vertex   0.000000e+000 4.934712e+001 1.016000e+000
      vertex   0.000000e+000 4.934712e+001 5.161280e+000
    endloop
  endfacet
  facet normal -1.000000e+000 0.000000e+000 0.000000e+000
    outer loop
      vertex   -5.999480e+000 5.534660e+001 1.016000e+000
      vertex   -5.999480e+000 4.934712e+001 1.016000e+000
      vertex   -5.999480e+000 5.534660e+001 5.161280e+000
    endloop
  endfacet
  facet normal -1.000000e+000 -0.000000e+000 0.000000e+000
    outer loop
      vertex   -5.999480e+000 5.534660e+001 5.161280e+000
      vertex   -5.999480e+000 4.934712e+001 1.016000e+000
      vertex   -5.999480e+000 4.934712e+001 5.161280e+000
    endloop
  endfacet
  facet normal 0.000000e+000 0.000000e+000 1.000000e+000
    outer loop
      vertex   0.000000e+000 5.534660e+001 5.161280e+000
      vertex   -5.999480e+000 5.534660e+001 5.161280e+000
      vertex   0.000000e+000 4.934712e+001 5.161280e+000
    endloop
  endfacet
  facet normal 0.000000e+000 0.000000e+000 1.000000e+000
    outer loop
      vertex   0.000000e+000 4.934712e+001 5.161280e+000
      vertex   -5.999480e+000 5.534660e+001 5.161280e+000
      vertex   -5.999480e+000 4.934712e+001 5.161280e+000
    endloop
  endfacet
  facet normal 1.000000e+000 0.000000e+000 -0.000000e+000
    outer loop
      vertex   0.000000e+000 0.000000e+000 1.016000e+000
      vertex   0.000000e+000 5.999480e+000 1.016000e+000
      vertex   0.000000e+000 0.000000e+000 5.161280e+000
    endloop
  endfacet
  facet normal 1.000000e+000 -0.000000e+000 -0.000000e+000
    outer loop
      vertex   0.000000e+000 0.000000e+000 5.161280e+000
      vertex   0.000000e+000 5.999480e+000 1.016000e+000
      vertex   0.000000e+000 5.999480e+000 5.161280e+000
    endloop
  endfacet
  facet normal 0.000000e+000 1.000000e+000 8.570504e-016
    outer loop
      vertex   0.000000e+000 5.999480e+000 1.016000e+000
      vertex   -5.999480e+000 5.999480e+000 1.016000e+000
      vertex   0.000000e+000 5.999480e+000 5.161280e+000
    endloop
  endfacet
  facet normal 0.000000e+000 1.000000e+000 8.570504e-016
    outer loop
      vertex   0.000000e+000 5.999480e+000 5.161280e+000
      vertex   -5.999480e+000 5.999480e+000 1.016000e+000
      vertex   -5.999480e+000 5.999480e+000 5.161280e+000
    endloop
  endfacet
  facet normal 0.000000e+000 -1.000000e+000 0.000000e+000
    outer loop
      vertex   -5.999480e+000 0.000000e+000 1.016000e+000
      vertex   0.000000e+000 0.000000e+000 1.016000e+000
      vertex   -5.999480e+000 0.000000e+000 5.161280e+000
    endloop
  endfacet
  facet normal 0.000000e+000 -1.000000e+000 0.000000e+000
    outer loop
      vertex   -5.999480e+000 0.000000e+000 5.161280e+000
      vertex   0.000000e+000 0.000000e+000 1.016000e+000
      vertex   0.000000e+000 0.000000e+000 5.161280e+000
    endloop
  endfacet
  facet normal -1.000000e+000 0.000000e+000 0.000000e+000
    outer loop
      vertex   -5.999480e+000 5.999480e+000 1.016000e+000
      vertex   -5.999480e+000 0.000000e+000 1.016000e+000
      vertex   -5.999480e+000 5.999480e+000 5.161280e+000
    endloop
  endfacet
  facet normal -1.000000e+000 -0.000000e+000 0.000000e+000
    outer loop
      vertex   -5.999480e+000 5.999480e+000 5.161280e+000
      vertex   -5.999480e+000 0.000000e+000 1.016000e+000
      vertex   -5.999480e+000 0.000000e+000 5.161280e+000
    endloop
  endfacet
  facet normal 0.000000e+000 0.000000e+000 1.000000e+000
    outer loop
      vertex   0.000000e+000 5.999480e+000 5.161280e+000
      vertex   -5.999480e+000 5.999480e+000 5.161280e+000
      vertex   0.000000e+000 0.000000e+000 5.161280e+000
    endloop
  endfacet
  facet normal 0.000000e+000 0.000000e+000 1.000000e+000
    outer loop
      vertex   0.000000e+000 0.000000e+000 5.161280e+000
      vertex   -5.999480e+000 5.999480e+000 5.161280e+000
      vertex   -5.999480e+000 0.000000e+000 5.161280e+000
    endloop
  endfacet
  facet normal 0.000000e+000 -1.000000e+000 -1.092739e-015
    outer loop
      vertex   -7.716520e+000 -1.717040e+000 0.000000e+000
      vertex   1.717040e+000 -1.717040e+000 0.000000e+000
      vertex   -7.716520e+000 -1.717040e+000 1.016000e+000
    endloop
  endfacet
  facet normal 0.000000e+000 -1.000000e+000 -1.092739e-015
    outer loop
      vertex   -7.716520e+000 -1.717040e+000 1.016000e+000
      vertex   1.717040e+000 -1.717040e+000 0.000000e+000
      vertex   1.717040e+000 -1.717040e+000 1.016000e+000
    endloop
  endfacet
  facet normal -1.000000e+000 -2.497779e-017 0.000000e+000
    outer loop
      vertex   -7.716520e+000 6.940042e+001 0.000000e+000
      vertex   -7.716520e+000 3.384169e+001 0.000000e+000
      vertex   -7.716520e+000 6.940042e+001 1.016000e+000
    endloop
  endfacet
  facet normal -1.000000e+000 -2.497779e-017 0.000000e+000
    outer loop
      vertex   -7.716520e+000 6.940042e+001 1.016000e+000
      vertex   -7.716520e+000 3.384169e+001 0.000000e+000
      vertex   -7.716520e+000 3.384169e+001 1.016000e+000
    endloop
  endfacet
  facet normal -1.000000e+000 -0.000000e+000 -0.000000e+000
    outer loop
      vertex   -7.716520e+000 3.384169e+001 1.016000e+000
      vertex   -7.716520e+000 3.384169e+001 0.000000e+000
      vertex   -7.716520e+000 -1.717040e+000 0.000000e+000
    endloop
  endfacet
  facet normal -1.000000e+000 0.000000e+000 -0.000000e+000
    outer loop
      vertex   -7.716520e+000 -1.717040e+000 1.016000e+000
      vertex   -7.716520e+000 3.384169e+001 1.016000e+000
      vertex   -7.716520e+000 -1.717040e+000 0.000000e+000
    endloop
  endfacet
  facet normal 0.000000e+000 1.000000e+000 -0.000000e+000
    outer loop
      vertex   1.717040e+000 6.940042e+001 0.000000e+000
      vertex   -7.716520e+000 6.940042e+001 0.000000e+000
      vertex   1.717040e+000 6.940042e+001 1.016000e+000
    endloop
  endfacet
  facet normal 0.000000e+000 1.000000e+000 -0.000000e+000
    outer loop
      vertex   1.717040e+000 6.940042e+001 1.016000e+000
      vertex   -7.716520e+000 6.940042e+001 0.000000e+000
      vertex   -7.716520e+000 6.940042e+001 1.016000e+000
    endloop
  endfacet
  facet normal 1.000000e+000 -3.122224e-017 -3.493659e-031
    outer loop
      vertex   1.717040e+000 -1.717040e+000 0.000000e+000
      vertex   1.717040e+000 3.384169e+001 0.000000e+000
      vertex   1.717040e+000 -1.717040e+000 1.016000e+000
    endloop
  endfacet
  facet normal 1.000000e+000 -3.122224e-017 0.000000e+000
    outer loop
      vertex   1.717040e+000 -1.717040e+000 1.016000e+000
      vertex   1.717040e+000 3.384169e+001 0.000000e+000
      vertex   1.717040e+000 3.384169e+001 1.016000e+000
    endloop
  endfacet
  facet normal 1.000000e+000 -0.000000e+000 0.000000e+000
    outer loop
      vertex   1.717040e+000 3.384169e+001 1.016000e+000
      vertex   1.717040e+000 3.384169e+001 0.000000e+000
      vertex   1.717040e+000 6.940042e+001 0.000000e+000
    endloop
  endfacet
  facet normal 1.000000e+000 0.000000e+000 0.000000e+000
    outer loop
      vertex   1.717040e+000 6.940042e+001 1.016000e+000
      vertex   1.717040e+000 3.384169e+001 1.016000e+000
      vertex   1.717040e+000 6.940042e+001 0.000000e+000
    endloop
  endfacet
  facet normal 0.000000e+000 0.000000e+000 1.000000e+000
    outer loop
      vertex   1.717040e+000 3.384169e+001 1.016000e+000
      vertex   0.000000e+000 1.833626e+001 1.016000e+000
      vertex   1.717040e+000 -1.717040e+000 1.016000e+000
    endloop
  endfacet
  facet normal 0.000000e+000 0.000000e+000 1.000000e+000
    outer loop
      vertex   1.717040e+000 3.384169e+001 1.016000e+000
      vertex   0.000000e+000 2.467356e+001 1.016000e+000
      vertex   0.000000e+000 1.833626e+001 1.016000e+000
    endloop
  endfacet
  facet normal 0.000000e+000 0.000000e+000 1.000000e+000
    outer loop
      vertex   1.717040e+000 3.384169e+001 1.016000e+000
      vertex   0.000000e+000 3.067304e+001 1.016000e+000
      vertex   0.000000e+000 2.467356e+001 1.016000e+000
    endloop
  endfacet
  facet normal 0.000000e+000 0.000000e+000 1.000000e+000
    outer loop
      vertex   1.717040e+000 3.384169e+001 1.016000e+000
      vertex   -7.716520e+000 3.384169e+001 1.016000e+000
      vertex   0.000000e+000 3.067304e+001 1.016000e+000
    endloop
  endfacet
  facet normal 0.000000e+000 0.000000e+000 1.000000e+000
    outer loop
      vertex   1.717040e+000 3.384169e+001 1.016000e+000
      vertex   -5.999480e+000 3.701034e+001 1.016000e+000
      vertex   -7.716520e+000 3.384169e+001 1.016000e+000
    endloop
  endfacet
  facet normal 0.000000e+000 0.000000e+000 1.000000e+000
    outer loop
      vertex   1.717040e+000 3.384169e+001 1.016000e+000
      vertex   0.000000e+000 3.701034e+001 1.016000e+000
      vertex   -5.999480e+000 3.701034e+001 1.016000e+000
    endloop
  endfacet
  facet normal 0.000000e+000 0.000000e+000 1.000000e+000
    outer loop
      vertex   1.717040e+000 3.384169e+001 1.016000e+000
      vertex   0.000000e+000 4.300982e+001 1.016000e+000
      vertex   0.000000e+000 3.701034e+001 1.016000e+000
    endloop
  endfacet
  facet normal 0.000000e+000 0.000000e+000 1.000000e+000
    outer loop
      vertex   1.717040e+000 3.384169e+001 1.016000e+000
      vertex   0.000000e+000 4.934712e+001 1.016000e+000
      vertex   0.000000e+000 4.300982e+001 1.016000e+000
    endloop
  endfacet
  facet normal 0.000000e+000 -0.000000e+000 1.000000e+000
    outer loop
      vertex   1.717040e+000 3.384169e+001 1.016000e+000
      vertex   1.717040e+000 6.940042e+001 1.016000e+000
      vertex   0.000000e+000 4.934712e+001 1.016000e+000
    endloop
  endfacet
  facet normal 0.000000e+000 -0.000000e+000 1.000000e+000
    outer loop
      vertex   0.000000e+000 4.934712e+001 1.016000e+000
      vertex   1.717040e+000 6.940042e+001 1.016000e+000
      vertex   0.000000e+000 5.534660e+001 1.016000e+000
    endloop
  endfacet
  facet normal 0.000000e+000 -0.000000e+000 1.000000e+000
    outer loop
      vertex   0.000000e+000 5.534660e+001 1.016000e+000
      vertex   1.717040e+000 6.940042e+001 1.016000e+000
      vertex   0.000000e+000 6.168390e+001 1.016000e+000
    endloop
  endfacet
  facet normal -0.000000e+000 0.000000e+000 1.000000e+000
    outer loop
      vertex   -5.999480e+000 6.168390e+001 1.016000e+000
      vertex   0.000000e+000 5.534660e+001 1.016000e+000
      vertex   0.000000e+000 6.168390e+001 1.016000e+000
    endloop
  endfacet
  facet normal -0.000000e+000 0.000000e+000 1.000000e+000
    outer loop
      vertex   -5.999480e+000 6.168390e+001 1.016000e+000
      vertex   -5.999480e+000 5.534660e+001 1.016000e+000
      vertex   0.000000e+000 5.534660e+001 1.016000e+000
    endloop
  endfacet
  facet normal 0.000000e+000 0.000000e+000 1.000000e+000
    outer loop
      vertex   -5.999480e+000 6.168390e+001 1.016000e+000
      vertex   -7.716520e+000 6.940042e+001 1.016000e+000
      vertex   -5.999480e+000 5.534660e+001 1.016000e+000
    endloop
  endfacet
  facet normal 0.000000e+000 -0.000000e+000 1.000000e+000
    outer loop
      vertex   -5.999480e+000 6.168390e+001 1.016000e+000
      vertex   -5.999480e+000 6.768338e+001 1.016000e+000
      vertex   -7.716520e+000 6.940042e+001 1.016000e+000
    endloop
  endfacet
  facet normal -0.000000e+000 0.000000e+000 1.000000e+000
    outer loop
      vertex   -7.716520e+000 6.940042e+001 1.016000e+000
      vertex   -5.999480e+000 6.768338e+001 1.016000e+000
      vertex   0.000000e+000 6.768338e+001 1.016000e+000
    endloop
  endfacet
  facet normal 0.000000e+000 0.000000e+000 1.000000e+000
    outer loop
      vertex   1.717040e+000 6.940042e+001 1.016000e+000
      vertex   0.000000e+000 6.768338e+001 1.016000e+000
      vertex   0.000000e+000 6.168390e+001 1.016000e+000
    endloop
  endfacet
  facet normal 0.000000e+000 0.000000e+000 1.000000e+000
    outer loop
      vertex   1.717040e+000 6.940042e+001 1.016000e+000
      vertex   -7.716520e+000 6.940042e+001 1.016000e+000
      vertex   0.000000e+000 6.768338e+001 1.016000e+000
    endloop
  endfacet
  facet normal 0.000000e+000 0.000000e+000 1.000000e+000
    outer loop
      vertex   -5.999480e+000 5.534660e+001 1.016000e+000
      vertex   -7.716520e+000 6.940042e+001 1.016000e+000
      vertex   -5.999480e+000 4.934712e+001 1.016000e+000
    endloop
  endfacet
  facet normal 0.000000e+000 0.000000e+000 1.000000e+000
    outer loop
      vertex   -5.999480e+000 4.934712e+001 1.016000e+000
      vertex   -7.716520e+000 6.940042e+001 1.016000e+000
      vertex   -7.716520e+000 3.384169e+001 1.016000e+000
    endloop
  endfacet
  facet normal -0.000000e+000 0.000000e+000 1.000000e+000
    outer loop
      vertex   -5.999480e+000 4.300982e+001 1.016000e+000
      vertex   -7.716520e+000 3.384169e+001 1.016000e+000
      vertex   -5.999480e+000 3.701034e+001 1.016000e+000
    endloop
  endfacet
  facet normal 0.000000e+000 -0.000000e+000 1.000000e+000
    outer loop
      vertex   -5.999480e+000 4.300982e+001 1.016000e+000
      vertex   -5.999480e+000 4.934712e+001 1.016000e+000
      vertex   -7.716520e+000 3.384169e+001 1.016000e+000
    endloop
  endfacet
  facet normal 0.000000e+000 -0.000000e+000 1.000000e+000
    outer loop
      vertex   -5.999480e+000 4.300982e+001 1.016000e+000
      vertex   0.000000e+000 4.300982e+001 1.016000e+000
      vertex   -5.999480e+000 4.934712e+001 1.016000e+000
    endloop
  endfacet
  facet normal -0.000000e+000 0.000000e+000 1.000000e+000
    outer loop
      vertex   -5.999480e+000 4.934712e+001 1.016000e+000
      vertex   0.000000e+000 4.300982e+001 1.016000e+000
      vertex   0.000000e+000 4.934712e+001 1.016000e+000
    endloop
  endfacet
  facet normal 0.000000e+000 -0.000000e+000 1.000000e+000
    outer loop
      vertex   -7.716520e+000 -1.717040e+000 1.016000e+000
      vertex   -5.999480e+000 1.833626e+001 1.016000e+000
      vertex   -7.716520e+000 3.384169e+001 1.016000e+000
    endloop
  endfacet
  facet normal 0.000000e+000 0.000000e+000 1.000000e+000
    outer loop
      vertex   -7.716520e+000 -1.717040e+000 1.016000e+000
      vertex   -5.999480e+000 1.233678e+001 1.016000e+000
      vertex   -5.999480e+000 1.833626e+001 1.016000e+000
    endloop
  endfacet
  facet normal 0.000000e+000 0.000000e+000 1.000000e+000
    outer loop
      vertex   -7.716520e+000 -1.717040e+000 1.016000e+000
      vertex   -5.999480e+000 5.999480e+000 1.016000e+000
      vertex   -5.999480e+000 1.233678e+001 1.016000e+000
    endloop
  endfacet
  facet normal 0.000000e+000 0.000000e+000 1.000000e+000
    outer loop
      vertex   -7.716520e+000 -1.717040e+000 1.016000e+000
      vertex   -5.999480e+000 0.000000e+000 1.016000e+000
      vertex   -5.999480e+000 5.999480e+000 1.016000e+000
    endloop
  endfacet
  facet normal 0.000000e+000 -0.000000e+000 1.000000e+000
    outer loop
      vertex   -7.716520e+000 -1.717040e+000 1.016000e+000
      vertex   1.717040e+000 -1.717040e+000 1.016000e+000
      vertex   -5.999480e+000 0.000000e+000 1.016000e+000
    endloop
  endfacet
  facet normal -0.000000e+000 -0.000000e+000 1.000000e+000
    outer loop
      vertex   -5.999480e+000 0.000000e+000 1.016000e+000
      vertex   1.717040e+000 -1.717040e+000 1.016000e+000
      vertex   0.000000e+000 0.000000e+000 1.016000e+000
    endloop
  endfacet
  facet normal -0.000000e+000 -0.000000e+000 1.000000e+000
    outer loop
      vertex   0.000000e+000 0.000000e+000 1.016000e+000
      vertex   1.717040e+000 -1.717040e+000 1.016000e+000
      vertex   0.000000e+000 5.999480e+000 1.016000e+000
    endloop
  endfacet
  facet normal -0.000000e+000 -0.000000e+000 1.000000e+000
    outer loop
      vertex   0.000000e+000 5.999480e+000 1.016000e+000
      vertex   1.717040e+000 -1.717040e+000 1.016000e+000
      vertex   0.000000e+000 1.233678e+001 1.016000e+000
    endloop
  endfacet
  facet normal -0.000000e+000 0.000000e+000 1.000000e+000
    outer loop
      vertex   -5.999480e+000 1.233678e+001 1.016000e+000
      vertex   0.000000e+000 5.999480e+000 1.016000e+000
      vertex   0.000000e+000 1.233678e+001 1.016000e+000
    endloop
  endfacet
  facet normal -0.000000e+000 0.000000e+000 1.000000e+000
    outer loop
      vertex   -5.999480e+000 1.233678e+001 1.016000e+000
      vertex   -5.999480e+000 5.999480e+000 1.016000e+000
      vertex   0.000000e+000 5.999480e+000 1.016000e+000
    endloop
  endfacet
  facet normal 0.000000e+000 0.000000e+000 1.000000e+000
    outer loop
      vertex   0.000000e+000 2.467356e+001 1.016000e+000
      vertex   -5.999480e+000 2.467356e+001 1.016000e+000
      vertex   0.000000e+000 1.833626e+001 1.016000e+000
    endloop
  endfacet
  facet normal 0.000000e+000 0.000000e+000 1.000000e+000
    outer loop
      vertex   0.000000e+000 1.833626e+001 1.016000e+000
      vertex   -5.999480e+000 2.467356e+001 1.016000e+000
      vertex   -5.999480e+000 1.833626e+001 1.016000e+000
    endloop
  endfacet
  facet normal 0.000000e+000 -0.000000e+000 1.000000e+000
    outer loop
      vertex   -5.999480e+000 1.833626e+001 1.016000e+000
      vertex   -5.999480e+000 2.467356e+001 1.016000e+000
      vertex   -7.716520e+000 3.384169e+001 1.016000e+000
    endloop
  endfacet
  facet normal -0.000000e+000 0.000000e+000 1.000000e+000
    outer loop
      vertex   -7.716520e+000 3.384169e+001 1.016000e+000
      vertex   -5.999480e+000 2.467356e+001 1.016000e+000
      vertex   -5.999480e+000 3.067304e+001 1.016000e+000
    endloop
  endfacet
  facet normal 0.000000e+000 0.000000e+000 1.000000e+000
    outer loop
      vertex   0.000000e+000 3.067304e+001 1.016000e+000
      vertex   -7.716520e+000 3.384169e+001 1.016000e+000
      vertex   -5.999480e+000 3.067304e+001 1.016000e+000
    endloop
  endfacet
  facet normal 0.000000e+000 0.000000e+000 1.000000e+000
    outer loop
      vertex   0.000000e+000 1.833626e+001 1.016000e+000
      vertex   0.000000e+000 1.233678e+001 1.016000e+000
      vertex   1.717040e+000 -1.717040e+000 1.016000e+000
    endloop
  endfacet
  facet normal -1.000000e+000 0.000000e+000 0.000000e+000
    outer loop
      vertex   -5.999480e+000 4.300982e+001 1.016000e+000
      vertex   -5.999480e+000 3.701034e+001 1.016000e+000
      vertex   -5.999480e+000 4.300982e+001 5.161280e+000
    endloop
  endfacet
  facet normal -1.000000e+000 -0.000000e+000 0.000000e+000
    outer loop
      vertex   -5.999480e+000 4.300982e+001 5.161280e+000
      vertex   -5.999480e+000 3.701034e+001 1.016000e+000
      vertex   -5.999480e+000 3.701034e+001 5.161280e+000
    endloop
  endfacet
  facet normal 0.000000e+000 -1.000000e+000 0.000000e+000
    outer loop
      vertex   -5.999480e+000 3.701034e+001 1.016000e+000
      vertex   0.000000e+000 3.701034e+001 1.016000e+000
      vertex   -5.999480e+000 3.701034e+001 5.161280e+000
    endloop
  endfacet
  facet normal 0.000000e+000 -1.000000e+000 0.000000e+000
    outer loop
      vertex   -5.999480e+000 3.701034e+001 5.161280e+000
      vertex   0.000000e+000 3.701034e+001 1.016000e+000
      vertex   0.000000e+000 3.701034e+001 5.161280e+000
    endloop
  endfacet
  facet normal 1.000000e+000 0.000000e+000 -0.000000e+000
    outer loop
      vertex   0.000000e+000 3.701034e+001 1.016000e+000
      vertex   0.000000e+000 4.300982e+001 1.016000e+000
      vertex   0.000000e+000 3.701034e+001 5.161280e+000
    endloop
  endfacet
  facet normal 1.000000e+000 -0.000000e+000 0.000000e+000
    outer loop
      vertex   0.000000e+000 3.701034e+001 5.161280e+000
      vertex   0.000000e+000 4.300982e+001 1.016000e+000
      vertex   0.000000e+000 4.300982e+001 5.161280e+000
    endloop
  endfacet
  facet normal 0.000000e+000 1.000000e+000 -0.000000e+000
    outer loop
      vertex   0.000000e+000 4.300982e+001 1.016000e+000
      vertex   -5.999480e+000 4.300982e+001 1.016000e+000
      vertex   0.000000e+000 4.300982e+001 5.161280e+000
    endloop
  endfacet
  facet normal 0.000000e+000 1.000000e+000 -0.000000e+000
    outer loop
      vertex   0.000000e+000 4.300982e+001 5.161280e+000
      vertex   -5.999480e+000 4.300982e+001 1.016000e+000
      vertex   -5.999480e+000 4.300982e+001 5.161280e+000
    endloop
  endfacet
  facet normal 0.000000e+000 0.000000e+000 1.000000e+000
    outer loop
      vertex   0.000000e+000 4.300982e+001 5.161280e+000
      vertex   -5.999480e+000 4.300982e+001 5.161280e+000
      vertex   0.000000e+000 3.701034e+001 5.161280e+000
    endloop
  endfacet
  facet normal 0.000000e+000 0.000000e+000 1.000000e+000
    outer loop
      vertex   0.000000e+000 3.701034e+001 5.161280e+000
      vertex   -5.999480e+000 4.300982e+001 5.161280e+000
      vertex   -5.999480e+000 3.701034e+001 5.161280e+000
    endloop
  endfacet
  facet normal 0.000000e+000 -0.000000e+000 -1.000000e+000
    outer loop
      vertex   -7.716520e+000 6.940042e+001 0.000000e+000
      vertex   1.717040e+000 6.940042e+001 0.000000e+000
      vertex   -7.716520e+000 3.384169e+001 0.000000e+000
    endloop
  endfacet
  facet normal 0.000000e+000 0.000000e+000 -1.000000e+000
    outer loop
      vertex   -7.716520e+000 3.384169e+001 0.000000e+000
      vertex   1.717040e+000 6.940042e+001 0.000000e+000
      vertex   1.717040e+000 3.384169e+001 0.000000e+000
    endloop
  endfacet
  facet normal 0.000000e+000 -0.000000e+000 -1.000000e+000
    outer loop
      vertex   -7.716520e+000 -1.717040e+000 0.000000e+000
      vertex   1.717040e+000 3.384169e+001 0.000000e+000
      vertex   1.717040e+000 -1.717040e+000 0.000000e+000
    endloop
  endfacet
  facet normal 0.000000e+000 0.000000e+000 -1.000000e+000
    outer loop
      vertex   -7.716520e+000 -1.717040e+000 0.000000e+000
      vertex   -7.716520e+000 3.384169e+001 0.000000e+000
      vertex   1.717040e+000 3.384169e+001 0.000000e+000
    endloop
  endfacet
endsolid
