G04 ================== begin FILE IDENTIFICATION RECORD ==================*
G04 Layout Name:  C:/raspberrypi/rpi1/rpi-cmcda/board/RPI-CMCDA-V1_1-PUBLIC.brd*
G04 Film Name:    RPI-CMCDA-V1_1-PUBLIC-TCL*
G04 File Format:  Gerber RS274X*
G04 File Origin:  Cadence Allegro 16.6-S029*
G04 Origin Date:  Mon Oct 13 11:30:06 2014*
G04 *
G04 Layer:  USER PART NUMBER/SILKSCREEN_TOP*
G04 Layer:  TOLERANCE/SILKSCREEN_TOP*
G04 Layer:  REF DES/SILKSCREEN_TOP*
G04 Layer:  PACKAGE GEOMETRY/SILKSCREEN_TOP*
G04 Layer:  MANUFACTURING/TITLEBLOCK*
G04 Layer:  DEVICE TYPE/SILKSCREEN_TOP*
G04 Layer:  COMPONENT VALUE/SILKSCREEN_TOP*
G04 Layer:  BOARD GEOMETRY/SILKSCREEN_TOP*
G04 *
G04 Offset:    (0.0000 0.0000)*
G04 Mirror:    No*
G04 Mode:      Positive*
G04 Rotation:  0*
G04 FullContactRelief:  No*
G04 UndefLineWidth:     0.0000*
G04 ================== end FILE IDENTIFICATION RECORD ====================*
%FSLAX35Y35*MOMM*%
%IR0*IPPOS*OFA0.00000B0.00000*MIA0B0*SFA1.00000B1.00000*%
%ADD10C,.2*%
%ADD11C,.15*%
%ADD12C,.216*%
%ADD13C,.18*%
G75*
%LPD*%
G75*
G36*
G01X7947850Y2398650D02*
X7944880Y2397640D01*
X7943260Y2397220D01*
X7941590Y2396850D01*
X7939920Y2396560D01*
X7938300Y2396350D01*
X7936750Y2396230D01*
X7935330Y2396190D01*
X7934080Y2396260D01*
X7920560Y2397070D01*
X7915100Y2397160D01*
X7910410Y2397030D01*
X7906400Y2396680D01*
X7902980Y2396100D01*
X7900080Y2395290D01*
X7897620Y2394240D01*
X7895510Y2392960D01*
X7892920Y2391200D01*
X7891690Y2390540D01*
X7890500Y2390040D01*
X7889340Y2389670D01*
X7888200Y2389430D01*
X7887080Y2389330D01*
X7885970Y2389340D01*
X7884860Y2389470D01*
X7879150Y2389760D01*
X7875890Y2389440D01*
X7872540Y2388860D01*
X7869260Y2388050D01*
X7866180Y2387050D01*
X7863430Y2385890D01*
X7861170Y2384600D01*
X7859520Y2383220D01*
X7857780Y2381750D01*
X7856740Y2381180D01*
X7855540Y2380710D01*
X7854140Y2380340D01*
X7852520Y2380070D01*
X7850640Y2379880D01*
X7848450Y2379770D01*
X7845940Y2379730D01*
X7836850Y2379110D01*
X7832380Y2378350D01*
X7828050Y2377330D01*
X7823900Y2376060D01*
X7820010Y2374570D01*
X7816440Y2372860D01*
X7813250Y2370960D01*
X7810500Y2368900D01*
X7807570Y2366660D01*
X7806060Y2365770D01*
X7804490Y2365010D01*
X7802800Y2364370D01*
X7800980Y2363820D01*
X7798980Y2363370D01*
X7796780Y2362980D01*
X7794340Y2362650D01*
X7780530Y2359510D01*
X7775300Y2356770D01*
X7771170Y2353250D01*
X7768160Y2348950D01*
X7766250Y2343870D01*
X7765450Y2338000D01*
X7765760Y2331350D01*
X7767160Y2323900D01*
X7767980Y2319880D01*
X7768160Y2318230D01*
X7768170Y2316710D01*
X7768000Y2315260D01*
X7767640Y2313780D01*
X7767080Y2312210D01*
X7766320Y2310470D01*
X7765330Y2308480D01*
X7762720Y2302490D01*
X7762030Y2299820D01*
X7761750Y2297240D01*
X7761890Y2294630D01*
X7762440Y2291910D01*
X7763410Y2288960D01*
X7764800Y2285710D01*
X7766610Y2282030D01*
X7768850Y2277500D01*
X7769650Y2275630D01*
X7770230Y2273950D01*
X7770610Y2272420D01*
X7770800Y2270980D01*
X7770810Y2269600D01*
X7770630Y2268220D01*
X7770290Y2266790D01*
X7769740Y2261680D01*
X7769960Y2258900D01*
X7770510Y2255980D01*
X7771380Y2252950D01*
X7772570Y2249820D01*
X7774070Y2246600D01*
X7775880Y2243320D01*
X7778000Y2239970D01*
X7780250Y2236240D01*
X7781140Y2234480D01*
X7781880Y2232770D01*
X7782480Y2231070D01*
X7782930Y2229360D01*
X7783260Y2227630D01*
X7783440Y2225850D01*
X7783510Y2223990D01*
X7784080Y2217540D01*
X7784800Y2214500D01*
X7785820Y2211560D01*
X7787140Y2208710D01*
X7788760Y2205940D01*
X7790680Y2203230D01*
X7792900Y2200560D01*
X7795440Y2197920D01*
X7798030Y2195180D01*
X7799070Y2193860D01*
X7799930Y2192580D01*
X7800640Y2191320D01*
X7801180Y2190090D01*
X7801560Y2188890D01*
X7801790Y2187700D01*
X7801870Y2186530D01*
X7803120Y2179370D01*
X7804650Y2175690D01*
X7806760Y2171990D01*
X7809420Y2168290D01*
X7812610Y2164610D01*
X7816320Y2160990D01*
X7820520Y2157450D01*
X7825190Y2154020D01*
X7827290Y2152420D01*
X7828230Y2151560D01*
X7829070Y2150690D01*
X7829810Y2149830D01*
X7830410Y2149020D01*
X7830860Y2148260D01*
X7831150Y2147600D01*
X7831250Y2147040D01*
X7832450Y2142510D01*
X7833800Y2139730D01*
X7835530Y2136790D01*
X7837530Y2133850D01*
X7839710Y2131030D01*
X7841960Y2128490D01*
X7844190Y2126370D01*
X7846300Y2124820D01*
X7848810Y2123410D01*
X7850240Y2122690D01*
X7851740Y2121980D01*
X7853270Y2121290D01*
X7854790Y2120640D01*
X7856270Y2120060D01*
X7857680Y2119550D01*
X7858970Y2119130D01*
X7862030Y2117910D01*
X7863310Y2117170D01*
X7864450Y2116320D01*
X7865500Y2115330D01*
X7866450Y2114160D01*
X7867350Y2112800D01*
X7868220Y2111220D01*
X7869070Y2109390D01*
X7872360Y2103980D01*
X7874530Y2101540D01*
X7877040Y2099290D01*
X7879870Y2097240D01*
X7883010Y2095390D01*
X7886460Y2093770D01*
X7890200Y2092370D01*
X7894230Y2091210D01*
X7903040Y2089010D01*
X7889640Y2080560D01*
X7865280Y2062640D01*
X7854810Y2053060D01*
X7845440Y2043020D01*
X7837150Y2032480D01*
X7829900Y2021440D01*
X7823670Y2009840D01*
X7818440Y1997660D01*
X7814170Y1984870D01*
X7811160Y1972860D01*
X7809810Y1966180D01*
X7808610Y1959270D01*
X7807570Y1952310D01*
X7806720Y1945480D01*
X7806080Y1938930D01*
X7805680Y1932840D01*
X7805540Y1927390D01*
X7804740Y1920410D01*
X7803790Y1917000D01*
X7802510Y1913720D01*
X7800930Y1910630D01*
X7799090Y1907790D01*
X7797020Y1905250D01*
X7794760Y1903070D01*
X7792320Y1901310D01*
X7785470Y1896100D01*
X7781240Y1892270D01*
X7776720Y1887880D01*
X7772110Y1883130D01*
X7767590Y1878210D01*
X7763360Y1873320D01*
X7759600Y1868650D01*
X7756510Y1864400D01*
X7743690Y1842930D01*
X7738570Y1832180D01*
X7734270Y1821340D01*
X7730800Y1810350D01*
X7728130Y1799150D01*
X7726240Y1787690D01*
X7725120Y1775910D01*
X7724750Y1763750D01*
X7726400Y1740340D01*
X7728470Y1728990D01*
X7731350Y1717880D01*
X7735060Y1707020D01*
X7739570Y1696400D01*
X7744900Y1686030D01*
X7751040Y1675910D01*
X7757980Y1666050D01*
X7762090Y1660210D01*
X7763780Y1657540D01*
X7765240Y1654970D01*
X7766510Y1652480D01*
X7767610Y1650010D01*
X7768560Y1647530D01*
X7769380Y1644990D01*
X7770100Y1642360D01*
X7771560Y1636620D01*
X7772680Y1632660D01*
X7774010Y1628130D01*
X7775510Y1623150D01*
X7777130Y1617830D01*
X7778850Y1612290D01*
X7780620Y1606650D01*
X7782400Y1601030D01*
X7786060Y1589620D01*
X7787820Y1583910D01*
X7789490Y1578350D01*
X7791030Y1573070D01*
X7792410Y1568210D01*
X7793600Y1563880D01*
X7794560Y1560210D01*
X7795260Y1557320D01*
X7800780Y1538220D01*
X7804530Y1528810D01*
X7808920Y1519530D01*
X7813920Y1510410D01*
X7819520Y1501480D01*
X7825700Y1492770D01*
X7832430Y1484320D01*
X7839690Y1476150D01*
X7852930Y1463330D01*
X7859930Y1457350D01*
X7867050Y1451770D01*
X7874160Y1446660D01*
X7881150Y1442110D01*
X7887910Y1438200D01*
X7894330Y1435010D01*
X7900290Y1432620D01*
X7903190Y1431200D01*
X7905260Y1430030D01*
X7907650Y1428600D01*
X7910290Y1426950D01*
X7913130Y1425110D01*
X7916090Y1423120D01*
X7919120Y1421020D01*
X7922140Y1418850D01*
X7941480Y1405620D01*
X7950680Y1399770D01*
X7959640Y1394400D01*
X7968430Y1389450D01*
X7977090Y1384900D01*
X7985690Y1380720D01*
X7994290Y1376860D01*
X8002930Y1373300D01*
X8007830Y1371020D01*
X8010430Y1369580D01*
X8013100Y1367950D01*
X8015820Y1366160D01*
X8018570Y1364230D01*
X8021340Y1362160D01*
X8024090Y1359970D01*
X8026800Y1357690D01*
X8038490Y1347810D01*
X8043760Y1343690D01*
X8048820Y1339990D01*
X8053810Y1336620D01*
X8058880Y1333490D01*
X8064140Y1330510D01*
X8069750Y1327580D01*
X8075830Y1324630D01*
X8092110Y1317680D01*
X8099910Y1315010D01*
X8107660Y1312830D01*
X8115520Y1311110D01*
X8123610Y1309830D01*
X8132090Y1308950D01*
X8141090Y1308450D01*
X8150750Y1308290D01*
X8182580Y1310490D01*
X8197410Y1313420D01*
X8211690Y1317640D01*
X8225550Y1323200D01*
X8239100Y1330150D01*
X8252490Y1338540D01*
X8265840Y1348440D01*
X8279280Y1359890D01*
X8283630Y1363440D01*
X8285980Y1365160D01*
X8288410Y1366830D01*
X8290870Y1368400D01*
X8293330Y1369860D01*
X8295770Y1371180D01*
X8298130Y1372340D01*
X8300400Y1373300D01*
X8314870Y1379490D01*
X8322810Y1383340D01*
X8331040Y1387580D01*
X8339410Y1392140D01*
X8347760Y1396930D01*
X8355950Y1401870D01*
X8363840Y1406870D01*
X8371280Y1411870D01*
X8379630Y1417490D01*
X8384130Y1420390D01*
X8388700Y1423250D01*
X8393220Y1426020D01*
X8397600Y1428630D01*
X8401710Y1431010D01*
X8405460Y1433090D01*
X8408730Y1434820D01*
X8420970Y1441500D01*
X8426710Y1445030D01*
X8432250Y1448730D01*
X8437660Y1452650D01*
X8442970Y1456820D01*
X8448240Y1461280D01*
X8453520Y1466050D01*
X8458860Y1471190D01*
X8475610Y1489720D01*
X8482730Y1499310D01*
X8489090Y1509230D01*
X8494700Y1519530D01*
X8499630Y1530300D01*
X8503900Y1541610D01*
X8507560Y1553530D01*
X8510640Y1566140D01*
X8512320Y1573100D01*
X8513440Y1577310D01*
X8514710Y1581860D01*
X8516100Y1586630D01*
X8517580Y1591510D01*
X8519110Y1596380D01*
X8520670Y1601120D01*
X8522210Y1605620D01*
X8525260Y1614660D01*
X8526720Y1619200D01*
X8528100Y1623620D01*
X8529370Y1627830D01*
X8530500Y1631720D01*
X8531440Y1635190D01*
X8532180Y1638160D01*
X8532680Y1640520D01*
X8533990Y1645540D01*
X8534810Y1647910D01*
X8535760Y1650220D01*
X8536840Y1652480D01*
X8538080Y1654740D01*
X8539470Y1657000D01*
X8541040Y1659290D01*
X8542780Y1661640D01*
X8562120Y1692550D01*
X8569120Y1708610D01*
X8574320Y1725020D01*
X8577720Y1741710D01*
X8579300Y1758650D01*
X8579060Y1775780D01*
X8576990Y1793040D01*
X8573080Y1810400D01*
X8565000Y1832240D01*
X8559610Y1843230D01*
X8553500Y1853980D01*
X8546800Y1864290D01*
X8539660Y1873930D01*
X8532200Y1882690D01*
X8524560Y1890360D01*
X8516890Y1896720D01*
X8508780Y1903540D01*
X8505650Y1906920D01*
X8503110Y1910360D01*
X8501100Y1913930D01*
X8499600Y1917680D01*
X8498570Y1921690D01*
X8497980Y1926010D01*
X8497790Y1930700D01*
X8496790Y1947800D01*
X8495660Y1956560D01*
X8494130Y1965350D01*
X8492220Y1974070D01*
X8489940Y1982640D01*
X8487320Y1990960D01*
X8484360Y1998960D01*
X8481080Y2006550D01*
X8471120Y2025040D01*
X8465390Y2033560D01*
X8459090Y2041660D01*
X8452190Y2049400D01*
X8444630Y2056850D01*
X8436370Y2064060D01*
X8427360Y2071090D01*
X8417550Y2077990D01*
X8412220Y2081530D01*
X8409840Y2083160D01*
X8407720Y2084650D01*
X8405880Y2085970D01*
X8404380Y2087080D01*
X8403260Y2087940D01*
X8402550Y2088540D01*
X8402310Y2088820D01*
X8402800Y2089170D01*
X8403380Y2089410D01*
X8404150Y2089680D01*
X8405100Y2089990D01*
X8406200Y2090320D01*
X8407430Y2090670D01*
X8408770Y2091030D01*
X8410200Y2091390D01*
X8417530Y2094000D01*
X8420860Y2095660D01*
X8423940Y2097540D01*
X8426740Y2099620D01*
X8429230Y2101880D01*
X8431400Y2104310D01*
X8433200Y2106880D01*
X8434630Y2109580D01*
X8436340Y2113040D01*
X8437250Y2114410D01*
X8438250Y2115570D01*
X8439390Y2116590D01*
X8440690Y2117480D01*
X8442200Y2118300D01*
X8443960Y2119080D01*
X8446010Y2119860D01*
X8453500Y2122950D01*
X8456740Y2124820D01*
X8459670Y2126920D01*
X8462300Y2129260D01*
X8464660Y2131860D01*
X8466760Y2134730D01*
X8468610Y2137890D01*
X8470250Y2141350D01*
X8472250Y2145520D01*
X8473370Y2147420D01*
X8474570Y2149220D01*
X8475860Y2150900D01*
X8477230Y2152480D01*
X8478670Y2153950D01*
X8480200Y2155320D01*
X8481820Y2156590D01*
X8488690Y2162350D01*
X8491580Y2165300D01*
X8494100Y2168290D01*
X8496240Y2171300D01*
X8498000Y2174330D01*
X8499370Y2177370D01*
X8500340Y2180390D01*
X8500910Y2183410D01*
X8501610Y2187160D01*
X8502150Y2188880D01*
X8502830Y2190520D01*
X8503670Y2192130D01*
X8504690Y2193730D01*
X8505910Y2195360D01*
X8507340Y2197050D01*
X8508990Y2198830D01*
X8513620Y2204230D01*
X8515390Y2206820D01*
X8516830Y2209400D01*
X8517970Y2212020D01*
X8518810Y2214720D01*
X8519390Y2217560D01*
X8519720Y2220570D01*
X8519830Y2223810D01*
X8520080Y2227260D01*
X8520420Y2228950D01*
X8520920Y2230640D01*
X8521580Y2232370D01*
X8522410Y2234160D01*
X8523430Y2236040D01*
X8524650Y2238030D01*
X8526070Y2240160D01*
X8529990Y2246830D01*
X8531470Y2250160D01*
X8532620Y2253430D01*
X8533430Y2256610D01*
X8533890Y2259660D01*
X8533990Y2262560D01*
X8533710Y2265250D01*
X8533050Y2267700D01*
X8532470Y2269940D01*
X8532410Y2271020D01*
X8532520Y2272140D01*
X8532790Y2273300D01*
X8533250Y2274550D01*
X8533900Y2275910D01*
X8534740Y2277410D01*
X8535800Y2279090D01*
X8539340Y2285680D01*
X8540460Y2288970D01*
X8541150Y2292250D01*
X8541410Y2295540D01*
X8541240Y2298840D01*
X8540650Y2302160D01*
X8539630Y2305490D01*
X8538190Y2308840D01*
X8536410Y2312970D01*
X8535830Y2314640D01*
X8535440Y2316130D01*
X8535240Y2317510D01*
X8535220Y2318840D01*
X8535380Y2320190D01*
X8535690Y2321610D01*
X8536170Y2323170D01*
X8537680Y2329320D01*
X8538020Y2332520D01*
X8538090Y2335720D01*
X8537890Y2338880D01*
X8537430Y2341920D01*
X8536710Y2344790D01*
X8535740Y2347430D01*
X8534520Y2349800D01*
X8530940Y2354310D01*
X8528750Y2356190D01*
X8526270Y2357840D01*
X8523490Y2359240D01*
X8520380Y2360420D01*
X8516940Y2361380D01*
X8513150Y2362120D01*
X8508990Y2362650D01*
X8504590Y2363260D01*
X8502650Y2363660D01*
X8500870Y2364130D01*
X8499250Y2364690D01*
X8497770Y2365320D01*
X8496430Y2366050D01*
X8495210Y2366870D01*
X8494120Y2367800D01*
X8488510Y2372170D01*
X8485550Y2373890D01*
X8482410Y2375340D01*
X8479040Y2376540D01*
X8475390Y2377500D01*
X8471390Y2378240D01*
X8467010Y2378800D01*
X8462170Y2379180D01*
X8455620Y2379740D01*
X8452980Y2380090D01*
X8450700Y2380490D01*
X8448740Y2380970D01*
X8447060Y2381520D01*
X8445610Y2382170D01*
X8444360Y2382920D01*
X8443260Y2383780D01*
X8439210Y2386440D01*
X8436660Y2387540D01*
X8433880Y2388460D01*
X8430940Y2389180D01*
X8427940Y2389680D01*
X8424960Y2389940D01*
X8422080Y2389930D01*
X8419380Y2389650D01*
X8416730Y2389390D01*
X8415500Y2389430D01*
X8414310Y2389610D01*
X8413130Y2389910D01*
X8411940Y2390360D01*
X8410740Y2390950D01*
X8409490Y2391690D01*
X8408180Y2392590D01*
X8402580Y2395490D01*
X8399180Y2396530D01*
X8395490Y2397280D01*
X8391590Y2397740D01*
X8387560Y2397900D01*
X8383490Y2397740D01*
X8379440Y2397260D01*
X8375500Y2396450D01*
X8371160Y2395460D01*
X8369350Y2395250D01*
X8367650Y2395230D01*
X8365940Y2395420D01*
X8364140Y2395810D01*
X8362140Y2396410D01*
X8359840Y2397240D01*
X8357140Y2398280D01*
X8347410Y2402320D01*
X8335840Y2398100D01*
X8330260Y2396160D01*
X8327680Y2395460D01*
X8325150Y2394920D01*
X8322590Y2394520D01*
X8319940Y2394250D01*
X8317110Y2394090D01*
X8314050Y2394040D01*
X8310680Y2394060D01*
X8304130Y2394140D01*
X8301490Y2394030D01*
X8299130Y2393780D01*
X8296970Y2393380D01*
X8294900Y2392810D01*
X8292830Y2392040D01*
X8290660Y2391060D01*
X8288280Y2389840D01*
X8283960Y2387850D01*
X8281900Y2387090D01*
X8279840Y2386490D01*
X8277740Y2386010D01*
X8275560Y2385660D01*
X8273250Y2385420D01*
X8270770Y2385290D01*
X8268080Y2385240D01*
X8259980Y2384740D01*
X8256440Y2384070D01*
X8253150Y2383090D01*
X8250040Y2381760D01*
X8247040Y2380050D01*
X8244070Y2377940D01*
X8241070Y2375390D01*
X8237970Y2372390D01*
X8234410Y2368940D01*
X8232890Y2367710D01*
X8231450Y2366760D01*
X8230020Y2366050D01*
X8228540Y2365560D01*
X8226940Y2365250D01*
X8225150Y2365090D01*
X8223090Y2365040D01*
X8217230Y2364200D01*
X8214230Y2363100D01*
X8211120Y2361500D01*
X8207840Y2359360D01*
X8204350Y2356630D01*
X8200590Y2353300D01*
X8196510Y2349320D01*
X8192060Y2344660D01*
X8182190Y2333080D01*
X8177720Y2327010D01*
X8173530Y2320700D01*
X8169620Y2314130D01*
X8165950Y2307270D01*
X8162510Y2300080D01*
X8159290Y2292540D01*
X8156260Y2284600D01*
X8152030Y2273030D01*
X8147080Y2285700D01*
X8138300Y2305340D01*
X8133360Y2314560D01*
X8128110Y2323280D01*
X8122590Y2331450D01*
X8116840Y2339000D01*
X8110900Y2345880D01*
X8104800Y2352010D01*
X8098600Y2357330D01*
X8093760Y2360890D01*
X8091730Y2362190D01*
X8089870Y2363190D01*
X8088110Y2363940D01*
X8086370Y2364470D01*
X8084590Y2364810D01*
X8082690Y2364990D01*
X8080600Y2365040D01*
X8076590Y2365230D01*
X8074940Y2365520D01*
X8073430Y2365990D01*
X8071990Y2366680D01*
X8070540Y2367630D01*
X8069000Y2368870D01*
X8067300Y2370440D01*
X8065360Y2372390D01*
X8059260Y2377940D01*
X8056300Y2380050D01*
X8053310Y2381760D01*
X8050210Y2383090D01*
X8046950Y2384070D01*
X8043440Y2384740D01*
X8039630Y2385120D01*
X8035430Y2385240D01*
X8030210Y2385420D01*
X8027920Y2385670D01*
X8025770Y2386030D01*
X8023720Y2386520D01*
X8021710Y2387150D01*
X8019690Y2387940D01*
X8017610Y2388890D01*
X8015420Y2390020D01*
X8010890Y2392290D01*
X8008930Y2393050D01*
X8007020Y2393590D01*
X8005060Y2393930D01*
X8002930Y2394090D01*
X8000530D01*
X7997760Y2393950D01*
X7994490Y2393690D01*
X7988730Y2393310D01*
X7986310Y2393290D01*
X7984110Y2393400D01*
X7982080Y2393650D01*
X7980140Y2394030D01*
X7978230Y2394560D01*
X7976300Y2395240D01*
X7974290Y2396080D01*
X7966920Y2398930D01*
X7963760Y2399850D01*
X7960860Y2400430D01*
X7958150Y2400690D01*
X7955560Y2400640D01*
X7953020Y2400270D01*
X7950480Y2399610D01*
X7947850Y2398650D01*
G37*
G36*
G01X8890940Y2297280D02*
X8888200Y2292800D01*
X8887300Y2288040D01*
X8886660Y2280050D01*
X8886230Y2267670D01*
X8885970Y2249740D01*
X8885830Y2225100D01*
X8885780Y2192590D01*
Y2151040D01*
Y2009960D01*
X8893400Y2003570D01*
X8898780Y1999660D01*
X8901290Y1998450D01*
X8903770Y1997710D01*
X8906270Y1997440D01*
X8908850Y1997640D01*
X8911590Y1998280D01*
X8914530Y1999360D01*
X8917730Y2000870D01*
X8924950Y2005900D01*
X8927450Y2009330D01*
X8929340Y2013900D01*
X8930700Y2019970D01*
X8931610Y2027960D01*
X8932150Y2038240D01*
X8932410Y2051200D01*
X8932480Y2067230D01*
Y2115160D01*
X8960260D01*
X8977930Y2114580D01*
X8985030Y2113800D01*
X8991200Y2112620D01*
X8996620Y2111000D01*
X9001450Y2108890D01*
X9005850Y2106250D01*
X9010010Y2103030D01*
X9014090Y2099180D01*
X9017940Y2094990D01*
X9019330Y2092700D01*
X9020470Y2089840D01*
X9021450Y2086080D01*
X9022380Y2081080D01*
X9023320Y2074530D01*
X9024380Y2066090D01*
X9025640Y2055430D01*
X9028180Y2040270D01*
X9029910Y2033780D01*
X9031960Y2027980D01*
X9034350Y2022820D01*
X9037120Y2018250D01*
X9040260Y2014250D01*
X9043800Y2010760D01*
X9047770Y2007750D01*
X9054720Y2004150D01*
X9058230Y2003080D01*
X9061760Y2002510D01*
X9065300Y2002420D01*
X9068850Y2002830D01*
X9072400Y2003740D01*
X9075950Y2005130D01*
X9079480Y2007010D01*
X9087390Y2014230D01*
X9089780Y2018520D01*
X9091120Y2023110D01*
X9091410Y2027880D01*
X9090640Y2032700D01*
X9088810Y2037470D01*
X9085910Y2042050D01*
X9081940Y2046340D01*
X9078310Y2050130D01*
X9077000Y2052080D01*
X9075960Y2054310D01*
X9075110Y2057000D01*
X9074420Y2060340D01*
X9073800Y2064510D01*
X9073220Y2069690D01*
X9072600Y2076080D01*
X9070880Y2091340D01*
X9069740Y2097570D01*
X9068310Y2103150D01*
X9066520Y2108280D01*
X9064310Y2113160D01*
X9061600Y2118010D01*
X9058320Y2123030D01*
X9054400Y2128430D01*
X9045060Y2140230D01*
X9053910Y2149320D01*
X9057330Y2153340D01*
X9059180Y2155820D01*
X9061080Y2158510D01*
X9062960Y2161360D01*
X9064780Y2164280D01*
X9066500Y2167230D01*
X9068050Y2170130D01*
X9069400Y2172910D01*
X9074310Y2187790D01*
X9075770Y2196050D01*
X9076570Y2204630D01*
X9076690Y2213350D01*
X9076140Y2222030D01*
X9074900Y2230510D01*
X9072990Y2238610D01*
X9070380Y2246160D01*
X9063880Y2258440D01*
X9059400Y2264730D01*
X9054310Y2270900D01*
X9048750Y2276810D01*
X9042850Y2282310D01*
X9036780Y2287250D01*
X9030660Y2291470D01*
X9024660Y2294820D01*
X9017460Y2297850D01*
X9013580Y2298890D01*
X9008840Y2299670D01*
X9002710Y2300250D01*
X8994690Y2300670D01*
X8984260Y2300970D01*
X8970900Y2301220D01*
X8954110Y2301460D01*
X8924100Y2301790D01*
X8913920D01*
X8906320Y2301640D01*
X8900850Y2301290D01*
X8897050Y2300710D01*
X8894430Y2299870D01*
X8892550Y2298740D01*
X8890940Y2297280D01*
G37*
G36*
G01X9562260Y2214210D02*
X9554190Y2208830D01*
X9551540Y2203960D01*
X9549630Y2196000D01*
X9548360Y2183740D01*
X9547580Y2165960D01*
X9547190Y2141430D01*
X9547040Y2108920D01*
X9547020Y2067230D01*
X9547180Y1993100D01*
X9547570Y1968530D01*
X9548340Y1950690D01*
X9549590Y1938350D01*
X9551460Y1930300D01*
X9554070Y1925330D01*
X9557550Y1922220D01*
X9562010Y1919760D01*
X9567580Y1917250D01*
X9570100Y1916580D01*
X9572520Y1916310D01*
X9574920Y1916430D01*
X9577360Y1916960D01*
X9579920Y1917890D01*
X9582640Y1919230D01*
X9585610Y1920990D01*
X9591770Y1926380D01*
X9594000Y1930120D01*
X9595720Y1934830D01*
X9596970Y1940710D01*
X9597790Y1947990D01*
X9598240Y1956860D01*
X9598340Y1967530D01*
X9598150Y1980220D01*
X9597890Y1992070D01*
X9597800Y1997380D01*
X9597740Y2002160D01*
X9597700Y2006290D01*
X9597680Y2009680D01*
X9597660Y2012230D01*
Y2013830D01*
Y2014390D01*
X9598710Y2013970D01*
X9599840Y2013480D01*
X9601320Y2012830D01*
X9603100Y2012030D01*
X9605140Y2011110D01*
X9607400Y2010070D01*
X9609840Y2008950D01*
X9612410Y2007750D01*
X9620100Y2004400D01*
X9623560Y2003230D01*
X9627080Y2002350D01*
X9630900Y2001710D01*
X9635260Y2001290D01*
X9640390Y2001030D01*
X9646540Y2000900D01*
X9653950Y2000870D01*
X9667870Y2001010D01*
X9673050Y2001270D01*
X9677440Y2001720D01*
X9681320Y2002420D01*
X9684990Y2003420D01*
X9688760Y2004770D01*
X9692890Y2006520D01*
X9697700Y2008730D01*
X9734780Y2037620D01*
X9747240Y2056590D01*
X9755470Y2077520D01*
X9759340Y2099650D01*
X9758700Y2122190D01*
X9753430Y2144360D01*
X9743380Y2165380D01*
X9728430Y2184470D01*
X9718340Y2193440D01*
X9712660Y2197660D01*
X9706730Y2201600D01*
X9700650Y2205210D01*
X9694550Y2208390D01*
X9688540Y2211080D01*
X9682750Y2213210D01*
X9677300Y2214700D01*
X9662130Y2216590D01*
X9654070Y2216650D01*
X9645860Y2216140D01*
X9637650Y2215080D01*
X9629580Y2213480D01*
X9621770Y2211350D01*
X9614360Y2208720D01*
X9607490Y2205600D01*
X9597900Y2200690D01*
X9592740Y2207320D01*
X9587250Y2212200D01*
X9583960Y2213970D01*
X9580430Y2215270D01*
X9576750Y2216090D01*
X9573000Y2216410D01*
X9569280Y2216210D01*
X9565670Y2215480D01*
X9562260Y2214210D01*
G37*
G36*
G01X9413050Y2215680D02*
X9395470Y2211410D01*
X9387180Y2207920D01*
X9379370Y2203610D01*
X9372160Y2198570D01*
X9365670Y2192890D01*
X9360000Y2186620D01*
X9355270Y2179860D01*
X9351600Y2172670D01*
X9349080Y2163850D01*
X9348390Y2158930D01*
X9348080Y2153850D01*
X9348140Y2148730D01*
X9348570Y2143720D01*
X9349380Y2138950D01*
X9350550Y2134540D01*
X9352090Y2130640D01*
X9356660Y2123140D01*
X9359680Y2119290D01*
X9363080Y2115480D01*
X9366790Y2111800D01*
X9370710Y2108320D01*
X9374790Y2105130D01*
X9378930Y2102300D01*
X9383060Y2099920D01*
X9388140Y2097890D01*
X9391740Y2096630D01*
X9395890Y2095260D01*
X9400500Y2093810D01*
X9405440Y2092310D01*
X9410600Y2090800D01*
X9415880Y2089310D01*
X9421160Y2087870D01*
X9438290Y2083200D01*
X9444940Y2080980D01*
X9450420Y2078800D01*
X9454810Y2076610D01*
X9458180Y2074370D01*
X9460610Y2072040D01*
X9462170Y2069590D01*
X9462950Y2066980D01*
X9461970Y2062020D01*
X9460340Y2059570D01*
X9458020Y2057210D01*
X9455070Y2054980D01*
X9451550Y2052930D01*
X9447520Y2051100D01*
X9443020Y2049540D01*
X9438120Y2048300D01*
X9427060Y2047030D01*
X9421510Y2047290D01*
X9415880Y2048180D01*
X9410120Y2049690D01*
X9404180Y2051850D01*
X9398010Y2054670D01*
X9391560Y2058150D01*
X9384780Y2062310D01*
X9375370Y2067660D01*
X9371260Y2069310D01*
X9367480Y2070300D01*
X9363980Y2070630D01*
X9360690Y2070310D01*
X9357570Y2069340D01*
X9354550Y2067740D01*
X9351600Y2065510D01*
X9344500Y2056350D01*
X9342860Y2051500D01*
X9342470Y2046540D01*
X9343330Y2041520D01*
X9345420Y2036510D01*
X9348740Y2031550D01*
X9353250Y2026690D01*
X9358970Y2022010D01*
X9387540Y2006630D01*
X9402510Y2002040D01*
X9417620Y1999530D01*
X9432640Y1999100D01*
X9447350Y2000760D01*
X9461520Y2004510D01*
X9474910Y2010360D01*
X9487290Y2018320D01*
X9494070Y2024970D01*
X9497460Y2029330D01*
X9500730Y2034160D01*
X9503760Y2039270D01*
X9506440Y2044500D01*
X9508680Y2049660D01*
X9510360Y2054600D01*
X9511380Y2059120D01*
X9511640Y2068450D01*
X9510930Y2073650D01*
X9509720Y2079000D01*
X9508070Y2084380D01*
X9506000Y2089650D01*
X9503580Y2094660D01*
X9500850Y2099280D01*
X9497860Y2103360D01*
X9489070Y2111270D01*
X9483140Y2115170D01*
X9476340Y2118990D01*
X9468740Y2122650D01*
X9460460Y2126120D01*
X9451580Y2129330D01*
X9442220Y2132250D01*
X9432470Y2134820D01*
X9417300Y2138980D01*
X9411150Y2141100D01*
X9405960Y2143240D01*
X9401760Y2145390D01*
X9398560Y2147540D01*
X9396380Y2149700D01*
X9395220Y2151850D01*
X9395110Y2153990D01*
X9398230Y2158290D01*
X9401310Y2160560D01*
X9405110Y2162770D01*
X9409410Y2164810D01*
X9413970Y2166590D01*
X9418580Y2167980D01*
X9423020Y2168900D01*
X9427060Y2169230D01*
X9431590Y2168720D01*
X9434270Y2168100D01*
X9437210Y2167230D01*
X9440380Y2166130D01*
X9443780Y2164790D01*
X9447370Y2163210D01*
X9451150Y2161420D01*
X9455080Y2159400D01*
X9462180Y2155970D01*
X9465650Y2154440D01*
X9468960Y2153070D01*
X9472050Y2151880D01*
X9474840Y2150910D01*
X9477250Y2150180D01*
X9479210Y2149720D01*
X9480650Y2149570D01*
X9490140Y2152120D01*
X9494090Y2155020D01*
X9497360Y2158750D01*
X9499860Y2163130D01*
X9501460Y2167950D01*
X9502060Y2173040D01*
X9501550Y2178200D01*
X9499820Y2183240D01*
X9491930Y2192620D01*
X9485730Y2197360D01*
X9478430Y2201910D01*
X9470360Y2206120D01*
X9461800Y2209840D01*
X9453090Y2212900D01*
X9444520Y2215140D01*
X9436400Y2216420D01*
X9431770Y2216640D01*
X9429150Y2216660D01*
X9426400Y2216640D01*
X9423600Y2216550D01*
X9420800Y2216420D01*
X9418060Y2216230D01*
X9415460Y2215980D01*
X9413050Y2215680D01*
G37*
G36*
G01X9185670Y2215430D02*
X9165310Y2209690D01*
X9155620Y2204970D01*
X9146370Y2199100D01*
X9137670Y2192180D01*
X9129610Y2184280D01*
X9122280Y2175480D01*
X9115780Y2165850D01*
X9110210Y2155460D01*
X9105750Y2145620D01*
X9104150Y2141460D01*
X9102910Y2137530D01*
X9101960Y2133610D01*
X9101260Y2129480D01*
X9100760Y2124930D01*
X9100400Y2119730D01*
X9100130Y2113680D01*
X9100610Y2091990D01*
X9102010Y2082170D01*
X9104230Y2072890D01*
X9107300Y2064060D01*
X9111270Y2055570D01*
X9116170Y2047310D01*
X9122030Y2039190D01*
X9128890Y2031100D01*
X9151000Y2013180D01*
X9163650Y2006830D01*
X9177010Y2002290D01*
X9190850Y1999610D01*
X9204910Y1998840D01*
X9218940Y2000030D01*
X9232680Y2003230D01*
X9245900Y2008490D01*
X9258920Y2014880D01*
X9266050Y2007010D01*
X9273070Y2001270D01*
X9276840Y1999630D01*
X9280700Y1998800D01*
X9284590Y1998780D01*
X9288450Y1999570D01*
X9292220Y2001160D01*
X9295830Y2003560D01*
X9299240Y2006770D01*
X9306120Y2014390D01*
Y2107540D01*
Y2200690D01*
X9299970Y2208060D01*
X9297430Y2210640D01*
X9296030Y2211870D01*
X9294590Y2213000D01*
X9293130Y2214020D01*
X9291710Y2214910D01*
X9290340Y2215620D01*
X9289070Y2216130D01*
X9287930Y2216420D01*
X9282090Y2216570D01*
X9278980Y2215950D01*
X9275860Y2214940D01*
X9272810Y2213570D01*
X9269920Y2211880D01*
X9267280Y2209920D01*
X9264980Y2207740D01*
X9263100Y2205360D01*
X9259170Y2199210D01*
X9248850Y2204870D01*
X9236260Y2210530D01*
X9229460Y2212690D01*
X9222420Y2214370D01*
X9215190Y2215580D01*
X9207840Y2216300D01*
X9200430Y2216520D01*
X9193020Y2216240D01*
X9185670Y2215430D01*
G37*
G36*
G01X10432200Y2210760D02*
X10430190Y2208640D01*
X10429180Y2207400D01*
X10428190Y2206070D01*
X10427250Y2204700D01*
X10426370Y2203320D01*
X10425580Y2201960D01*
X10424900Y2200660D01*
X10424340Y2199460D01*
X10423560Y2192030D01*
X10423220Y2184740D01*
X10422910Y2175410D01*
X10422640Y2164300D01*
X10422420Y2151670D01*
X10422260Y2137780D01*
X10422160Y2122900D01*
X10422120Y2107290D01*
X10422370Y2056550D01*
X10422840Y2039280D01*
X10423680Y2026400D01*
X10425000Y2017130D01*
X10426890Y2010710D01*
X10429480Y2006370D01*
X10432850Y2003340D01*
X10437120Y2000870D01*
X10442030Y1998450D01*
X10444050Y1997750D01*
X10445950Y1997410D01*
X10447840D01*
X10449850Y1997750D01*
X10452090Y1998450D01*
X10454690Y1999480D01*
X10457770Y2000870D01*
X10464430Y2005240D01*
X10466730Y2008310D01*
X10468460Y2012430D01*
X10469690Y2017970D01*
X10470510Y2025300D01*
X10471000Y2034770D01*
X10471230Y2046740D01*
X10471290Y2061580D01*
Y2105820D01*
X10478910Y2122040D01*
X10489080Y2139360D01*
X10494900Y2146780D01*
X10501100Y2153270D01*
X10507590Y2158750D01*
X10514290Y2163160D01*
X10521090Y2166430D01*
X10527930Y2168480D01*
X10534710Y2169230D01*
X10546430Y2172820D01*
X10550930Y2176790D01*
X10554360Y2181770D01*
X10556590Y2187410D01*
X10557490Y2193370D01*
X10556930Y2199310D01*
X10554780Y2204900D01*
X10550930Y2209780D01*
X10540410Y2214940D01*
X10533500Y2215920D01*
X10525790Y2215860D01*
X10517510Y2214820D01*
X10508870Y2212820D01*
X10500100Y2209900D01*
X10491430Y2206090D01*
X10483080Y2201420D01*
X10477930Y2198240D01*
X10475980Y2197190D01*
X10474420Y2196490D01*
X10473210Y2196120D01*
X10472320Y2196070D01*
X10471730Y2196330D01*
X10471390Y2196890D01*
X10471290Y2197740D01*
X10470840Y2199570D01*
X10470310Y2200710D01*
X10469610Y2201970D01*
X10468750Y2203300D01*
X10467750Y2204670D01*
X10466640Y2206070D01*
X10465440Y2207460D01*
X10464160Y2208800D01*
X10457450Y2213520D01*
X10453740Y2214990D01*
X10449920Y2215850D01*
X10446070Y2216090D01*
X10442290Y2215720D01*
X10438660Y2214710D01*
X10435260Y2213060D01*
X10432200Y2210760D01*
G37*
G36*
G01X10275620Y2211500D02*
X10269990Y2205690D01*
X10268110Y2201430D01*
X10266760Y2195240D01*
X10265830Y2186310D01*
X10265260Y2173890D01*
X10264950Y2157180D01*
X10264820Y2135400D01*
X10264800Y2107780D01*
X10264990Y2055820D01*
X10265410Y2038390D01*
X10266200Y2025550D01*
X10267470Y2016460D01*
X10269350Y2010290D01*
X10271950Y2006190D01*
X10275400Y2003330D01*
X10279800Y2000870D01*
X10286390Y1998520D01*
X10289680Y1998160D01*
X10292940Y1998360D01*
X10296130Y1999090D01*
X10299240Y2000380D01*
X10302240Y2002210D01*
X10305110Y2004580D01*
X10307820Y2007500D01*
X10311070Y2011840D01*
X10312140Y2014320D01*
X10312910Y2017580D01*
X10313420Y2022050D01*
X10313740Y2028130D01*
X10313900Y2036260D01*
X10313960Y2046860D01*
Y2060350D01*
Y2106060D01*
X10322320Y2123510D01*
X10332400Y2140450D01*
X10338130Y2147650D01*
X10344210Y2153920D01*
X10350580Y2159210D01*
X10357150Y2163440D01*
X10363860Y2166560D01*
X10370630Y2168510D01*
X10377380Y2169230D01*
X10381220Y2169540D01*
X10382980Y2169950D01*
X10384670Y2170540D01*
X10386310Y2171340D01*
X10387930Y2172360D01*
X10389540Y2173610D01*
X10391180Y2175100D01*
X10392870Y2176850D01*
X10397880Y2184060D01*
X10399330Y2187840D01*
X10400100Y2191670D01*
X10400160Y2195500D01*
X10399520Y2199280D01*
X10398170Y2202950D01*
X10396120Y2206470D01*
X10393360Y2209780D01*
X10389610Y2213190D01*
X10387870Y2214310D01*
X10386010Y2215090D01*
X10383850Y2215590D01*
X10381240Y2215830D01*
X10378000Y2215850D01*
X10373990Y2215710D01*
X10369030Y2215430D01*
X10356700Y2213600D01*
X10350270Y2212020D01*
X10343880Y2210070D01*
X10337700Y2207820D01*
X10331900Y2205330D01*
X10326630Y2202650D01*
X10322080Y2199860D01*
X10318390Y2197000D01*
X10316140Y2195090D01*
X10315380Y2194550D01*
X10314820Y2194290D01*
X10314430Y2194310D01*
X10314180Y2194620D01*
X10314040Y2195200D01*
X10313980Y2196080D01*
X10313960Y2197250D01*
X10313520Y2199240D01*
X10312990Y2200460D01*
X10312290Y2201780D01*
X10311430Y2203170D01*
X10310430Y2204600D01*
X10309320Y2206040D01*
X10308120Y2207450D01*
X10306840Y2208800D01*
X10300390Y2213300D01*
X10296770Y2214740D01*
X10293030Y2215630D01*
X10289240Y2215960D01*
X10285510Y2215720D01*
X10281940Y2214900D01*
X10278610Y2213500D01*
X10275620Y2211500D01*
G37*
G36*
G01X10117800Y2215430D02*
X10096760Y2209550D01*
X10086700Y2204650D01*
X10077090Y2198540D01*
X10068020Y2191320D01*
X10059590Y2183050D01*
X10051900Y2173810D01*
X10045050Y2163690D01*
X10039140Y2152760D01*
X10034520Y2142510D01*
X10032960Y2138420D01*
X10031810Y2134590D01*
X10031010Y2130690D01*
X10030490Y2126380D01*
X10030200Y2121350D01*
X10030080Y2115260D01*
X10030050Y2107780D01*
X10030200Y2094330D01*
X10030480Y2089320D01*
X10030990Y2085050D01*
X10031770Y2081180D01*
X10032890Y2077410D01*
X10034410Y2073430D01*
X10036390Y2068910D01*
X10038900Y2063540D01*
X10054550Y2037970D01*
X10063680Y2027630D01*
X10073690Y2018910D01*
X10084590Y2011800D01*
X10096380Y2006300D01*
X10109080Y2002410D01*
X10122690Y2000100D01*
X10137220Y1999390D01*
X10156760Y2000650D01*
X10165760Y2002240D01*
X10174290Y2004500D01*
X10182400Y2007430D01*
X10190140Y2011050D01*
X10197530Y2015370D01*
X10204620Y2020410D01*
X10211460Y2026180D01*
X10215920Y2032260D01*
X10217310Y2035760D01*
X10218120Y2039420D01*
X10218350Y2043120D01*
X10217980Y2046760D01*
X10217000Y2050220D01*
X10215400Y2053390D01*
X10213180Y2056170D01*
X10207440Y2059670D01*
X10203850Y2060600D01*
X10199900Y2061000D01*
X10195680Y2060850D01*
X10191290Y2060170D01*
X10186830Y2058960D01*
X10182370Y2057220D01*
X10178030Y2054940D01*
X10173530Y2052740D01*
X10170940Y2051620D01*
X10168230Y2050520D01*
X10165450Y2049480D01*
X10162660Y2048510D01*
X10159930Y2047650D01*
X10157330Y2046920D01*
X10154920Y2046340D01*
X10134250Y2045420D01*
X10124130Y2047390D01*
X10114480Y2050820D01*
X10105540Y2055570D01*
X10097550Y2061500D01*
X10090740Y2068500D01*
X10085370Y2076440D01*
X10081670Y2085170D01*
X10080190Y2090580D01*
X10150990D01*
X10186630Y2090660D01*
X10199020Y2090810D01*
X10208470Y2091090D01*
X10215500Y2091520D01*
X10220620Y2092140D01*
X10224340Y2092990D01*
X10227180Y2094090D01*
X10229650Y2095490D01*
X10235460Y2100570D01*
X10237450Y2103770D01*
X10238830Y2107460D01*
X10239610Y2111680D01*
X10239790Y2116470D01*
X10239380Y2121850D01*
X10238370Y2127880D01*
X10236780Y2134570D01*
X10232570Y2148570D01*
X10230190Y2154750D01*
X10227560Y2160500D01*
X10224650Y2165890D01*
X10221410Y2171000D01*
X10217790Y2175910D01*
X10213750Y2180700D01*
X10209250Y2185450D01*
X10191970Y2199840D01*
X10182590Y2205400D01*
X10172750Y2209870D01*
X10162490Y2213230D01*
X10151830Y2215470D01*
X10140810Y2216590D01*
X10129460Y2216580D01*
X10117800Y2215430D01*
G37*
G36*
G01X9797510Y2294820D02*
X9790380Y2287690D01*
Y2152020D01*
X9790470Y2073080D01*
X9790820Y2047500D01*
X9791580Y2029330D01*
X9792900Y2017170D01*
X9794930Y2009620D01*
X9797830Y2005270D01*
X9801750Y2002740D01*
X9806850Y2000620D01*
X9813220Y1998880D01*
X9816360Y1998790D01*
X9819460Y1999210D01*
X9822490Y2000130D01*
X9825440Y2001550D01*
X9828290Y2003460D01*
X9831030Y2005860D01*
X9833640Y2008730D01*
X9839050Y2015120D01*
X9852570Y2008490D01*
X9888100Y1999100D01*
X9906000Y1999330D01*
X9923490Y2002640D01*
X9940190Y2008910D01*
X9955720Y2017970D01*
X9969690Y2029700D01*
X9981730Y2043960D01*
X9991450Y2060590D01*
X10000250Y2088810D01*
X10001710Y2103450D01*
X10001260Y2118130D01*
X9998950Y2132620D01*
X9994800Y2146690D01*
X9988870Y2160090D01*
X9981190Y2172600D01*
X9971790Y2183970D01*
X9957180Y2196820D01*
X9949380Y2202050D01*
X9941270Y2206490D01*
X9932850Y2210110D01*
X9924140Y2212920D01*
X9915140Y2214910D01*
X9905860Y2216080D01*
X9896320Y2216420D01*
X9883730Y2215240D01*
X9876640Y2214030D01*
X9869500Y2212520D01*
X9862670Y2210810D01*
X9856520Y2208970D01*
X9851400Y2207100D01*
X9847660Y2205300D01*
X9845690Y2203640D01*
X9843030Y2201150D01*
X9842020Y2202020D01*
X9841200Y2204440D01*
X9840560Y2208550D01*
X9840100Y2214430D01*
X9839780Y2222220D01*
X9839600Y2232020D01*
X9839540Y2243940D01*
X9839470Y2266600D01*
X9839300Y2274270D01*
X9838980Y2280030D01*
X9838440Y2284280D01*
X9837650Y2287440D01*
X9836530Y2289900D01*
X9835050Y2292060D01*
X9833150Y2294330D01*
X9829840Y2297870D01*
X9828300Y2299150D01*
X9826720Y2300140D01*
X9825040Y2300880D01*
X9823170Y2301390D01*
X9821040Y2301720D01*
X9818580Y2301900D01*
X9815700Y2301950D01*
X9810510Y2301700D01*
X9808360Y2301360D01*
X9806410Y2300840D01*
X9804610Y2300120D01*
X9802880Y2299180D01*
X9801160Y2298000D01*
X9799390Y2296550D01*
X9797510Y2294820D01*
G37*
G36*
G01X11139410Y2209780D02*
X11137150Y2207140D01*
X11136060Y2205610D01*
X11135040Y2204000D01*
X11134100Y2202340D01*
X11133260Y2200680D01*
X11132540Y2199040D01*
X11131960Y2197480D01*
X11131550Y2196020D01*
X11131060Y2188020D01*
X11130840Y2180620D01*
X11130630Y2171300D01*
X11130440Y2160320D01*
X11130290Y2147920D01*
X11130170Y2134370D01*
X11130100Y2119920D01*
X11130070Y2104830D01*
X11130170Y2065410D01*
X11130330Y2051030D01*
X11130580Y2039640D01*
X11130950Y2030830D01*
X11131460Y2024200D01*
X11132120Y2019320D01*
X11132960Y2015780D01*
X11134000Y2013160D01*
X11140200Y2004840D01*
X11144250Y2001980D01*
X11148720Y2000020D01*
X11153440Y1999000D01*
X11158260Y1998940D01*
X11163000Y1999870D01*
X11167510Y2001810D01*
X11171610Y2004800D01*
X11174350Y2008570D01*
X11175250Y2012150D01*
X11175890Y2017900D01*
X11176320Y2026640D01*
X11176590Y2039160D01*
X11176720Y2056240D01*
X11176770Y2078680D01*
X11176780Y2107290D01*
X11176640Y2141380D01*
X11176490Y2156770D01*
X11176280Y2170670D01*
X11176030Y2182780D01*
X11175760Y2192820D01*
X11175450Y2200490D01*
X11175140Y2205510D01*
X11174810Y2207570D01*
X11168690Y2212830D01*
X11164650Y2214480D01*
X11160230Y2215450D01*
X11155630Y2215740D01*
X11151050Y2215330D01*
X11146680Y2214200D01*
X11142740Y2212360D01*
X11139410Y2209780D01*
G37*
G36*
G01X10587800Y2214450D02*
X10580750Y2210000D01*
X10578420Y2206700D01*
X10576770Y2201890D01*
X10575680Y2194940D01*
X10575060Y2185250D01*
X10574810Y2172200D01*
X10574830Y2155180D01*
X10575020Y2133590D01*
X10575480Y2098570D01*
X10575780Y2086660D01*
X10576190Y2077640D01*
X10576790Y2070880D01*
X10577620Y2065740D01*
X10578760Y2061580D01*
X10580250Y2057790D01*
X10582150Y2053710D01*
X10594360Y2034030D01*
X10601790Y2025720D01*
X10610020Y2018480D01*
X10618990Y2012360D01*
X10628640Y2007390D01*
X10638900Y2003630D01*
X10649730Y2001120D01*
X10661060Y1999880D01*
X10669250Y1999780D01*
X10673000Y1999890D01*
X10676540Y2000120D01*
X10679880Y2000470D01*
X10683030Y2000940D01*
X10686020Y2001530D01*
X10688850Y2002240D01*
X10691540Y2003080D01*
X10695640Y2004400D01*
X10697520Y2004940D01*
X10699230Y2005380D01*
X10700750Y2005730D01*
X10702020Y2005970D01*
X10703030Y2006110D01*
X10703720Y2006130D01*
X10704070Y2006030D01*
X10702880Y2002130D01*
X10700540Y1998880D01*
X10697380Y1995140D01*
X10693640Y1991150D01*
X10689580Y1987200D01*
X10685450Y1983560D01*
X10681520Y1980490D01*
X10678020Y1978260D01*
X10668290Y1974580D01*
X10662840Y1973440D01*
X10657160Y1972760D01*
X10651360Y1972560D01*
X10645590Y1972830D01*
X10639950Y1973580D01*
X10634580Y1974810D01*
X10629590Y1976540D01*
X10617990Y1979080D01*
X10612550Y1978680D01*
X10607550Y1977280D01*
X10603130Y1974950D01*
X10599440Y1971770D01*
X10596620Y1967800D01*
X10594820Y1963140D01*
X10594190Y1957860D01*
X10595270Y1950100D01*
X10596650Y1946640D01*
X10598610Y1943450D01*
X10601170Y1940500D01*
X10604350Y1937780D01*
X10608170Y1935270D01*
X10612640Y1932950D01*
X10617790Y1930820D01*
X10630890Y1926810D01*
X10637330Y1925490D01*
X10643700Y1924610D01*
X10650010Y1924180D01*
X10656270Y1924190D01*
X10662480Y1924650D01*
X10668670Y1925550D01*
X10674820Y1926890D01*
X10695830Y1934140D01*
X10705170Y1938920D01*
X10713760Y1944500D01*
X10721620Y1950890D01*
X10728790Y1958110D01*
X10735290Y1966170D01*
X10741130Y1975090D01*
X10746350Y1984890D01*
X10755200Y2003330D01*
X10755940Y2101150D01*
X10756210Y2158700D01*
X10755960Y2177570D01*
X10755270Y2191160D01*
X10753990Y2200480D01*
X10751990Y2206520D01*
X10749120Y2210280D01*
X10745240Y2212760D01*
X10740210Y2214940D01*
X10736050Y2216470D01*
X10734310Y2216920D01*
X10732690Y2217150D01*
X10731130Y2217170D01*
X10729560Y2216980D01*
X10727890Y2216590D01*
X10726050Y2215990D01*
X10723980Y2215190D01*
X10716850Y2210980D01*
X10714420Y2207750D01*
X10712610Y2203080D01*
X10711320Y2196440D01*
X10710440Y2187320D01*
X10709860Y2175170D01*
X10709500Y2159480D01*
X10709240Y2139730D01*
X10708750Y2108600D01*
X10708450Y2097910D01*
X10708050Y2089790D01*
X10707490Y2083700D01*
X10706740Y2079140D01*
X10705750Y2075590D01*
X10704460Y2072530D01*
X10702840Y2069440D01*
X10691990Y2057120D01*
X10685150Y2052850D01*
X10677640Y2049890D01*
X10669700Y2048290D01*
X10661550Y2048100D01*
X10653390Y2049360D01*
X10645450Y2052120D01*
X10637950Y2056410D01*
X10630130Y2063300D01*
X10627440Y2067490D01*
X10625410Y2072980D01*
X10623930Y2080330D01*
X10622890Y2090150D01*
X10622170Y2103010D01*
X10621650Y2119510D01*
X10621230Y2140230D01*
X10620000Y2203640D01*
X10613860Y2209540D01*
X10608380Y2213840D01*
X10605570Y2215290D01*
X10602730Y2216280D01*
X10599840Y2216810D01*
X10596910Y2216890D01*
X10593920Y2216520D01*
X10590890Y2215710D01*
X10587800Y2214450D01*
G37*
G36*
G01X10925800Y2299000D02*
X10920820Y2293100D01*
X10919160Y2287790D01*
X10917960Y2279370D01*
X10917130Y2266660D01*
X10916620Y2248510D01*
X10916350Y2223760D01*
X10916230Y2191250D01*
X10916210Y2149810D01*
Y2014390D01*
X10923340Y2006520D01*
X10926930Y2002820D01*
X10928580Y2001470D01*
X10930210Y2000410D01*
X10931920Y1999610D01*
X10933760Y1999040D01*
X10935800Y1998670D01*
X10938120Y1998470D01*
X10940790Y1998410D01*
X10945790Y1998670D01*
X10947830Y1999040D01*
X10949670Y1999610D01*
X10951370Y2000410D01*
X10953010Y2001470D01*
X10954660Y2002820D01*
X10956380Y2004500D01*
X10958250Y2006520D01*
X10965380Y2014390D01*
Y2064770D01*
Y2115160D01*
X10992170D01*
X11002190Y2115320D01*
X11007290Y2115520D01*
X11012290Y2115780D01*
X11017080Y2116080D01*
X11021540Y2116430D01*
X11025550Y2116810D01*
X11028990Y2117210D01*
X11031750Y2117610D01*
X11057370Y2125860D01*
X11068640Y2132130D01*
X11078810Y2139750D01*
X11087800Y2148630D01*
X11095550Y2158720D01*
X11101980Y2169950D01*
X11107040Y2182240D01*
X11110650Y2195530D01*
X11111400Y2220860D01*
X11108730Y2233590D01*
X11104220Y2245990D01*
X11098000Y2257820D01*
X11090200Y2268800D01*
X11080980Y2278690D01*
X11070460Y2287200D01*
X11058780Y2294080D01*
X11050940Y2297610D01*
X11047020Y2298780D01*
X11042350Y2299650D01*
X11036340Y2300260D01*
X11028430Y2300690D01*
X11018040Y2300990D01*
X11004580Y2301230D01*
X10987500Y2301460D01*
X10962500Y2301500D01*
X10952820Y2301420D01*
X10944840Y2301260D01*
X10938420Y2301020D01*
X10933440Y2300670D01*
X10929760Y2300230D01*
X10927260Y2299670D01*
X10925800Y2299000D01*
G37*
G36*
G01X11141620Y2299250D02*
X11138080Y2295890D01*
X11136340Y2293360D01*
X11134680Y2290450D01*
X11133190Y2287280D01*
X11131920Y2283990D01*
X11130930Y2280700D01*
X11130300Y2277550D01*
X11130070Y2274670D01*
X11132360Y2264260D01*
X11134970Y2259470D01*
X11138330Y2255170D01*
X11142280Y2251510D01*
X11146640Y2248650D01*
X11151250Y2246740D01*
X11155950Y2245940D01*
X11160550Y2246400D01*
X11167660Y2249110D01*
X11170330Y2251010D01*
X11172480Y2253380D01*
X11174140Y2256290D01*
X11175360Y2259820D01*
X11176170Y2264050D01*
X11176630Y2269060D01*
X11176780Y2274910D01*
X11176610Y2282900D01*
X11176380Y2286000D01*
X11176020Y2288610D01*
X11175530Y2290800D01*
X11174880Y2292660D01*
X11174070Y2294270D01*
X11173060Y2295700D01*
X11171860Y2297030D01*
X11166740Y2300000D01*
X11163310Y2300990D01*
X11159530Y2301640D01*
X11155590Y2301920D01*
X11151650Y2301840D01*
X11147890Y2301370D01*
X11144490Y2300510D01*
X11141620Y2299250D01*
G37*
%LPC*%
G75*
G36*
G01X8187470Y1455940D02*
X8214600Y1451370D01*
X8226730Y1448310D01*
X8237690Y1444820D01*
X8247360Y1440950D01*
X8255570Y1436760D01*
X8262200Y1432320D01*
X8267090Y1427670D01*
X8270100Y1422890D01*
X8267550Y1405160D01*
X8260640Y1394940D01*
X8250740Y1384440D01*
X8238430Y1374160D01*
X8224290Y1364580D01*
X8208890Y1356170D01*
X8192820Y1349430D01*
X8176640Y1344830D01*
X8152670Y1342110D01*
X8140590Y1342450D01*
X8128500Y1343910D01*
X8116450Y1346490D01*
X8104470Y1350150D01*
X8092610Y1354900D01*
X8080900Y1360720D01*
X8069400Y1367610D01*
X8054980Y1378090D01*
X8048940Y1383330D01*
X8043730Y1388500D01*
X8039390Y1393560D01*
X8035940Y1398470D01*
X8033440Y1403190D01*
X8031910Y1407670D01*
X8031390Y1411870D01*
X8043240Y1429470D01*
X8056720Y1437330D01*
X8074050Y1444240D01*
X8094350Y1449960D01*
X8116730Y1454230D01*
X8140300Y1456820D01*
X8164180Y1457470D01*
X8187470Y1455940D01*
G37*
G36*
G01X7892580Y1657970D02*
X7919130Y1645490D01*
X7931970Y1637020D01*
X7944280Y1627290D01*
X7955900Y1616440D01*
X7966660Y1604650D01*
X7976400Y1592080D01*
X7984930Y1578880D01*
X7992100Y1565220D01*
X7998130Y1550780D01*
X8000470Y1543970D01*
X8002400Y1537310D01*
X8003930Y1530690D01*
X8005090Y1524030D01*
X8005910Y1517220D01*
X8006400Y1510170D01*
X8006610Y1502780D01*
X8006270Y1490350D01*
X8005770Y1485490D01*
X8004990Y1481300D01*
X8003870Y1477620D01*
X8002360Y1474280D01*
X8000420Y1471100D01*
X7998000Y1467920D01*
X7995040Y1464580D01*
X7985990Y1458710D01*
X7979910Y1456650D01*
X7973010Y1455200D01*
X7965470Y1454370D01*
X7957470Y1454200D01*
X7949180Y1454690D01*
X7940770Y1455880D01*
X7932420Y1457780D01*
X7896750Y1473580D01*
X7880900Y1485070D01*
X7866640Y1498650D01*
X7854160Y1514080D01*
X7843660Y1531130D01*
X7835320Y1549570D01*
X7829340Y1569150D01*
X7825920Y1589650D01*
X7825300Y1606440D01*
X7825770Y1614500D01*
X7826730Y1622200D01*
X7828170Y1629420D01*
X7830060Y1636050D01*
X7832380Y1641990D01*
X7835110Y1647130D01*
X7838220Y1651350D01*
X7846500Y1657140D01*
X7851990Y1659190D01*
X7858140Y1660640D01*
X7864770Y1661470D01*
X7871710Y1661640D01*
X7878780Y1661130D01*
X7885790Y1659920D01*
X7892580Y1657970D01*
G37*
G36*
G01X8451520Y1674130D02*
X8460580Y1664790D01*
X8464410Y1658210D01*
X8467750Y1650490D01*
X8470550Y1641730D01*
X8472780Y1632010D01*
X8474410Y1621430D01*
X8475410Y1610100D01*
X8475760Y1598090D01*
X8474050Y1571910D01*
X8471820Y1560130D01*
X8468560Y1548990D01*
X8464210Y1538300D01*
X8458700Y1527880D01*
X8451950Y1517570D01*
X8443890Y1507180D01*
X8434440Y1496530D01*
X8422350Y1484780D01*
X8416030Y1479550D01*
X8409520Y1474730D01*
X8402800Y1470320D01*
X8395870Y1466320D01*
X8388710Y1462710D01*
X8381310Y1459500D01*
X8373660Y1456680D01*
X8366350Y1454330D01*
X8363070Y1453470D01*
X8359850Y1452800D01*
X8356550Y1452290D01*
X8353040Y1451930D01*
X8349190Y1451700D01*
X8344840Y1451570D01*
X8339880Y1451540D01*
X8330060D01*
X8326390Y1451690D01*
X8323300Y1451990D01*
X8320580Y1452470D01*
X8318050Y1453160D01*
X8315500Y1454100D01*
X8312740Y1455320D01*
X8309580Y1456860D01*
X8304550Y1459640D01*
X8302510Y1460960D01*
X8300730Y1462300D01*
X8299150Y1463700D01*
X8297730Y1465190D01*
X8296430Y1466810D01*
X8295190Y1468620D01*
X8293970Y1470640D01*
X8291690Y1475180D01*
X8290900Y1477380D01*
X8290320Y1479800D01*
X8289910Y1482630D01*
X8289630Y1486050D01*
X8289470Y1490270D01*
X8289400Y1495470D01*
X8289380Y1501860D01*
X8290070Y1518520D01*
X8290930Y1526010D01*
X8292210Y1533240D01*
X8293980Y1540430D01*
X8296280Y1547800D01*
X8299180Y1555590D01*
X8302740Y1564010D01*
X8307010Y1573300D01*
X8314490Y1587910D01*
X8318300Y1594430D01*
X8322290Y1600630D01*
X8326560Y1606640D01*
X8331220Y1612590D01*
X8336360Y1618630D01*
X8342090Y1624890D01*
X8348510Y1631520D01*
X8364380Y1646550D01*
X8371960Y1652980D01*
X8379340Y1658710D01*
X8386540Y1663760D01*
X8393610Y1668160D01*
X8400560Y1671920D01*
X8407430Y1675060D01*
X8414240Y1677620D01*
X8422490Y1679290D01*
X8427010Y1679570D01*
X8431620Y1679490D01*
X8436190Y1679060D01*
X8440590Y1678300D01*
X8444700Y1677210D01*
X8448380Y1675820D01*
X8451520Y1674130D01*
G37*
G36*
G01X8187470Y1719310D02*
X8200070Y1715130D01*
X8206750Y1712250D01*
X8213480Y1708970D01*
X8220080Y1705380D01*
X8226400Y1701570D01*
X8232270Y1697630D01*
X8237530Y1693660D01*
X8242010Y1689740D01*
X8255570Y1674780D01*
X8261010Y1667090D01*
X8265590Y1659180D01*
X8269360Y1650980D01*
X8272340Y1642410D01*
X8274570Y1633420D01*
X8276070Y1623930D01*
X8276900Y1613890D01*
X8276380Y1592310D01*
X8274830Y1582590D01*
X8272360Y1573410D01*
X8268920Y1564650D01*
X8264450Y1556180D01*
X8258910Y1547870D01*
X8252240Y1539600D01*
X8244390Y1531240D01*
X8233920Y1521410D01*
X8228900Y1517350D01*
X8223850Y1513750D01*
X8218660Y1510530D01*
X8213190Y1507610D01*
X8207330Y1504910D01*
X8200940Y1502350D01*
X8193900Y1499840D01*
X8187000Y1497730D01*
X8183750Y1496980D01*
X8180350Y1496410D01*
X8176570Y1496000D01*
X8172220Y1495720D01*
X8167060Y1495540D01*
X8160900Y1495450D01*
X8153500Y1495430D01*
X8139260Y1495610D01*
X8134050Y1495800D01*
X8129720Y1496130D01*
X8125980Y1496620D01*
X8122520Y1497320D01*
X8119050Y1498280D01*
X8115280Y1499530D01*
X8110900Y1501120D01*
X8098440Y1506320D01*
X8092790Y1509110D01*
X8087460Y1512060D01*
X8082390Y1515220D01*
X8077540Y1518610D01*
X8072840Y1522260D01*
X8068250Y1526220D01*
X8063710Y1530510D01*
X8051020Y1545090D01*
X8046000Y1552450D01*
X8041820Y1559980D01*
X8038420Y1567790D01*
X8035760Y1575970D01*
X8033790Y1584640D01*
X8032480Y1593870D01*
X8031760Y1603790D01*
X8032510Y1625080D01*
X8034130Y1634890D01*
X8036600Y1644220D01*
X8039950Y1653110D01*
X8044210Y1661630D01*
X8049390Y1669840D01*
X8055510Y1677780D01*
X8062610Y1685510D01*
X8085920Y1703960D01*
X8099020Y1710970D01*
X8112860Y1716450D01*
X8127290Y1720350D01*
X8142120Y1722630D01*
X8157210Y1723240D01*
X8172380Y1722150D01*
X8187470Y1719310D01*
G37*
G36*
G01X7840800Y1874680D02*
X7846420Y1865060D01*
X7848580Y1858400D01*
X7850270Y1850620D01*
X7851490Y1841790D01*
X7852230Y1832000D01*
X7852480Y1821340D01*
X7852220Y1809890D01*
X7851450Y1797730D01*
X7845530Y1753720D01*
X7841180Y1733970D01*
X7836110Y1716240D01*
X7830440Y1700890D01*
X7824310Y1688300D01*
X7817870Y1678840D01*
X7811260Y1672890D01*
X7804620Y1670820D01*
X7795110Y1675050D01*
X7789910Y1679950D01*
X7784640Y1686370D01*
X7779480Y1694040D01*
X7774590Y1702710D01*
X7770150Y1712130D01*
X7766330Y1722030D01*
X7763310Y1732160D01*
X7760740Y1746440D01*
X7760000Y1754230D01*
X7759640Y1762240D01*
Y1770310D01*
X7760000Y1778300D01*
X7760740Y1786030D01*
X7761840Y1793350D01*
X7763310Y1800120D01*
X7770630Y1820490D01*
X7775670Y1830400D01*
X7781490Y1839910D01*
X7787970Y1848870D01*
X7795010Y1857130D01*
X7802500Y1864530D01*
X7810330Y1870920D01*
X7818390Y1876150D01*
X7824970Y1879520D01*
X7827630Y1880420D01*
X7830000Y1880800D01*
X7832180Y1880640D01*
X7834250Y1879960D01*
X7836320Y1878740D01*
X7838470Y1876980D01*
X7840800Y1874680D01*
G37*
G36*
G01X8474840Y1878900D02*
X8487630Y1869410D01*
X8493300Y1864460D01*
X8498540Y1859330D01*
X8503380Y1853970D01*
X8507850Y1848350D01*
X8512000Y1842420D01*
X8515850Y1836150D01*
X8519460Y1829500D01*
X8528090Y1807460D01*
X8530880Y1795910D01*
X8532640Y1784090D01*
X8533380Y1772080D01*
X8533070Y1759940D01*
X8531730Y1747760D01*
X8529330Y1735600D01*
X8525880Y1723530D01*
X8519080Y1707630D01*
X8514790Y1699890D01*
X8510170Y1692640D01*
X8505410Y1686130D01*
X8500680Y1680620D01*
X8496180Y1676370D01*
X8492090Y1673630D01*
X8488610Y1672660D01*
X8481220Y1675830D01*
X8477250Y1679580D01*
X8473210Y1684610D01*
X8469190Y1690770D01*
X8465270Y1697940D01*
X8461540Y1705960D01*
X8458090Y1714720D01*
X8455010Y1724080D01*
X8448770Y1747290D01*
X8446380Y1758640D01*
X8444440Y1769950D01*
X8442960Y1781320D01*
X8441910Y1792870D01*
X8441280Y1804670D01*
X8441060Y1816850D01*
X8441240Y1829500D01*
X8441740Y1843930D01*
X8442040Y1849320D01*
X8442410Y1853770D01*
X8442890Y1857460D01*
X8443490Y1860610D01*
X8444260Y1863420D01*
X8445210Y1866080D01*
X8446380Y1868800D01*
X8451280Y1877540D01*
X8453960Y1880480D01*
X8456830Y1882490D01*
X8459900Y1883580D01*
X8463220Y1883750D01*
X8466790Y1883030D01*
X8470660Y1881410D01*
X8474840Y1878900D01*
G37*
G36*
G01X8061140Y1945760D02*
X8076540Y1938770D01*
X8083500Y1934530D01*
X8089970Y1929770D01*
X8095950Y1924510D01*
X8101460Y1918720D01*
X8106480Y1912410D01*
X8111040Y1905570D01*
X8115130Y1898190D01*
X8119940Y1887280D01*
X8121840Y1881820D01*
X8123430Y1876280D01*
X8124700Y1870600D01*
X8125670Y1864720D01*
X8126350Y1858580D01*
X8126750Y1852130D01*
X8126880Y1845300D01*
X8124800Y1820500D01*
X8122210Y1808550D01*
X8118610Y1796930D01*
X8114010Y1785670D01*
X8108410Y1774790D01*
X8101820Y1764300D01*
X8094270Y1754250D01*
X8085750Y1744650D01*
X8066970Y1727750D01*
X8057130Y1720860D01*
X8047000Y1715020D01*
X8036610Y1710230D01*
X8025980Y1706490D01*
X8015130Y1703820D01*
X8004070Y1702210D01*
X7992830Y1701680D01*
X7974270Y1702940D01*
X7965840Y1704550D01*
X7957890Y1706850D01*
X7950340Y1709860D01*
X7943130Y1713620D01*
X7936200Y1718140D01*
X7929470Y1723460D01*
X7922870Y1729590D01*
X7906110Y1751860D01*
X7900160Y1764520D01*
X7895860Y1778000D01*
X7893250Y1792170D01*
X7892340Y1806880D01*
X7893160Y1821980D01*
X7895740Y1837350D01*
X7900110Y1852830D01*
X7915010Y1883940D01*
X7925010Y1897970D01*
X7936440Y1910750D01*
X7949120Y1922120D01*
X7962850Y1931890D01*
X7977440Y1939910D01*
X7992700Y1945990D01*
X8008440Y1949980D01*
X8019580Y1951150D01*
X8025740Y1951250D01*
X8032080Y1951040D01*
X8038450Y1950540D01*
X8044700Y1949750D01*
X8050670Y1948680D01*
X8056200Y1947350D01*
X8061140Y1945760D01*
G37*
G36*
G01X8300950Y1954570D02*
X8335080Y1941370D01*
X8350490Y1931490D01*
X8364560Y1919680D01*
X8377130Y1906130D01*
X8388030Y1891030D01*
X8397070Y1874560D01*
X8404090Y1856930D01*
X8408920Y1838320D01*
X8410580Y1799280D01*
X8407100Y1781200D01*
X8400960Y1764440D01*
X8392310Y1749270D01*
X8381290Y1735960D01*
X8368080Y1724790D01*
X8352810Y1716020D01*
X8335650Y1709940D01*
X8322870Y1707920D01*
X8315810Y1707580D01*
X8308480Y1707680D01*
X8301020Y1708220D01*
X8293560Y1709180D01*
X8286230Y1710560D01*
X8279160Y1712340D01*
X8272490Y1714530D01*
X8243040Y1729550D01*
X8229830Y1739470D01*
X8217780Y1750800D01*
X8207030Y1763410D01*
X8197690Y1777140D01*
X8189890Y1791850D01*
X8183750Y1807390D01*
X8179390Y1823620D01*
X8177070Y1863070D01*
X8180270Y1881450D01*
X8186160Y1898550D01*
X8194580Y1914070D01*
X8205380Y1927720D01*
X8218400Y1939220D01*
X8233480Y1948270D01*
X8250450Y1954570D01*
X8260290Y1956290D01*
X8265990Y1956770D01*
X8272010Y1957020D01*
X8278170D01*
X8284310Y1956770D01*
X8290260Y1956290D01*
X8295860Y1955550D01*
X8300950Y1954570D01*
G37*
G36*
G01X8350530Y2063850D02*
X8365940Y2059070D01*
X8373150Y2056110D01*
X8380060Y2052730D01*
X8386720Y2048910D01*
X8393150Y2044650D01*
X8399410Y2039920D01*
X8405510Y2034690D01*
X8411490Y2028950D01*
X8418840Y2021410D01*
X8421820Y2018080D01*
X8424430Y2014900D01*
X8426760Y2011780D01*
X8428890Y2008600D01*
X8430880Y2005270D01*
X8432830Y2001680D01*
X8434810Y1997730D01*
X8440660Y1984690D01*
X8442900Y1978680D01*
X8444740Y1972780D01*
X8446230Y1966810D01*
X8447400Y1960580D01*
X8448310Y1953920D01*
X8448990Y1946650D01*
X8449500Y1938590D01*
X8450600Y1916920D01*
X8444360D01*
X8426470Y1922590D01*
X8414330Y1929340D01*
X8400460Y1938370D01*
X8385210Y1949450D01*
X8368870Y1962360D01*
X8351770Y1976850D01*
X8334230Y1992700D01*
X8316560Y2009670D01*
X8299540Y2027050D01*
X8292880Y2034270D01*
X8287390Y2040610D01*
X8283010Y2046120D01*
X8279700Y2050870D01*
X8277390Y2054940D01*
X8276050Y2058390D01*
X8275610Y2061280D01*
X8275840Y2063250D01*
X8276190Y2064000D01*
X8276730Y2064610D01*
X8277490Y2065120D01*
X8278520Y2065530D01*
X8279840Y2065870D01*
X8281490Y2066160D01*
X8283510Y2066420D01*
X8286470Y2066830D01*
X8289530Y2067290D01*
X8291010Y2067520D01*
X8292410Y2067740D01*
X8293710Y2067940D01*
X8294850Y2068110D01*
X8295810Y2068250D01*
X8304730Y2068770D01*
X8310890Y2068620D01*
X8317730Y2068240D01*
X8324930Y2067660D01*
X8332140Y2066910D01*
X8339030Y2066000D01*
X8345270Y2064970D01*
X8350530Y2063850D01*
G37*
G36*
G01X8010280Y2069540D02*
X8012480Y2068910D01*
X8013400Y2068500D01*
X8014190Y2068020D01*
X8014870Y2067470D01*
X8015420Y2066850D01*
X8015850Y2066160D01*
X8016150Y2065400D01*
X8016340Y2064580D01*
X8004990Y2043840D01*
X7991320Y2028160D01*
X7973870Y2010380D01*
X7953760Y1991570D01*
X7932160Y1972810D01*
X7910200Y1955170D01*
X7889030Y1939730D01*
X7869810Y1927570D01*
X7862150Y1923680D01*
X7858480Y1922160D01*
X7855020Y1920940D01*
X7851860Y1920060D01*
X7849070Y1919520D01*
X7846730Y1919360D01*
X7844920Y1919580D01*
X7843730Y1920230D01*
X7842330Y1925500D01*
X7842030Y1930160D01*
X7841990Y1935750D01*
X7842190Y1941970D01*
X7842620Y1948500D01*
X7843270Y1955030D01*
X7844140Y1961260D01*
X7845200Y1966880D01*
X7856780Y1999850D01*
X7865200Y2014270D01*
X7875290Y2027250D01*
X7886990Y2038720D01*
X7900250Y2048650D01*
X7915000Y2056980D01*
X7931190Y2063650D01*
X7948760Y2068620D01*
X7959720Y2069930D01*
X7967320Y2070370D01*
X7975660Y2070650D01*
X7984200Y2070770D01*
X7992450Y2070730D01*
X7999890Y2070510D01*
X8006000Y2070120D01*
X8010280Y2069540D01*
G37*
G36*
G01X8176640Y2090660D02*
X8206470Y2080890D01*
X8220090Y2074000D01*
X8232430Y2066090D01*
X8243210Y2057400D01*
X8252110Y2048190D01*
X8258850Y2038680D01*
X8263110Y2029130D01*
X8264590Y2019770D01*
X8257210Y1998490D01*
X8248540Y1989280D01*
X8236970Y1981220D01*
X8222800Y1974460D01*
X8206340Y1969150D01*
X8187900Y1965430D01*
X8167800Y1963460D01*
X8146340Y1963390D01*
X8121560Y1965780D01*
X8110100Y1967930D01*
X8099320Y1970700D01*
X8089250Y1974080D01*
X8079940Y1978070D01*
X8071420Y1982640D01*
X8063730Y1987790D01*
X8056920Y1993510D01*
X8045210Y2007340D01*
X8041870Y2014140D01*
X8040220Y2020920D01*
X8040250Y2027720D01*
X8041970Y2034580D01*
X8045380Y2041540D01*
X8050480Y2048650D01*
X8057280Y2055950D01*
X8080120Y2073320D01*
X8092880Y2080090D01*
X8106290Y2085510D01*
X8120160Y2089530D01*
X8134310Y2092110D01*
X8148560Y2093190D01*
X8162730Y2092720D01*
X8176640Y2090660D01*
G37*
G36*
G01X8344650Y2367800D02*
X8343000Y2364470D01*
X8342420Y2362620D01*
X8342010Y2360750D01*
X8341780Y2358930D01*
X8341740Y2357240D01*
X8341890Y2355750D01*
X8342250Y2354530D01*
X8342810Y2353660D01*
X8343740Y2353630D01*
X8344590Y2353850D01*
X8345650Y2354220D01*
X8346910Y2354730D01*
X8348320Y2355360D01*
X8349880Y2356100D01*
X8351540Y2356940D01*
X8353280Y2357880D01*
X8361020Y2361630D01*
X8365580Y2363530D01*
X8370330Y2365360D01*
X8375030Y2367020D01*
X8379480Y2368450D01*
X8383450Y2369570D01*
X8386720Y2370290D01*
X8389090Y2370550D01*
X8390020Y2370270D01*
X8390160Y2369920D01*
X8390080Y2369420D01*
X8389780Y2368760D01*
X8389240Y2367940D01*
X8388460Y2366960D01*
X8387430Y2365810D01*
X8386150Y2364490D01*
X8382330Y2359860D01*
X8381150Y2357820D01*
X8380460Y2356040D01*
X8380260Y2354570D01*
X8380560Y2353470D01*
X8381360Y2352790D01*
X8382670Y2352590D01*
X8384500Y2352920D01*
X8392300Y2355020D01*
X8397090Y2356250D01*
X8402130Y2357540D01*
X8407190Y2358810D01*
X8412000Y2360000D01*
X8416320Y2361040D01*
X8419910Y2361890D01*
X8422510Y2362470D01*
X8428750Y2363760D01*
X8422870Y2356960D01*
X8417980Y2350580D01*
X8417070Y2348450D01*
X8417230Y2346970D01*
X8418520Y2346130D01*
X8420970Y2345890D01*
X8424630Y2346230D01*
X8429530Y2347110D01*
X8435730Y2348510D01*
X8445380Y2350600D01*
X8449570Y2351300D01*
X8453420Y2351780D01*
X8457000Y2352040D01*
X8460390Y2352090D01*
X8463650Y2351950D01*
X8466850Y2351610D01*
X8470060Y2351080D01*
X8475940Y2349800D01*
X8469150Y2342820D01*
X8462170Y2335660D01*
X8487320D01*
X8496050Y2335610D01*
X8499970Y2335550D01*
X8503480Y2335470D01*
X8506520Y2335380D01*
X8509020Y2335280D01*
X8510890Y2335160D01*
X8512070Y2335040D01*
X8512480Y2334920D01*
X8512120Y2334050D01*
X8511700Y2333270D01*
X8511130Y2332300D01*
X8510450Y2331170D01*
X8509650Y2329900D01*
X8508770Y2328530D01*
X8507810Y2327070D01*
X8506790Y2325560D01*
X8503040Y2319170D01*
X8501140Y2315480D01*
X8499310Y2311690D01*
X8497650Y2307960D01*
X8496220Y2304470D01*
X8495100Y2301380D01*
X8494380Y2298860D01*
X8494120Y2297090D01*
X8494760Y2296410D01*
X8495510Y2296120D01*
X8496520Y2295870D01*
X8497740Y2295660D01*
X8499150Y2295480D01*
X8500720Y2295360D01*
X8502420Y2295280D01*
X8504220Y2295250D01*
X8507940Y2295150D01*
X8509530Y2295010D01*
X8510920Y2294830D01*
X8512100Y2294600D01*
X8513050Y2294330D01*
X8513740Y2294010D01*
X8514170Y2293640D01*
X8514320Y2293230D01*
X8513390Y2291610D01*
X8512300Y2290210D01*
X8510850Y2288470D01*
X8509080Y2286450D01*
X8507030Y2284200D01*
X8504740Y2281760D01*
X8502260Y2279190D01*
X8499630Y2276520D01*
X8494590Y2271280D01*
X8492390Y2268850D01*
X8490450Y2266600D01*
X8488820Y2264600D01*
X8487520Y2262890D01*
X8486600Y2261520D01*
X8486090Y2260530D01*
X8486040Y2259990D01*
X8487110Y2259370D01*
X8488040Y2259130D01*
X8489180Y2258960D01*
X8490510Y2258830D01*
X8492000Y2258770D01*
X8493600Y2258750D01*
X8495300Y2258790D01*
X8497060Y2258890D01*
X8500530Y2259120D01*
X8502080Y2259150D01*
X8503460Y2259110D01*
X8504650Y2259020D01*
X8505630Y2258880D01*
X8506360Y2258680D01*
X8506810Y2258440D01*
X8506970Y2258150D01*
X8506000Y2256570D01*
X8504840Y2255130D01*
X8503300Y2253310D01*
X8501420Y2251170D01*
X8499250Y2248750D01*
X8496810Y2246110D01*
X8494170Y2243290D01*
X8491360Y2240340D01*
X8485910Y2234670D01*
X8483480Y2232060D01*
X8481300Y2229680D01*
X8479420Y2227570D01*
X8477890Y2225780D01*
X8476730Y2224370D01*
X8476010Y2223390D01*
X8475760Y2222890D01*
X8476350Y2222530D01*
X8477050Y2222360D01*
X8477990Y2222210D01*
X8479130Y2222070D01*
X8480460Y2221950D01*
X8481950Y2221870D01*
X8483570Y2221810D01*
X8485300Y2221790D01*
X8494850D01*
X8489340Y2216100D01*
X8486590Y2213450D01*
X8484710Y2211780D01*
X8482560Y2209930D01*
X8480200Y2207960D01*
X8477700Y2205910D01*
X8475110Y2203830D01*
X8472480Y2201760D01*
X8469880Y2199750D01*
X8465060Y2195960D01*
X8462950Y2194210D01*
X8461090Y2192610D01*
X8459510Y2191190D01*
X8458260Y2189980D01*
X8457380Y2189030D01*
X8456890Y2188350D01*
X8456840Y2188000D01*
X8457870Y2187640D01*
X8458740Y2187470D01*
X8459820Y2187310D01*
X8461070Y2187170D01*
X8462470Y2187060D01*
X8464000Y2186970D01*
X8465620Y2186920D01*
X8467310Y2186900D01*
X8476670Y2186710D01*
X8469510Y2180650D01*
X8466030Y2177970D01*
X8463800Y2176410D01*
X8461320Y2174770D01*
X8458660Y2173070D01*
X8455880Y2171360D01*
X8453050Y2169670D01*
X8450230Y2168040D01*
X8447480Y2166510D01*
X8437310Y2161100D01*
X8433900Y2159180D01*
X8431470Y2157670D01*
X8429910Y2156510D01*
X8429100Y2155600D01*
X8428960Y2154870D01*
X8429370Y2154250D01*
X8430220Y2153650D01*
X8431470Y2153080D01*
X8432360Y2152820D01*
X8433380Y2152590D01*
X8434510Y2152390D01*
X8435730Y2152230D01*
X8436990Y2152100D01*
X8438290Y2152030D01*
X8439580Y2152000D01*
X8442110Y2151900D01*
X8443150Y2151770D01*
X8444010Y2151600D01*
X8444700Y2151380D01*
X8445200Y2151130D01*
X8445500Y2150840D01*
X8445590Y2150520D01*
X8445460Y2150160D01*
X8442360Y2147570D01*
X8439560Y2145950D01*
X8436050Y2144180D01*
X8431960Y2142300D01*
X8427370Y2140360D01*
X8422390Y2138390D01*
X8417120Y2136440D01*
X8411670Y2134550D01*
X8396070Y2129410D01*
X8400290Y2126110D01*
X8401940Y2124850D01*
X8402780Y2124300D01*
X8403620Y2123820D01*
X8404430Y2123410D01*
X8405200Y2123070D01*
X8405910Y2122820D01*
X8406540Y2122670D01*
X8407080Y2122620D01*
X8408000Y2122510D01*
X8408400Y2122390D01*
X8408760Y2122230D01*
X8409060Y2122030D01*
X8409310Y2121800D01*
X8409500Y2121540D01*
X8409610Y2121260D01*
X8409650Y2120960D01*
X8407030Y2119100D01*
X8404040Y2118040D01*
X8400180Y2116940D01*
X8395660Y2115860D01*
X8390670Y2114830D01*
X8385390Y2113900D01*
X8380020Y2113110D01*
X8374770Y2112520D01*
X8364930Y2111610D01*
X8361500Y2111160D01*
X8358940Y2110690D01*
X8357170Y2110150D01*
X8356080Y2109520D01*
X8355590Y2108780D01*
X8355600Y2107890D01*
X8356040Y2106820D01*
X8356950Y2105580D01*
X8357600Y2104870D01*
X8358360Y2104130D01*
X8359200Y2103360D01*
X8360100Y2102590D01*
X8361050Y2101830D01*
X8362030Y2101090D01*
X8363010Y2100390D01*
X8368340Y2096540D01*
X8343550Y2097460D01*
X8317950Y2099840D01*
X8306320Y2102010D01*
X8295460Y2104840D01*
X8285380Y2108330D01*
X8276060Y2112490D01*
X8267500Y2117320D01*
X8259700Y2122840D01*
X8252660Y2129040D01*
X8246070Y2136560D01*
X8242860Y2141000D01*
X8239850Y2145630D01*
X8237140Y2150270D01*
X8234850Y2154740D01*
X8233080Y2158850D01*
X8231940Y2162410D01*
X8231540Y2165220D01*
X8234810Y2170080D01*
X8238570Y2174090D01*
X8243440Y2178890D01*
X8249220Y2184270D01*
X8255670Y2190020D01*
X8262580Y2195940D01*
X8269730Y2201830D01*
X8276900Y2207470D01*
X8299340Y2223840D01*
X8311910Y2232410D01*
X8325170Y2241090D01*
X8338950Y2249780D01*
X8353090Y2258370D01*
X8367430Y2266770D01*
X8381810Y2274880D01*
X8396070Y2282580D01*
X8403340Y2286560D01*
X8406570Y2288370D01*
X8409450Y2290010D01*
X8411910Y2291440D01*
X8413900Y2292650D01*
X8415360Y2293580D01*
X8416230Y2294220D01*
X8416450Y2294520D01*
X8411260Y2293170D01*
X8405790Y2291280D01*
X8398980Y2288790D01*
X8391280Y2285880D01*
X8383100Y2282700D01*
X8374880Y2279420D01*
X8367060Y2276200D01*
X8360080Y2273210D01*
X8330040Y2259150D01*
X8314800Y2251280D01*
X8299640Y2242980D01*
X8284760Y2234370D01*
X8270330Y2225550D01*
X8256530Y2216610D01*
X8243540Y2207670D01*
X8231540Y2198830D01*
X8212810Y2184690D01*
X8203080Y2191490D01*
X8193550Y2199080D01*
X8189680Y2203120D01*
X8186360Y2207380D01*
X8183570Y2211890D01*
X8181290Y2216710D01*
X8179480Y2221870D01*
X8178130Y2227400D01*
X8177190Y2233360D01*
X8177960Y2251720D01*
X8180270Y2262000D01*
X8183770Y2272790D01*
X8188370Y2283890D01*
X8194000Y2295140D01*
X8200580Y2306350D01*
X8208040Y2317340D01*
X8216300Y2327940D01*
X8221090Y2333300D01*
X8222970Y2335140D01*
X8224520Y2336430D01*
X8225760Y2337180D01*
X8226710Y2337400D01*
X8227360Y2337090D01*
X8227740Y2336260D01*
X8227870Y2334920D01*
X8227990Y2333670D01*
X8228140Y2332880D01*
X8228330Y2332010D01*
X8228560Y2331080D01*
X8228820Y2330110D01*
X8229100Y2329120D01*
X8229400Y2328150D01*
X8229700Y2327210D01*
X8230880Y2324890D01*
X8231680Y2324550D01*
X8232840Y2324910D01*
X8234530Y2326100D01*
X8236910Y2328220D01*
X8240160Y2331390D01*
X8244430Y2335730D01*
X8249900Y2341350D01*
X8268080Y2360450D01*
X8268260Y2352190D01*
X8268720Y2345070D01*
X8269370Y2342970D01*
X8270380Y2341820D01*
X8271810Y2341620D01*
X8273710Y2342360D01*
X8276130Y2344040D01*
X8279130Y2346640D01*
X8282770Y2350170D01*
X8286820Y2353970D01*
X8288880Y2355810D01*
X8290900Y2357570D01*
X8292840Y2359210D01*
X8294660Y2360680D01*
X8296310Y2361960D01*
X8297750Y2362990D01*
X8298930Y2363760D01*
X8304620Y2366880D01*
X8303700Y2359900D01*
X8303410Y2356910D01*
Y2355640D01*
X8303520Y2354500D01*
X8303730Y2353490D01*
X8304060Y2352590D01*
X8304500Y2351810D01*
X8305050Y2351130D01*
X8305720Y2350530D01*
X8307350Y2349520D01*
X8308190Y2349390D01*
X8309110Y2349530D01*
X8310180Y2349960D01*
X8311460Y2350700D01*
X8313010Y2351760D01*
X8314870Y2353170D01*
X8317110Y2354940D01*
X8323740Y2359860D01*
X8327610Y2362440D01*
X8331580Y2364950D01*
X8335460Y2367270D01*
X8339050Y2369290D01*
X8342150Y2370900D01*
X8344580Y2371970D01*
X8346120Y2372390D01*
X8346420Y2372110D01*
X8346430Y2371770D01*
X8346350Y2371320D01*
X8346190Y2370770D01*
X8345930Y2370130D01*
X8345590Y2369410D01*
X8345160Y2368630D01*
X8344650Y2367800D01*
G37*
G36*
G01X7972640Y2366330D02*
X7975390Y2364610D01*
X7977030Y2363520D01*
X7978780Y2362310D01*
X7980600Y2361010D01*
X7982440Y2359650D01*
X7984270Y2358260D01*
X7986030Y2356860D01*
X7987690Y2355490D01*
X7990810Y2353060D01*
X7992280Y2351970D01*
X7993640Y2350990D01*
X7994880Y2350150D01*
X7995960Y2349470D01*
X7996860Y2348950D01*
X7997540Y2348630D01*
X7997980Y2348510D01*
X7999960Y2349700D01*
X8000820Y2351020D01*
X8001550Y2352690D01*
X8002110Y2354580D01*
X8002480Y2356590D01*
X8002610Y2358620D01*
X8002460Y2360560D01*
X8002010Y2362290D01*
X8001490Y2363900D01*
X8001290Y2364620D01*
X8001150Y2365260D01*
X8001060Y2365810D01*
X8001020Y2366260D01*
X8001040Y2366600D01*
X8001130Y2366810D01*
X8001280Y2366880D01*
X8004570Y2365340D01*
X8007150Y2363610D01*
X8010130Y2361410D01*
X8013350Y2358870D01*
X8016650Y2356130D01*
X8019860Y2353310D01*
X8022800Y2350550D01*
X8025330Y2347960D01*
X8029170Y2343940D01*
X8030580Y2342620D01*
X8031720Y2341740D01*
X8032680Y2341240D01*
X8033500Y2341120D01*
X8034250Y2341330D01*
X8034990Y2341850D01*
X8035800Y2342640D01*
X8036770Y2344180D01*
X8037230Y2345150D01*
X8037660Y2346230D01*
X8038060Y2347370D01*
X8038410Y2348570D01*
X8038710Y2349790D01*
X8038940Y2351000D01*
X8039110Y2352190D01*
X8039660Y2358610D01*
X8047920Y2350350D01*
X8051380Y2346840D01*
X8053330Y2344820D01*
X8055360Y2342690D01*
X8057420Y2340510D01*
X8059470Y2338310D01*
X8061450Y2336160D01*
X8063300Y2334090D01*
X8065000Y2332170D01*
X8073810Y2322250D01*
X8076750Y2329960D01*
X8079690Y2337680D01*
X8085930Y2331620D01*
X8096570Y2319150D01*
X8101950Y2311470D01*
X8107170Y2303140D01*
X8112110Y2294410D01*
X8116610Y2285530D01*
X8120550Y2276730D01*
X8123770Y2268260D01*
X8126140Y2260360D01*
X8128540Y2240340D01*
X8127740Y2230820D01*
X8125670Y2221780D01*
X8122370Y2213330D01*
X8117870Y2205600D01*
X8112230Y2198690D01*
X8105490Y2192730D01*
X8097680Y2187810D01*
X8094620Y2186460D01*
X8093340Y2186220D01*
X8092040Y2186340D01*
X8090600Y2186880D01*
X8088870Y2187880D01*
X8086720Y2189410D01*
X8084010Y2191510D01*
X8080600Y2194240D01*
X8051470Y2215470D01*
X8034500Y2226330D01*
X8016310Y2237140D01*
X7997210Y2247740D01*
X7977490Y2257960D01*
X7957440Y2267650D01*
X7937370Y2276650D01*
X7917550Y2284780D01*
X7900700Y2291200D01*
X7895880Y2292840D01*
X7893470Y2293380D01*
Y2292800D01*
X7895880Y2291060D01*
X7900700Y2288120D01*
X7907920Y2283960D01*
X7917550Y2278540D01*
X7959940Y2254020D01*
X7978400Y2242650D01*
X7995270Y2231710D01*
X8010730Y2221070D01*
X8024960Y2210600D01*
X8038140Y2200180D01*
X8050450Y2189690D01*
X8062060Y2179000D01*
X8069750Y2171190D01*
X8072080Y2168200D01*
X8073440Y2165470D01*
X8073870Y2162740D01*
X8073400Y2159740D01*
X8072080Y2156200D01*
X8069940Y2151880D01*
X8067020Y2146490D01*
X8053300Y2128760D01*
X8044170Y2121250D01*
X8033630Y2114690D01*
X8021760Y2109120D01*
X8008640Y2104580D01*
X7994340Y2101090D01*
X7978950Y2098710D01*
X7962540Y2097460D01*
X7938670Y2096540D01*
X7945090Y2102050D01*
X7947520Y2104330D01*
X7948450Y2105340D01*
X7949170Y2106260D01*
X7949690Y2107090D01*
X7950000Y2107810D01*
X7950110Y2108440D01*
X7950000Y2108970D01*
X7949680Y2109390D01*
X7947850Y2110100D01*
X7946110Y2110510D01*
X7943910Y2110940D01*
X7941310Y2111380D01*
X7938380Y2111830D01*
X7935170Y2112260D01*
X7931760Y2112680D01*
X7928200Y2113070D01*
X7920910Y2114040D01*
X7917340Y2114600D01*
X7913910Y2115180D01*
X7910700Y2115780D01*
X7907780Y2116370D01*
X7905240Y2116950D01*
X7903150Y2117510D01*
X7901570Y2118020D01*
X7894780Y2120960D01*
X7901020Y2124090D01*
X7903140Y2125250D01*
X7904110Y2125850D01*
X7904990Y2126450D01*
X7905750Y2127040D01*
X7906380Y2127580D01*
X7906860Y2128080D01*
X7907160Y2128510D01*
X7907270Y2128860D01*
X7906260Y2129720D01*
X7904990Y2130400D01*
X7903290Y2131200D01*
X7901190Y2132100D01*
X7898770Y2133080D01*
X7896060Y2134110D01*
X7893120Y2135160D01*
X7890010Y2136210D01*
X7874220Y2141980D01*
X7868410Y2144460D01*
X7864060Y2146650D01*
X7861200Y2148500D01*
X7859880Y2149990D01*
X7860140Y2151090D01*
X7862030Y2151770D01*
X7865580Y2152000D01*
X7869850Y2152340D01*
X7871850Y2152730D01*
X7873660Y2153220D01*
X7875200Y2153780D01*
X7876400Y2154400D01*
X7877170Y2155030D01*
X7877450Y2155650D01*
X7877150Y2156230D01*
X7875890Y2156950D01*
X7874660Y2157640D01*
X7873080Y2158510D01*
X7871200Y2159530D01*
X7869060Y2160690D01*
X7866710Y2161950D01*
X7864190Y2163280D01*
X7861540Y2164670D01*
X7851670Y2170280D01*
X7847040Y2173120D01*
X7842770Y2175880D01*
X7839000Y2178480D01*
X7835840Y2180840D01*
X7833410Y2182860D01*
X7831840Y2184480D01*
X7831250Y2185610D01*
X7831760Y2186070D01*
X7832360Y2186270D01*
X7833170Y2186450D01*
X7834140Y2186600D01*
X7835270Y2186730D01*
X7836530Y2186820D01*
X7837890Y2186880D01*
X7839330Y2186900D01*
X7842270Y2187000D01*
X7843620Y2187120D01*
X7844860Y2187280D01*
X7845960Y2187480D01*
X7846900Y2187710D01*
X7847660Y2187970D01*
X7848200Y2188250D01*
X7848510Y2188550D01*
X7848430Y2189410D01*
X7848090Y2190000D01*
X7847550Y2190670D01*
X7846850Y2191400D01*
X7845990Y2192180D01*
X7844990Y2192990D01*
X7843870Y2193800D01*
X7842630Y2194610D01*
X7835030Y2200210D01*
X7830680Y2203680D01*
X7826300Y2207310D01*
X7822150Y2210880D01*
X7818480Y2214190D01*
X7815540Y2217000D01*
X7813590Y2219120D01*
X7812890Y2220320D01*
X7813400Y2220800D01*
X7813990Y2221030D01*
X7814790Y2221240D01*
X7815750Y2221420D01*
X7816860Y2221570D01*
X7818080Y2221690D01*
X7819400Y2221760D01*
X7820780Y2221790D01*
X7823630Y2221870D01*
X7824950Y2221950D01*
X7826170Y2222070D01*
X7827250Y2222210D01*
X7828180Y2222360D01*
X7828930Y2222530D01*
X7829470Y2222710D01*
X7829780Y2222890D01*
X7829390Y2224030D01*
X7828600Y2225110D01*
X7827460Y2226490D01*
X7826010Y2228130D01*
X7824280Y2229980D01*
X7822320Y2232020D01*
X7820160Y2234200D01*
X7817840Y2236480D01*
X7813010Y2241130D01*
X7810710Y2243470D01*
X7808550Y2245740D01*
X7806580Y2247900D01*
X7804840Y2249880D01*
X7803380Y2251650D01*
X7802250Y2253140D01*
X7801500Y2254300D01*
X7798380Y2259810D01*
X7808110Y2258890D01*
X7811940Y2258680D01*
X7813590Y2258690D01*
X7815050Y2258780D01*
X7816320Y2258930D01*
X7817390Y2259150D01*
X7818250Y2259430D01*
X7818890Y2259770D01*
X7819310Y2260170D01*
X7819060Y2261660D01*
X7818390Y2262830D01*
X7817390Y2264280D01*
X7816060Y2265960D01*
X7814420Y2267860D01*
X7812470Y2269960D01*
X7810240Y2272250D01*
X7807740Y2274680D01*
X7803200Y2279230D01*
X7801070Y2281460D01*
X7799090Y2283590D01*
X7797300Y2285570D01*
X7795750Y2287380D01*
X7794460Y2288950D01*
X7793490Y2290240D01*
X7792870Y2291210D01*
X7791910Y2293350D01*
X7791820Y2294060D01*
X7792080Y2294560D01*
X7792760Y2294900D01*
X7793920Y2295100D01*
X7795620Y2295210D01*
X7797950Y2295250D01*
X7800950D01*
X7805700Y2295350D01*
X7807400Y2295500D01*
X7808710Y2295740D01*
X7809680Y2296080D01*
X7810350Y2296530D01*
X7810770Y2297120D01*
X7810990Y2297850D01*
X7811050Y2298740D01*
X7810340Y2302880D01*
X7809500Y2305500D01*
X7808350Y2308430D01*
X7806930Y2311610D01*
X7805250Y2315000D01*
X7803350Y2318550D01*
X7801230Y2322200D01*
X7798930Y2325920D01*
X7792690Y2335660D01*
X7842630D01*
X7836940Y2342820D01*
X7833970Y2346620D01*
X7833090Y2347900D01*
X7832590Y2348850D01*
X7832470Y2349540D01*
X7832710Y2350040D01*
X7833300Y2350420D01*
X7834220Y2350750D01*
X7835470Y2351080D01*
X7841750Y2352130D01*
X7845350Y2352220D01*
X7849490Y2351990D01*
X7854330Y2351420D01*
X7860050Y2350500D01*
X7866810Y2349200D01*
X7874780Y2347500D01*
X7884130Y2345390D01*
X7887050Y2345560D01*
X7887860Y2346330D01*
X7888240Y2347500D01*
X7888180Y2349010D01*
X7887680Y2350820D01*
X7886750Y2352870D01*
X7885380Y2355120D01*
X7883580Y2357510D01*
X7878810Y2363020D01*
X7885780Y2361920D01*
X7889170Y2361300D01*
X7891380Y2360820D01*
X7893850Y2360240D01*
X7896530Y2359580D01*
X7899340Y2358860D01*
X7902230Y2358080D01*
X7905140Y2357260D01*
X7908000Y2356410D01*
X7919050Y2353730D01*
X7922720Y2353270D01*
X7925210Y2353410D01*
X7926540Y2354200D01*
X7926760Y2355640D01*
X7925890Y2357750D01*
X7923970Y2360580D01*
X7921040Y2364120D01*
X7918970Y2366640D01*
X7918230Y2367670D01*
X7917680Y2368540D01*
X7917330Y2369260D01*
X7917180Y2369820D01*
X7917220Y2370230D01*
X7917470Y2370470D01*
X7917920Y2370550D01*
X7923320Y2369550D01*
X7927220Y2368420D01*
X7931600Y2366990D01*
X7936210Y2365340D01*
X7940810Y2363560D01*
X7945150Y2361730D01*
X7948980Y2359930D01*
X7952070Y2358250D01*
X7955020Y2356780D01*
X7956460Y2356160D01*
X7957840Y2355630D01*
X7959130Y2355200D01*
X7960290Y2354890D01*
X7961290Y2354700D01*
X7962110Y2354650D01*
X7962720Y2354760D01*
X7964540Y2356320D01*
X7964990Y2357490D01*
X7965130Y2358870D01*
X7964960Y2360420D01*
X7964490Y2362130D01*
X7963710Y2363950D01*
X7962630Y2365850D01*
X7961250Y2367800D01*
X7957390Y2372760D01*
X7961800Y2371470D01*
X7963730Y2370780D01*
X7964900Y2370300D01*
X7966150Y2369750D01*
X7967470Y2369140D01*
X7968810Y2368480D01*
X7970140Y2367780D01*
X7971420Y2367060D01*
X7972640Y2366330D01*
G37*
G36*
G01X9005240Y2248120D02*
X9014150Y2241910D01*
X9017690Y2238390D01*
X9020640Y2234560D01*
X9023010Y2230380D01*
X9024830Y2225820D01*
X9026110Y2220850D01*
X9026870Y2215430D01*
X9027120Y2209540D01*
X9026930Y2201920D01*
X9026630Y2198960D01*
X9026150Y2196390D01*
X9025450Y2194090D01*
X9024500Y2191930D01*
X9023250Y2189770D01*
X9021680Y2187490D01*
X9019740Y2184960D01*
X9011560Y2176320D01*
X9007410Y2173250D01*
X9002850Y2170900D01*
X8997590Y2169180D01*
X8991360Y2167990D01*
X8983860Y2167250D01*
X8974820Y2166880D01*
X8963940Y2166770D01*
X8932480D01*
Y2255990D01*
X8963940Y2254760D01*
X8979000Y2254060D01*
X8984700Y2253640D01*
X8989440Y2253120D01*
X8993400Y2252490D01*
X8996770Y2251700D01*
X8999750Y2250730D01*
X9002510Y2249550D01*
X9005240Y2248120D01*
G37*
G36*
G01X9684180Y2158660D02*
X9701300Y2141210D01*
X9706660Y2130550D01*
X9709860Y2119090D01*
X9710860Y2107230D01*
X9709640Y2095340D01*
X9706160Y2083800D01*
X9700390Y2072990D01*
X9692300Y2063300D01*
X9674630Y2051460D01*
X9665060Y2048330D01*
X9655300Y2047040D01*
X9645570Y2047570D01*
X9636120Y2049910D01*
X9627170Y2054060D01*
X9618940Y2060000D01*
X9611670Y2067720D01*
X9606060Y2075760D01*
X9603920Y2079780D01*
X9602190Y2083910D01*
X9600840Y2088210D01*
X9599830Y2092770D01*
X9599150Y2097670D01*
X9598760Y2102970D01*
X9598640Y2108770D01*
X9600440Y2123750D01*
X9602550Y2130650D01*
X9605460Y2137140D01*
X9609170Y2143200D01*
X9613660Y2148820D01*
X9618940Y2153970D01*
X9625000Y2158650D01*
X9631830Y2162840D01*
X9641820Y2165980D01*
X9647910Y2166610D01*
X9654410Y2166660D01*
X9661060Y2166130D01*
X9667610Y2165040D01*
X9673810Y2163420D01*
X9679420Y2161290D01*
X9684180Y2158660D01*
G37*
G36*
G01X9216400Y2166520D02*
X9236990Y2155830D01*
X9244940Y2147440D01*
X9251140Y2137490D01*
X9255460Y2126360D01*
X9257750Y2114420D01*
X9257870Y2102020D01*
X9255690Y2089520D01*
X9251060Y2077310D01*
X9230350Y2054260D01*
X9217120Y2048640D01*
X9203050Y2046810D01*
X9188970Y2048670D01*
X9175690Y2054110D01*
X9164030Y2063020D01*
X9154790Y2075290D01*
X9148800Y2090820D01*
X9147080Y2112220D01*
X9148700Y2122540D01*
X9151810Y2132320D01*
X9156320Y2141340D01*
X9162090Y2149390D01*
X9169020Y2156250D01*
X9177000Y2161710D01*
X9185920Y2165540D01*
X9193690Y2167750D01*
X9196880Y2168420D01*
X9199820Y2168800D01*
X9202670Y2168910D01*
X9205600Y2168730D01*
X9208760Y2168270D01*
X9212300Y2167530D01*
X9216400Y2166520D01*
G37*
G36*
G01X10166470Y2163820D02*
X10173760Y2159740D01*
X10176820Y2157770D01*
X10179550Y2155760D01*
X10182040Y2153670D01*
X10184320Y2151440D01*
X10186460Y2149030D01*
X10188520Y2146370D01*
X10190560Y2143420D01*
X10198920Y2131130D01*
X10139190Y2130390D01*
X10118430Y2130300D01*
X10109090D01*
X10100680Y2130340D01*
X10093370Y2130400D01*
X10087350Y2130490D01*
X10082780Y2130600D01*
X10079850Y2130730D01*
X10078720Y2130890D01*
X10079090Y2134270D01*
X10080360Y2137190D01*
X10082170Y2140620D01*
X10084390Y2144360D01*
X10086910Y2148180D01*
X10089590Y2151860D01*
X10092310Y2155180D01*
X10094940Y2157920D01*
X10103010Y2163980D01*
X10107840Y2166560D01*
X10113030Y2168790D01*
X10118430Y2170610D01*
X10123910Y2171980D01*
X10129330Y2172850D01*
X10134550Y2173180D01*
X10139430Y2172910D01*
X10144310Y2172080D01*
X10147210Y2171320D01*
X10150330Y2170380D01*
X10153580Y2169270D01*
X10156900Y2168040D01*
X10160200Y2166700D01*
X10163420Y2165280D01*
X10166470Y2163820D01*
G37*
G36*
G01X9919430Y2162100D02*
X9926720Y2157980D01*
X9930240Y2155450D01*
X9933620Y2152670D01*
X9936840Y2149660D01*
X9939840Y2146460D01*
X9942600Y2143100D01*
X9945060Y2139620D01*
X9947210Y2136050D01*
X9950230Y2125730D01*
X9951070Y2118840D01*
X9951450Y2111340D01*
X9951390Y2103610D01*
X9950890Y2096070D01*
X9949940Y2089110D01*
X9948550Y2083130D01*
X9946720Y2078530D01*
X9930530Y2059820D01*
X9920290Y2053730D01*
X9909170Y2049890D01*
X9897610Y2048350D01*
X9886040Y2049190D01*
X9874890Y2052450D01*
X9864570Y2058200D01*
X9855520Y2066490D01*
X9841330Y2095130D01*
X9840030Y2110130D01*
X9842230Y2124670D01*
X9847640Y2138080D01*
X9856010Y2149670D01*
X9867050Y2158770D01*
X9880500Y2164700D01*
X9896080Y2166770D01*
X9901550Y2166490D01*
X9904370Y2166160D01*
X9907190Y2165710D01*
X9909950Y2165160D01*
X9912610Y2164510D01*
X9915110Y2163780D01*
X9917400Y2162970D01*
X9919430Y2162100D01*
G37*
G36*
G01X11024120Y2252790D02*
X11034180Y2250060D01*
X11038550Y2248220D01*
X11042490Y2246050D01*
X11046040Y2243530D01*
X11049200Y2240650D01*
X11052000Y2237390D01*
X11054450Y2233740D01*
X11056570Y2229690D01*
X11060410Y2217330D01*
X11061040Y2211190D01*
X11060830Y2205150D01*
X11059790Y2199280D01*
X11057920Y2193620D01*
X11055240Y2188250D01*
X11051750Y2183210D01*
X11047480Y2178570D01*
X11040420Y2173010D01*
X11036660Y2171030D01*
X11032430Y2169500D01*
X11027480Y2168370D01*
X11021580Y2167590D01*
X11014510Y2167100D01*
X11006010Y2166840D01*
X10995860Y2166770D01*
X10965380D01*
Y2255250D01*
X10988480D01*
X10997240Y2255110D01*
X11001760Y2254940D01*
X11006240Y2254710D01*
X11010560Y2254420D01*
X11014610Y2254090D01*
X11018300Y2253700D01*
X11021500Y2253270D01*
X11024120Y2252790D01*
G37*
%LPD*%
G75*
G54D10*
G01X7300000Y400000D02*
X11800000D01*
G01X7300000Y0D02*
X11800000D01*
Y2500000D01*
X7300000D01*
Y0D01*
G01Y800000D02*
X11800000D01*
G01X7300000Y1200000D02*
X11800000D01*
G01X7850000D02*
Y0D01*
G01X9600000D02*
Y800000D01*
G01X9410550Y1470000D02*
G03I-90550J0D01*
G01X10050000Y0D02*
Y800000D01*
G54D11*
G01X1208330Y850000D02*
Y930000D01*
X1229170D01*
X1235830Y926000D01*
X1240000Y920670D01*
X1241670Y910000D01*
X1240000Y899330D01*
X1235000Y892670D01*
X1229170Y888670D01*
X1208330D01*
G01X1229170D02*
X1241670Y850000D01*
G01X1273330D02*
Y930000D01*
X1293330D01*
X1300000Y926000D01*
X1305000Y916670D01*
X1306670Y906000D01*
X1305000Y895330D01*
X1300830Y887330D01*
X1293330Y883330D01*
X1273330D01*
G01X1345000Y930000D02*
X1365000D01*
G01X1355000D02*
Y850000D01*
G01X1345000D02*
X1365000D01*
G01X1409170Y876670D02*
X1430830D01*
G01X1503330Y923330D02*
X1498330Y927330D01*
X1492500Y930000D01*
X1485830D01*
X1478330Y926000D01*
X1472500Y919330D01*
X1468330Y911330D01*
X1465000Y898000D01*
X1464170Y886000D01*
X1465830Y874000D01*
X1468330Y866000D01*
X1473330Y858000D01*
X1479170Y852670D01*
X1485000Y850000D01*
X1490830D01*
X1496670Y852670D01*
X1501670Y856670D01*
X1505830Y862000D01*
G01X1529170Y850000D02*
X1550000Y930000D01*
X1570830Y850000D01*
G01X1563330Y878000D02*
X1536670D01*
G01X1593330Y850000D02*
Y930000D01*
X1615000Y863330D01*
X1636670Y930000D01*
Y850000D01*
G01X1696670D02*
X1663330D01*
Y930000D01*
X1696670D01*
G01X1683330Y891330D02*
X1663330D01*
G01X1728330Y850000D02*
Y930000D01*
X1749170D01*
X1755830Y926000D01*
X1760000Y920670D01*
X1761670Y910000D01*
X1760000Y899330D01*
X1755000Y892670D01*
X1749170Y888670D01*
X1728330D01*
G01X1749170D02*
X1761670Y850000D01*
G01X1789170D02*
X1810000Y930000D01*
X1830830Y850000D01*
G01X1823330Y878000D02*
X1796670D01*
G01X1243330Y1173330D02*
X1238330Y1177330D01*
X1232500Y1180000D01*
X1225830D01*
X1218330Y1176000D01*
X1212500Y1169330D01*
X1208330Y1161330D01*
X1205000Y1148000D01*
X1204170Y1136000D01*
X1205830Y1124000D01*
X1208330Y1116000D01*
X1213330Y1108000D01*
X1219170Y1102670D01*
X1225000Y1100000D01*
X1230830D01*
X1236670Y1102670D01*
X1241670Y1106670D01*
X1245830Y1112000D01*
G01X1268330Y1100000D02*
Y1180000D01*
X1290000Y1113330D01*
X1311670Y1180000D01*
Y1100000D01*
G01X1373330Y1173330D02*
X1368330Y1177330D01*
X1362500Y1180000D01*
X1355830D01*
X1348330Y1176000D01*
X1342500Y1169330D01*
X1338330Y1161330D01*
X1335000Y1148000D01*
X1334170Y1136000D01*
X1335830Y1124000D01*
X1338330Y1116000D01*
X1343330Y1108000D01*
X1349170Y1102670D01*
X1355000Y1100000D01*
X1360830D01*
X1366670Y1102670D01*
X1371670Y1106670D01*
X1375830Y1112000D01*
G01X1401670Y1100000D02*
Y1180000D01*
X1418330D01*
X1425000Y1176000D01*
X1430000Y1170670D01*
X1434170Y1162670D01*
X1437500Y1153330D01*
X1438330Y1140000D01*
X1437500Y1126670D01*
X1434170Y1117330D01*
X1430000Y1109330D01*
X1425000Y1104000D01*
X1418330Y1100000D01*
X1401670D01*
G01X1464170D02*
X1485000Y1180000D01*
X1505830Y1100000D01*
G01X1498330Y1128000D02*
X1471670D01*
G01X1594170Y1180000D02*
X1615000Y1100000D01*
X1635830Y1180000D01*
G01X1680000Y1100000D02*
Y1180000D01*
X1670000Y1164000D01*
G01Y1100000D02*
X1690000D01*
G01X1745000Y1097330D02*
X1743330Y1098670D01*
Y1101330D01*
X1745000Y1102670D01*
X1746670Y1101330D01*
Y1098670D01*
X1745000Y1097330D01*
G01X1810000Y1100000D02*
Y1180000D01*
X1800000Y1164000D01*
G01Y1100000D02*
X1820000D01*
G01X1243330Y1423330D02*
X1238330Y1427330D01*
X1232500Y1430000D01*
X1225830D01*
X1218330Y1426000D01*
X1212500Y1419330D01*
X1208330Y1411330D01*
X1205000Y1398000D01*
X1204170Y1386000D01*
X1205830Y1374000D01*
X1208330Y1366000D01*
X1213330Y1358000D01*
X1219170Y1352670D01*
X1225000Y1350000D01*
X1230830D01*
X1236670Y1352670D01*
X1241670Y1356670D01*
X1245830Y1362000D01*
G01X1268330Y1350000D02*
Y1430000D01*
X1290000Y1363330D01*
X1311670Y1430000D01*
Y1350000D01*
G01X1345000Y1430000D02*
X1365000D01*
G01X1355000D02*
Y1350000D01*
G01X1345000D02*
X1365000D01*
G01X1420000D02*
X1413330Y1351330D01*
X1407500Y1356670D01*
X1402500Y1364670D01*
X1399170Y1374000D01*
X1397500Y1384670D01*
Y1395330D01*
X1399170Y1406000D01*
X1402500Y1415330D01*
X1407500Y1423330D01*
X1413330Y1428670D01*
X1420000Y1430000D01*
X1426670Y1428670D01*
X1432500Y1423330D01*
X1437500Y1415330D01*
X1440830Y1406000D01*
X1442500Y1395330D01*
Y1384670D01*
X1440830Y1374000D01*
X1437500Y1364670D01*
X1432500Y1356670D01*
X1426670Y1351330D01*
X1420000Y1350000D01*
G01X1474170Y1376670D02*
X1495830D01*
G01X1568330Y1423330D02*
X1563330Y1427330D01*
X1557500Y1430000D01*
X1550830D01*
X1543330Y1426000D01*
X1537500Y1419330D01*
X1533330Y1411330D01*
X1530000Y1398000D01*
X1529170Y1386000D01*
X1530830Y1374000D01*
X1533330Y1366000D01*
X1538330Y1358000D01*
X1544170Y1352670D01*
X1550000Y1350000D01*
X1555830D01*
X1561670Y1352670D01*
X1566670Y1356670D01*
X1570830Y1362000D01*
G01X1594170Y1350000D02*
X1615000Y1430000D01*
X1635830Y1350000D01*
G01X1628330Y1378000D02*
X1601670D01*
G01X1658330Y1350000D02*
Y1430000D01*
X1680000Y1363330D01*
X1701670Y1430000D01*
Y1350000D01*
G01X1761670D02*
X1728330D01*
Y1430000D01*
X1761670D01*
G01X1748330Y1391330D02*
X1728330D01*
G01X1793330Y1350000D02*
Y1430000D01*
X1814170D01*
X1820830Y1426000D01*
X1825000Y1420670D01*
X1826670Y1410000D01*
X1825000Y1399330D01*
X1820000Y1392670D01*
X1814170Y1388670D01*
X1793330D01*
G01X1814170D02*
X1826670Y1350000D01*
G01X1854170D02*
X1875000Y1430000D01*
X1895830Y1350000D01*
G01X1888330Y1378000D02*
X1861670D01*
G01X2188330Y836000D02*
X2192500Y828000D01*
X2197500Y822670D01*
X2203330Y820000D01*
X2210000Y822670D01*
X2215000Y828000D01*
X2220000Y836000D01*
X2221670Y846670D01*
Y900000D01*
G01X2254170Y886670D02*
X2259170Y894670D01*
X2265000Y898670D01*
X2271670Y900000D01*
X2280000Y897330D01*
X2285830Y890670D01*
X2287500Y882670D01*
X2286670Y874660D01*
X2283330Y868000D01*
X2266670Y854670D01*
X2259170Y845330D01*
X2254170Y832000D01*
X2252500Y820000D01*
X2287500D01*
G01X3908330Y850000D02*
Y930000D01*
X3929170D01*
X3935830Y926000D01*
X3940000Y920670D01*
X3941670Y910000D01*
X3940000Y899330D01*
X3935000Y892670D01*
X3929170Y888670D01*
X3908330D01*
G01X3929170D02*
X3941670Y850000D01*
G01X3973330D02*
Y930000D01*
X3993330D01*
X4000000Y926000D01*
X4005000Y916670D01*
X4006670Y906000D01*
X4005000Y895330D01*
X4000830Y887330D01*
X3993330Y883330D01*
X3973330D01*
G01X4045000Y930000D02*
X4065000D01*
G01X4055000D02*
Y850000D01*
G01X4045000D02*
X4065000D01*
G01X4109170Y876670D02*
X4130830D01*
G01X4166670Y850000D02*
Y930000D01*
X4183330D01*
X4190000Y926000D01*
X4195000Y920670D01*
X4199170Y912670D01*
X4202500Y903330D01*
X4203330Y890000D01*
X4202500Y876670D01*
X4199170Y867330D01*
X4195000Y859330D01*
X4190000Y854000D01*
X4183330Y850000D01*
X4166670D01*
G01X4240000Y930000D02*
X4260000D01*
G01X4250000D02*
Y850000D01*
G01X4240000D02*
X4260000D01*
G01X4297500Y860660D02*
X4304170Y854000D01*
X4311670Y850000D01*
X4318330D01*
X4325000Y854000D01*
X4330000Y860660D01*
X4332500Y870000D01*
X4330830Y879330D01*
X4326670Y887330D01*
X4319170Y892670D01*
X4309170Y895330D01*
X4303330Y900670D01*
X4300830Y910000D01*
X4302500Y919330D01*
X4306670Y926000D01*
X4312500Y930000D01*
X4318330D01*
X4324170Y927330D01*
X4329170Y920670D01*
G01X4363330Y850000D02*
Y930000D01*
X4383330D01*
X4390000Y926000D01*
X4395000Y916670D01*
X4396670Y906000D01*
X4395000Y895330D01*
X4390830Y887330D01*
X4383330Y883330D01*
X4363330D01*
G01X4428330Y930000D02*
Y850000D01*
X4461670D01*
G01X4489170D02*
X4510000Y930000D01*
X4530830Y850000D01*
G01X4523330Y878000D02*
X4496670D01*
G01X4575000Y850000D02*
Y886000D01*
X4558330Y930000D01*
G01X4591670D02*
X4575000Y886000D01*
G01X3943330Y1173330D02*
X3938330Y1177330D01*
X3932500Y1180000D01*
X3925830D01*
X3918330Y1176000D01*
X3912500Y1169330D01*
X3908330Y1161330D01*
X3905000Y1148000D01*
X3904170Y1136000D01*
X3905830Y1124000D01*
X3908330Y1116000D01*
X3913330Y1108000D01*
X3919170Y1102670D01*
X3925000Y1100000D01*
X3930830D01*
X3936670Y1102670D01*
X3941670Y1106670D01*
X3945830Y1112000D01*
G01X3968330Y1100000D02*
Y1180000D01*
X3990000Y1113330D01*
X4011670Y1180000D01*
Y1100000D01*
G01X4073330Y1173330D02*
X4068330Y1177330D01*
X4062500Y1180000D01*
X4055830D01*
X4048330Y1176000D01*
X4042500Y1169330D01*
X4038330Y1161330D01*
X4035000Y1148000D01*
X4034170Y1136000D01*
X4035830Y1124000D01*
X4038330Y1116000D01*
X4043330Y1108000D01*
X4049170Y1102670D01*
X4055000Y1100000D01*
X4060830D01*
X4066670Y1102670D01*
X4071670Y1106670D01*
X4075830Y1112000D01*
G01X4101670Y1100000D02*
Y1180000D01*
X4118330D01*
X4125000Y1176000D01*
X4130000Y1170670D01*
X4134170Y1162670D01*
X4137500Y1153330D01*
X4138330Y1140000D01*
X4137500Y1126670D01*
X4134170Y1117330D01*
X4130000Y1109330D01*
X4125000Y1104000D01*
X4118330Y1100000D01*
X4101670D01*
G01X4164170D02*
X4185000Y1180000D01*
X4205830Y1100000D01*
G01X4198330Y1128000D02*
X4171670D01*
G01X4294170Y1180000D02*
X4315000Y1100000D01*
X4335830Y1180000D01*
G01X4380000Y1100000D02*
Y1180000D01*
X4370000Y1164000D01*
G01Y1100000D02*
X4390000D01*
G01X4445000Y1097330D02*
X4443330Y1098670D01*
Y1101330D01*
X4445000Y1102670D01*
X4446670Y1101330D01*
Y1098670D01*
X4445000Y1097330D01*
G01X4510000Y1100000D02*
Y1180000D01*
X4500000Y1164000D01*
G01Y1100000D02*
X4520000D01*
G01X3943330Y1423330D02*
X3938330Y1427330D01*
X3932500Y1430000D01*
X3925830D01*
X3918330Y1426000D01*
X3912500Y1419330D01*
X3908330Y1411330D01*
X3905000Y1398000D01*
X3904170Y1386000D01*
X3905830Y1374000D01*
X3908330Y1366000D01*
X3913330Y1358000D01*
X3919170Y1352670D01*
X3925000Y1350000D01*
X3930830D01*
X3936670Y1352670D01*
X3941670Y1356670D01*
X3945830Y1362000D01*
G01X3968330Y1350000D02*
Y1430000D01*
X3990000Y1363330D01*
X4011670Y1430000D01*
Y1350000D01*
G01X4045000Y1430000D02*
X4065000D01*
G01X4055000D02*
Y1350000D01*
G01X4045000D02*
X4065000D01*
G01X4120000D02*
X4113330Y1351330D01*
X4107500Y1356670D01*
X4102500Y1364670D01*
X4099170Y1374000D01*
X4097500Y1384670D01*
Y1395330D01*
X4099170Y1406000D01*
X4102500Y1415330D01*
X4107500Y1423330D01*
X4113330Y1428670D01*
X4120000Y1430000D01*
X4126670Y1428670D01*
X4132500Y1423330D01*
X4137500Y1415330D01*
X4140830Y1406000D01*
X4142500Y1395330D01*
Y1384670D01*
X4140830Y1374000D01*
X4137500Y1364670D01*
X4132500Y1356670D01*
X4126670Y1351330D01*
X4120000Y1350000D01*
G01X4174170Y1376670D02*
X4195830D01*
G01X4231670Y1350000D02*
Y1430000D01*
X4248330D01*
X4255000Y1426000D01*
X4260000Y1420670D01*
X4264170Y1412670D01*
X4267500Y1403330D01*
X4268330Y1390000D01*
X4267500Y1376670D01*
X4264170Y1367330D01*
X4260000Y1359330D01*
X4255000Y1354000D01*
X4248330Y1350000D01*
X4231670D01*
G01X4305000Y1430000D02*
X4325000D01*
G01X4315000D02*
Y1350000D01*
G01X4305000D02*
X4325000D01*
G01X4362500Y1360660D02*
X4369170Y1354000D01*
X4376670Y1350000D01*
X4383330D01*
X4390000Y1354000D01*
X4395000Y1360660D01*
X4397500Y1370000D01*
X4395830Y1379330D01*
X4391670Y1387330D01*
X4384170Y1392670D01*
X4374170Y1395330D01*
X4368330Y1400670D01*
X4365830Y1410000D01*
X4367500Y1419330D01*
X4371670Y1426000D01*
X4377500Y1430000D01*
X4383330D01*
X4389170Y1427330D01*
X4394170Y1420670D01*
G01X4428330Y1350000D02*
Y1430000D01*
X4448330D01*
X4455000Y1426000D01*
X4460000Y1416670D01*
X4461670Y1406000D01*
X4460000Y1395330D01*
X4455830Y1387330D01*
X4448330Y1383330D01*
X4428330D01*
G01X4493330Y1430000D02*
Y1350000D01*
X4526670D01*
G01X4554170D02*
X4575000Y1430000D01*
X4595830Y1350000D01*
G01X4588330Y1378000D02*
X4561670D01*
G01X4640000Y1350000D02*
Y1386000D01*
X4623330Y1430000D01*
G01X4656670D02*
X4640000Y1386000D01*
G01X4888330Y836000D02*
X4892500Y828000D01*
X4897500Y822670D01*
X4903330Y820000D01*
X4910000Y822670D01*
X4915000Y828000D01*
X4920000Y836000D01*
X4921670Y846670D01*
Y900000D01*
G01X4980000Y820000D02*
Y900000D01*
X4949170Y842670D01*
X4990830D01*
G54D12*
G01X8258000Y163040D02*
X8264000Y151520D01*
X8271200Y143840D01*
X8279600Y140000D01*
X8289200Y143840D01*
X8296400Y151520D01*
X8303600Y163040D01*
X8306000Y178400D01*
Y255200D01*
G01X8397200Y140000D02*
Y216800D01*
G01Y203360D02*
X8392400Y211040D01*
X8385200Y214880D01*
X8376800Y216800D01*
X8368400Y212960D01*
X8361200Y205280D01*
X8356400Y193760D01*
X8354000Y178400D01*
X8356400Y163040D01*
X8361200Y151520D01*
X8368400Y143840D01*
X8376800Y140000D01*
X8385200Y141920D01*
X8392400Y147680D01*
X8397200Y155360D01*
G01X8433200Y140000D02*
Y216800D01*
G01Y195680D02*
X8436800Y205280D01*
X8442800Y212960D01*
X8451200Y216800D01*
X8459600Y212960D01*
X8465600Y205280D01*
X8469200Y195680D01*
Y140000D01*
G01Y195680D02*
X8472800Y205280D01*
X8478800Y212960D01*
X8487200Y216800D01*
X8495600Y212960D01*
X8501600Y205280D01*
X8505200Y193760D01*
Y140000D01*
G01X8544800Y191840D02*
X8583200D01*
X8579600Y205280D01*
X8573600Y212960D01*
X8565200Y216800D01*
X8556800Y214880D01*
X8549600Y209120D01*
X8544800Y195680D01*
X8542400Y184160D01*
Y172640D01*
X8544800Y161120D01*
X8550800Y149600D01*
X8558000Y141920D01*
X8566400Y140000D01*
X8574800Y143840D01*
X8583200Y155360D01*
G01X8638400Y153440D02*
X8644400Y145760D01*
X8652800Y140000D01*
X8660000D01*
X8667200Y143840D01*
X8672000Y149600D01*
X8674400Y157280D01*
X8673200Y168800D01*
X8668400Y174560D01*
X8646800Y186080D01*
X8642000Y199520D01*
X8644400Y209120D01*
X8649200Y214880D01*
X8656400Y216800D01*
X8663600Y214880D01*
X8670800Y209120D01*
G01X8813600Y140000D02*
X8843600Y255200D01*
X8873600Y140000D01*
G01X8862800Y180320D02*
X8824400D01*
G01X8958800Y255200D02*
Y140000D01*
G01Y157280D02*
X8954000Y147680D01*
X8946800Y141920D01*
X8938400Y140000D01*
X8928800Y143840D01*
X8921600Y153440D01*
X8916800Y164960D01*
X8915600Y178400D01*
X8916800Y191840D01*
X8921600Y203360D01*
X8928800Y212960D01*
X8938400Y216800D01*
X8946800Y214880D01*
X8952800Y211040D01*
X8958800Y203360D01*
G01X9052400Y140000D02*
Y216800D01*
G01Y203360D02*
X9047600Y211040D01*
X9040400Y214880D01*
X9032000Y216800D01*
X9023600Y212960D01*
X9016400Y205280D01*
X9011600Y193760D01*
X9009200Y178400D01*
X9011600Y163040D01*
X9016400Y151520D01*
X9023600Y143840D01*
X9032000Y140000D01*
X9040400Y141920D01*
X9047600Y147680D01*
X9052400Y155360D01*
G01X9088400Y140000D02*
Y216800D01*
G01Y195680D02*
X9092000Y205280D01*
X9098000Y212960D01*
X9106400Y216800D01*
X9114800Y212960D01*
X9120800Y205280D01*
X9124400Y195680D01*
Y140000D01*
G01Y195680D02*
X9128000Y205280D01*
X9134000Y212960D01*
X9142400Y216800D01*
X9150800Y212960D01*
X9156800Y205280D01*
X9160400Y193760D01*
Y140000D01*
G01X9200000Y153440D02*
X9206000Y145760D01*
X9214400Y140000D01*
X9221600D01*
X9228800Y143840D01*
X9233600Y149600D01*
X9236000Y157280D01*
X9234800Y168800D01*
X9230000Y174560D01*
X9208400Y186080D01*
X9203600Y199520D01*
X9206000Y209120D01*
X9210800Y214880D01*
X9218000Y216800D01*
X9225200Y214880D01*
X9232400Y209120D01*
G01X8318800Y540000D02*
Y655200D01*
X8304400Y632160D01*
G01Y540000D02*
X8333200D01*
G01X8412400D02*
Y655200D01*
X8398000Y632160D01*
G01Y540000D02*
X8426800D01*
G01X8484400Y536160D02*
X8527600Y655200D01*
G01X8599600D02*
X8590000Y651360D01*
X8582800Y641760D01*
X8578000Y630240D01*
X8574400Y614880D01*
X8573200Y597600D01*
X8574400Y580320D01*
X8578000Y564960D01*
X8582800Y553440D01*
X8590000Y543840D01*
X8599600Y540000D01*
X8609200Y543840D01*
X8616400Y553440D01*
X8621200Y564960D01*
X8624800Y580320D01*
X8626000Y597600D01*
X8624800Y614880D01*
X8621200Y630240D01*
X8616400Y641760D01*
X8609200Y651360D01*
X8599600Y655200D01*
G01X8707600Y540000D02*
Y655200D01*
X8663200Y572640D01*
X8723200D01*
G01X8765200Y536160D02*
X8808400Y655200D01*
G01X8857600Y636000D02*
X8864800Y647520D01*
X8873200Y653280D01*
X8882800Y655200D01*
X8894800Y651360D01*
X8903200Y641760D01*
X8905600Y630240D01*
X8904400Y618720D01*
X8899600Y609120D01*
X8875600Y589920D01*
X8864800Y576480D01*
X8857600Y557280D01*
X8855200Y540000D01*
X8905600D01*
G01X8974000Y655200D02*
X8964400Y651360D01*
X8957200Y641760D01*
X8952400Y630240D01*
X8948800Y614880D01*
X8947600Y597600D01*
X8948800Y580320D01*
X8952400Y564960D01*
X8957200Y553440D01*
X8964400Y543840D01*
X8974000Y540000D01*
X8983600Y543840D01*
X8990800Y553440D01*
X8995600Y564960D01*
X8999200Y580320D01*
X9000400Y597600D01*
X8999200Y614880D01*
X8995600Y630240D01*
X8990800Y641760D01*
X8983600Y651360D01*
X8974000Y655200D01*
G01X9067600Y540000D02*
Y655200D01*
X9053200Y632160D01*
G01Y540000D02*
X9082000D01*
G01X9175600D02*
Y655200D01*
X9131200Y572640D01*
X9191200D01*
G01X8335200Y950000D02*
Y1065200D01*
X8365200D01*
X8374800Y1059440D01*
X8380800Y1051760D01*
X8383200Y1036400D01*
X8380800Y1021040D01*
X8373600Y1011440D01*
X8365200Y1005680D01*
X8335200D01*
G01X8365200D02*
X8383200Y950000D01*
G01X8422800D02*
X8452800Y1065200D01*
X8482800Y950000D01*
G01X8472000Y990320D02*
X8433600D01*
G01X8521200Y965360D02*
X8530800Y955760D01*
X8541600Y950000D01*
X8551200D01*
X8560800Y955760D01*
X8568000Y965360D01*
X8571600Y978800D01*
X8569200Y992240D01*
X8563200Y1003760D01*
X8552400Y1011440D01*
X8538000Y1015280D01*
X8529600Y1022960D01*
X8526000Y1036400D01*
X8528400Y1049840D01*
X8534400Y1059440D01*
X8542800Y1065200D01*
X8551200D01*
X8559600Y1061360D01*
X8566800Y1051760D01*
G01X8616000Y950000D02*
Y1065200D01*
X8644800D01*
X8654400Y1059440D01*
X8661600Y1046000D01*
X8664000Y1030640D01*
X8661600Y1015280D01*
X8655600Y1003760D01*
X8644800Y998000D01*
X8616000D01*
G01X8743200Y1011440D02*
X8748000Y1017200D01*
X8751600Y1026800D01*
X8754000Y1040240D01*
X8751600Y1051760D01*
X8746800Y1059440D01*
X8738400Y1065200D01*
X8706000D01*
Y950000D01*
X8745600D01*
X8754000Y957680D01*
X8758800Y969200D01*
X8761200Y982640D01*
X8758800Y996080D01*
X8751600Y1007600D01*
X8743200Y1011440D01*
X8706000D01*
G01X8851200Y950000D02*
X8803200D01*
Y1065200D01*
X8851200D01*
G01X8832000Y1009520D02*
X8803200D01*
G01X8896800Y950000D02*
Y1065200D01*
X8926800D01*
X8936400Y1059440D01*
X8942400Y1051760D01*
X8944800Y1036400D01*
X8942400Y1021040D01*
X8935200Y1011440D01*
X8926800Y1005680D01*
X8896800D01*
G01X8926800D02*
X8944800Y950000D01*
G01X8990400D02*
Y1065200D01*
X9020400D01*
X9030000Y1059440D01*
X9036000Y1051760D01*
X9038400Y1036400D01*
X9036000Y1021040D01*
X9028800Y1011440D01*
X9020400Y1005680D01*
X8990400D01*
G01X9020400D02*
X9038400Y950000D01*
G01X9108000D02*
Y1001840D01*
X9084000Y1065200D01*
G01X9132000D02*
X9108000Y1001840D01*
G01X9271200Y950000D02*
Y1065200D01*
X9300000D01*
X9309600Y1059440D01*
X9316800Y1046000D01*
X9319200Y1030640D01*
X9316800Y1015280D01*
X9310800Y1003760D01*
X9300000Y998000D01*
X9271200D01*
G01X9374400Y1065200D02*
X9403200D01*
G01X9388800D02*
Y950000D01*
G01X9374400D02*
X9403200D01*
G01X9602400Y1055600D02*
X9595200Y1061360D01*
X9586800Y1065200D01*
X9577200D01*
X9566400Y1059440D01*
X9558000Y1049840D01*
X9552000Y1038320D01*
X9547200Y1019120D01*
X9546000Y1001840D01*
X9548400Y984560D01*
X9552000Y973040D01*
X9559200Y961520D01*
X9567600Y953840D01*
X9576000Y950000D01*
X9584400D01*
X9592800Y953840D01*
X9600000Y959600D01*
X9606000Y967280D01*
G01X9638400Y950000D02*
Y1065200D01*
X9669600Y969200D01*
X9700800Y1065200D01*
Y950000D01*
G01X9883200Y1055600D02*
X9876000Y1061360D01*
X9867600Y1065200D01*
X9858000D01*
X9847200Y1059440D01*
X9838800Y1049840D01*
X9832800Y1038320D01*
X9828000Y1019120D01*
X9826800Y1001840D01*
X9829200Y984560D01*
X9832800Y973040D01*
X9840000Y961520D01*
X9848400Y953840D01*
X9856800Y950000D01*
X9865200D01*
X9873600Y953840D01*
X9880800Y959600D01*
X9886800Y967280D01*
G01X9920400Y950000D02*
X9950400Y1065200D01*
X9980400Y950000D01*
G01X9969600Y990320D02*
X9931200D01*
G01X10012800Y950000D02*
Y1065200D01*
X10044000Y969200D01*
X10075200Y1065200D01*
Y950000D01*
G01X10116000Y946160D02*
X10159200Y1065200D01*
G01X10204800Y950000D02*
Y1065200D01*
X10228800D01*
X10238400Y1059440D01*
X10245600Y1051760D01*
X10251600Y1040240D01*
X10256400Y1026800D01*
X10257600Y1007600D01*
X10256400Y988400D01*
X10251600Y974960D01*
X10245600Y963440D01*
X10238400Y955760D01*
X10228800Y950000D01*
X10204800D01*
G01X10310400Y1065200D02*
X10339200D01*
G01X10324800D02*
Y950000D01*
G01X10310400D02*
X10339200D01*
G01X10393200Y965360D02*
X10402800Y955760D01*
X10413600Y950000D01*
X10423200D01*
X10432800Y955760D01*
X10440000Y965360D01*
X10443600Y978800D01*
X10441200Y992240D01*
X10435200Y1003760D01*
X10424400Y1011440D01*
X10410000Y1015280D01*
X10401600Y1022960D01*
X10398000Y1036400D01*
X10400400Y1049840D01*
X10406400Y1059440D01*
X10414800Y1065200D01*
X10423200D01*
X10431600Y1061360D01*
X10438800Y1051760D01*
G01X10488000Y950000D02*
Y1065200D01*
X10516800D01*
X10526400Y1059440D01*
X10533600Y1046000D01*
X10536000Y1030640D01*
X10533600Y1015280D01*
X10527600Y1003760D01*
X10516800Y998000D01*
X10488000D01*
G01X10669200Y950000D02*
X10699200Y1065200D01*
X10729200Y950000D01*
G01X10718400Y990320D02*
X10680000D01*
G01X10766400Y950000D02*
Y1065200D01*
X10790400D01*
X10800000Y1059440D01*
X10807200Y1051760D01*
X10813200Y1040240D01*
X10818000Y1026800D01*
X10819200Y1007600D01*
X10818000Y988400D01*
X10813200Y974960D01*
X10807200Y963440D01*
X10800000Y955760D01*
X10790400Y950000D01*
X10766400D01*
G01X10856400D02*
X10886400Y1065200D01*
X10916400Y950000D01*
G01X10905600Y990320D02*
X10867200D01*
G01X10956000Y950000D02*
Y1065200D01*
X10984800D01*
X10994400Y1059440D01*
X11001600Y1046000D01*
X11004000Y1030640D01*
X11001600Y1015280D01*
X10995600Y1003760D01*
X10984800Y998000D01*
X10956000D01*
G01X11073600Y1065200D02*
Y950000D01*
G01X11046000Y1065200D02*
X11101200D01*
G01X11167200Y950000D02*
X11157600Y951920D01*
X11149200Y959600D01*
X11142000Y971120D01*
X11137200Y984560D01*
X11134800Y999920D01*
Y1015280D01*
X11137200Y1030640D01*
X11142000Y1044080D01*
X11149200Y1055600D01*
X11157600Y1063280D01*
X11167200Y1065200D01*
X11176800Y1063280D01*
X11185200Y1055600D01*
X11192400Y1044080D01*
X11197200Y1030640D01*
X11199600Y1015280D01*
Y999920D01*
X11197200Y984560D01*
X11192400Y971120D01*
X11185200Y959600D01*
X11176800Y951920D01*
X11167200Y950000D01*
G01X11236800D02*
Y1065200D01*
X11266800D01*
X11276400Y1059440D01*
X11282400Y1051760D01*
X11284800Y1036400D01*
X11282400Y1021040D01*
X11275200Y1011440D01*
X11266800Y1005680D01*
X11236800D01*
G01X11266800D02*
X11284800Y950000D01*
G01X9196000Y1766800D02*
X9210400Y1690000D01*
X9226000Y1766800D01*
X9241600Y1690000D01*
X9256000Y1766800D01*
G01X9289600D02*
X9304000Y1690000D01*
X9319600Y1766800D01*
X9335200Y1690000D01*
X9349600Y1766800D01*
G01X9383200D02*
X9397600Y1690000D01*
X9413200Y1766800D01*
X9428800Y1690000D01*
X9443200Y1766800D01*
G01X9506800Y1686160D02*
X9504400Y1688080D01*
Y1691920D01*
X9506800Y1693840D01*
X9509200Y1691920D01*
Y1688080D01*
X9506800Y1686160D01*
G01X9583600Y1690000D02*
Y1766800D01*
G01Y1751440D02*
X9589600Y1759120D01*
X9595600Y1764880D01*
X9604000Y1766800D01*
X9610000Y1764880D01*
X9617200Y1759120D01*
G01X9715600Y1690000D02*
Y1766800D01*
G01Y1753360D02*
X9710800Y1761040D01*
X9703600Y1764880D01*
X9695200Y1766800D01*
X9686800Y1762960D01*
X9679600Y1755280D01*
X9674800Y1743760D01*
X9672400Y1728400D01*
X9674800Y1713040D01*
X9679600Y1701520D01*
X9686800Y1693840D01*
X9695200Y1690000D01*
X9703600Y1691920D01*
X9710800Y1697680D01*
X9715600Y1705360D01*
G01X9769600Y1703440D02*
X9775600Y1695760D01*
X9784000Y1690000D01*
X9791200D01*
X9798400Y1693840D01*
X9803200Y1699600D01*
X9805600Y1707280D01*
X9804400Y1718800D01*
X9799600Y1724560D01*
X9778000Y1736080D01*
X9773200Y1749520D01*
X9775600Y1759120D01*
X9780400Y1764880D01*
X9787600Y1766800D01*
X9794800Y1764880D01*
X9802000Y1759120D01*
G01X9859600Y1651600D02*
Y1766800D01*
G01Y1749520D02*
X9865600Y1759120D01*
X9871600Y1764880D01*
X9881200Y1766800D01*
X9889600Y1764880D01*
X9898000Y1755280D01*
X9901600Y1741840D01*
X9902800Y1728400D01*
X9901600Y1714960D01*
X9898000Y1701520D01*
X9890800Y1693840D01*
X9881200Y1690000D01*
X9872800Y1691920D01*
X9864400Y1697680D01*
X9859600Y1705360D01*
G01X9953200Y1690000D02*
Y1805200D01*
G01Y1747600D02*
X9959200Y1759120D01*
X9966400Y1764880D01*
X9973600Y1766800D01*
X9984400Y1762960D01*
X9991600Y1755280D01*
X9996400Y1741840D01*
Y1726480D01*
X9994000Y1711120D01*
X9989200Y1699600D01*
X9980800Y1691920D01*
X9973600Y1690000D01*
X9966400Y1691920D01*
X9959200Y1697680D01*
X9953200Y1707280D01*
G01X10050400Y1741840D02*
X10088800D01*
X10085200Y1755280D01*
X10079200Y1762960D01*
X10070800Y1766800D01*
X10062400Y1764880D01*
X10055200Y1759120D01*
X10050400Y1745680D01*
X10048000Y1734160D01*
Y1722640D01*
X10050400Y1711120D01*
X10056400Y1699600D01*
X10063600Y1691920D01*
X10072000Y1690000D01*
X10080400Y1693840D01*
X10088800Y1705360D01*
G01X10145200Y1690000D02*
Y1766800D01*
G01Y1751440D02*
X10151200Y1759120D01*
X10157200Y1764880D01*
X10165600Y1766800D01*
X10171600Y1764880D01*
X10178800Y1759120D01*
G01X10238800Y1690000D02*
Y1766800D01*
G01Y1751440D02*
X10244800Y1759120D01*
X10250800Y1764880D01*
X10259200Y1766800D01*
X10265200Y1764880D01*
X10272400Y1759120D01*
G01X10324000Y1655440D02*
X10331200Y1651600D01*
X10340800Y1655440D01*
X10346800Y1663120D01*
X10351600Y1672720D01*
X10358800Y1703440D01*
X10374400Y1766800D01*
G01X10336000D02*
X10358800Y1703440D01*
G01X10421200Y1651600D02*
Y1766800D01*
G01Y1749520D02*
X10427200Y1759120D01*
X10433200Y1764880D01*
X10442800Y1766800D01*
X10451200Y1764880D01*
X10459600Y1755280D01*
X10463200Y1741840D01*
X10464400Y1728400D01*
X10463200Y1714960D01*
X10459600Y1701520D01*
X10452400Y1693840D01*
X10442800Y1690000D01*
X10434400Y1691920D01*
X10426000Y1697680D01*
X10421200Y1705360D01*
G01X10536400Y1766800D02*
Y1690000D01*
G01Y1797520D02*
X10534000Y1799440D01*
Y1803280D01*
X10536400Y1805200D01*
X10538800Y1803280D01*
Y1799440D01*
X10536400Y1797520D01*
G01X10630000Y1686160D02*
X10627600Y1688080D01*
Y1691920D01*
X10630000Y1693840D01*
X10632400Y1691920D01*
Y1688080D01*
X10630000Y1686160D01*
G01X10723600Y1690000D02*
X10716400Y1691920D01*
X10709200Y1699600D01*
X10704400Y1713040D01*
X10702000Y1728400D01*
X10704400Y1743760D01*
X10709200Y1757200D01*
X10716400Y1764880D01*
X10723600Y1766800D01*
X10730800Y1764880D01*
X10738000Y1757200D01*
X10742800Y1743760D01*
X10744000Y1728400D01*
X10742800Y1713040D01*
X10738000Y1699600D01*
X10730800Y1691920D01*
X10723600Y1690000D01*
G01X10800400D02*
Y1766800D01*
G01Y1751440D02*
X10806400Y1759120D01*
X10812400Y1764880D01*
X10820800Y1766800D01*
X10826800Y1764880D01*
X10834000Y1759120D01*
G01X10894000Y1661200D02*
X10902400Y1653520D01*
X10912000Y1651600D01*
X10920400Y1653520D01*
X10927600Y1663120D01*
X10932400Y1676560D01*
Y1766800D01*
G01Y1751440D02*
X10927600Y1759120D01*
X10920400Y1764880D01*
X10912000Y1766800D01*
X10902400Y1762960D01*
X10896400Y1755280D01*
X10891600Y1741840D01*
X10889200Y1728400D01*
X10890400Y1716880D01*
X10895200Y1703440D01*
X10902400Y1693840D01*
X10912000Y1690000D01*
X10919200Y1691920D01*
X10927600Y1699600D01*
X10932400Y1707280D01*
G01X10438000Y163040D02*
X10444000Y151520D01*
X10451200Y143840D01*
X10459600Y140000D01*
X10469200Y143840D01*
X10476400Y151520D01*
X10483600Y163040D01*
X10486000Y178400D01*
Y255200D01*
G01X10577200Y140000D02*
Y216800D01*
G01Y203360D02*
X10572400Y211040D01*
X10565200Y214880D01*
X10556800Y216800D01*
X10548400Y212960D01*
X10541200Y205280D01*
X10536400Y193760D01*
X10534000Y178400D01*
X10536400Y163040D01*
X10541200Y151520D01*
X10548400Y143840D01*
X10556800Y140000D01*
X10565200Y141920D01*
X10572400Y147680D01*
X10577200Y155360D01*
G01X10613200Y140000D02*
Y216800D01*
G01Y195680D02*
X10616800Y205280D01*
X10622800Y212960D01*
X10631200Y216800D01*
X10639600Y212960D01*
X10645600Y205280D01*
X10649200Y195680D01*
Y140000D01*
G01Y195680D02*
X10652800Y205280D01*
X10658800Y212960D01*
X10667200Y216800D01*
X10675600Y212960D01*
X10681600Y205280D01*
X10685200Y193760D01*
Y140000D01*
G01X10724800Y191840D02*
X10763200D01*
X10759600Y205280D01*
X10753600Y212960D01*
X10745200Y216800D01*
X10736800Y214880D01*
X10729600Y209120D01*
X10724800Y195680D01*
X10722400Y184160D01*
Y172640D01*
X10724800Y161120D01*
X10730800Y149600D01*
X10738000Y141920D01*
X10746400Y140000D01*
X10754800Y143840D01*
X10763200Y155360D01*
G01X10818400Y153440D02*
X10824400Y145760D01*
X10832800Y140000D01*
X10840000D01*
X10847200Y143840D01*
X10852000Y149600D01*
X10854400Y157280D01*
X10853200Y168800D01*
X10848400Y174560D01*
X10826800Y186080D01*
X10822000Y199520D01*
X10824400Y209120D01*
X10829200Y214880D01*
X10836400Y216800D01*
X10843600Y214880D01*
X10850800Y209120D01*
G01X10993600Y140000D02*
X11023600Y255200D01*
X11053600Y140000D01*
G01X11042800Y180320D02*
X11004400D01*
G01X11138800Y255200D02*
Y140000D01*
G01Y157280D02*
X11134000Y147680D01*
X11126800Y141920D01*
X11118400Y140000D01*
X11108800Y143840D01*
X11101600Y153440D01*
X11096800Y164960D01*
X11095600Y178400D01*
X11096800Y191840D01*
X11101600Y203360D01*
X11108800Y212960D01*
X11118400Y216800D01*
X11126800Y214880D01*
X11132800Y211040D01*
X11138800Y203360D01*
G01X11232400Y140000D02*
Y216800D01*
G01Y203360D02*
X11227600Y211040D01*
X11220400Y214880D01*
X11212000Y216800D01*
X11203600Y212960D01*
X11196400Y205280D01*
X11191600Y193760D01*
X11189200Y178400D01*
X11191600Y163040D01*
X11196400Y151520D01*
X11203600Y143840D01*
X11212000Y140000D01*
X11220400Y141920D01*
X11227600Y147680D01*
X11232400Y155360D01*
G01X11268400Y140000D02*
Y216800D01*
G01Y195680D02*
X11272000Y205280D01*
X11278000Y212960D01*
X11286400Y216800D01*
X11294800Y212960D01*
X11300800Y205280D01*
X11304400Y195680D01*
Y140000D01*
G01Y195680D02*
X11308000Y205280D01*
X11314000Y212960D01*
X11322400Y216800D01*
X11330800Y212960D01*
X11336800Y205280D01*
X11340400Y193760D01*
Y140000D01*
G01X11380000Y153440D02*
X11386000Y145760D01*
X11394400Y140000D01*
X11401600D01*
X11408800Y143840D01*
X11413600Y149600D01*
X11416000Y157280D01*
X11414800Y168800D01*
X11410000Y174560D01*
X11388400Y186080D01*
X11383600Y199520D01*
X11386000Y209120D01*
X11390800Y214880D01*
X11398000Y216800D01*
X11405200Y214880D01*
X11412400Y209120D01*
G01X10287600Y530000D02*
Y645200D01*
X10317600D01*
X10327200Y639440D01*
X10333200Y631760D01*
X10335600Y616400D01*
X10333200Y601040D01*
X10326000Y591440D01*
X10317600Y585680D01*
X10287600D01*
G01X10317600D02*
X10335600Y530000D01*
G01X10381200D02*
Y645200D01*
X10410000D01*
X10419600Y639440D01*
X10426800Y626000D01*
X10429200Y610640D01*
X10426800Y595280D01*
X10420800Y583760D01*
X10410000Y578000D01*
X10381200D01*
G01X10484400Y645200D02*
X10513200D01*
G01X10498800D02*
Y530000D01*
G01X10484400D02*
X10513200D01*
G01X10576800Y568400D02*
X10608000D01*
G01X10712400Y635600D02*
X10705200Y641360D01*
X10696800Y645200D01*
X10687200D01*
X10676400Y639440D01*
X10668000Y629840D01*
X10662000Y618320D01*
X10657200Y599120D01*
X10656000Y581840D01*
X10658400Y564560D01*
X10662000Y553040D01*
X10669200Y541520D01*
X10677600Y533840D01*
X10686000Y530000D01*
X10694400D01*
X10702800Y533840D01*
X10710000Y539600D01*
X10716000Y547280D01*
G01X10748400Y530000D02*
Y645200D01*
X10779600Y549200D01*
X10810800Y645200D01*
Y530000D01*
G01X10899600Y635600D02*
X10892400Y641360D01*
X10884000Y645200D01*
X10874400D01*
X10863600Y639440D01*
X10855200Y629840D01*
X10849200Y618320D01*
X10844400Y599120D01*
X10843200Y581840D01*
X10845600Y564560D01*
X10849200Y553040D01*
X10856400Y541520D01*
X10864800Y533840D01*
X10873200Y530000D01*
X10881600D01*
X10890000Y533840D01*
X10897200Y539600D01*
X10903200Y547280D01*
G01X10940400Y530000D02*
Y645200D01*
X10964400D01*
X10974000Y639440D01*
X10981200Y631760D01*
X10987200Y620240D01*
X10992000Y606800D01*
X10993200Y587600D01*
X10992000Y568400D01*
X10987200Y554960D01*
X10981200Y543440D01*
X10974000Y535760D01*
X10964400Y530000D01*
X10940400D01*
G01X11030400D02*
X11060400Y645200D01*
X11090400Y530000D01*
G01X11079600Y570320D02*
X11041200D01*
G01X11138400Y568400D02*
X11169600D01*
G01X11217600Y645200D02*
X11247600Y530000D01*
X11277600Y645200D01*
G01X11341200Y530000D02*
Y645200D01*
X11326800Y622160D01*
G01Y530000D02*
X11355600D01*
G01X11398800Y491600D02*
X11470800D01*
G01X11528400Y530000D02*
Y645200D01*
X11514000Y622160D01*
G01Y530000D02*
X11542800D01*
G54D13*
G01X7398000Y160000D02*
Y256000D01*
X7418000D01*
X7426000Y251200D01*
X7432000Y244800D01*
X7437000Y235200D01*
X7441000Y224000D01*
X7442000Y208000D01*
X7441000Y192000D01*
X7437000Y180800D01*
X7432000Y171200D01*
X7426000Y164800D01*
X7418000Y160000D01*
X7398000D01*
G01X7478000D02*
Y256000D01*
X7503000D01*
X7511000Y251200D01*
X7516000Y244800D01*
X7518000Y232000D01*
X7516000Y219200D01*
X7510000Y211200D01*
X7503000Y206400D01*
X7478000D01*
G01X7503000D02*
X7518000Y160000D01*
G01X7551000D02*
X7576000Y256000D01*
X7601000Y160000D01*
G01X7592000Y193600D02*
X7560000D01*
G01X7624000Y256000D02*
X7638000Y160000D01*
X7654000Y256000D01*
X7670000Y160000D01*
X7684000Y256000D01*
G01X7709000Y160000D02*
Y256000D01*
X7755000Y160000D01*
Y256000D01*
G01X7420000Y1046000D02*
Y950000D01*
G01X7397000Y1046000D02*
X7443000D01*
G01X7486000D02*
X7510000D01*
G01X7498000D02*
Y950000D01*
G01X7486000D02*
X7510000D01*
G01X7576000Y1046000D02*
Y950000D01*
G01X7553000Y1046000D02*
X7599000D01*
G01X7634000D02*
Y950000D01*
X7674000D01*
G01X7752000D02*
X7712000D01*
Y1046000D01*
X7752000D01*
G01X7736000Y999600D02*
X7712000D01*
G01X7428000Y550000D02*
Y646000D01*
X7448000D01*
X7456000Y641200D01*
X7462000Y634800D01*
X7467000Y625200D01*
X7471000Y614000D01*
X7472000Y598000D01*
X7471000Y582000D01*
X7467000Y570800D01*
X7462000Y561200D01*
X7456000Y554800D01*
X7448000Y550000D01*
X7428000D01*
G01X7503000D02*
X7528000Y646000D01*
X7553000Y550000D01*
G01X7544000Y583600D02*
X7512000D01*
G01X7606000Y646000D02*
Y550000D01*
G01X7583000Y646000D02*
X7629000D01*
G01X7704000Y550000D02*
X7664000D01*
Y646000D01*
X7704000D01*
G01X7688000Y599600D02*
X7664000D01*
G01X9336000Y1496000D02*
X9329000Y1502400D01*
X9323000Y1504000D01*
X9315000Y1500800D01*
X9309000Y1494400D01*
X9305000Y1483200D01*
X9304000Y1472000D01*
X9305000Y1460800D01*
X9309000Y1451200D01*
X9315000Y1443200D01*
X9323000Y1440000D01*
X9330000Y1443200D01*
X9336000Y1449600D01*
G01X9534000Y1440000D02*
Y1536000D01*
X9559000D01*
X9567000Y1531200D01*
X9572000Y1524800D01*
X9574000Y1512000D01*
X9572000Y1499200D01*
X9566000Y1491200D01*
X9559000Y1486400D01*
X9534000D01*
G01X9559000D02*
X9574000Y1440000D01*
G01X9650000D02*
Y1504000D01*
G01Y1492800D02*
X9646000Y1499200D01*
X9640000Y1502400D01*
X9633000Y1504000D01*
X9626000Y1500800D01*
X9620000Y1494400D01*
X9616000Y1484800D01*
X9614000Y1472000D01*
X9616000Y1459200D01*
X9620000Y1449600D01*
X9626000Y1443200D01*
X9633000Y1440000D01*
X9640000Y1441600D01*
X9646000Y1446400D01*
X9650000Y1452800D01*
G01X9695000Y1451200D02*
X9700000Y1444800D01*
X9707000Y1440000D01*
X9713000D01*
X9719000Y1443200D01*
X9723000Y1448000D01*
X9725000Y1454400D01*
X9724000Y1464000D01*
X9720000Y1468800D01*
X9702000Y1478400D01*
X9698000Y1489600D01*
X9700000Y1497600D01*
X9704000Y1502400D01*
X9710000Y1504000D01*
X9716000Y1502400D01*
X9722000Y1497600D01*
G01X9770000Y1408000D02*
Y1504000D01*
G01Y1489600D02*
X9775000Y1497600D01*
X9780000Y1502400D01*
X9788000Y1504000D01*
X9795000Y1502400D01*
X9802000Y1494400D01*
X9805000Y1483200D01*
X9806000Y1472000D01*
X9805000Y1460800D01*
X9802000Y1449600D01*
X9796000Y1443200D01*
X9788000Y1440000D01*
X9781000Y1441600D01*
X9774000Y1446400D01*
X9770000Y1452800D01*
G01X9848000Y1440000D02*
Y1536000D01*
G01Y1488000D02*
X9853000Y1497600D01*
X9859000Y1502400D01*
X9865000Y1504000D01*
X9874000Y1500800D01*
X9880000Y1494400D01*
X9884000Y1483200D01*
Y1470400D01*
X9882000Y1457600D01*
X9878000Y1448000D01*
X9871000Y1441600D01*
X9865000Y1440000D01*
X9859000Y1441600D01*
X9853000Y1446400D01*
X9848000Y1454400D01*
G01X9929000Y1483200D02*
X9961000D01*
X9958000Y1494400D01*
X9953000Y1500800D01*
X9946000Y1504000D01*
X9939000Y1502400D01*
X9933000Y1497600D01*
X9929000Y1486400D01*
X9927000Y1476800D01*
Y1467200D01*
X9929000Y1457600D01*
X9934000Y1448000D01*
X9940000Y1441600D01*
X9947000Y1440000D01*
X9954000Y1443200D01*
X9961000Y1452800D01*
G01X10008000Y1440000D02*
Y1504000D01*
G01Y1491200D02*
X10013000Y1497600D01*
X10018000Y1502400D01*
X10025000Y1504000D01*
X10030000Y1502400D01*
X10036000Y1497600D01*
G01X10086000Y1440000D02*
Y1504000D01*
G01Y1491200D02*
X10091000Y1497600D01*
X10096000Y1502400D01*
X10103000Y1504000D01*
X10108000Y1502400D01*
X10114000Y1497600D01*
G01X10157000Y1411200D02*
X10163000Y1408000D01*
X10171000Y1411200D01*
X10176000Y1417600D01*
X10180000Y1425600D01*
X10186000Y1451200D01*
X10199000Y1504000D01*
G01X10167000D02*
X10186000Y1451200D01*
G01X10314000Y1440000D02*
Y1536000D01*
X10338000D01*
X10346000Y1531200D01*
X10352000Y1520000D01*
X10354000Y1507200D01*
X10352000Y1494400D01*
X10347000Y1484800D01*
X10338000Y1480000D01*
X10314000D01*
G01X10412000Y1504000D02*
Y1440000D01*
G01Y1529600D02*
X10410000Y1531200D01*
Y1534400D01*
X10412000Y1536000D01*
X10414000Y1534400D01*
Y1531200D01*
X10412000Y1529600D01*
G01X10549000Y1520000D02*
X10555000Y1529600D01*
X10562000Y1534400D01*
X10570000Y1536000D01*
X10580000Y1532800D01*
X10587000Y1524800D01*
X10589000Y1515200D01*
X10588000Y1505600D01*
X10584000Y1497600D01*
X10564000Y1481600D01*
X10555000Y1470400D01*
X10549000Y1454400D01*
X10547000Y1440000D01*
X10589000D01*
G01X10646000Y1536000D02*
X10638000Y1532800D01*
X10632000Y1524800D01*
X10628000Y1515200D01*
X10625000Y1502400D01*
X10624000Y1488000D01*
X10625000Y1473600D01*
X10628000Y1460800D01*
X10632000Y1451200D01*
X10638000Y1443200D01*
X10646000Y1440000D01*
X10654000Y1443200D01*
X10660000Y1451200D01*
X10664000Y1460800D01*
X10667000Y1473600D01*
X10668000Y1488000D01*
X10667000Y1502400D01*
X10664000Y1515200D01*
X10660000Y1524800D01*
X10654000Y1532800D01*
X10646000Y1536000D01*
G01X10724000Y1440000D02*
Y1536000D01*
X10712000Y1516800D01*
G01Y1440000D02*
X10736000D01*
G01X10814000D02*
Y1536000D01*
X10777000Y1467200D01*
X10827000D01*
G01X9685000Y150000D02*
X9710000Y246000D01*
X9735000Y150000D01*
G01X9726000Y183600D02*
X9694000D01*
G01X9768000Y150000D02*
Y246000D01*
X9792000D01*
X9800000Y241200D01*
X9806000Y230000D01*
X9808000Y217200D01*
X9806000Y204400D01*
X9801000Y194800D01*
X9792000Y190000D01*
X9768000D01*
G01X9841000Y246000D02*
X9866000Y150000D01*
X9891000Y246000D01*
G01X9922000Y150000D02*
Y246000D01*
X9942000D01*
X9950000Y241200D01*
X9956000Y234800D01*
X9961000Y225200D01*
X9965000Y214000D01*
X9966000Y198000D01*
X9965000Y182000D01*
X9961000Y170800D01*
X9956000Y161200D01*
X9950000Y154800D01*
X9942000Y150000D01*
X9922000D01*
G01X9720000Y540000D02*
Y636000D01*
X9745000D01*
X9753000Y631200D01*
X9758000Y624800D01*
X9760000Y612000D01*
X9758000Y599200D01*
X9752000Y591200D01*
X9745000Y586400D01*
X9720000D01*
G01X9745000D02*
X9760000Y540000D01*
G01X9838000D02*
X9798000D01*
Y636000D01*
X9838000D01*
G01X9822000Y589600D02*
X9798000D01*
G01X9877000Y540000D02*
Y636000D01*
X9915000D01*
G01X9901000Y589600D02*
X9877000D01*
M02*
