M48
METRIC
T01C.65
T02C.7
T03C.9
;EXTENTS: -2.500  -2.500  27.500  27.500  
;LEADER: 12 
;HEADER: 
;CODE  : ASCII 
;FILE  : C:/raspberrypi/rpi1/rpi-cmio/board/GERBERS/RPI-CMIO-V1_2-PUBLIC.rou for board #Taaaaak04716.tmp
%
G90
F1
M16
T02
M16
G00X011275Y001650
G40
M15
G01X011275Y002350
M16
G00X016725Y001650
G40
M15
G01X016725Y002350
M16
T01
M16
G00X011575Y004830
G40
M15
G01X011575Y005230
M16
G00X016425Y004830
G40
M15
G01X016425Y005230
M16
T02
M16
G00X070275Y001650
G40
M15
G01X070275Y002350
M16
G00X075725Y001650
G40
M15
G01X075725Y002350
M16
T01
M16
G00X070575Y004830
G40
M15
G01X070575Y005230
M16
G00X075425Y004830
G40
M15
G01X075425Y005230
M16
T03
M16
G00X008080Y059750
G40
M15
G01X009880Y059750
M16
G00X008080Y045250
G40
M15
G01X009880Y045250
M16
G00X002620Y059750
G40
M15
G01X003420Y059750
M16
G00X002620Y045250
G40
M15
G01X003420Y045250
M16
G40
M30
