G04 ================== begin FILE IDENTIFICATION RECORD ==================*
G04 Layout Name:  C:/raspberrypi/rpi1/rpi-cmio/board/RPI-CMIO-V1_2-PUBLIC.brd*
G04 Film Name:    RPI-CMIO-V1_2-PUBLIC-L06*
G04 File Format:  Gerber RS274X*
G04 File Origin:  Cadence Allegro 16.6-S029*
G04 Origin Date:  Mon Oct 13 10:37:43 2014*
G04 *
G04 Layer:  VIA CLASS/BOTTOM*
G04 Layer:  PIN/BOTTOM*
G04 Layer:  MANUFACTURING/TITLEBLOCK*
G04 Layer:  ETCH/BOTTOM*
G04 *
G04 Offset:    (0.0000 0.0000)*
G04 Mirror:    No*
G04 Mode:      Positive*
G04 Rotation:  0*
G04 FullContactRelief:  No*
G04 UndefLineWidth:     0.0000*
G04 ================== end FILE IDENTIFICATION RECORD ====================*
%FSLAX35Y35*MOMM*%
%IR0*IPPOS*OFA0.00000B0.00000*MIA0B0*SFA1.00000B1.00000*%
%ADD10C,.5*%
%ADD11O,2.3X1.5*%
%ADD15O,3.3X1.5*%
%ADD12O,1.1X1.8*%
%ADD13O,1.05X1.45*%
%ADD20C,1.*%
%ADD14C,2.*%
%ADD19C,1.5*%
%ADD16C,1.6*%
%ADD18C,3.45*%
%ADD17R,1.6X1.6*%
%ADD21C,.2*%
%ADD22C,.3*%
%ADD23C,.116*%
%ADD24C,.215*%
%ADD25C,.18*%
%ADD26C,.216*%
%ADD27C,.8004*%
%ADD29R,2.0004X2.0004*%
%ADD31O,1.5004X2.2004*%
%ADD28C,2.0004*%
%ADD37C,2.1004*%
%ADD38C,2.3004*%
%ADD36C,1.6004*%
%ADD33O,2.7004X1.9004*%
%ADD32O,3.7004X1.9004*%
%ADD35C,1.9004*%
%ADD30O,1.4504X1.8504*%
%ADD34C,3.8504*%
G75*
%LPD*%
G75*
G36*
G01X7957260Y69490D02*
G02X7953240Y50000I-4027J-9329D01*
G01X546760D01*
G02X542740Y69490I7J10161D01*
G03X69490Y542740I-142740J330510D01*
G02X50000Y546760I-9329J4027D01*
G01Y9953240D01*
G02X69490Y9957260I10161J-7D01*
G03X542740Y10430510I330510J142740D01*
G02X546760Y10450000I4027J9329D01*
G01X7953240D01*
G02X7957260Y10430510I-7J-10161D01*
G03X8430510Y9957260I142740J-330510D01*
G02X8450000Y9953240I9329J-4027D01*
G01Y546760D01*
G02X8430510Y542740I-10161J7D01*
G03X7957260Y69490I-330510J-142740D01*
G37*
G36*
G01X11647850Y2398650D02*
X11644880Y2397640D01*
X11643260Y2397220D01*
X11641590Y2396850D01*
X11639920Y2396560D01*
X11638300Y2396350D01*
X11636750Y2396230D01*
X11635330Y2396190D01*
X11634080Y2396260D01*
X11620560Y2397070D01*
X11615100Y2397160D01*
X11610410Y2397030D01*
X11606400Y2396680D01*
X11602980Y2396100D01*
X11600080Y2395290D01*
X11597620Y2394240D01*
X11595510Y2392960D01*
X11592920Y2391200D01*
X11591690Y2390540D01*
X11590500Y2390040D01*
X11589340Y2389670D01*
X11588200Y2389430D01*
X11587080Y2389330D01*
X11585970Y2389340D01*
X11584860Y2389470D01*
X11579150Y2389760D01*
X11575890Y2389440D01*
X11572540Y2388860D01*
X11569260Y2388050D01*
X11566180Y2387050D01*
X11563430Y2385890D01*
X11561170Y2384600D01*
X11559520Y2383220D01*
X11557780Y2381750D01*
X11556740Y2381180D01*
X11555540Y2380710D01*
X11554140Y2380340D01*
X11552520Y2380070D01*
X11550640Y2379880D01*
X11548450Y2379770D01*
X11545940Y2379730D01*
X11536850Y2379110D01*
X11532380Y2378350D01*
X11528050Y2377330D01*
X11523900Y2376060D01*
X11520010Y2374570D01*
X11516440Y2372860D01*
X11513250Y2370960D01*
X11510500Y2368900D01*
X11507570Y2366660D01*
X11506060Y2365770D01*
X11504490Y2365010D01*
X11502800Y2364370D01*
X11500980Y2363820D01*
X11498980Y2363370D01*
X11496780Y2362980D01*
X11494340Y2362650D01*
X11480530Y2359510D01*
X11475300Y2356770D01*
X11471170Y2353250D01*
X11468160Y2348950D01*
X11466250Y2343870D01*
X11465450Y2338000D01*
X11465760Y2331350D01*
X11467160Y2323900D01*
X11467980Y2319880D01*
X11468160Y2318230D01*
X11468170Y2316710D01*
X11468000Y2315260D01*
X11467640Y2313780D01*
X11467080Y2312210D01*
X11466320Y2310470D01*
X11465330Y2308480D01*
X11462720Y2302490D01*
X11462030Y2299820D01*
X11461750Y2297240D01*
X11461890Y2294630D01*
X11462440Y2291910D01*
X11463410Y2288960D01*
X11464800Y2285710D01*
X11466610Y2282030D01*
X11468850Y2277500D01*
X11469650Y2275630D01*
X11470230Y2273950D01*
X11470610Y2272420D01*
X11470800Y2270980D01*
X11470810Y2269600D01*
X11470630Y2268220D01*
X11470290Y2266790D01*
X11469740Y2261680D01*
X11469960Y2258900D01*
X11470510Y2255980D01*
X11471380Y2252950D01*
X11472570Y2249820D01*
X11474070Y2246600D01*
X11475880Y2243320D01*
X11478000Y2239970D01*
X11480250Y2236240D01*
X11481140Y2234480D01*
X11481880Y2232770D01*
X11482480Y2231070D01*
X11482930Y2229360D01*
X11483260Y2227630D01*
X11483440Y2225850D01*
X11483510Y2223990D01*
X11484080Y2217540D01*
X11484800Y2214500D01*
X11485820Y2211560D01*
X11487140Y2208710D01*
X11488760Y2205940D01*
X11490680Y2203230D01*
X11492900Y2200560D01*
X11495440Y2197920D01*
X11498030Y2195180D01*
X11499070Y2193860D01*
X11499930Y2192580D01*
X11500640Y2191320D01*
X11501180Y2190090D01*
X11501560Y2188890D01*
X11501790Y2187700D01*
X11501870Y2186530D01*
X11503120Y2179370D01*
X11504650Y2175690D01*
X11506760Y2171990D01*
X11509420Y2168290D01*
X11512610Y2164610D01*
X11516320Y2160990D01*
X11520520Y2157450D01*
X11525190Y2154020D01*
X11527290Y2152420D01*
X11528230Y2151560D01*
X11529070Y2150690D01*
X11529810Y2149830D01*
X11530410Y2149020D01*
X11530860Y2148260D01*
X11531150Y2147600D01*
X11531250Y2147040D01*
X11532450Y2142510D01*
X11533800Y2139730D01*
X11535530Y2136790D01*
X11537530Y2133850D01*
X11539710Y2131030D01*
X11541960Y2128490D01*
X11544190Y2126370D01*
X11546300Y2124820D01*
X11548810Y2123410D01*
X11550240Y2122690D01*
X11551740Y2121980D01*
X11553270Y2121290D01*
X11554790Y2120640D01*
X11556270Y2120060D01*
X11557680Y2119550D01*
X11558970Y2119130D01*
X11562030Y2117910D01*
X11563310Y2117170D01*
X11564450Y2116320D01*
X11565500Y2115330D01*
X11566450Y2114160D01*
X11567350Y2112800D01*
X11568220Y2111220D01*
X11569070Y2109390D01*
X11572360Y2103980D01*
X11574530Y2101540D01*
X11577040Y2099290D01*
X11579870Y2097240D01*
X11583010Y2095390D01*
X11586460Y2093770D01*
X11590200Y2092370D01*
X11594230Y2091210D01*
X11603040Y2089010D01*
X11589640Y2080560D01*
X11565280Y2062640D01*
X11554810Y2053060D01*
X11545440Y2043020D01*
X11537150Y2032480D01*
X11529900Y2021440D01*
X11523670Y2009840D01*
X11518440Y1997660D01*
X11514170Y1984870D01*
X11511160Y1972860D01*
X11509810Y1966180D01*
X11508610Y1959270D01*
X11507570Y1952310D01*
X11506720Y1945480D01*
X11506080Y1938930D01*
X11505680Y1932840D01*
X11505540Y1927390D01*
X11504740Y1920410D01*
X11503790Y1917000D01*
X11502510Y1913720D01*
X11500930Y1910630D01*
X11499090Y1907790D01*
X11497020Y1905250D01*
X11494760Y1903070D01*
X11492320Y1901310D01*
X11485470Y1896100D01*
X11481240Y1892270D01*
X11476720Y1887880D01*
X11472110Y1883130D01*
X11467590Y1878210D01*
X11463360Y1873320D01*
X11459600Y1868650D01*
X11456510Y1864400D01*
X11443690Y1842930D01*
X11438570Y1832180D01*
X11434270Y1821340D01*
X11430800Y1810350D01*
X11428130Y1799150D01*
X11426240Y1787690D01*
X11425120Y1775910D01*
X11424750Y1763750D01*
X11426400Y1740340D01*
X11428470Y1728990D01*
X11431350Y1717880D01*
X11435060Y1707020D01*
X11439570Y1696400D01*
X11444900Y1686030D01*
X11451040Y1675910D01*
X11457980Y1666050D01*
X11462090Y1660210D01*
X11463780Y1657540D01*
X11465240Y1654970D01*
X11466510Y1652480D01*
X11467610Y1650010D01*
X11468560Y1647530D01*
X11469380Y1644990D01*
X11470100Y1642360D01*
X11471560Y1636620D01*
X11472680Y1632660D01*
X11474010Y1628130D01*
X11475510Y1623150D01*
X11477130Y1617830D01*
X11478850Y1612290D01*
X11480620Y1606650D01*
X11482400Y1601030D01*
X11486060Y1589620D01*
X11487820Y1583910D01*
X11489490Y1578350D01*
X11491030Y1573070D01*
X11492410Y1568210D01*
X11493600Y1563880D01*
X11494560Y1560210D01*
X11495260Y1557320D01*
X11500780Y1538220D01*
X11504530Y1528810D01*
X11508920Y1519530D01*
X11513920Y1510410D01*
X11519520Y1501480D01*
X11525700Y1492770D01*
X11532430Y1484320D01*
X11539690Y1476150D01*
X11552930Y1463330D01*
X11559930Y1457350D01*
X11567050Y1451770D01*
X11574160Y1446660D01*
X11581150Y1442110D01*
X11587910Y1438200D01*
X11594330Y1435010D01*
X11600290Y1432620D01*
X11603190Y1431200D01*
X11605260Y1430030D01*
X11607650Y1428600D01*
X11610290Y1426950D01*
X11613130Y1425110D01*
X11616090Y1423120D01*
X11619120Y1421020D01*
X11622140Y1418850D01*
X11641480Y1405620D01*
X11650680Y1399770D01*
X11659640Y1394400D01*
X11668430Y1389450D01*
X11677090Y1384900D01*
X11685690Y1380720D01*
X11694290Y1376860D01*
X11702930Y1373300D01*
X11707830Y1371020D01*
X11710430Y1369580D01*
X11713100Y1367950D01*
X11715820Y1366160D01*
X11718570Y1364230D01*
X11721340Y1362160D01*
X11724090Y1359970D01*
X11726800Y1357690D01*
X11738490Y1347810D01*
X11743760Y1343690D01*
X11748820Y1339990D01*
X11753810Y1336620D01*
X11758880Y1333490D01*
X11764140Y1330510D01*
X11769750Y1327580D01*
X11775830Y1324630D01*
X11792110Y1317680D01*
X11799910Y1315010D01*
X11807660Y1312830D01*
X11815520Y1311110D01*
X11823610Y1309830D01*
X11832090Y1308950D01*
X11841090Y1308450D01*
X11850750Y1308290D01*
X11882580Y1310490D01*
X11897410Y1313420D01*
X11911690Y1317640D01*
X11925550Y1323200D01*
X11939100Y1330150D01*
X11952490Y1338540D01*
X11965840Y1348440D01*
X11979280Y1359890D01*
X11983630Y1363440D01*
X11985980Y1365160D01*
X11988410Y1366830D01*
X11990870Y1368400D01*
X11993330Y1369860D01*
X11995770Y1371180D01*
X11998130Y1372340D01*
X12000400Y1373300D01*
X12014870Y1379490D01*
X12022810Y1383340D01*
X12031040Y1387580D01*
X12039410Y1392140D01*
X12047760Y1396930D01*
X12055950Y1401870D01*
X12063840Y1406870D01*
X12071280Y1411870D01*
X12079630Y1417490D01*
X12084130Y1420390D01*
X12088700Y1423250D01*
X12093220Y1426020D01*
X12097600Y1428630D01*
X12101710Y1431010D01*
X12105460Y1433090D01*
X12108730Y1434820D01*
X12120970Y1441500D01*
X12126710Y1445030D01*
X12132250Y1448730D01*
X12137660Y1452650D01*
X12142970Y1456820D01*
X12148240Y1461280D01*
X12153520Y1466050D01*
X12158860Y1471190D01*
X12175610Y1489720D01*
X12182730Y1499310D01*
X12189090Y1509230D01*
X12194700Y1519530D01*
X12199630Y1530300D01*
X12203900Y1541610D01*
X12207560Y1553530D01*
X12210640Y1566140D01*
X12212320Y1573100D01*
X12213440Y1577310D01*
X12214710Y1581860D01*
X12216100Y1586630D01*
X12217580Y1591510D01*
X12219110Y1596380D01*
X12220670Y1601120D01*
X12222210Y1605620D01*
X12225260Y1614660D01*
X12226720Y1619200D01*
X12228100Y1623620D01*
X12229370Y1627830D01*
X12230500Y1631720D01*
X12231440Y1635190D01*
X12232180Y1638160D01*
X12232680Y1640520D01*
X12233990Y1645540D01*
X12234810Y1647910D01*
X12235760Y1650220D01*
X12236840Y1652480D01*
X12238080Y1654740D01*
X12239470Y1657000D01*
X12241040Y1659290D01*
X12242780Y1661640D01*
X12262120Y1692550D01*
X12269120Y1708610D01*
X12274320Y1725020D01*
X12277720Y1741710D01*
X12279300Y1758650D01*
X12279060Y1775780D01*
X12276990Y1793040D01*
X12273080Y1810400D01*
X12265000Y1832240D01*
X12259610Y1843230D01*
X12253500Y1853980D01*
X12246800Y1864290D01*
X12239660Y1873930D01*
X12232200Y1882690D01*
X12224560Y1890360D01*
X12216890Y1896720D01*
X12208780Y1903540D01*
X12205650Y1906920D01*
X12203110Y1910360D01*
X12201100Y1913930D01*
X12199600Y1917680D01*
X12198570Y1921690D01*
X12197980Y1926010D01*
X12197790Y1930700D01*
X12196790Y1947800D01*
X12195660Y1956560D01*
X12194130Y1965350D01*
X12192220Y1974070D01*
X12189940Y1982640D01*
X12187320Y1990960D01*
X12184360Y1998960D01*
X12181080Y2006550D01*
X12171120Y2025040D01*
X12165390Y2033560D01*
X12159090Y2041660D01*
X12152190Y2049400D01*
X12144630Y2056850D01*
X12136370Y2064060D01*
X12127360Y2071090D01*
X12117550Y2077990D01*
X12112220Y2081530D01*
X12109840Y2083160D01*
X12107720Y2084650D01*
X12105880Y2085970D01*
X12104380Y2087080D01*
X12103260Y2087940D01*
X12102550Y2088540D01*
X12102310Y2088820D01*
X12102800Y2089170D01*
X12103380Y2089410D01*
X12104150Y2089680D01*
X12105100Y2089990D01*
X12106200Y2090320D01*
X12107430Y2090670D01*
X12108770Y2091030D01*
X12110200Y2091390D01*
X12117530Y2094000D01*
X12120860Y2095660D01*
X12123940Y2097540D01*
X12126740Y2099620D01*
X12129230Y2101880D01*
X12131400Y2104310D01*
X12133200Y2106880D01*
X12134630Y2109580D01*
X12136340Y2113040D01*
X12137250Y2114410D01*
X12138250Y2115570D01*
X12139390Y2116590D01*
X12140690Y2117480D01*
X12142200Y2118300D01*
X12143960Y2119080D01*
X12146010Y2119860D01*
X12153500Y2122950D01*
X12156740Y2124820D01*
X12159670Y2126920D01*
X12162300Y2129260D01*
X12164660Y2131860D01*
X12166760Y2134730D01*
X12168610Y2137890D01*
X12170250Y2141350D01*
X12172250Y2145520D01*
X12173370Y2147420D01*
X12174570Y2149220D01*
X12175860Y2150900D01*
X12177230Y2152480D01*
X12178670Y2153950D01*
X12180200Y2155320D01*
X12181820Y2156590D01*
X12188690Y2162350D01*
X12191580Y2165300D01*
X12194100Y2168290D01*
X12196240Y2171300D01*
X12198000Y2174330D01*
X12199370Y2177370D01*
X12200340Y2180390D01*
X12200910Y2183410D01*
X12201610Y2187160D01*
X12202150Y2188880D01*
X12202830Y2190520D01*
X12203670Y2192130D01*
X12204690Y2193730D01*
X12205910Y2195360D01*
X12207340Y2197050D01*
X12208990Y2198830D01*
X12213620Y2204230D01*
X12215390Y2206820D01*
X12216830Y2209400D01*
X12217970Y2212020D01*
X12218810Y2214720D01*
X12219390Y2217560D01*
X12219720Y2220570D01*
X12219830Y2223810D01*
X12220080Y2227260D01*
X12220420Y2228950D01*
X12220920Y2230640D01*
X12221580Y2232370D01*
X12222410Y2234160D01*
X12223430Y2236040D01*
X12224650Y2238030D01*
X12226070Y2240160D01*
X12229990Y2246830D01*
X12231470Y2250160D01*
X12232620Y2253430D01*
X12233430Y2256610D01*
X12233890Y2259660D01*
X12233990Y2262560D01*
X12233710Y2265250D01*
X12233050Y2267700D01*
X12232470Y2269940D01*
X12232410Y2271020D01*
X12232520Y2272140D01*
X12232790Y2273300D01*
X12233250Y2274550D01*
X12233900Y2275910D01*
X12234740Y2277410D01*
X12235800Y2279090D01*
X12239340Y2285680D01*
X12240460Y2288970D01*
X12241150Y2292250D01*
X12241410Y2295540D01*
X12241240Y2298840D01*
X12240650Y2302160D01*
X12239630Y2305490D01*
X12238190Y2308840D01*
X12236410Y2312970D01*
X12235830Y2314640D01*
X12235440Y2316130D01*
X12235240Y2317510D01*
X12235220Y2318840D01*
X12235380Y2320190D01*
X12235690Y2321610D01*
X12236170Y2323170D01*
X12237680Y2329320D01*
X12238020Y2332520D01*
X12238090Y2335720D01*
X12237890Y2338880D01*
X12237430Y2341920D01*
X12236710Y2344790D01*
X12235740Y2347430D01*
X12234520Y2349800D01*
X12230940Y2354310D01*
X12228750Y2356190D01*
X12226270Y2357840D01*
X12223490Y2359240D01*
X12220380Y2360420D01*
X12216940Y2361380D01*
X12213150Y2362120D01*
X12208990Y2362650D01*
X12204590Y2363260D01*
X12202650Y2363660D01*
X12200870Y2364130D01*
X12199250Y2364690D01*
X12197770Y2365320D01*
X12196430Y2366050D01*
X12195210Y2366870D01*
X12194120Y2367800D01*
X12188510Y2372170D01*
X12185550Y2373890D01*
X12182410Y2375340D01*
X12179040Y2376540D01*
X12175390Y2377500D01*
X12171390Y2378240D01*
X12167010Y2378800D01*
X12162170Y2379180D01*
X12155620Y2379740D01*
X12152980Y2380090D01*
X12150700Y2380490D01*
X12148740Y2380970D01*
X12147060Y2381520D01*
X12145610Y2382170D01*
X12144360Y2382920D01*
X12143260Y2383780D01*
X12139210Y2386440D01*
X12136660Y2387540D01*
X12133880Y2388460D01*
X12130940Y2389180D01*
X12127940Y2389680D01*
X12124960Y2389940D01*
X12122080Y2389930D01*
X12119380Y2389650D01*
X12116730Y2389390D01*
X12115500Y2389430D01*
X12114310Y2389610D01*
X12113130Y2389910D01*
X12111940Y2390360D01*
X12110740Y2390950D01*
X12109490Y2391690D01*
X12108180Y2392590D01*
X12102580Y2395490D01*
X12099180Y2396530D01*
X12095490Y2397280D01*
X12091590Y2397740D01*
X12087560Y2397900D01*
X12083490Y2397740D01*
X12079440Y2397260D01*
X12075500Y2396450D01*
X12071160Y2395460D01*
X12069350Y2395250D01*
X12067650Y2395230D01*
X12065940Y2395420D01*
X12064140Y2395810D01*
X12062140Y2396410D01*
X12059840Y2397240D01*
X12057140Y2398280D01*
X12047410Y2402320D01*
X12035840Y2398100D01*
X12030260Y2396160D01*
X12027680Y2395460D01*
X12025150Y2394920D01*
X12022590Y2394520D01*
X12019940Y2394250D01*
X12017110Y2394090D01*
X12014050Y2394040D01*
X12010680Y2394060D01*
X12004130Y2394140D01*
X12001490Y2394030D01*
X11999130Y2393780D01*
X11996970Y2393380D01*
X11994900Y2392810D01*
X11992830Y2392040D01*
X11990660Y2391060D01*
X11988280Y2389840D01*
X11983960Y2387850D01*
X11981900Y2387090D01*
X11979840Y2386490D01*
X11977740Y2386010D01*
X11975560Y2385660D01*
X11973250Y2385420D01*
X11970770Y2385290D01*
X11968080Y2385240D01*
X11959980Y2384740D01*
X11956440Y2384070D01*
X11953150Y2383090D01*
X11950040Y2381760D01*
X11947040Y2380050D01*
X11944070Y2377940D01*
X11941070Y2375390D01*
X11937970Y2372390D01*
X11934410Y2368940D01*
X11932890Y2367710D01*
X11931450Y2366760D01*
X11930020Y2366050D01*
X11928540Y2365560D01*
X11926940Y2365250D01*
X11925150Y2365090D01*
X11923090Y2365040D01*
X11917230Y2364200D01*
X11914230Y2363100D01*
X11911120Y2361500D01*
X11907840Y2359360D01*
X11904350Y2356630D01*
X11900590Y2353300D01*
X11896510Y2349320D01*
X11892060Y2344660D01*
X11882190Y2333080D01*
X11877720Y2327010D01*
X11873530Y2320700D01*
X11869620Y2314130D01*
X11865950Y2307270D01*
X11862510Y2300080D01*
X11859290Y2292540D01*
X11856260Y2284600D01*
X11852030Y2273030D01*
X11847080Y2285700D01*
X11838300Y2305340D01*
X11833360Y2314560D01*
X11828110Y2323280D01*
X11822590Y2331450D01*
X11816840Y2339000D01*
X11810900Y2345880D01*
X11804800Y2352010D01*
X11798600Y2357330D01*
X11793760Y2360890D01*
X11791730Y2362190D01*
X11789870Y2363190D01*
X11788110Y2363940D01*
X11786370Y2364470D01*
X11784590Y2364810D01*
X11782690Y2364990D01*
X11780600Y2365040D01*
X11776590Y2365230D01*
X11774940Y2365520D01*
X11773430Y2365990D01*
X11771990Y2366680D01*
X11770540Y2367630D01*
X11769000Y2368870D01*
X11767300Y2370440D01*
X11765360Y2372390D01*
X11759260Y2377940D01*
X11756300Y2380050D01*
X11753310Y2381760D01*
X11750210Y2383090D01*
X11746950Y2384070D01*
X11743440Y2384740D01*
X11739630Y2385120D01*
X11735430Y2385240D01*
X11730210Y2385420D01*
X11727920Y2385670D01*
X11725770Y2386030D01*
X11723720Y2386520D01*
X11721710Y2387150D01*
X11719690Y2387940D01*
X11717610Y2388890D01*
X11715420Y2390020D01*
X11710890Y2392290D01*
X11708930Y2393050D01*
X11707020Y2393590D01*
X11705060Y2393930D01*
X11702930Y2394090D01*
X11700530D01*
X11697760Y2393950D01*
X11694490Y2393690D01*
X11688730Y2393310D01*
X11686310Y2393290D01*
X11684110Y2393400D01*
X11682080Y2393650D01*
X11680140Y2394030D01*
X11678230Y2394560D01*
X11676300Y2395240D01*
X11674290Y2396080D01*
X11666920Y2398930D01*
X11663760Y2399850D01*
X11660860Y2400430D01*
X11658150Y2400690D01*
X11655560Y2400640D01*
X11653020Y2400270D01*
X11650480Y2399610D01*
X11647850Y2398650D01*
G37*
G36*
G01X12885670Y2215430D02*
X12865310Y2209690D01*
X12855620Y2204970D01*
X12846370Y2199100D01*
X12837670Y2192180D01*
X12829610Y2184280D01*
X12822280Y2175480D01*
X12815780Y2165850D01*
X12810210Y2155460D01*
X12805750Y2145620D01*
X12804150Y2141460D01*
X12802910Y2137530D01*
X12801960Y2133610D01*
X12801260Y2129480D01*
X12800760Y2124930D01*
X12800400Y2119730D01*
X12800130Y2113680D01*
X12800610Y2091990D01*
X12802010Y2082170D01*
X12804230Y2072890D01*
X12807300Y2064060D01*
X12811270Y2055570D01*
X12816170Y2047310D01*
X12822030Y2039190D01*
X12828890Y2031100D01*
X12851000Y2013180D01*
X12863650Y2006830D01*
X12877010Y2002290D01*
X12890850Y1999610D01*
X12904910Y1998840D01*
X12918940Y2000030D01*
X12932680Y2003230D01*
X12945900Y2008490D01*
X12958920Y2014880D01*
X12966050Y2007010D01*
X12973070Y2001270D01*
X12976840Y1999630D01*
X12980700Y1998800D01*
X12984590Y1998780D01*
X12988450Y1999570D01*
X12992220Y2001160D01*
X12995830Y2003560D01*
X12999240Y2006770D01*
X13006120Y2014390D01*
Y2107540D01*
Y2200690D01*
X12999970Y2208060D01*
X12997430Y2210640D01*
X12996030Y2211870D01*
X12994590Y2213000D01*
X12993130Y2214020D01*
X12991710Y2214910D01*
X12990340Y2215620D01*
X12989070Y2216130D01*
X12987930Y2216420D01*
X12982090Y2216570D01*
X12978980Y2215950D01*
X12975860Y2214940D01*
X12972810Y2213570D01*
X12969920Y2211880D01*
X12967280Y2209920D01*
X12964980Y2207740D01*
X12963100Y2205360D01*
X12959170Y2199210D01*
X12948850Y2204870D01*
X12936260Y2210530D01*
X12929460Y2212690D01*
X12922420Y2214370D01*
X12915190Y2215580D01*
X12907840Y2216300D01*
X12900430Y2216520D01*
X12893020Y2216240D01*
X12885670Y2215430D01*
G37*
G36*
G01X12590940Y2297280D02*
X12588200Y2292800D01*
X12587300Y2288040D01*
X12586660Y2280050D01*
X12586230Y2267670D01*
X12585970Y2249740D01*
X12585830Y2225100D01*
X12585780Y2192590D01*
Y2151040D01*
Y2009960D01*
X12593400Y2003570D01*
X12598780Y1999660D01*
X12601290Y1998450D01*
X12603770Y1997710D01*
X12606270Y1997440D01*
X12608850Y1997640D01*
X12611590Y1998280D01*
X12614530Y1999360D01*
X12617730Y2000870D01*
X12624950Y2005900D01*
X12627450Y2009330D01*
X12629340Y2013900D01*
X12630700Y2019970D01*
X12631610Y2027960D01*
X12632150Y2038240D01*
X12632410Y2051200D01*
X12632480Y2067230D01*
Y2115160D01*
X12660260D01*
X12677930Y2114580D01*
X12685030Y2113800D01*
X12691200Y2112620D01*
X12696620Y2111000D01*
X12701450Y2108890D01*
X12705850Y2106250D01*
X12710010Y2103030D01*
X12714090Y2099180D01*
X12717940Y2094990D01*
X12719330Y2092700D01*
X12720470Y2089840D01*
X12721450Y2086080D01*
X12722380Y2081080D01*
X12723320Y2074530D01*
X12724380Y2066090D01*
X12725640Y2055430D01*
X12728180Y2040270D01*
X12729910Y2033780D01*
X12731960Y2027980D01*
X12734350Y2022820D01*
X12737120Y2018250D01*
X12740260Y2014250D01*
X12743800Y2010760D01*
X12747770Y2007750D01*
X12754720Y2004150D01*
X12758230Y2003080D01*
X12761760Y2002510D01*
X12765300Y2002420D01*
X12768850Y2002830D01*
X12772400Y2003740D01*
X12775950Y2005130D01*
X12779480Y2007010D01*
X12787390Y2014230D01*
X12789780Y2018520D01*
X12791120Y2023110D01*
X12791410Y2027880D01*
X12790640Y2032700D01*
X12788810Y2037470D01*
X12785910Y2042050D01*
X12781940Y2046340D01*
X12778310Y2050130D01*
X12777000Y2052080D01*
X12775960Y2054310D01*
X12775110Y2057000D01*
X12774420Y2060340D01*
X12773800Y2064510D01*
X12773220Y2069690D01*
X12772600Y2076080D01*
X12770880Y2091340D01*
X12769740Y2097570D01*
X12768310Y2103150D01*
X12766520Y2108280D01*
X12764310Y2113160D01*
X12761600Y2118010D01*
X12758320Y2123030D01*
X12754400Y2128430D01*
X12745060Y2140230D01*
X12753910Y2149320D01*
X12757330Y2153340D01*
X12759180Y2155820D01*
X12761080Y2158510D01*
X12762960Y2161360D01*
X12764780Y2164280D01*
X12766500Y2167230D01*
X12768050Y2170130D01*
X12769400Y2172910D01*
X12774310Y2187790D01*
X12775770Y2196050D01*
X12776570Y2204630D01*
X12776690Y2213350D01*
X12776140Y2222030D01*
X12774900Y2230510D01*
X12772990Y2238610D01*
X12770380Y2246160D01*
X12763880Y2258440D01*
X12759400Y2264730D01*
X12754310Y2270900D01*
X12748750Y2276810D01*
X12742850Y2282310D01*
X12736780Y2287250D01*
X12730660Y2291470D01*
X12724660Y2294820D01*
X12717460Y2297850D01*
X12713580Y2298890D01*
X12708840Y2299670D01*
X12702710Y2300250D01*
X12694690Y2300670D01*
X12684260Y2300970D01*
X12670900Y2301220D01*
X12654110Y2301460D01*
X12624100Y2301790D01*
X12613920D01*
X12606320Y2301640D01*
X12600850Y2301290D01*
X12597050Y2300710D01*
X12594430Y2299870D01*
X12592550Y2298740D01*
X12590940Y2297280D01*
G37*
G36*
G01X13262260Y2214210D02*
X13254190Y2208830D01*
X13251540Y2203960D01*
X13249630Y2196000D01*
X13248360Y2183740D01*
X13247580Y2165960D01*
X13247190Y2141430D01*
X13247040Y2108920D01*
X13247020Y2067230D01*
X13247180Y1993100D01*
X13247570Y1968530D01*
X13248340Y1950690D01*
X13249590Y1938350D01*
X13251460Y1930300D01*
X13254070Y1925330D01*
X13257550Y1922220D01*
X13262010Y1919760D01*
X13267580Y1917250D01*
X13270100Y1916580D01*
X13272520Y1916310D01*
X13274920Y1916430D01*
X13277360Y1916960D01*
X13279920Y1917890D01*
X13282640Y1919230D01*
X13285610Y1920990D01*
X13291770Y1926380D01*
X13294000Y1930120D01*
X13295720Y1934830D01*
X13296970Y1940710D01*
X13297790Y1947990D01*
X13298240Y1956860D01*
X13298340Y1967530D01*
X13298150Y1980220D01*
X13297890Y1992070D01*
X13297800Y1997380D01*
X13297740Y2002160D01*
X13297700Y2006290D01*
X13297680Y2009680D01*
X13297660Y2012230D01*
Y2013830D01*
Y2014390D01*
X13298710Y2013970D01*
X13299840Y2013480D01*
X13301320Y2012830D01*
X13303100Y2012030D01*
X13305140Y2011110D01*
X13307400Y2010070D01*
X13309840Y2008950D01*
X13312410Y2007750D01*
X13320100Y2004400D01*
X13323560Y2003230D01*
X13327080Y2002350D01*
X13330900Y2001710D01*
X13335260Y2001290D01*
X13340390Y2001030D01*
X13346540Y2000900D01*
X13353950Y2000870D01*
X13367870Y2001010D01*
X13373050Y2001270D01*
X13377440Y2001720D01*
X13381320Y2002420D01*
X13384990Y2003420D01*
X13388760Y2004770D01*
X13392890Y2006520D01*
X13397700Y2008730D01*
X13434780Y2037620D01*
X13447240Y2056590D01*
X13455470Y2077520D01*
X13459340Y2099650D01*
X13458700Y2122190D01*
X13453430Y2144360D01*
X13443380Y2165380D01*
X13428430Y2184470D01*
X13418340Y2193440D01*
X13412660Y2197660D01*
X13406730Y2201600D01*
X13400650Y2205210D01*
X13394550Y2208390D01*
X13388540Y2211080D01*
X13382750Y2213210D01*
X13377300Y2214700D01*
X13362130Y2216590D01*
X13354070Y2216650D01*
X13345860Y2216140D01*
X13337650Y2215080D01*
X13329580Y2213480D01*
X13321770Y2211350D01*
X13314360Y2208720D01*
X13307490Y2205600D01*
X13297900Y2200690D01*
X13292740Y2207320D01*
X13287250Y2212200D01*
X13283960Y2213970D01*
X13280430Y2215270D01*
X13276750Y2216090D01*
X13273000Y2216410D01*
X13269280Y2216210D01*
X13265670Y2215480D01*
X13262260Y2214210D01*
G37*
G36*
G01X13113050Y2215680D02*
X13095470Y2211410D01*
X13087180Y2207920D01*
X13079370Y2203610D01*
X13072160Y2198570D01*
X13065670Y2192890D01*
X13060000Y2186620D01*
X13055270Y2179860D01*
X13051600Y2172670D01*
X13049080Y2163850D01*
X13048390Y2158930D01*
X13048080Y2153850D01*
X13048140Y2148730D01*
X13048570Y2143720D01*
X13049380Y2138950D01*
X13050550Y2134540D01*
X13052090Y2130640D01*
X13056660Y2123140D01*
X13059680Y2119290D01*
X13063080Y2115480D01*
X13066790Y2111800D01*
X13070710Y2108320D01*
X13074790Y2105130D01*
X13078930Y2102300D01*
X13083060Y2099920D01*
X13088140Y2097890D01*
X13091740Y2096630D01*
X13095890Y2095260D01*
X13100500Y2093810D01*
X13105440Y2092310D01*
X13110600Y2090800D01*
X13115880Y2089310D01*
X13121160Y2087870D01*
X13138290Y2083200D01*
X13144940Y2080980D01*
X13150420Y2078800D01*
X13154810Y2076610D01*
X13158180Y2074370D01*
X13160610Y2072040D01*
X13162170Y2069590D01*
X13162950Y2066980D01*
X13161970Y2062020D01*
X13160340Y2059570D01*
X13158020Y2057210D01*
X13155070Y2054980D01*
X13151550Y2052930D01*
X13147520Y2051100D01*
X13143020Y2049540D01*
X13138120Y2048300D01*
X13127060Y2047030D01*
X13121510Y2047290D01*
X13115880Y2048180D01*
X13110120Y2049690D01*
X13104180Y2051850D01*
X13098010Y2054670D01*
X13091560Y2058150D01*
X13084780Y2062310D01*
X13075370Y2067660D01*
X13071260Y2069310D01*
X13067480Y2070300D01*
X13063980Y2070630D01*
X13060690Y2070310D01*
X13057570Y2069340D01*
X13054550Y2067740D01*
X13051600Y2065510D01*
X13044500Y2056350D01*
X13042860Y2051500D01*
X13042470Y2046540D01*
X13043330Y2041520D01*
X13045420Y2036510D01*
X13048740Y2031550D01*
X13053250Y2026690D01*
X13058970Y2022010D01*
X13087540Y2006630D01*
X13102510Y2002040D01*
X13117620Y1999530D01*
X13132640Y1999100D01*
X13147350Y2000760D01*
X13161520Y2004510D01*
X13174910Y2010360D01*
X13187290Y2018320D01*
X13194070Y2024970D01*
X13197460Y2029330D01*
X13200730Y2034160D01*
X13203760Y2039270D01*
X13206440Y2044500D01*
X13208680Y2049660D01*
X13210360Y2054600D01*
X13211380Y2059120D01*
X13211640Y2068450D01*
X13210930Y2073650D01*
X13209720Y2079000D01*
X13208070Y2084380D01*
X13206000Y2089650D01*
X13203580Y2094660D01*
X13200850Y2099280D01*
X13197860Y2103360D01*
X13189070Y2111270D01*
X13183140Y2115170D01*
X13176340Y2118990D01*
X13168740Y2122650D01*
X13160460Y2126120D01*
X13151580Y2129330D01*
X13142220Y2132250D01*
X13132470Y2134820D01*
X13117300Y2138980D01*
X13111150Y2141100D01*
X13105960Y2143240D01*
X13101760Y2145390D01*
X13098560Y2147540D01*
X13096380Y2149700D01*
X13095220Y2151850D01*
X13095110Y2153990D01*
X13098230Y2158290D01*
X13101310Y2160560D01*
X13105110Y2162770D01*
X13109410Y2164810D01*
X13113970Y2166590D01*
X13118580Y2167980D01*
X13123020Y2168900D01*
X13127060Y2169230D01*
X13131590Y2168720D01*
X13134270Y2168100D01*
X13137210Y2167230D01*
X13140380Y2166130D01*
X13143780Y2164790D01*
X13147370Y2163210D01*
X13151150Y2161420D01*
X13155080Y2159400D01*
X13162180Y2155970D01*
X13165650Y2154440D01*
X13168960Y2153070D01*
X13172050Y2151880D01*
X13174840Y2150910D01*
X13177250Y2150180D01*
X13179210Y2149720D01*
X13180650Y2149570D01*
X13190140Y2152120D01*
X13194090Y2155020D01*
X13197360Y2158750D01*
X13199860Y2163130D01*
X13201460Y2167950D01*
X13202060Y2173040D01*
X13201550Y2178200D01*
X13199820Y2183240D01*
X13191930Y2192620D01*
X13185730Y2197360D01*
X13178430Y2201910D01*
X13170360Y2206120D01*
X13161800Y2209840D01*
X13153090Y2212900D01*
X13144520Y2215140D01*
X13136400Y2216420D01*
X13131770Y2216640D01*
X13129150Y2216660D01*
X13126400Y2216640D01*
X13123600Y2216550D01*
X13120800Y2216420D01*
X13118060Y2216230D01*
X13115460Y2215980D01*
X13113050Y2215680D01*
G37*
G36*
G01X13817800Y2215430D02*
X13796760Y2209550D01*
X13786700Y2204650D01*
X13777090Y2198540D01*
X13768020Y2191320D01*
X13759590Y2183050D01*
X13751900Y2173810D01*
X13745050Y2163690D01*
X13739140Y2152760D01*
X13734520Y2142510D01*
X13732960Y2138420D01*
X13731810Y2134590D01*
X13731010Y2130690D01*
X13730490Y2126380D01*
X13730200Y2121350D01*
X13730080Y2115260D01*
X13730050Y2107780D01*
X13730200Y2094330D01*
X13730480Y2089320D01*
X13730990Y2085050D01*
X13731770Y2081180D01*
X13732890Y2077410D01*
X13734410Y2073430D01*
X13736390Y2068910D01*
X13738900Y2063540D01*
X13754550Y2037970D01*
X13763680Y2027630D01*
X13773690Y2018910D01*
X13784590Y2011800D01*
X13796380Y2006300D01*
X13809080Y2002410D01*
X13822690Y2000100D01*
X13837220Y1999390D01*
X13856760Y2000650D01*
X13865760Y2002240D01*
X13874290Y2004500D01*
X13882400Y2007430D01*
X13890140Y2011050D01*
X13897530Y2015370D01*
X13904620Y2020410D01*
X13911460Y2026180D01*
X13915920Y2032260D01*
X13917310Y2035760D01*
X13918120Y2039420D01*
X13918350Y2043120D01*
X13917980Y2046760D01*
X13917000Y2050220D01*
X13915400Y2053390D01*
X13913180Y2056170D01*
X13907440Y2059670D01*
X13903850Y2060600D01*
X13899900Y2061000D01*
X13895680Y2060850D01*
X13891290Y2060170D01*
X13886830Y2058960D01*
X13882370Y2057220D01*
X13878030Y2054940D01*
X13873530Y2052740D01*
X13870940Y2051620D01*
X13868230Y2050520D01*
X13865450Y2049480D01*
X13862660Y2048510D01*
X13859930Y2047650D01*
X13857330Y2046920D01*
X13854920Y2046340D01*
X13834250Y2045420D01*
X13824130Y2047390D01*
X13814480Y2050820D01*
X13805540Y2055570D01*
X13797550Y2061500D01*
X13790740Y2068500D01*
X13785370Y2076440D01*
X13781670Y2085170D01*
X13780190Y2090580D01*
X13850990D01*
X13886630Y2090660D01*
X13899020Y2090810D01*
X13908470Y2091090D01*
X13915500Y2091520D01*
X13920620Y2092140D01*
X13924340Y2092990D01*
X13927180Y2094090D01*
X13929650Y2095490D01*
X13935460Y2100570D01*
X13937450Y2103770D01*
X13938830Y2107460D01*
X13939610Y2111680D01*
X13939790Y2116470D01*
X13939380Y2121850D01*
X13938370Y2127880D01*
X13936780Y2134570D01*
X13932570Y2148570D01*
X13930190Y2154750D01*
X13927560Y2160500D01*
X13924650Y2165890D01*
X13921410Y2171000D01*
X13917790Y2175910D01*
X13913750Y2180700D01*
X13909250Y2185450D01*
X13891970Y2199840D01*
X13882590Y2205400D01*
X13872750Y2209870D01*
X13862490Y2213230D01*
X13851830Y2215470D01*
X13840810Y2216590D01*
X13829460Y2216580D01*
X13817800Y2215430D01*
G37*
G36*
G01X13497510Y2294820D02*
X13490380Y2287690D01*
Y2152020D01*
X13490470Y2073080D01*
X13490820Y2047500D01*
X13491580Y2029330D01*
X13492900Y2017170D01*
X13494930Y2009620D01*
X13497830Y2005270D01*
X13501750Y2002740D01*
X13506850Y2000620D01*
X13513220Y1998880D01*
X13516360Y1998790D01*
X13519460Y1999210D01*
X13522490Y2000130D01*
X13525440Y2001550D01*
X13528290Y2003460D01*
X13531030Y2005860D01*
X13533640Y2008730D01*
X13539050Y2015120D01*
X13552570Y2008490D01*
X13588100Y1999100D01*
X13606000Y1999330D01*
X13623490Y2002640D01*
X13640190Y2008910D01*
X13655720Y2017970D01*
X13669690Y2029700D01*
X13681730Y2043960D01*
X13691450Y2060590D01*
X13700250Y2088810D01*
X13701710Y2103450D01*
X13701260Y2118130D01*
X13698950Y2132620D01*
X13694800Y2146690D01*
X13688870Y2160090D01*
X13681190Y2172600D01*
X13671790Y2183970D01*
X13657180Y2196820D01*
X13649380Y2202050D01*
X13641270Y2206490D01*
X13632850Y2210110D01*
X13624140Y2212920D01*
X13615140Y2214910D01*
X13605860Y2216080D01*
X13596320Y2216420D01*
X13583730Y2215240D01*
X13576640Y2214030D01*
X13569500Y2212520D01*
X13562670Y2210810D01*
X13556520Y2208970D01*
X13551400Y2207100D01*
X13547660Y2205300D01*
X13545690Y2203640D01*
X13543030Y2201150D01*
X13542020Y2202020D01*
X13541200Y2204440D01*
X13540560Y2208550D01*
X13540100Y2214430D01*
X13539780Y2222220D01*
X13539600Y2232020D01*
X13539540Y2243940D01*
X13539470Y2266600D01*
X13539300Y2274270D01*
X13538980Y2280030D01*
X13538440Y2284280D01*
X13537650Y2287440D01*
X13536530Y2289900D01*
X13535050Y2292060D01*
X13533150Y2294330D01*
X13529840Y2297870D01*
X13528300Y2299150D01*
X13526720Y2300140D01*
X13525040Y2300880D01*
X13523170Y2301390D01*
X13521040Y2301720D01*
X13518580Y2301900D01*
X13515700Y2301950D01*
X13510510Y2301700D01*
X13508360Y2301360D01*
X13506410Y2300840D01*
X13504610Y2300120D01*
X13502880Y2299180D01*
X13501160Y2298000D01*
X13499390Y2296550D01*
X13497510Y2294820D01*
G37*
G36*
G01X14132200Y2210760D02*
X14130190Y2208640D01*
X14129180Y2207400D01*
X14128190Y2206070D01*
X14127250Y2204700D01*
X14126370Y2203320D01*
X14125580Y2201960D01*
X14124900Y2200660D01*
X14124340Y2199460D01*
X14123560Y2192030D01*
X14123220Y2184740D01*
X14122910Y2175410D01*
X14122640Y2164300D01*
X14122420Y2151670D01*
X14122260Y2137780D01*
X14122160Y2122900D01*
X14122120Y2107290D01*
X14122370Y2056550D01*
X14122840Y2039280D01*
X14123680Y2026400D01*
X14125000Y2017130D01*
X14126890Y2010710D01*
X14129480Y2006370D01*
X14132850Y2003340D01*
X14137120Y2000870D01*
X14142030Y1998450D01*
X14144050Y1997750D01*
X14145950Y1997410D01*
X14147840D01*
X14149850Y1997750D01*
X14152090Y1998450D01*
X14154690Y1999480D01*
X14157770Y2000870D01*
X14164430Y2005240D01*
X14166730Y2008310D01*
X14168460Y2012430D01*
X14169690Y2017970D01*
X14170510Y2025300D01*
X14171000Y2034770D01*
X14171230Y2046740D01*
X14171290Y2061580D01*
Y2105820D01*
X14178910Y2122040D01*
X14189080Y2139360D01*
X14194900Y2146780D01*
X14201100Y2153270D01*
X14207590Y2158750D01*
X14214290Y2163160D01*
X14221090Y2166430D01*
X14227930Y2168480D01*
X14234710Y2169230D01*
X14246430Y2172820D01*
X14250930Y2176790D01*
X14254360Y2181770D01*
X14256590Y2187410D01*
X14257490Y2193370D01*
X14256930Y2199310D01*
X14254780Y2204900D01*
X14250930Y2209780D01*
X14240410Y2214940D01*
X14233500Y2215920D01*
X14225790Y2215860D01*
X14217510Y2214820D01*
X14208870Y2212820D01*
X14200100Y2209900D01*
X14191430Y2206090D01*
X14183080Y2201420D01*
X14177930Y2198240D01*
X14175980Y2197190D01*
X14174420Y2196490D01*
X14173210Y2196120D01*
X14172320Y2196070D01*
X14171730Y2196330D01*
X14171390Y2196890D01*
X14171290Y2197740D01*
X14170840Y2199570D01*
X14170310Y2200710D01*
X14169610Y2201970D01*
X14168750Y2203300D01*
X14167750Y2204670D01*
X14166640Y2206070D01*
X14165440Y2207460D01*
X14164160Y2208800D01*
X14157450Y2213520D01*
X14153740Y2214990D01*
X14149920Y2215850D01*
X14146070Y2216090D01*
X14142290Y2215720D01*
X14138660Y2214710D01*
X14135260Y2213060D01*
X14132200Y2210760D01*
G37*
G36*
G01X13975620Y2211500D02*
X13969990Y2205690D01*
X13968110Y2201430D01*
X13966760Y2195240D01*
X13965830Y2186310D01*
X13965260Y2173890D01*
X13964950Y2157180D01*
X13964820Y2135400D01*
X13964800Y2107780D01*
X13964990Y2055820D01*
X13965410Y2038390D01*
X13966200Y2025550D01*
X13967470Y2016460D01*
X13969350Y2010290D01*
X13971950Y2006190D01*
X13975400Y2003330D01*
X13979800Y2000870D01*
X13986390Y1998520D01*
X13989680Y1998160D01*
X13992940Y1998360D01*
X13996130Y1999090D01*
X13999240Y2000380D01*
X14002240Y2002210D01*
X14005110Y2004580D01*
X14007820Y2007500D01*
X14011070Y2011840D01*
X14012140Y2014320D01*
X14012910Y2017580D01*
X14013420Y2022050D01*
X14013740Y2028130D01*
X14013900Y2036260D01*
X14013960Y2046860D01*
Y2060350D01*
Y2106060D01*
X14022320Y2123510D01*
X14032400Y2140450D01*
X14038130Y2147650D01*
X14044210Y2153920D01*
X14050580Y2159210D01*
X14057150Y2163440D01*
X14063860Y2166560D01*
X14070630Y2168510D01*
X14077380Y2169230D01*
X14081220Y2169540D01*
X14082980Y2169950D01*
X14084670Y2170540D01*
X14086310Y2171340D01*
X14087930Y2172360D01*
X14089540Y2173610D01*
X14091180Y2175100D01*
X14092870Y2176850D01*
X14097880Y2184060D01*
X14099330Y2187840D01*
X14100100Y2191670D01*
X14100160Y2195500D01*
X14099520Y2199280D01*
X14098170Y2202950D01*
X14096120Y2206470D01*
X14093360Y2209780D01*
X14089610Y2213190D01*
X14087870Y2214310D01*
X14086010Y2215090D01*
X14083850Y2215590D01*
X14081240Y2215830D01*
X14078000Y2215850D01*
X14073990Y2215710D01*
X14069030Y2215430D01*
X14056700Y2213600D01*
X14050270Y2212020D01*
X14043880Y2210070D01*
X14037700Y2207820D01*
X14031900Y2205330D01*
X14026630Y2202650D01*
X14022080Y2199860D01*
X14018390Y2197000D01*
X14016140Y2195090D01*
X14015380Y2194550D01*
X14014820Y2194290D01*
X14014430Y2194310D01*
X14014180Y2194620D01*
X14014040Y2195200D01*
X14013980Y2196080D01*
X14013960Y2197250D01*
X14013520Y2199240D01*
X14012990Y2200460D01*
X14012290Y2201780D01*
X14011430Y2203170D01*
X14010430Y2204600D01*
X14009320Y2206040D01*
X14008120Y2207450D01*
X14006840Y2208800D01*
X14000390Y2213300D01*
X13996770Y2214740D01*
X13993030Y2215630D01*
X13989240Y2215960D01*
X13985510Y2215720D01*
X13981940Y2214900D01*
X13978610Y2213500D01*
X13975620Y2211500D01*
G37*
G36*
G01X14287800Y2214450D02*
X14280750Y2210000D01*
X14278420Y2206700D01*
X14276770Y2201890D01*
X14275680Y2194940D01*
X14275060Y2185250D01*
X14274810Y2172200D01*
X14274830Y2155180D01*
X14275020Y2133590D01*
X14275480Y2098570D01*
X14275780Y2086660D01*
X14276190Y2077640D01*
X14276790Y2070880D01*
X14277620Y2065740D01*
X14278760Y2061580D01*
X14280250Y2057790D01*
X14282150Y2053710D01*
X14294360Y2034030D01*
X14301790Y2025720D01*
X14310020Y2018480D01*
X14318990Y2012360D01*
X14328640Y2007390D01*
X14338900Y2003630D01*
X14349730Y2001120D01*
X14361060Y1999880D01*
X14369250Y1999780D01*
X14373000Y1999890D01*
X14376540Y2000120D01*
X14379880Y2000470D01*
X14383030Y2000940D01*
X14386020Y2001530D01*
X14388850Y2002240D01*
X14391540Y2003080D01*
X14395640Y2004400D01*
X14397520Y2004940D01*
X14399230Y2005380D01*
X14400750Y2005730D01*
X14402020Y2005970D01*
X14403030Y2006110D01*
X14403720Y2006130D01*
X14404070Y2006030D01*
X14402880Y2002130D01*
X14400540Y1998880D01*
X14397380Y1995140D01*
X14393640Y1991150D01*
X14389580Y1987200D01*
X14385450Y1983560D01*
X14381520Y1980490D01*
X14378020Y1978260D01*
X14368290Y1974580D01*
X14362840Y1973440D01*
X14357160Y1972760D01*
X14351360Y1972560D01*
X14345590Y1972830D01*
X14339950Y1973580D01*
X14334580Y1974810D01*
X14329590Y1976540D01*
X14317990Y1979080D01*
X14312550Y1978680D01*
X14307550Y1977280D01*
X14303130Y1974950D01*
X14299440Y1971770D01*
X14296620Y1967800D01*
X14294820Y1963140D01*
X14294190Y1957860D01*
X14295270Y1950100D01*
X14296650Y1946640D01*
X14298610Y1943450D01*
X14301170Y1940500D01*
X14304350Y1937780D01*
X14308170Y1935270D01*
X14312640Y1932950D01*
X14317790Y1930820D01*
X14330890Y1926810D01*
X14337330Y1925490D01*
X14343700Y1924610D01*
X14350010Y1924180D01*
X14356270Y1924190D01*
X14362480Y1924650D01*
X14368670Y1925550D01*
X14374820Y1926890D01*
X14395830Y1934140D01*
X14405170Y1938920D01*
X14413760Y1944500D01*
X14421620Y1950890D01*
X14428790Y1958110D01*
X14435290Y1966170D01*
X14441130Y1975090D01*
X14446350Y1984890D01*
X14455200Y2003330D01*
X14455940Y2101150D01*
X14456210Y2158700D01*
X14455960Y2177570D01*
X14455270Y2191160D01*
X14453990Y2200480D01*
X14451990Y2206520D01*
X14449120Y2210280D01*
X14445240Y2212760D01*
X14440210Y2214940D01*
X14436050Y2216470D01*
X14434310Y2216920D01*
X14432690Y2217150D01*
X14431130Y2217170D01*
X14429560Y2216980D01*
X14427890Y2216590D01*
X14426050Y2215990D01*
X14423980Y2215190D01*
X14416850Y2210980D01*
X14414420Y2207750D01*
X14412610Y2203080D01*
X14411320Y2196440D01*
X14410440Y2187320D01*
X14409860Y2175170D01*
X14409500Y2159480D01*
X14409240Y2139730D01*
X14408750Y2108600D01*
X14408450Y2097910D01*
X14408050Y2089790D01*
X14407490Y2083700D01*
X14406740Y2079140D01*
X14405750Y2075590D01*
X14404460Y2072530D01*
X14402840Y2069440D01*
X14391990Y2057120D01*
X14385150Y2052850D01*
X14377640Y2049890D01*
X14369700Y2048290D01*
X14361550Y2048100D01*
X14353390Y2049360D01*
X14345450Y2052120D01*
X14337950Y2056410D01*
X14330130Y2063300D01*
X14327440Y2067490D01*
X14325410Y2072980D01*
X14323930Y2080330D01*
X14322890Y2090150D01*
X14322170Y2103010D01*
X14321650Y2119510D01*
X14321230Y2140230D01*
X14320000Y2203640D01*
X14313860Y2209540D01*
X14308380Y2213840D01*
X14305570Y2215290D01*
X14302730Y2216280D01*
X14299840Y2216810D01*
X14296910Y2216890D01*
X14293920Y2216520D01*
X14290890Y2215710D01*
X14287800Y2214450D01*
G37*
G36*
G01X14625800Y2299000D02*
X14620820Y2293100D01*
X14619160Y2287790D01*
X14617960Y2279370D01*
X14617130Y2266660D01*
X14616620Y2248510D01*
X14616350Y2223760D01*
X14616230Y2191250D01*
X14616210Y2149810D01*
Y2014390D01*
X14623340Y2006520D01*
X14626930Y2002820D01*
X14628580Y2001470D01*
X14630210Y2000410D01*
X14631920Y1999610D01*
X14633760Y1999040D01*
X14635800Y1998670D01*
X14638120Y1998470D01*
X14640790Y1998410D01*
X14645790Y1998670D01*
X14647830Y1999040D01*
X14649670Y1999610D01*
X14651370Y2000410D01*
X14653010Y2001470D01*
X14654660Y2002820D01*
X14656380Y2004500D01*
X14658250Y2006520D01*
X14665380Y2014390D01*
Y2064770D01*
Y2115160D01*
X14692170D01*
X14702190Y2115320D01*
X14707290Y2115520D01*
X14712290Y2115780D01*
X14717080Y2116080D01*
X14721540Y2116430D01*
X14725550Y2116810D01*
X14728990Y2117210D01*
X14731750Y2117610D01*
X14757370Y2125860D01*
X14768640Y2132130D01*
X14778810Y2139750D01*
X14787800Y2148630D01*
X14795550Y2158720D01*
X14801980Y2169950D01*
X14807040Y2182240D01*
X14810650Y2195530D01*
X14811400Y2220860D01*
X14808730Y2233590D01*
X14804220Y2245990D01*
X14798000Y2257820D01*
X14790200Y2268800D01*
X14780980Y2278690D01*
X14770460Y2287200D01*
X14758780Y2294080D01*
X14750940Y2297610D01*
X14747020Y2298780D01*
X14742350Y2299650D01*
X14736340Y2300260D01*
X14728430Y2300690D01*
X14718040Y2300990D01*
X14704580Y2301230D01*
X14687500Y2301460D01*
X14662500Y2301500D01*
X14652820Y2301420D01*
X14644840Y2301260D01*
X14638420Y2301020D01*
X14633440Y2300670D01*
X14629760Y2300230D01*
X14627260Y2299670D01*
X14625800Y2299000D01*
G37*
G36*
G01X14839410Y2209780D02*
X14837150Y2207140D01*
X14836060Y2205610D01*
X14835040Y2204000D01*
X14834100Y2202340D01*
X14833260Y2200680D01*
X14832540Y2199040D01*
X14831960Y2197480D01*
X14831550Y2196020D01*
X14831060Y2188020D01*
X14830840Y2180620D01*
X14830630Y2171300D01*
X14830440Y2160320D01*
X14830290Y2147920D01*
X14830170Y2134370D01*
X14830100Y2119920D01*
X14830070Y2104830D01*
X14830170Y2065410D01*
X14830330Y2051030D01*
X14830580Y2039640D01*
X14830950Y2030830D01*
X14831460Y2024200D01*
X14832120Y2019320D01*
X14832960Y2015780D01*
X14834000Y2013160D01*
X14840200Y2004840D01*
X14844250Y2001980D01*
X14848720Y2000020D01*
X14853440Y1999000D01*
X14858260Y1998940D01*
X14863000Y1999870D01*
X14867510Y2001810D01*
X14871610Y2004800D01*
X14874350Y2008570D01*
X14875250Y2012150D01*
X14875890Y2017900D01*
X14876320Y2026640D01*
X14876590Y2039160D01*
X14876720Y2056240D01*
X14876770Y2078680D01*
X14876780Y2107290D01*
X14876640Y2141380D01*
X14876490Y2156770D01*
X14876280Y2170670D01*
X14876030Y2182780D01*
X14875760Y2192820D01*
X14875450Y2200490D01*
X14875140Y2205510D01*
X14874810Y2207570D01*
X14868690Y2212830D01*
X14864650Y2214480D01*
X14860230Y2215450D01*
X14855630Y2215740D01*
X14851050Y2215330D01*
X14846680Y2214200D01*
X14842740Y2212360D01*
X14839410Y2209780D01*
G37*
G36*
G01X14841620Y2299250D02*
X14838080Y2295890D01*
X14836340Y2293360D01*
X14834680Y2290450D01*
X14833190Y2287280D01*
X14831920Y2283990D01*
X14830930Y2280700D01*
X14830300Y2277550D01*
X14830070Y2274670D01*
X14832360Y2264260D01*
X14834970Y2259470D01*
X14838330Y2255170D01*
X14842280Y2251510D01*
X14846640Y2248650D01*
X14851250Y2246740D01*
X14855950Y2245940D01*
X14860550Y2246400D01*
X14867660Y2249110D01*
X14870330Y2251010D01*
X14872480Y2253380D01*
X14874140Y2256290D01*
X14875360Y2259820D01*
X14876170Y2264050D01*
X14876630Y2269060D01*
X14876780Y2274910D01*
X14876610Y2282900D01*
X14876380Y2286000D01*
X14876020Y2288610D01*
X14875530Y2290800D01*
X14874880Y2292660D01*
X14874070Y2294270D01*
X14873060Y2295700D01*
X14871860Y2297030D01*
X14866740Y2300000D01*
X14863310Y2300990D01*
X14859530Y2301640D01*
X14855590Y2301920D01*
X14851650Y2301840D01*
X14847890Y2301370D01*
X14844490Y2300510D01*
X14841620Y2299250D01*
G37*
%LPC*%
G75*
G36*
G01X395020Y9274740D02*
G03X406620Y9264610I10161J-71D01*
G02X372280Y9225260I5678J-39614D01*
G03X360680Y9235390I-10161J71D01*
G02Y9314610I-5680J39610D01*
G03X372280Y9324740I1439J10059D01*
G02X406620Y9285390I40018J264D01*
G03X395020Y9275260I-1439J-10059D01*
G02Y9274740I-40020J-260D01*
G37*
G36*
G01X1365860Y5558100D02*
G03Y5541900I6139J-8100D01*
G02X1317540I-24160J-31900D01*
G03Y5558100I-6139J8100D01*
G02X1365860I24160J31900D01*
G37*
G36*
G01X783680Y5522090D02*
G03Y5507910I7278J-7090D01*
G02X726320I-28680J-27910D01*
G03Y5522090I-7278J7090D01*
G02X783680I28680J27910D01*
G37*
G36*
G01X1462280Y5400000D02*
G02X1542320I40020J0D01*
G01Y5356950D01*
G02X1462280Y5358660I-42323J-106950D01*
G01Y5400000D01*
G37*
G36*
G01X4336580Y1540020D02*
X4382050Y1494550D01*
G02X4325450Y1437950I47950J-104550D01*
G01X4303420Y1459980D01*
X4265200D01*
G02Y1540020I0J40020D01*
G01X4336580D01*
G37*
G36*
G01X7140020Y1092170D02*
Y1047300D01*
G02X7059980I-40020J0D01*
G01Y1092170D01*
G02X7140020I40020J107830D01*
G37*
G36*
G01X5850020Y1218680D02*
G03X5863410Y1209050I10158J0D01*
G02X5794080Y1144840I36593J-109045D01*
G01X5795410Y1147990D01*
X5769980Y1173420D01*
Y1310200D01*
G02X5850020I40020J0D01*
G01Y1218680D01*
G37*
G36*
G01X7140020Y900000D02*
Y857830D01*
G02X7059980I-40020J-107830D01*
G01Y900000D01*
G02X7140020I40020J0D01*
G37*
G36*
G01X6130020Y326580D02*
Y189800D01*
G02X6049980I-40020J0D01*
G01Y281320D01*
G03X6036590Y290950I-10158J0D01*
G02X6105920Y355160I-36593J109045D01*
G01X6104590Y352010D01*
X6130020Y326580D01*
G37*
G36*
G01X2840340Y1120550D02*
G02Y1179450I-90340J29450D01*
G03X2859660I9660J3150D01*
G02Y1120550I90340J-29450D01*
G03X2840340I-9660J-3150D01*
G37*
G36*
G01X440020Y3956570D02*
X442910Y3953690D01*
X442930Y3953660D01*
G02X429960Y3887880I-27930J-28662D01*
G02X375330Y3930300I-14963J37118D01*
G03X360150Y3940420I-10069J1341D01*
G02X371760Y3999350I-20150J34578D01*
G03X389980Y4005530I8060J6184D01*
G01Y4075360D01*
X599640Y4285020D01*
X628430D01*
X631310Y4287910D01*
X631340Y4287930D01*
G02X694140Y4239110I28665J-27929D01*
G02X674650Y4222760I-34131J20894D01*
G02X631340Y4232070I-14650J37241D01*
G01X631310Y4232090D01*
X628430Y4234980D01*
X620360D01*
X440020Y4054640D01*
Y3956570D01*
G37*
G36*
G01X5230360Y3555020D02*
X5535370Y3250020D01*
X5540220D01*
G02X5547260Y3170640I-210J-40021D01*
G03X5541920Y3153470I1842J-9988D01*
G01X5740020Y2955360D01*
Y2730360D01*
X6400360Y2070020D01*
X6490620D01*
G03X6496370Y2088550I-3J10158D01*
G02X6500560Y2256170I56629J82447D01*
G03X6495230Y2274980I-5329J8650D01*
G01X6384640D01*
X5769980Y2889640D01*
Y3569640D01*
X3453970Y5885640D01*
G03X3436640Y5878000I-7183J-7182D01*
G02X3435250Y5859010I-80739J-3636D01*
G02X3426480Y5835000I-79345J15375D01*
G02X3430030Y5763430I-70580J-39374D01*
G02X3418800Y5744880I-74128J32202D01*
G02X3436060Y5682960I-62801J-50871D01*
G02X3426580Y5654630I-80061J11039D01*
G02X3419090Y5564750I-70581J-39370D01*
G02X3426480Y5475000I-63191J-50382D01*
G02X3430030Y5403430I-70580J-39374D01*
G02X3418800Y5384880I-74128J32202D01*
G02X3436060Y5322960I-62801J-50871D01*
G02X3426580Y5294630I-80061J11039D01*
G02X3419090Y5204750I-70581J-39370D01*
G02X3426480Y5115000I-63191J-50382D01*
G02X3355900Y4994810I-70580J-39371D01*
G01X3280690D01*
X3253870Y5021630D01*
X2918570D01*
X2161120Y5779080D01*
X2081120D01*
X1973800Y5886400D01*
G03X1957020Y5882560I-7186J-7181D01*
G02X1954520Y5875780I-77004J24543D01*
G02X1949020Y5865000I-74540J31238D01*
G02X1945060Y5775000I-69020J-42050D01*
G02X1960560Y5733510I-65059J-47945D01*
G02X1949020Y5685000I-80561J-6463D01*
G02X1822850Y5585800I-69018J-42054D01*
G01X1817010Y5591640D01*
X1653510D01*
X1652400Y5588070D01*
G02X1574360Y5603740I-38196J11938D01*
G01X1574580Y5606120D01*
X1191810Y5988890D01*
X1188220Y5985320D01*
G02X1131620Y6041920I-28220J28380D01*
G01X1135190Y6045510D01*
X1126230Y6054480D01*
X1122740Y6052070D01*
G02X1061570Y6096180I-22743J32931D01*
G03X1051820Y6109180I-9753J2841D01*
G01X698150D01*
Y6092820D01*
X648180Y6042850D01*
G02X591030Y6019180I-57150J57158D01*
G01X547030D01*
G02X497530Y6036110I0J80829D01*
G02X448030Y6019180I-49500J63899D01*
G01X441520D01*
G03X431910Y6005730I4J-10161D01*
G02X342000Y5879980I-89910J-30733D01*
G01X262000D01*
G02Y6070020I0J95020D01*
G01X299310D01*
G03X308060Y6085330I-5J10158D01*
G02X297570Y6115970I69670J40968D01*
G02X272850Y6132850I32428J74030D01*
G01X94180Y6311520D01*
Y6533480D01*
X204070Y6643370D01*
X272700D01*
X278540Y6649210D01*
G02X404710Y6550000I57158J-57142D01*
G02X296060Y6437510I-69019J-42052D01*
G03X280920Y6428660I-4981J-8854D01*
G01Y6388880D01*
X373880Y6295920D01*
X376530D01*
G02X426030Y6278990I0J-80829D01*
G02X475530Y6295920I49500J-63899D01*
G01X519550D01*
G02X565120Y6281840I-12J-80822D01*
G01X568600Y6279470D01*
X585050Y6295920D01*
X650840D01*
G03X659910Y6310660I-3J10163D01*
G02X652570Y6329830I71193J38249D01*
G02X671630Y6489190I19060J78540D01*
G01X679870D01*
X816600Y6625920D01*
X969760D01*
G03X976940Y6643260I-6J10159D01*
G01X863580Y6756620D01*
X368670D01*
X362840Y6750790D01*
G02X236670Y6850000I-57158J57142D01*
G02X362840Y6949200I69018J42054D01*
G01X368680Y6943360D01*
X892320D01*
G03X899500Y6960700I-6J10159D01*
G01X844080Y7016120D01*
Y7678030D01*
G03X827050Y7685510I-10161J-7D01*
G02Y7744490I-27050J29490D01*
G03X844080Y7751970I6869J7487D01*
G01Y7950240D01*
G02X829150Y7962010I42225J68915D01*
G01X802850Y7988310D01*
G02X779180Y8045460I57158J57150D01*
G01Y8089460D01*
G02X796110Y8138960I80829J0D01*
G02X779180Y8188460I63899J49500D01*
G01Y8232460D01*
G02X802850Y8289610I80828J0D01*
G01X844080Y8330840D01*
Y8351120D01*
X788580Y8406620D01*
X759750D01*
X753920Y8400790D01*
G02X627750Y8500000I-57158J57142D01*
G02X753920Y8599200I69018J42054D01*
G01X759760Y8593360D01*
X865940D01*
X946840Y8512460D01*
G03X964180Y8519640I7181J7186D01*
G01Y8581520D01*
X839060Y8706640D01*
X759760D01*
X753920Y8700800D01*
G02X627750Y8800000I-57152J57146D01*
G02X702410Y8922680I69016J42057D01*
G02X714780Y8920850I-5607J-80625D01*
G03X726700Y8927970I2155J9930D01*
G02X735980Y8950000I78302J-20015D01*
G02X862150Y9049210I69012J42068D01*
G01X867990Y9043370D01*
X930930D01*
X1226390Y8747910D01*
X1229980Y8751250D01*
G02X1254090Y8766730I55030J-59193D01*
G02X1342150Y8749200I30909J-74678D01*
G01X1347980Y8743370D01*
X1391430D01*
X1495920Y8638880D01*
Y8481970D01*
G03X1507630Y8471930I10159J0D01*
G02X1577150Y8449210I12370J-79869D01*
G01X1582980Y8443380D01*
X1636420D01*
X1780920Y8298880D01*
Y8062300D01*
X1764390Y8045770D01*
G02X1780920Y7996800I-64293J-48977D01*
G01Y7952780D01*
G02X1763990Y7903280I-80829J0D01*
G02X1780920Y7853780I-63899J-49500D01*
G01Y7809780D01*
G02X1763990Y7760280I-80829J0D01*
G02X1780920Y7710780I-63899J-49500D01*
G01Y7048880D01*
X2143880Y6685920D01*
X2238880D01*
X2370730Y6554070D01*
G03X2387990Y6559990I7181J7185D01*
G02X2434260Y6594480I39709J-4990D01*
G03X2445930Y6606350I1677J10023D01*
G02X2450830Y6635830I39071J8653D01*
G02X2525020Y6614860I34172J-20825D01*
G01Y6610370D01*
X2527550Y6607830D01*
X2529090Y6606290D01*
X3844090D01*
X6350360Y4100020D01*
X6493640D01*
G03X6499110Y4118740I-2J10160D01*
G02X6497720Y4286350I53892J84258D01*
G03X6492110Y4304980I-5615J8469D01*
G01X6339640D01*
X3968370Y6676250D01*
X2451070D01*
X2444210Y6683100D01*
X2432330Y6694980D01*
X2427700D01*
G02X2467720Y6735000I0J40020D01*
G01Y6730370D01*
X2470250Y6727830D01*
X2471790Y6726290D01*
X2513800D01*
G03X2520980Y6743630I-4J10158D01*
G01X2509630Y6754980D01*
X2505000D01*
G02X2545020Y6795000I0J40020D01*
G01Y6790370D01*
X2547550Y6787830D01*
X2549090Y6786290D01*
X4174090D01*
X6355360Y4605020D01*
X6498620D01*
G03X6503630Y4624020I-4J10161D01*
G02X6500560Y4796170I49372J86983D01*
G03X6495230Y4814980I-5329J8650D01*
G01X6359640D01*
X4318370Y6856250D01*
X2451070D01*
X2444210Y6863100D01*
X2432330Y6874980D01*
X2427700D01*
G02X2467720Y6915000I0J40020D01*
G01Y6910370D01*
X2470250Y6907830D01*
X2471790Y6906290D01*
X2508800D01*
G03X2515980Y6923630I-4J10158D01*
G01X2504630Y6934980D01*
X2500000D01*
G02X2540020Y6975000I0J40020D01*
G01Y6970370D01*
X2542550Y6967830D01*
X2544090Y6966290D01*
X4375050D01*
X4375060Y6966300D01*
X4539080D01*
X6385360Y5120020D01*
X6487810D01*
G03X6493820Y5138370I-4J10161D01*
G02X6503630Y5305980I59182J80628D01*
G03X6498620Y5324980I-5014J8839D01*
G01X6359640D01*
X4649640Y7034980D01*
X2469640D01*
X2462320Y7042290D01*
X2449630Y7054980D01*
X2445000D01*
G02X2423010Y7128430I0J40017D01*
G02X2453810Y7134040I22000J-33429D01*
G03X2465960Y7146190I2242J9908D01*
G02X2471570Y7176990I39039J8800D01*
G02X2545020Y7155000I33433J-21990D01*
G01Y7150370D01*
X2548360Y7147020D01*
X2550360Y7145020D01*
X4865360D01*
X6385360Y5625020D01*
X6492110D01*
G03X6497720Y5643650I-5J10161D01*
G02X6506970Y5815800I55281J83353D01*
G03X6502300Y5834980I-4673J9021D01*
G01X6314640D01*
X4939640Y7209980D01*
X2474640D01*
X2465510Y7219100D01*
X2449630Y7234980D01*
X2445000D01*
G02X2439070Y7235420I-12J40021D01*
G02X2445630Y7315020I5925J39582D01*
G03X2455750Y7327160I160J10155D01*
G02X2460520Y7355310I39248J7829D01*
G02X2535020Y7335000I34482J-20310D01*
G01Y7330370D01*
X2544740Y7320650D01*
X2550360Y7315020D01*
X5215360D01*
X6395360Y6135020D01*
X6489190D01*
G03X6495070Y6153460I-3J10159D01*
G02X6502060Y6321080I57928J81540D01*
G03X6496890Y6339980I-5175J8741D01*
G01X6399640D01*
X4803370Y7936250D01*
X2451070D01*
X2444210Y7943100D01*
X2432330Y7954980D01*
X2427700D01*
G02X2467720Y7995000I0J40020D01*
G01Y7990370D01*
X2470250Y7987830D01*
X2471790Y7986290D01*
X2513800D01*
G03X2520980Y8003630I-4J10158D01*
G01X2509630Y8014980D01*
X2505000D01*
G02X2545020Y8055000I0J40020D01*
G01Y8050370D01*
X2547550Y8047830D01*
X2549090Y8046290D01*
X5014090D01*
X6415360Y6645020D01*
X6486470D01*
G03X6492600Y6663280I-5J10161D01*
G02X6497720Y6826350I60402J79719D01*
G03X6492110Y6844980I-5615J8469D01*
G01X6379640D01*
X5109640Y8114980D01*
X2469640D01*
X2462320Y8122290D01*
X2449630Y8134980D01*
X2445000D01*
G02X2423010Y8208430I0J40017D01*
G02X2453810Y8214040I22000J-33429D01*
G03X2465960Y8226190I2242J9908D01*
G02X2471570Y8256990I39039J8800D01*
G02X2545020Y8235000I33433J-21990D01*
G01Y8230370D01*
X2554740Y8220650D01*
X2560360Y8215020D01*
X5330360D01*
X6400360Y7145020D01*
X6498620D01*
G03X6503630Y7164020I-4J10161D01*
G02X6500560Y7336170I49372J86983D01*
G03X6495230Y7354980I-5329J8650D01*
G01X6359640D01*
X5418370Y8296250D01*
X2493370D01*
X2486510Y8303100D01*
X2474630Y8314980D01*
X2470000D01*
G02X2448010Y8388430I0J40017D01*
G02X2478810Y8394040I22000J-33429D01*
G03X2490960Y8406190I2242J9908D01*
G02X2493870Y8432220I39038J8813D01*
G02X2558660Y8442930I36127J-17220D01*
G01X2558690Y8442910D01*
X2561570Y8440020D01*
X5550360D01*
X6340360Y7650020D01*
X6504280D01*
G03X6508770Y7669290I-6J10159D01*
G02X6496370Y7841450I44228J89712D01*
G03X6490620Y7859980I-5753J8372D01*
G01X6304640D01*
X5704640Y8459980D01*
X2584640D01*
X2534640Y8509980D01*
X2496570D01*
X2493690Y8507090D01*
X2493660Y8507070D01*
G02X2427980Y8519800I-28660J27931D01*
G02X2469670Y8574750I37019J15204D01*
G03X2480810Y8586890I1191J10088D01*
G02X2480110Y8591800I39191J8092D01*
G02X2548660Y8622930I39891J3199D01*
G01X2548690Y8622910D01*
X2551570Y8620020D01*
X5065360D01*
X5105360Y8580020D01*
X5795360D01*
X6210360Y8165020D01*
X6492110D01*
G03X6497720Y8183650I-5J10161D01*
G02X6506970Y8355800I55281J83353D01*
G03X6502300Y8374980I-4673J9021D01*
G01X6069640D01*
X5849640Y8594980D01*
X5149640D01*
X5054640Y8689980D01*
X2511570D01*
X2508690Y8687090D01*
X2508660Y8687070D01*
G02X2440790Y8723000I-28659J27932D01*
G03X2430400Y8735070I-9979J1917D01*
G02X2387950Y8770320I-2703J39931D01*
G02X2397460Y8801210I39745J4673D01*
G02X2456360Y8802930I30241J-26211D01*
G01X2456390Y8802910D01*
X2459270Y8800020D01*
X4394640D01*
X4842250Y9247640D01*
G03X4835070Y9264980I-7184J7182D01*
G01X4685360D01*
X4290360Y8869980D01*
X2511570D01*
X2508690Y8867090D01*
X2508660Y8867070D01*
G02X2440790Y8903000I-28659J27932D01*
G03X2430400Y8915070I-9979J1917D01*
G02X2387950Y8950320I-2703J39931D01*
G02X2397460Y8981210I39745J4673D01*
G02X2456360Y8982930I30241J-26211D01*
G01X2456390Y8982910D01*
X2459270Y8980020D01*
X4169640D01*
X4559640Y9370020D01*
X6175360D01*
X6365360Y9180020D01*
X6452980D01*
Y9383020D01*
X6653020D01*
Y9180020D01*
X6747640D01*
G03X6753110Y9198740I-2J10160D01*
G02X6860890I53890J84260D01*
G03X6866360Y9180020I5472J-8560D01*
G01X7684640D01*
X7722980Y9218360D01*
Y9383020D01*
X7923020D01*
Y9182980D01*
X7758360D01*
X7705360Y9129980D01*
X6869380D01*
G03X6863630Y9111450I3J-10158D01*
G02X6859440Y8943830I-56629J-82447D01*
G03X6864770Y8925020I5329J-8650D01*
G01X7683640D01*
X7702910Y8944300D01*
X7736780Y8978170D01*
X7734980Y8981500D01*
G02X7775500Y8940980I88020J47500D01*
G01X7772170Y8942780D01*
X7728950Y8899560D01*
X7704360Y8874980D01*
X6870810D01*
G03X6864930Y8856540I3J-10159D01*
G02X6857940Y8688920I-57928J-81540D01*
G03X6863110Y8670020I5175J-8741D01*
G01X7682640D01*
X7702270Y8689660D01*
X7736780Y8724170D01*
X7734980Y8727500D01*
G02X7775500Y8686980I88020J47500D01*
G01X7772170Y8688780D01*
X7728310Y8644930D01*
X7703360Y8619980D01*
X6872190D01*
G03X6866180Y8601630I4J-10161D01*
G02X6869730Y8443090I-59179J-80635D01*
G03X6876100Y8425020I6371J-7912D01*
G01X7691640D01*
X7708010Y8441400D01*
X7736780Y8470170D01*
X7734980Y8473500D01*
G02X7775500Y8432980I88020J47500D01*
G01X7772170Y8434780D01*
X7734050Y8396670D01*
X7712360Y8374980D01*
X6857700D01*
G03X6853030Y8355800I3J-10159D01*
G02X6862280Y8183650I-46031J-88797D01*
G03X6867890Y8165020I5615J-8469D01*
G01X7685640D01*
X7704190Y8183570D01*
X7736780Y8216170D01*
X7734980Y8219500D01*
G02X7775500Y8178980I88020J47500D01*
G01X7772170Y8180780D01*
X7730220Y8138840D01*
X7706360Y8114980D01*
X6867890D01*
G03X6862280Y8096350I5J-10161D01*
G02X6860890Y7928740I-55282J-83352D01*
G03X6866360Y7910020I5472J-8560D01*
G01X7684640D01*
X7703550Y7928930D01*
X7736780Y7962170D01*
X7734980Y7965500D01*
G02X7775500Y7924980I88020J47500D01*
G01X7772170Y7926780D01*
X7729590Y7884200D01*
X7705360Y7859980D01*
X6869380D01*
G03X6863630Y7841450I3J-10158D01*
G02X6851230Y7669290I-56628J-82448D01*
G03X6855720Y7650020I4496J-9111D01*
G01X7678640D01*
X7699720Y7671110D01*
X7736780Y7708170D01*
X7734980Y7711500D01*
G02X7775500Y7670980I88020J47500D01*
G01X7772170Y7672780D01*
X7725760Y7626380D01*
X7699360Y7599980D01*
X6877320D01*
G03X6870840Y7582000I3J-10159D01*
G02X6864930Y7423460I-63838J-77000D01*
G03X6870810Y7405020I5883J-8281D01*
G01X7687640D01*
X7705460Y7422850D01*
X7736780Y7454170D01*
X7734980Y7457500D01*
G02X7775500Y7416980I88020J47500D01*
G01X7772170Y7418780D01*
X7731500Y7378110D01*
X7708360Y7354980D01*
X6864770D01*
G03X6859440Y7336170I-1J-10160D01*
G02X6856370Y7164020I-52442J-85167D01*
G03X6861380Y7145020I5014J-8839D01*
G01X7681640D01*
X7701640Y7165020D01*
X7736780Y7200170D01*
X7734980Y7203500D01*
G02X7775500Y7162980I88020J47500D01*
G01X7772170Y7164780D01*
X7727670Y7120290D01*
X7702360Y7094980D01*
X6873530D01*
G03X6867400Y7076720I5J-10161D01*
G02X6862280Y6913650I-60402J-79719D01*
G03X6867890Y6895020I5615J-8469D01*
G01X7685640D01*
X7704190Y6913570D01*
X7736780Y6946170D01*
X7734980Y6949500D01*
G02X7775500Y6908980I88020J47500D01*
G01X7772170Y6910780D01*
X7730220Y6868840D01*
X7706360Y6844980D01*
X6867890D01*
G03X6862280Y6826350I5J-10161D01*
G02X6867400Y6663280I-55282J-83351D01*
G03X6873530Y6645020I6135J-8099D01*
G01X7689640D01*
X7706740Y6662120D01*
X7736780Y6692170D01*
X7734980Y6695500D01*
G02X7775500Y6654980I88020J47500D01*
G01X7772170Y6656780D01*
X7732770Y6617390D01*
X7710360Y6594980D01*
X6861380D01*
G03X6856370Y6575980I4J-10161D01*
G02X6866180Y6408370I-49372J-86982D01*
G03X6872190Y6390020I6014J-8189D01*
G01X7688640D01*
X7706100Y6407480D01*
X7736780Y6438170D01*
X7734980Y6441500D01*
G02X7775500Y6400980I88020J47500D01*
G01X7772170Y6402780D01*
X7732140Y6362750D01*
X7709360Y6339980D01*
X6863110D01*
G03X6857940Y6321080I5J-10159D01*
G02X6864930Y6153460I-50938J-86080D01*
G03X6870810Y6135020I5883J-8281D01*
G01X7687640D01*
X7705460Y6152850D01*
X7736780Y6184170D01*
X7734980Y6187500D01*
G02X7775500Y6146980I88020J47500D01*
G01X7772170Y6148780D01*
X7731500Y6108110D01*
X7708360Y6084980D01*
X6864770D01*
G03X6859440Y6066170I-1J-10160D01*
G02X6869730Y5903090I-52438J-85173D01*
G03X6876100Y5885020I6371J-7912D01*
G01X7691640D01*
X7708010Y5901400D01*
X7736780Y5930170D01*
X7734980Y5933500D01*
G02X7775500Y5892980I88020J47500D01*
G01X7772170Y5894780D01*
X7734050Y5856670D01*
X7712360Y5834980D01*
X6857700D01*
G03X6853030Y5815800I3J-10159D01*
G02X6862280Y5643650I-46031J-88797D01*
G03X6867890Y5625020I5615J-8469D01*
G01X7685640D01*
X7704190Y5643570D01*
X7736780Y5676170D01*
X7734980Y5679500D01*
G02X7775500Y5638980I88020J47500D01*
G01X7772170Y5640780D01*
X7730220Y5598840D01*
X7706360Y5574980D01*
X6867890D01*
G03X6862280Y5556350I5J-10161D01*
G02X6867400Y5393280I-55282J-83351D01*
G03X6873530Y5375020I6135J-8099D01*
G01X7689640D01*
X7706740Y5392120D01*
X7736780Y5422170D01*
X7734980Y5425500D01*
G02X7775500Y5384980I88020J47500D01*
G01X7772170Y5386780D01*
X7732770Y5347390D01*
X7710360Y5324980D01*
X6861380D01*
G03X6856370Y5305980I4J-10161D01*
G02X6866180Y5138370I-49372J-86982D01*
G03X6872190Y5120020I6014J-8189D01*
G01X7688640D01*
X7736830Y5168210D01*
G02X7772210Y5132830I86170J50790D01*
G01X7709360Y5069980D01*
X6863110D01*
G03X6857940Y5051080I5J-10159D01*
G02X6864930Y4883460I-50938J-86080D01*
G03X6870810Y4865020I5883J-8281D01*
G01X7687640D01*
X7736830Y4914210D01*
G02X7772210Y4878830I86170J50790D01*
G01X7708360Y4814980D01*
X6864770D01*
G03X6859440Y4796170I-1J-10160D01*
G02X6856370Y4624020I-52442J-85167D01*
G03X6861380Y4605020I5014J-8839D01*
G01X7681640D01*
X7736830Y4660210D01*
G02X7772210Y4624830I86170J50790D01*
G01X7702360Y4554980D01*
X6873530D01*
G03X6867400Y4536720I5J-10161D01*
G02X6862280Y4373650I-60402J-79719D01*
G03X6867890Y4355020I5615J-8469D01*
G01X7685640D01*
X7736830Y4406210D01*
G02X7772210Y4370830I86170J50790D01*
G01X7706360Y4304980D01*
X6867890D01*
G03X6862280Y4286350I5J-10161D01*
G02X6860890Y4118740I-55282J-83352D01*
G03X6866360Y4100020I5472J-8560D01*
G01X7684640D01*
X7736830Y4152210D01*
G02X7772210Y4116830I86170J50790D01*
G01X7705360Y4049980D01*
X6869380D01*
G03X6863630Y4031450I3J-10158D01*
G02X6866180Y3868370I-56629J-82445D01*
G03X6872190Y3850020I6014J-8189D01*
G01X7688640D01*
X7736830Y3898210D01*
G02X7772210Y3862830I86170J50790D01*
G01X7709360Y3799980D01*
X6863110D01*
G03X6857940Y3781080I5J-10159D01*
G02X6870840Y3618000I-50938J-86080D01*
G03X6877320Y3600020I6483J-7821D01*
G01X7692640D01*
X7736780Y3644160D01*
X7734980Y3647490D01*
G02X7775490Y3606980I88020J47510D01*
G01X7772160Y3608780D01*
X7713360Y3549980D01*
X6855720D01*
G03X6851230Y3530710I6J-10159D01*
G02X6856370Y3354020I-44232J-89706D01*
G03X6861380Y3335020I5014J-8839D01*
G01X7681640D01*
X7736830Y3390210D01*
G02X7772210Y3354830I86170J50790D01*
G01X7702360Y3284980D01*
X6873530D01*
G03X6867400Y3266720I5J-10161D01*
G02X6746600I-60400J-79720D01*
G03X6740470Y3284980I-6135J8099D01*
G01X6619530D01*
G03X6613400Y3266720I5J-10161D01*
G02X6492600I-60400J-79720D01*
G03X6486470Y3284980I-6135J8099D01*
G01X6374640D01*
X6216980Y3442640D01*
Y3597640D01*
X3498370Y6316250D01*
X2633070D01*
G03X2625890Y6298910I6J-10159D01*
G01X2814970Y6109830D01*
X2818190Y6111320D01*
G02X2833050Y6114970I16800J-36321D01*
G02X2863660Y6102930I1951J-39971D01*
G01X2863690Y6102910D01*
X2866570Y6100020D01*
X3005360D01*
X3040360Y6065020D01*
X3356390D01*
G03X3365220Y6080200I-2J10159D01*
G02X3365810Y6120810I34779J19804D01*
G03X3357140Y6136250I-8677J5282D01*
G01X2838370D01*
X2831510Y6143100D01*
X2819630Y6154980D01*
X2815000D01*
G02X2855020Y6195000I0J40020D01*
G01Y6190370D01*
X2857550Y6187830D01*
X2859090Y6186290D01*
X2898800D01*
G03X2905980Y6203630I-4J10158D01*
G01X2894630Y6214980D01*
X2890000D01*
G02X2930020Y6255000I0J40020D01*
G01Y6250370D01*
X2932550Y6247830D01*
X2934090Y6246290D01*
X3509090D01*
X6143020Y3612360D01*
Y3327360D01*
X6395360Y3075020D01*
X7675640D01*
X7736830Y3136210D01*
G02X7772210Y3100830I86170J50790D01*
G01X7696360Y3024980D01*
X6880790D01*
G03X6873990Y3007280I4J-10158D01*
G02X6740010I-66990J-74280D01*
G03X6733210Y3024980I-6804J7542D01*
G01X6626790D01*
G03X6619990Y3007280I4J-10158D01*
G02X6486010I-66990J-74280D01*
G03X6479210Y3024980I-6804J7542D01*
G01X6374640D01*
X6092980Y3306640D01*
Y3591640D01*
X3488370Y6196250D01*
X3473660D01*
G03X3466480Y6178910I4J-10158D01*
G01X6039020Y3606360D01*
Y3186360D01*
X6405360Y2820020D01*
X7674640D01*
X7736830Y2882210D01*
G02X7772210Y2846830I86170J50790D01*
G01X7695360Y2769980D01*
X6881880D01*
G03X6874980Y2752370I6J-10159D01*
G02X6851230Y2589290I-67979J-73369D01*
G03X6855720Y2570020I4496J-9111D01*
G01X7678640D01*
X7736830Y2628210D01*
G02X7772210Y2592830I86170J50790D01*
G01X7699360Y2519980D01*
X6877320D01*
G03X6870840Y2502000I3J-10159D01*
G02X6864930Y2343460I-63838J-77000D01*
G03X6870810Y2325020I5883J-8281D01*
G01X7687640D01*
X7736830Y2374210D01*
G02X7772210Y2338830I86170J50790D01*
G01X7708360Y2274980D01*
X6864770D01*
G03X6859440Y2256170I-1J-10160D01*
G02X6863630Y2088550I-52439J-85173D01*
G03X6869380Y2070020I5753J-8372D01*
G01X7686640D01*
X7736830Y2120210D01*
G02X7772210Y2084830I86170J50790D01*
G01X7707360Y2019980D01*
X6866360D01*
G03X6860890Y2001260I2J-10160D01*
G02X6753110I-53890J-84260D01*
G03X6747640Y2019980I-5472J8560D01*
G01X6612360D01*
G03X6606890Y2001260I2J-10160D01*
G02X6499110I-53890J-84260D01*
G03X6493640Y2019980I-5472J8560D01*
G01X6379640D01*
X5689980Y2709640D01*
Y2764410D01*
X5680010D01*
X5679820Y2759520D01*
G02X5670020Y2844150I-279821J10480D01*
G03X5689980Y2846840I9799J2688D01*
G01Y2934640D01*
X5269640Y3354980D01*
X5205360D01*
G03X5197190Y3338780I-2J-10159D01*
G02X5165010Y3274980I-32189J-23780D01*
G01X5160370D01*
X5103040Y3217660D01*
X5070360Y3184980D01*
X3439640D01*
X3369640Y3254980D01*
X2486570D01*
X2483690Y3252090D01*
X2483660Y3252070D01*
G02X2476790Y3246430I-28672J27920D01*
G02X2461520Y3240510I-21795J33565D01*
G03X2455990Y3223300I1653J-10024D01*
G02X2421180Y3234490I-28300J-28297D01*
G03X2426910Y3251500I-1651J10026D01*
G02X2483660Y3307930I28091J28501D01*
G01X2483690Y3307910D01*
X2486570Y3305020D01*
X3390360D01*
X3460360Y3235020D01*
X3544830D01*
G03X3551010Y3253240I-4J10160D01*
G02X3599710I24350J31760D01*
G03X3605890Y3235020I6184J-8060D01*
G01X5049640D01*
X5077000Y3262390D01*
X5124980Y3310370D01*
Y3314940D01*
G02X5132810Y3338780I40020J62D01*
G03X5124640Y3354980I-8168J6041D01*
G01X3769640D01*
X3764380Y3360240D01*
X3758910Y3354760D01*
X3759380Y3352150D01*
G02X3716240Y3384840I-39376J-7153D01*
G03X3722470Y3402140I-952J10114D01*
G01X3688780Y3435830D01*
X3669640Y3454980D01*
X3639160D01*
Y3445280D01*
X3643760Y3444840D01*
G02X3615650Y3436760I-3764J-39842D01*
G03X3609470Y3454980I-6184J8060D01*
G01X2543060D01*
X2515700Y3427610D01*
X2467720Y3379630D01*
Y3375000D01*
G02X2427700Y3415020I-40020J0D01*
G01X2432330D01*
X2489660Y3472340D01*
X2522340Y3505020D01*
X3690360D01*
X3705760Y3489620D01*
X3732860Y3462530D01*
G03X3750160Y3468760I7186J7182D01*
G02X3798810Y3504040I39843J-3758D01*
G03X3810960Y3516190I2243J9907D01*
G02X3841190Y3485960I39040J8810D01*
G03X3829040Y3473810I-2243J-9907D01*
G02X3793760Y3425160I-39038J-8807D01*
G03X3787530Y3407860I952J-10114D01*
G01X3790360Y3405020D01*
X5290360D01*
X5494960Y3200420D01*
X5500160Y3205610D01*
X5500040Y3207870D01*
G02X5499980Y3210000I39958J2191D01*
G01Y3214630D01*
X5209640Y3504980D01*
X4021570D01*
X4018690Y3502090D01*
X4018660Y3502070D01*
G02Y3557930I-28660J27930D01*
G01X4018690Y3557910D01*
X4021570Y3555020D01*
X5230360D01*
G37*
G36*
G01X344130Y1278330D02*
G02X273580Y1398580I0J80821D01*
G02X263390Y1441670I70547J39433D01*
G02X271560Y1473580I80737J-3671D01*
G02X264030Y1519920I72569J35574D01*
G02X273580Y1548580I80099J-10769D01*
G02X344130Y1668820I70550J39423D01*
G01X419340D01*
X446220Y1641940D01*
X834180D01*
Y1719620D01*
G03X816570Y1726520I-10159J-7D01*
G02X744070Y1700060I-60597J53480D01*
G02X716540Y1709450I11899J79939D01*
G02X596300Y1780000I-39423J70550D01*
G01Y1855220D01*
X623170Y1882090D01*
Y2762970D01*
X2016120Y4155920D01*
X2271120D01*
X2779150Y4663950D01*
X3253910D01*
X3280780Y4690820D01*
X3356000D01*
G02X3426550Y4570580I0J-80817D01*
G02X3421000Y4483120I-70550J-39429D01*
G02X3425980Y4475710I-64487J-48718D01*
G02X3427050Y4395000I-69480J-41283D01*
G02X3435130Y4374240I-70556J-39413D01*
G02X3419540Y4305000I-78631J-18671D01*
G02X3436410Y4266530I-63038J-50578D01*
G02X3427050Y4215000I-79909J-12100D01*
G02X3356500Y4094750I-70550J-39429D01*
G01X3281290D01*
X3254410Y4121630D01*
X2960930D01*
X2448480Y3609180D01*
X2093480D01*
X2084990Y3600690D01*
G03X2085660Y3585710I7184J-7184D01*
G02X2099040Y3546190I-25659J-30712D01*
G03X2111190Y3534040I9907J-2243D01*
G02Y3455960I8810J-39040D01*
G03X2099040Y3443810I-2243J-9907D01*
G02X2068810Y3474040I-39040J-8810D01*
G03X2080960Y3486190I2243J9907D01*
G02Y3503810I39040J8810D01*
G03X2068810Y3515960I-9907J2243D01*
G02X2029290Y3529340I-8808J39039D01*
G03X2014310Y3530010I-7796J-6514D01*
G01X1195820Y2711520D01*
Y1526520D01*
X974510Y1305210D01*
X446220D01*
X419340Y1278330D01*
X344130D01*
G37*
G36*
G01X1650840Y1286220D02*
X2109640Y1745020D01*
X4860360D01*
X5100360Y1505020D01*
X7900360D01*
X8015370Y1390020D01*
X8020000D01*
G02X7979980Y1350000I0J-40020D01*
G01Y1354630D01*
X7879640Y1454980D01*
X5079640D01*
X4839640Y1694980D01*
X2130360D01*
X1686220Y1250840D01*
X1688020Y1247510D01*
G02X1647510Y1288020I-88020J-47510D01*
G01X1650840Y1286220D01*
G37*
G36*
G01X7815000Y1140020D02*
X7819630D01*
X7934640Y1255020D01*
X8039640D01*
X8139980Y1355360D01*
Y1564640D01*
X7873840Y1830780D01*
X7870510Y1828980D01*
G02X7909170Y1866210I-47509J88021D01*
G01X8190020Y1585360D01*
Y1334640D01*
X8060360Y1204980D01*
X7955360D01*
X7855020Y1104630D01*
Y1100000D01*
G02X7815000Y1140020I-40020J0D01*
G37*
G36*
G01X1049980Y746930D02*
X1026700Y770220D01*
X1013370Y783550D01*
Y786700D01*
G03X998890Y795890I-10160J-6D01*
G02X1049120Y841650I-48888J104112D01*
G01X1047130Y838260D01*
X1057490Y827890D01*
X1063410Y821970D01*
Y804270D01*
X1071430Y796250D01*
X1085370Y782320D01*
X1094630D01*
X1224980Y912660D01*
Y1510360D01*
X1989640Y2275020D01*
X2655360D01*
X2680790Y2249590D01*
X2725370Y2205020D01*
X2730000D01*
G02X2689980Y2165000I0J-40020D01*
G01Y2169630D01*
X2654760Y2204860D01*
X2634640Y2224980D01*
X2010360D01*
X1275020Y1489640D01*
Y891940D01*
X1130020Y746930D01*
Y742300D01*
G02X1049980I-40020J0D01*
G01Y746930D01*
G37*
G36*
G01X4753530Y299980D02*
X4715130D01*
X4714920Y295120D01*
G02X4698120Y360020I-114918J4877D01*
G01X4753530D01*
G02Y299980I26470J-30020D01*
G37*
G36*
G01X5310020Y267570D02*
X5299780Y257330D01*
X5301550Y254010D01*
G02X5125340Y112500I-101550J-54013D01*
G02X5228080Y311540I74656J87500D01*
G03X5240570Y323130I2482J9850D01*
G02X5275220Y369730I39428J6865D01*
G02X5312940Y352720I4778J-39731D01*
G02X5310020Y303530I-32942J-22726D01*
G01Y267570D01*
G37*
G36*
G01X11887470Y1455940D02*
X11914600Y1451370D01*
X11926730Y1448310D01*
X11937690Y1444820D01*
X11947360Y1440950D01*
X11955570Y1436760D01*
X11962200Y1432320D01*
X11967090Y1427670D01*
X11970100Y1422890D01*
X11967550Y1405160D01*
X11960640Y1394940D01*
X11950740Y1384440D01*
X11938430Y1374160D01*
X11924290Y1364580D01*
X11908890Y1356170D01*
X11892820Y1349430D01*
X11876640Y1344830D01*
X11852670Y1342110D01*
X11840590Y1342450D01*
X11828500Y1343910D01*
X11816450Y1346490D01*
X11804470Y1350150D01*
X11792610Y1354900D01*
X11780900Y1360720D01*
X11769400Y1367610D01*
X11754980Y1378090D01*
X11748940Y1383330D01*
X11743730Y1388500D01*
X11739390Y1393560D01*
X11735940Y1398470D01*
X11733440Y1403190D01*
X11731910Y1407670D01*
X11731390Y1411870D01*
X11743240Y1429470D01*
X11756720Y1437330D01*
X11774050Y1444240D01*
X11794350Y1449960D01*
X11816730Y1454230D01*
X11840300Y1456820D01*
X11864180Y1457470D01*
X11887470Y1455940D01*
G37*
G36*
G01X11592580Y1657970D02*
X11619130Y1645490D01*
X11631970Y1637020D01*
X11644280Y1627290D01*
X11655900Y1616440D01*
X11666660Y1604650D01*
X11676400Y1592080D01*
X11684930Y1578880D01*
X11692100Y1565220D01*
X11698130Y1550780D01*
X11700470Y1543970D01*
X11702400Y1537310D01*
X11703930Y1530690D01*
X11705090Y1524030D01*
X11705910Y1517220D01*
X11706400Y1510170D01*
X11706610Y1502780D01*
X11706270Y1490350D01*
X11705770Y1485490D01*
X11704990Y1481300D01*
X11703870Y1477620D01*
X11702360Y1474280D01*
X11700420Y1471100D01*
X11698000Y1467920D01*
X11695040Y1464580D01*
X11685990Y1458710D01*
X11679910Y1456650D01*
X11673010Y1455200D01*
X11665470Y1454370D01*
X11657470Y1454200D01*
X11649180Y1454690D01*
X11640770Y1455880D01*
X11632420Y1457780D01*
X11596750Y1473580D01*
X11580900Y1485070D01*
X11566640Y1498650D01*
X11554160Y1514080D01*
X11543660Y1531130D01*
X11535320Y1549570D01*
X11529340Y1569150D01*
X11525920Y1589650D01*
X11525300Y1606440D01*
X11525770Y1614500D01*
X11526730Y1622200D01*
X11528170Y1629420D01*
X11530060Y1636050D01*
X11532380Y1641990D01*
X11535110Y1647130D01*
X11538220Y1651350D01*
X11546500Y1657140D01*
X11551990Y1659190D01*
X11558140Y1660640D01*
X11564770Y1661470D01*
X11571710Y1661640D01*
X11578780Y1661130D01*
X11585790Y1659920D01*
X11592580Y1657970D01*
G37*
G36*
G01X12151520Y1674130D02*
X12160580Y1664790D01*
X12164410Y1658210D01*
X12167750Y1650490D01*
X12170550Y1641730D01*
X12172780Y1632010D01*
X12174410Y1621430D01*
X12175410Y1610100D01*
X12175760Y1598090D01*
X12174050Y1571910D01*
X12171820Y1560130D01*
X12168560Y1548990D01*
X12164210Y1538300D01*
X12158700Y1527880D01*
X12151950Y1517570D01*
X12143890Y1507180D01*
X12134440Y1496530D01*
X12122350Y1484780D01*
X12116030Y1479550D01*
X12109520Y1474730D01*
X12102800Y1470320D01*
X12095870Y1466320D01*
X12088710Y1462710D01*
X12081310Y1459500D01*
X12073660Y1456680D01*
X12066350Y1454330D01*
X12063070Y1453470D01*
X12059850Y1452800D01*
X12056550Y1452290D01*
X12053040Y1451930D01*
X12049190Y1451700D01*
X12044840Y1451570D01*
X12039880Y1451540D01*
X12030060D01*
X12026390Y1451690D01*
X12023300Y1451990D01*
X12020580Y1452470D01*
X12018050Y1453160D01*
X12015500Y1454100D01*
X12012740Y1455320D01*
X12009580Y1456860D01*
X12004550Y1459640D01*
X12002510Y1460960D01*
X12000730Y1462300D01*
X11999150Y1463700D01*
X11997730Y1465190D01*
X11996430Y1466810D01*
X11995190Y1468620D01*
X11993970Y1470640D01*
X11991690Y1475180D01*
X11990900Y1477380D01*
X11990320Y1479800D01*
X11989910Y1482630D01*
X11989630Y1486050D01*
X11989470Y1490270D01*
X11989400Y1495470D01*
X11989380Y1501860D01*
X11990070Y1518520D01*
X11990930Y1526010D01*
X11992210Y1533240D01*
X11993980Y1540430D01*
X11996280Y1547800D01*
X11999180Y1555590D01*
X12002740Y1564010D01*
X12007010Y1573300D01*
X12014490Y1587910D01*
X12018300Y1594430D01*
X12022290Y1600630D01*
X12026560Y1606640D01*
X12031220Y1612590D01*
X12036360Y1618630D01*
X12042090Y1624890D01*
X12048510Y1631520D01*
X12064380Y1646550D01*
X12071960Y1652980D01*
X12079340Y1658710D01*
X12086540Y1663760D01*
X12093610Y1668160D01*
X12100560Y1671920D01*
X12107430Y1675060D01*
X12114240Y1677620D01*
X12122490Y1679290D01*
X12127010Y1679570D01*
X12131620Y1679490D01*
X12136190Y1679060D01*
X12140590Y1678300D01*
X12144700Y1677210D01*
X12148380Y1675820D01*
X12151520Y1674130D01*
G37*
G36*
G01X11887470Y1719310D02*
X11900070Y1715130D01*
X11906750Y1712250D01*
X11913480Y1708970D01*
X11920080Y1705380D01*
X11926400Y1701570D01*
X11932270Y1697630D01*
X11937530Y1693660D01*
X11942010Y1689740D01*
X11955570Y1674780D01*
X11961010Y1667090D01*
X11965590Y1659180D01*
X11969360Y1650980D01*
X11972340Y1642410D01*
X11974570Y1633420D01*
X11976070Y1623930D01*
X11976900Y1613890D01*
X11976380Y1592310D01*
X11974830Y1582590D01*
X11972360Y1573410D01*
X11968920Y1564650D01*
X11964450Y1556180D01*
X11958910Y1547870D01*
X11952240Y1539600D01*
X11944390Y1531240D01*
X11933920Y1521410D01*
X11928900Y1517350D01*
X11923850Y1513750D01*
X11918660Y1510530D01*
X11913190Y1507610D01*
X11907330Y1504910D01*
X11900940Y1502350D01*
X11893900Y1499840D01*
X11887000Y1497730D01*
X11883750Y1496980D01*
X11880350Y1496410D01*
X11876570Y1496000D01*
X11872220Y1495720D01*
X11867060Y1495540D01*
X11860900Y1495450D01*
X11853500Y1495430D01*
X11839260Y1495610D01*
X11834050Y1495800D01*
X11829720Y1496130D01*
X11825980Y1496620D01*
X11822520Y1497320D01*
X11819050Y1498280D01*
X11815280Y1499530D01*
X11810900Y1501120D01*
X11798440Y1506320D01*
X11792790Y1509110D01*
X11787460Y1512060D01*
X11782390Y1515220D01*
X11777540Y1518610D01*
X11772840Y1522260D01*
X11768250Y1526220D01*
X11763710Y1530510D01*
X11751020Y1545090D01*
X11746000Y1552450D01*
X11741820Y1559980D01*
X11738420Y1567790D01*
X11735760Y1575970D01*
X11733790Y1584640D01*
X11732480Y1593870D01*
X11731760Y1603790D01*
X11732510Y1625080D01*
X11734130Y1634890D01*
X11736600Y1644220D01*
X11739950Y1653110D01*
X11744210Y1661630D01*
X11749390Y1669840D01*
X11755510Y1677780D01*
X11762610Y1685510D01*
X11785920Y1703960D01*
X11799020Y1710970D01*
X11812860Y1716450D01*
X11827290Y1720350D01*
X11842120Y1722630D01*
X11857210Y1723240D01*
X11872380Y1722150D01*
X11887470Y1719310D01*
G37*
G36*
G01X11540800Y1874680D02*
X11546420Y1865060D01*
X11548580Y1858400D01*
X11550270Y1850620D01*
X11551490Y1841790D01*
X11552230Y1832000D01*
X11552480Y1821340D01*
X11552220Y1809890D01*
X11551450Y1797730D01*
X11545530Y1753720D01*
X11541180Y1733970D01*
X11536110Y1716240D01*
X11530440Y1700890D01*
X11524310Y1688300D01*
X11517870Y1678840D01*
X11511260Y1672890D01*
X11504620Y1670820D01*
X11495110Y1675050D01*
X11489910Y1679950D01*
X11484640Y1686370D01*
X11479480Y1694040D01*
X11474590Y1702710D01*
X11470150Y1712130D01*
X11466330Y1722030D01*
X11463310Y1732160D01*
X11460740Y1746440D01*
X11460000Y1754230D01*
X11459640Y1762240D01*
Y1770310D01*
X11460000Y1778300D01*
X11460740Y1786030D01*
X11461840Y1793350D01*
X11463310Y1800120D01*
X11470630Y1820490D01*
X11475670Y1830400D01*
X11481490Y1839910D01*
X11487970Y1848870D01*
X11495010Y1857130D01*
X11502500Y1864530D01*
X11510330Y1870920D01*
X11518390Y1876150D01*
X11524970Y1879520D01*
X11527630Y1880420D01*
X11530000Y1880800D01*
X11532180Y1880640D01*
X11534250Y1879960D01*
X11536320Y1878740D01*
X11538470Y1876980D01*
X11540800Y1874680D01*
G37*
G36*
G01X12174840Y1878900D02*
X12187630Y1869410D01*
X12193300Y1864460D01*
X12198540Y1859330D01*
X12203380Y1853970D01*
X12207850Y1848350D01*
X12212000Y1842420D01*
X12215850Y1836150D01*
X12219460Y1829500D01*
X12228090Y1807460D01*
X12230880Y1795910D01*
X12232640Y1784090D01*
X12233380Y1772080D01*
X12233070Y1759940D01*
X12231730Y1747760D01*
X12229330Y1735600D01*
X12225880Y1723530D01*
X12219080Y1707630D01*
X12214790Y1699890D01*
X12210170Y1692640D01*
X12205410Y1686130D01*
X12200680Y1680620D01*
X12196180Y1676370D01*
X12192090Y1673630D01*
X12188610Y1672660D01*
X12181220Y1675830D01*
X12177250Y1679580D01*
X12173210Y1684610D01*
X12169190Y1690770D01*
X12165270Y1697940D01*
X12161540Y1705960D01*
X12158090Y1714720D01*
X12155010Y1724080D01*
X12148770Y1747290D01*
X12146380Y1758640D01*
X12144440Y1769950D01*
X12142960Y1781320D01*
X12141910Y1792870D01*
X12141280Y1804670D01*
X12141060Y1816850D01*
X12141240Y1829500D01*
X12141740Y1843930D01*
X12142040Y1849320D01*
X12142410Y1853770D01*
X12142890Y1857460D01*
X12143490Y1860610D01*
X12144260Y1863420D01*
X12145210Y1866080D01*
X12146380Y1868800D01*
X12151280Y1877540D01*
X12153960Y1880480D01*
X12156830Y1882490D01*
X12159900Y1883580D01*
X12163220Y1883750D01*
X12166790Y1883030D01*
X12170660Y1881410D01*
X12174840Y1878900D01*
G37*
G36*
G01X11761140Y1945760D02*
X11776540Y1938770D01*
X11783500Y1934530D01*
X11789970Y1929770D01*
X11795950Y1924510D01*
X11801460Y1918720D01*
X11806480Y1912410D01*
X11811040Y1905570D01*
X11815130Y1898190D01*
X11819940Y1887280D01*
X11821840Y1881820D01*
X11823430Y1876280D01*
X11824700Y1870600D01*
X11825670Y1864720D01*
X11826350Y1858580D01*
X11826750Y1852130D01*
X11826880Y1845300D01*
X11824800Y1820500D01*
X11822210Y1808550D01*
X11818610Y1796930D01*
X11814010Y1785670D01*
X11808410Y1774790D01*
X11801820Y1764300D01*
X11794270Y1754250D01*
X11785750Y1744650D01*
X11766970Y1727750D01*
X11757130Y1720860D01*
X11747000Y1715020D01*
X11736610Y1710230D01*
X11725980Y1706490D01*
X11715130Y1703820D01*
X11704070Y1702210D01*
X11692830Y1701680D01*
X11674270Y1702940D01*
X11665840Y1704550D01*
X11657890Y1706850D01*
X11650340Y1709860D01*
X11643130Y1713620D01*
X11636200Y1718140D01*
X11629470Y1723460D01*
X11622870Y1729590D01*
X11606110Y1751860D01*
X11600160Y1764520D01*
X11595860Y1778000D01*
X11593250Y1792170D01*
X11592340Y1806880D01*
X11593160Y1821980D01*
X11595740Y1837350D01*
X11600110Y1852830D01*
X11615010Y1883940D01*
X11625010Y1897970D01*
X11636440Y1910750D01*
X11649120Y1922120D01*
X11662850Y1931890D01*
X11677440Y1939910D01*
X11692700Y1945990D01*
X11708440Y1949980D01*
X11719580Y1951150D01*
X11725740Y1951250D01*
X11732080Y1951040D01*
X11738450Y1950540D01*
X11744700Y1949750D01*
X11750670Y1948680D01*
X11756200Y1947350D01*
X11761140Y1945760D01*
G37*
G36*
G01X12000950Y1954570D02*
X12035080Y1941370D01*
X12050490Y1931490D01*
X12064560Y1919680D01*
X12077130Y1906130D01*
X12088030Y1891030D01*
X12097070Y1874560D01*
X12104090Y1856930D01*
X12108920Y1838320D01*
X12110580Y1799280D01*
X12107100Y1781200D01*
X12100960Y1764440D01*
X12092310Y1749270D01*
X12081290Y1735960D01*
X12068080Y1724790D01*
X12052810Y1716020D01*
X12035650Y1709940D01*
X12022870Y1707920D01*
X12015810Y1707580D01*
X12008480Y1707680D01*
X12001020Y1708220D01*
X11993560Y1709180D01*
X11986230Y1710560D01*
X11979160Y1712340D01*
X11972490Y1714530D01*
X11943040Y1729550D01*
X11929830Y1739470D01*
X11917780Y1750800D01*
X11907030Y1763410D01*
X11897690Y1777140D01*
X11889890Y1791850D01*
X11883750Y1807390D01*
X11879390Y1823620D01*
X11877070Y1863070D01*
X11880270Y1881450D01*
X11886160Y1898550D01*
X11894580Y1914070D01*
X11905380Y1927720D01*
X11918400Y1939220D01*
X11933480Y1948270D01*
X11950450Y1954570D01*
X11960290Y1956290D01*
X11965990Y1956770D01*
X11972010Y1957020D01*
X11978170D01*
X11984310Y1956770D01*
X11990260Y1956290D01*
X11995860Y1955550D01*
X12000950Y1954570D01*
G37*
G36*
G01X12050530Y2063850D02*
X12065940Y2059070D01*
X12073150Y2056110D01*
X12080060Y2052730D01*
X12086720Y2048910D01*
X12093150Y2044650D01*
X12099410Y2039920D01*
X12105510Y2034690D01*
X12111490Y2028950D01*
X12118840Y2021410D01*
X12121820Y2018080D01*
X12124430Y2014900D01*
X12126760Y2011780D01*
X12128890Y2008600D01*
X12130880Y2005270D01*
X12132830Y2001680D01*
X12134810Y1997730D01*
X12140660Y1984690D01*
X12142900Y1978680D01*
X12144740Y1972780D01*
X12146230Y1966810D01*
X12147400Y1960580D01*
X12148310Y1953920D01*
X12148990Y1946650D01*
X12149500Y1938590D01*
X12150600Y1916920D01*
X12144360D01*
X12126470Y1922590D01*
X12114330Y1929340D01*
X12100460Y1938370D01*
X12085210Y1949450D01*
X12068870Y1962360D01*
X12051770Y1976850D01*
X12034230Y1992700D01*
X12016560Y2009670D01*
X11999540Y2027050D01*
X11992880Y2034270D01*
X11987390Y2040610D01*
X11983010Y2046120D01*
X11979700Y2050870D01*
X11977390Y2054940D01*
X11976050Y2058390D01*
X11975610Y2061280D01*
X11975840Y2063250D01*
X11976190Y2064000D01*
X11976730Y2064610D01*
X11977490Y2065120D01*
X11978520Y2065530D01*
X11979840Y2065870D01*
X11981490Y2066160D01*
X11983510Y2066420D01*
X11986470Y2066830D01*
X11989530Y2067290D01*
X11991010Y2067520D01*
X11992410Y2067740D01*
X11993710Y2067940D01*
X11994850Y2068110D01*
X11995810Y2068250D01*
X12004730Y2068770D01*
X12010890Y2068620D01*
X12017730Y2068240D01*
X12024930Y2067660D01*
X12032140Y2066910D01*
X12039030Y2066000D01*
X12045270Y2064970D01*
X12050530Y2063850D01*
G37*
G36*
G01X11710280Y2069540D02*
X11712480Y2068910D01*
X11713400Y2068500D01*
X11714190Y2068020D01*
X11714870Y2067470D01*
X11715420Y2066850D01*
X11715850Y2066160D01*
X11716150Y2065400D01*
X11716340Y2064580D01*
X11704990Y2043840D01*
X11691320Y2028160D01*
X11673870Y2010380D01*
X11653760Y1991570D01*
X11632160Y1972810D01*
X11610200Y1955170D01*
X11589030Y1939730D01*
X11569810Y1927570D01*
X11562150Y1923680D01*
X11558480Y1922160D01*
X11555020Y1920940D01*
X11551860Y1920060D01*
X11549070Y1919520D01*
X11546730Y1919360D01*
X11544920Y1919580D01*
X11543730Y1920230D01*
X11542330Y1925500D01*
X11542030Y1930160D01*
X11541990Y1935750D01*
X11542190Y1941970D01*
X11542620Y1948500D01*
X11543270Y1955030D01*
X11544140Y1961260D01*
X11545200Y1966880D01*
X11556780Y1999850D01*
X11565200Y2014270D01*
X11575290Y2027250D01*
X11586990Y2038720D01*
X11600250Y2048650D01*
X11615000Y2056980D01*
X11631190Y2063650D01*
X11648760Y2068620D01*
X11659720Y2069930D01*
X11667320Y2070370D01*
X11675660Y2070650D01*
X11684200Y2070770D01*
X11692450Y2070730D01*
X11699890Y2070510D01*
X11706000Y2070120D01*
X11710280Y2069540D01*
G37*
G36*
G01X11876640Y2090660D02*
X11906470Y2080890D01*
X11920090Y2074000D01*
X11932430Y2066090D01*
X11943210Y2057400D01*
X11952110Y2048190D01*
X11958850Y2038680D01*
X11963110Y2029130D01*
X11964590Y2019770D01*
X11957210Y1998490D01*
X11948540Y1989280D01*
X11936970Y1981220D01*
X11922800Y1974460D01*
X11906340Y1969150D01*
X11887900Y1965430D01*
X11867800Y1963460D01*
X11846340Y1963390D01*
X11821560Y1965780D01*
X11810100Y1967930D01*
X11799320Y1970700D01*
X11789250Y1974080D01*
X11779940Y1978070D01*
X11771420Y1982640D01*
X11763730Y1987790D01*
X11756920Y1993510D01*
X11745210Y2007340D01*
X11741870Y2014140D01*
X11740220Y2020920D01*
X11740250Y2027720D01*
X11741970Y2034580D01*
X11745380Y2041540D01*
X11750480Y2048650D01*
X11757280Y2055950D01*
X11780120Y2073320D01*
X11792880Y2080090D01*
X11806290Y2085510D01*
X11820160Y2089530D01*
X11834310Y2092110D01*
X11848560Y2093190D01*
X11862730Y2092720D01*
X11876640Y2090660D01*
G37*
G36*
G01X12044650Y2367800D02*
X12043000Y2364470D01*
X12042420Y2362620D01*
X12042010Y2360750D01*
X12041780Y2358930D01*
X12041740Y2357240D01*
X12041890Y2355750D01*
X12042250Y2354530D01*
X12042810Y2353660D01*
X12043740Y2353630D01*
X12044590Y2353850D01*
X12045650Y2354220D01*
X12046910Y2354730D01*
X12048320Y2355360D01*
X12049880Y2356100D01*
X12051540Y2356940D01*
X12053280Y2357880D01*
X12061020Y2361630D01*
X12065580Y2363530D01*
X12070330Y2365360D01*
X12075030Y2367020D01*
X12079480Y2368450D01*
X12083450Y2369570D01*
X12086720Y2370290D01*
X12089090Y2370550D01*
X12090020Y2370270D01*
X12090160Y2369920D01*
X12090080Y2369420D01*
X12089780Y2368760D01*
X12089240Y2367940D01*
X12088460Y2366960D01*
X12087430Y2365810D01*
X12086150Y2364490D01*
X12082330Y2359860D01*
X12081150Y2357820D01*
X12080460Y2356040D01*
X12080260Y2354570D01*
X12080560Y2353470D01*
X12081360Y2352790D01*
X12082670Y2352590D01*
X12084500Y2352920D01*
X12092300Y2355020D01*
X12097090Y2356250D01*
X12102130Y2357540D01*
X12107190Y2358810D01*
X12112000Y2360000D01*
X12116320Y2361040D01*
X12119910Y2361890D01*
X12122510Y2362470D01*
X12128750Y2363760D01*
X12122870Y2356960D01*
X12117980Y2350580D01*
X12117070Y2348450D01*
X12117230Y2346970D01*
X12118520Y2346130D01*
X12120970Y2345890D01*
X12124630Y2346230D01*
X12129530Y2347110D01*
X12135730Y2348510D01*
X12145380Y2350600D01*
X12149570Y2351300D01*
X12153420Y2351780D01*
X12157000Y2352040D01*
X12160390Y2352090D01*
X12163650Y2351950D01*
X12166850Y2351610D01*
X12170060Y2351080D01*
X12175940Y2349800D01*
X12169150Y2342820D01*
X12162170Y2335660D01*
X12187320D01*
X12196050Y2335610D01*
X12199970Y2335550D01*
X12203480Y2335470D01*
X12206520Y2335380D01*
X12209020Y2335280D01*
X12210890Y2335160D01*
X12212070Y2335040D01*
X12212480Y2334920D01*
X12212120Y2334050D01*
X12211700Y2333270D01*
X12211130Y2332300D01*
X12210450Y2331170D01*
X12209650Y2329900D01*
X12208770Y2328530D01*
X12207810Y2327070D01*
X12206790Y2325560D01*
X12203040Y2319170D01*
X12201140Y2315480D01*
X12199310Y2311690D01*
X12197650Y2307960D01*
X12196220Y2304470D01*
X12195100Y2301380D01*
X12194380Y2298860D01*
X12194120Y2297090D01*
X12194760Y2296410D01*
X12195510Y2296120D01*
X12196520Y2295870D01*
X12197740Y2295660D01*
X12199150Y2295480D01*
X12200720Y2295360D01*
X12202420Y2295280D01*
X12204220Y2295250D01*
X12207940Y2295150D01*
X12209530Y2295010D01*
X12210920Y2294830D01*
X12212100Y2294600D01*
X12213050Y2294330D01*
X12213740Y2294010D01*
X12214170Y2293640D01*
X12214320Y2293230D01*
X12213390Y2291610D01*
X12212300Y2290210D01*
X12210850Y2288470D01*
X12209080Y2286450D01*
X12207030Y2284200D01*
X12204740Y2281760D01*
X12202260Y2279190D01*
X12199630Y2276520D01*
X12194590Y2271280D01*
X12192390Y2268850D01*
X12190450Y2266600D01*
X12188820Y2264600D01*
X12187520Y2262890D01*
X12186600Y2261520D01*
X12186090Y2260530D01*
X12186040Y2259990D01*
X12187110Y2259370D01*
X12188040Y2259130D01*
X12189180Y2258960D01*
X12190510Y2258830D01*
X12192000Y2258770D01*
X12193600Y2258750D01*
X12195300Y2258790D01*
X12197060Y2258890D01*
X12200530Y2259120D01*
X12202080Y2259150D01*
X12203460Y2259110D01*
X12204650Y2259020D01*
X12205630Y2258880D01*
X12206360Y2258680D01*
X12206810Y2258440D01*
X12206970Y2258150D01*
X12206000Y2256570D01*
X12204840Y2255130D01*
X12203300Y2253310D01*
X12201420Y2251170D01*
X12199250Y2248750D01*
X12196810Y2246110D01*
X12194170Y2243290D01*
X12191360Y2240340D01*
X12185910Y2234670D01*
X12183480Y2232060D01*
X12181300Y2229680D01*
X12179420Y2227570D01*
X12177890Y2225780D01*
X12176730Y2224370D01*
X12176010Y2223390D01*
X12175760Y2222890D01*
X12176350Y2222530D01*
X12177050Y2222360D01*
X12177990Y2222210D01*
X12179130Y2222070D01*
X12180460Y2221950D01*
X12181950Y2221870D01*
X12183570Y2221810D01*
X12185300Y2221790D01*
X12194850D01*
X12189340Y2216100D01*
X12186590Y2213450D01*
X12184710Y2211780D01*
X12182560Y2209930D01*
X12180200Y2207960D01*
X12177700Y2205910D01*
X12175110Y2203830D01*
X12172480Y2201760D01*
X12169880Y2199750D01*
X12165060Y2195960D01*
X12162950Y2194210D01*
X12161090Y2192610D01*
X12159510Y2191190D01*
X12158260Y2189980D01*
X12157380Y2189030D01*
X12156890Y2188350D01*
X12156840Y2188000D01*
X12157870Y2187640D01*
X12158740Y2187470D01*
X12159820Y2187310D01*
X12161070Y2187170D01*
X12162470Y2187060D01*
X12164000Y2186970D01*
X12165620Y2186920D01*
X12167310Y2186900D01*
X12176670Y2186710D01*
X12169510Y2180650D01*
X12166030Y2177970D01*
X12163800Y2176410D01*
X12161320Y2174770D01*
X12158660Y2173070D01*
X12155880Y2171360D01*
X12153050Y2169670D01*
X12150230Y2168040D01*
X12147480Y2166510D01*
X12137310Y2161100D01*
X12133900Y2159180D01*
X12131470Y2157670D01*
X12129910Y2156510D01*
X12129100Y2155600D01*
X12128960Y2154870D01*
X12129370Y2154250D01*
X12130220Y2153650D01*
X12131470Y2153080D01*
X12132360Y2152820D01*
X12133380Y2152590D01*
X12134510Y2152390D01*
X12135730Y2152230D01*
X12136990Y2152100D01*
X12138290Y2152030D01*
X12139580Y2152000D01*
X12142110Y2151900D01*
X12143150Y2151770D01*
X12144010Y2151600D01*
X12144700Y2151380D01*
X12145200Y2151130D01*
X12145500Y2150840D01*
X12145590Y2150520D01*
X12145460Y2150160D01*
X12142360Y2147570D01*
X12139560Y2145950D01*
X12136050Y2144180D01*
X12131960Y2142300D01*
X12127370Y2140360D01*
X12122390Y2138390D01*
X12117120Y2136440D01*
X12111670Y2134550D01*
X12096070Y2129410D01*
X12100290Y2126110D01*
X12101940Y2124850D01*
X12102780Y2124300D01*
X12103620Y2123820D01*
X12104430Y2123410D01*
X12105200Y2123070D01*
X12105910Y2122820D01*
X12106540Y2122670D01*
X12107080Y2122620D01*
X12108000Y2122510D01*
X12108400Y2122390D01*
X12108760Y2122230D01*
X12109060Y2122030D01*
X12109310Y2121800D01*
X12109500Y2121540D01*
X12109610Y2121260D01*
X12109650Y2120960D01*
X12107030Y2119100D01*
X12104040Y2118040D01*
X12100180Y2116940D01*
X12095660Y2115860D01*
X12090670Y2114830D01*
X12085390Y2113900D01*
X12080020Y2113110D01*
X12074770Y2112520D01*
X12064930Y2111610D01*
X12061500Y2111160D01*
X12058940Y2110690D01*
X12057170Y2110150D01*
X12056080Y2109520D01*
X12055590Y2108780D01*
X12055600Y2107890D01*
X12056040Y2106820D01*
X12056950Y2105580D01*
X12057600Y2104870D01*
X12058360Y2104130D01*
X12059200Y2103360D01*
X12060100Y2102590D01*
X12061050Y2101830D01*
X12062030Y2101090D01*
X12063010Y2100390D01*
X12068340Y2096540D01*
X12043550Y2097460D01*
X12017950Y2099840D01*
X12006320Y2102010D01*
X11995460Y2104840D01*
X11985380Y2108330D01*
X11976060Y2112490D01*
X11967500Y2117320D01*
X11959700Y2122840D01*
X11952660Y2129040D01*
X11946070Y2136560D01*
X11942860Y2141000D01*
X11939850Y2145630D01*
X11937140Y2150270D01*
X11934850Y2154740D01*
X11933080Y2158850D01*
X11931940Y2162410D01*
X11931540Y2165220D01*
X11934810Y2170080D01*
X11938570Y2174090D01*
X11943440Y2178890D01*
X11949220Y2184270D01*
X11955670Y2190020D01*
X11962580Y2195940D01*
X11969730Y2201830D01*
X11976900Y2207470D01*
X11999340Y2223840D01*
X12011910Y2232410D01*
X12025170Y2241090D01*
X12038950Y2249780D01*
X12053090Y2258370D01*
X12067430Y2266770D01*
X12081810Y2274880D01*
X12096070Y2282580D01*
X12103340Y2286560D01*
X12106570Y2288370D01*
X12109450Y2290010D01*
X12111910Y2291440D01*
X12113900Y2292650D01*
X12115360Y2293580D01*
X12116230Y2294220D01*
X12116450Y2294520D01*
X12111260Y2293170D01*
X12105790Y2291280D01*
X12098980Y2288790D01*
X12091280Y2285880D01*
X12083100Y2282700D01*
X12074880Y2279420D01*
X12067060Y2276200D01*
X12060080Y2273210D01*
X12030040Y2259150D01*
X12014800Y2251280D01*
X11999640Y2242980D01*
X11984760Y2234370D01*
X11970330Y2225550D01*
X11956530Y2216610D01*
X11943540Y2207670D01*
X11931540Y2198830D01*
X11912810Y2184690D01*
X11903080Y2191490D01*
X11893550Y2199080D01*
X11889680Y2203120D01*
X11886360Y2207380D01*
X11883570Y2211890D01*
X11881290Y2216710D01*
X11879480Y2221870D01*
X11878130Y2227400D01*
X11877190Y2233360D01*
X11877960Y2251720D01*
X11880270Y2262000D01*
X11883770Y2272790D01*
X11888370Y2283890D01*
X11894000Y2295140D01*
X11900580Y2306350D01*
X11908040Y2317340D01*
X11916300Y2327940D01*
X11921090Y2333300D01*
X11922970Y2335140D01*
X11924520Y2336430D01*
X11925760Y2337180D01*
X11926710Y2337400D01*
X11927360Y2337090D01*
X11927740Y2336260D01*
X11927870Y2334920D01*
X11927990Y2333670D01*
X11928140Y2332880D01*
X11928330Y2332010D01*
X11928560Y2331080D01*
X11928820Y2330110D01*
X11929100Y2329120D01*
X11929400Y2328150D01*
X11929700Y2327210D01*
X11930880Y2324890D01*
X11931680Y2324550D01*
X11932840Y2324910D01*
X11934530Y2326100D01*
X11936910Y2328220D01*
X11940160Y2331390D01*
X11944430Y2335730D01*
X11949900Y2341350D01*
X11968080Y2360450D01*
X11968260Y2352190D01*
X11968720Y2345070D01*
X11969370Y2342970D01*
X11970380Y2341820D01*
X11971810Y2341620D01*
X11973710Y2342360D01*
X11976130Y2344040D01*
X11979130Y2346640D01*
X11982770Y2350170D01*
X11986820Y2353970D01*
X11988880Y2355810D01*
X11990900Y2357570D01*
X11992840Y2359210D01*
X11994660Y2360680D01*
X11996310Y2361960D01*
X11997750Y2362990D01*
X11998930Y2363760D01*
X12004620Y2366880D01*
X12003700Y2359900D01*
X12003410Y2356910D01*
Y2355640D01*
X12003520Y2354500D01*
X12003730Y2353490D01*
X12004060Y2352590D01*
X12004500Y2351810D01*
X12005050Y2351130D01*
X12005720Y2350530D01*
X12007350Y2349520D01*
X12008190Y2349390D01*
X12009110Y2349530D01*
X12010180Y2349960D01*
X12011460Y2350700D01*
X12013010Y2351760D01*
X12014870Y2353170D01*
X12017110Y2354940D01*
X12023740Y2359860D01*
X12027610Y2362440D01*
X12031580Y2364950D01*
X12035460Y2367270D01*
X12039050Y2369290D01*
X12042150Y2370900D01*
X12044580Y2371970D01*
X12046120Y2372390D01*
X12046420Y2372110D01*
X12046430Y2371770D01*
X12046350Y2371320D01*
X12046190Y2370770D01*
X12045930Y2370130D01*
X12045590Y2369410D01*
X12045160Y2368630D01*
X12044650Y2367800D01*
G37*
G36*
G01X11672640Y2366330D02*
X11675390Y2364610D01*
X11677030Y2363520D01*
X11678780Y2362310D01*
X11680600Y2361010D01*
X11682440Y2359650D01*
X11684270Y2358260D01*
X11686030Y2356860D01*
X11687690Y2355490D01*
X11690810Y2353060D01*
X11692280Y2351970D01*
X11693640Y2350990D01*
X11694880Y2350150D01*
X11695960Y2349470D01*
X11696860Y2348950D01*
X11697540Y2348630D01*
X11697980Y2348510D01*
X11699960Y2349700D01*
X11700820Y2351020D01*
X11701550Y2352690D01*
X11702110Y2354580D01*
X11702480Y2356590D01*
X11702610Y2358620D01*
X11702460Y2360560D01*
X11702010Y2362290D01*
X11701490Y2363900D01*
X11701290Y2364620D01*
X11701150Y2365260D01*
X11701060Y2365810D01*
X11701020Y2366260D01*
X11701040Y2366600D01*
X11701130Y2366810D01*
X11701280Y2366880D01*
X11704570Y2365340D01*
X11707150Y2363610D01*
X11710130Y2361410D01*
X11713350Y2358870D01*
X11716650Y2356130D01*
X11719860Y2353310D01*
X11722800Y2350550D01*
X11725330Y2347960D01*
X11729170Y2343940D01*
X11730580Y2342620D01*
X11731720Y2341740D01*
X11732680Y2341240D01*
X11733500Y2341120D01*
X11734250Y2341330D01*
X11734990Y2341850D01*
X11735800Y2342640D01*
X11736770Y2344180D01*
X11737230Y2345150D01*
X11737660Y2346230D01*
X11738060Y2347370D01*
X11738410Y2348570D01*
X11738710Y2349790D01*
X11738940Y2351000D01*
X11739110Y2352190D01*
X11739660Y2358610D01*
X11747920Y2350350D01*
X11751380Y2346840D01*
X11753330Y2344820D01*
X11755360Y2342690D01*
X11757420Y2340510D01*
X11759470Y2338310D01*
X11761450Y2336160D01*
X11763300Y2334090D01*
X11765000Y2332170D01*
X11773810Y2322250D01*
X11776750Y2329960D01*
X11779690Y2337680D01*
X11785930Y2331620D01*
X11796570Y2319150D01*
X11801950Y2311470D01*
X11807170Y2303140D01*
X11812110Y2294410D01*
X11816610Y2285530D01*
X11820550Y2276730D01*
X11823770Y2268260D01*
X11826140Y2260360D01*
X11828540Y2240340D01*
X11827740Y2230820D01*
X11825670Y2221780D01*
X11822370Y2213330D01*
X11817870Y2205600D01*
X11812230Y2198690D01*
X11805490Y2192730D01*
X11797680Y2187810D01*
X11794620Y2186460D01*
X11793340Y2186220D01*
X11792040Y2186340D01*
X11790600Y2186880D01*
X11788870Y2187880D01*
X11786720Y2189410D01*
X11784010Y2191510D01*
X11780600Y2194240D01*
X11751470Y2215470D01*
X11734500Y2226330D01*
X11716310Y2237140D01*
X11697210Y2247740D01*
X11677490Y2257960D01*
X11657440Y2267650D01*
X11637370Y2276650D01*
X11617550Y2284780D01*
X11600700Y2291200D01*
X11595880Y2292840D01*
X11593470Y2293380D01*
Y2292800D01*
X11595880Y2291060D01*
X11600700Y2288120D01*
X11607920Y2283960D01*
X11617550Y2278540D01*
X11659940Y2254020D01*
X11678400Y2242650D01*
X11695270Y2231710D01*
X11710730Y2221070D01*
X11724960Y2210600D01*
X11738140Y2200180D01*
X11750450Y2189690D01*
X11762060Y2179000D01*
X11769750Y2171190D01*
X11772080Y2168200D01*
X11773440Y2165470D01*
X11773870Y2162740D01*
X11773400Y2159740D01*
X11772080Y2156200D01*
X11769940Y2151880D01*
X11767020Y2146490D01*
X11753300Y2128760D01*
X11744170Y2121250D01*
X11733630Y2114690D01*
X11721760Y2109120D01*
X11708640Y2104580D01*
X11694340Y2101090D01*
X11678950Y2098710D01*
X11662540Y2097460D01*
X11638670Y2096540D01*
X11645090Y2102050D01*
X11647520Y2104330D01*
X11648450Y2105340D01*
X11649170Y2106260D01*
X11649690Y2107090D01*
X11650000Y2107810D01*
X11650110Y2108440D01*
X11650000Y2108970D01*
X11649680Y2109390D01*
X11647850Y2110100D01*
X11646110Y2110510D01*
X11643910Y2110940D01*
X11641310Y2111380D01*
X11638380Y2111830D01*
X11635170Y2112260D01*
X11631760Y2112680D01*
X11628200Y2113070D01*
X11620910Y2114040D01*
X11617340Y2114600D01*
X11613910Y2115180D01*
X11610700Y2115780D01*
X11607780Y2116370D01*
X11605240Y2116950D01*
X11603150Y2117510D01*
X11601570Y2118020D01*
X11594780Y2120960D01*
X11601020Y2124090D01*
X11603140Y2125250D01*
X11604110Y2125850D01*
X11604990Y2126450D01*
X11605750Y2127040D01*
X11606380Y2127580D01*
X11606860Y2128080D01*
X11607160Y2128510D01*
X11607270Y2128860D01*
X11606260Y2129720D01*
X11604990Y2130400D01*
X11603290Y2131200D01*
X11601190Y2132100D01*
X11598770Y2133080D01*
X11596060Y2134110D01*
X11593120Y2135160D01*
X11590010Y2136210D01*
X11574220Y2141980D01*
X11568410Y2144460D01*
X11564060Y2146650D01*
X11561200Y2148500D01*
X11559880Y2149990D01*
X11560140Y2151090D01*
X11562030Y2151770D01*
X11565580Y2152000D01*
X11569850Y2152340D01*
X11571850Y2152730D01*
X11573660Y2153220D01*
X11575200Y2153780D01*
X11576400Y2154400D01*
X11577170Y2155030D01*
X11577450Y2155650D01*
X11577150Y2156230D01*
X11575890Y2156950D01*
X11574660Y2157640D01*
X11573080Y2158510D01*
X11571200Y2159530D01*
X11569060Y2160690D01*
X11566710Y2161950D01*
X11564190Y2163280D01*
X11561540Y2164670D01*
X11551670Y2170280D01*
X11547040Y2173120D01*
X11542770Y2175880D01*
X11539000Y2178480D01*
X11535840Y2180840D01*
X11533410Y2182860D01*
X11531840Y2184480D01*
X11531250Y2185610D01*
X11531760Y2186070D01*
X11532360Y2186270D01*
X11533170Y2186450D01*
X11534140Y2186600D01*
X11535270Y2186730D01*
X11536530Y2186820D01*
X11537890Y2186880D01*
X11539330Y2186900D01*
X11542270Y2187000D01*
X11543620Y2187120D01*
X11544860Y2187280D01*
X11545960Y2187480D01*
X11546900Y2187710D01*
X11547660Y2187970D01*
X11548200Y2188250D01*
X11548510Y2188550D01*
X11548430Y2189410D01*
X11548090Y2190000D01*
X11547550Y2190670D01*
X11546850Y2191400D01*
X11545990Y2192180D01*
X11544990Y2192990D01*
X11543870Y2193800D01*
X11542630Y2194610D01*
X11535030Y2200210D01*
X11530680Y2203680D01*
X11526300Y2207310D01*
X11522150Y2210880D01*
X11518480Y2214190D01*
X11515540Y2217000D01*
X11513590Y2219120D01*
X11512890Y2220320D01*
X11513400Y2220800D01*
X11513990Y2221030D01*
X11514790Y2221240D01*
X11515750Y2221420D01*
X11516860Y2221570D01*
X11518080Y2221690D01*
X11519400Y2221760D01*
X11520780Y2221790D01*
X11523630Y2221870D01*
X11524950Y2221950D01*
X11526170Y2222070D01*
X11527250Y2222210D01*
X11528180Y2222360D01*
X11528930Y2222530D01*
X11529470Y2222710D01*
X11529780Y2222890D01*
X11529390Y2224030D01*
X11528600Y2225110D01*
X11527460Y2226490D01*
X11526010Y2228130D01*
X11524280Y2229980D01*
X11522320Y2232020D01*
X11520160Y2234200D01*
X11517840Y2236480D01*
X11513010Y2241130D01*
X11510710Y2243470D01*
X11508550Y2245740D01*
X11506580Y2247900D01*
X11504840Y2249880D01*
X11503380Y2251650D01*
X11502250Y2253140D01*
X11501500Y2254300D01*
X11498380Y2259810D01*
X11508110Y2258890D01*
X11511940Y2258680D01*
X11513590Y2258690D01*
X11515050Y2258780D01*
X11516320Y2258930D01*
X11517390Y2259150D01*
X11518250Y2259430D01*
X11518890Y2259770D01*
X11519310Y2260170D01*
X11519060Y2261660D01*
X11518390Y2262830D01*
X11517390Y2264280D01*
X11516060Y2265960D01*
X11514420Y2267860D01*
X11512470Y2269960D01*
X11510240Y2272250D01*
X11507740Y2274680D01*
X11503200Y2279230D01*
X11501070Y2281460D01*
X11499090Y2283590D01*
X11497300Y2285570D01*
X11495750Y2287380D01*
X11494460Y2288950D01*
X11493490Y2290240D01*
X11492870Y2291210D01*
X11491910Y2293350D01*
X11491820Y2294060D01*
X11492080Y2294560D01*
X11492760Y2294900D01*
X11493920Y2295100D01*
X11495620Y2295210D01*
X11497950Y2295250D01*
X11500950D01*
X11505700Y2295350D01*
X11507400Y2295500D01*
X11508710Y2295740D01*
X11509680Y2296080D01*
X11510350Y2296530D01*
X11510770Y2297120D01*
X11510990Y2297850D01*
X11511050Y2298740D01*
X11510340Y2302880D01*
X11509500Y2305500D01*
X11508350Y2308430D01*
X11506930Y2311610D01*
X11505250Y2315000D01*
X11503350Y2318550D01*
X11501230Y2322200D01*
X11498930Y2325920D01*
X11492690Y2335660D01*
X11542630D01*
X11536940Y2342820D01*
X11533970Y2346620D01*
X11533090Y2347900D01*
X11532590Y2348850D01*
X11532470Y2349540D01*
X11532710Y2350040D01*
X11533300Y2350420D01*
X11534220Y2350750D01*
X11535470Y2351080D01*
X11541750Y2352130D01*
X11545350Y2352220D01*
X11549490Y2351990D01*
X11554330Y2351420D01*
X11560050Y2350500D01*
X11566810Y2349200D01*
X11574780Y2347500D01*
X11584130Y2345390D01*
X11587050Y2345560D01*
X11587860Y2346330D01*
X11588240Y2347500D01*
X11588180Y2349010D01*
X11587680Y2350820D01*
X11586750Y2352870D01*
X11585380Y2355120D01*
X11583580Y2357510D01*
X11578810Y2363020D01*
X11585780Y2361920D01*
X11589170Y2361300D01*
X11591380Y2360820D01*
X11593850Y2360240D01*
X11596530Y2359580D01*
X11599340Y2358860D01*
X11602230Y2358080D01*
X11605140Y2357260D01*
X11608000Y2356410D01*
X11619050Y2353730D01*
X11622720Y2353270D01*
X11625210Y2353410D01*
X11626540Y2354200D01*
X11626760Y2355640D01*
X11625890Y2357750D01*
X11623970Y2360580D01*
X11621040Y2364120D01*
X11618970Y2366640D01*
X11618230Y2367670D01*
X11617680Y2368540D01*
X11617330Y2369260D01*
X11617180Y2369820D01*
X11617220Y2370230D01*
X11617470Y2370470D01*
X11617920Y2370550D01*
X11623320Y2369550D01*
X11627220Y2368420D01*
X11631600Y2366990D01*
X11636210Y2365340D01*
X11640810Y2363560D01*
X11645150Y2361730D01*
X11648980Y2359930D01*
X11652070Y2358250D01*
X11655020Y2356780D01*
X11656460Y2356160D01*
X11657840Y2355630D01*
X11659130Y2355200D01*
X11660290Y2354890D01*
X11661290Y2354700D01*
X11662110Y2354650D01*
X11662720Y2354760D01*
X11664540Y2356320D01*
X11664990Y2357490D01*
X11665130Y2358870D01*
X11664960Y2360420D01*
X11664490Y2362130D01*
X11663710Y2363950D01*
X11662630Y2365850D01*
X11661250Y2367800D01*
X11657390Y2372760D01*
X11661800Y2371470D01*
X11663730Y2370780D01*
X11664900Y2370300D01*
X11666150Y2369750D01*
X11667470Y2369140D01*
X11668810Y2368480D01*
X11670140Y2367780D01*
X11671420Y2367060D01*
X11672640Y2366330D01*
G37*
G36*
G01X12916400Y2166520D02*
X12936990Y2155830D01*
X12944940Y2147440D01*
X12951140Y2137490D01*
X12955460Y2126360D01*
X12957750Y2114420D01*
X12957870Y2102020D01*
X12955690Y2089520D01*
X12951060Y2077310D01*
X12930350Y2054260D01*
X12917120Y2048640D01*
X12903050Y2046810D01*
X12888970Y2048670D01*
X12875690Y2054110D01*
X12864030Y2063020D01*
X12854790Y2075290D01*
X12848800Y2090820D01*
X12847080Y2112220D01*
X12848700Y2122540D01*
X12851810Y2132320D01*
X12856320Y2141340D01*
X12862090Y2149390D01*
X12869020Y2156250D01*
X12877000Y2161710D01*
X12885920Y2165540D01*
X12893690Y2167750D01*
X12896880Y2168420D01*
X12899820Y2168800D01*
X12902670Y2168910D01*
X12905600Y2168730D01*
X12908760Y2168270D01*
X12912300Y2167530D01*
X12916400Y2166520D01*
G37*
G36*
G01X12705240Y2248120D02*
X12714150Y2241910D01*
X12717690Y2238390D01*
X12720640Y2234560D01*
X12723010Y2230380D01*
X12724830Y2225820D01*
X12726110Y2220850D01*
X12726870Y2215430D01*
X12727120Y2209540D01*
X12726930Y2201920D01*
X12726630Y2198960D01*
X12726150Y2196390D01*
X12725450Y2194090D01*
X12724500Y2191930D01*
X12723250Y2189770D01*
X12721680Y2187490D01*
X12719740Y2184960D01*
X12711560Y2176320D01*
X12707410Y2173250D01*
X12702850Y2170900D01*
X12697590Y2169180D01*
X12691360Y2167990D01*
X12683860Y2167250D01*
X12674820Y2166880D01*
X12663940Y2166770D01*
X12632480D01*
Y2255990D01*
X12663940Y2254760D01*
X12679000Y2254060D01*
X12684700Y2253640D01*
X12689440Y2253120D01*
X12693400Y2252490D01*
X12696770Y2251700D01*
X12699750Y2250730D01*
X12702510Y2249550D01*
X12705240Y2248120D01*
G37*
G36*
G01X13384180Y2158660D02*
X13401300Y2141210D01*
X13406660Y2130550D01*
X13409860Y2119090D01*
X13410860Y2107230D01*
X13409640Y2095340D01*
X13406160Y2083800D01*
X13400390Y2072990D01*
X13392300Y2063300D01*
X13374630Y2051460D01*
X13365060Y2048330D01*
X13355300Y2047040D01*
X13345570Y2047570D01*
X13336120Y2049910D01*
X13327170Y2054060D01*
X13318940Y2060000D01*
X13311670Y2067720D01*
X13306060Y2075760D01*
X13303920Y2079780D01*
X13302190Y2083910D01*
X13300840Y2088210D01*
X13299830Y2092770D01*
X13299150Y2097670D01*
X13298760Y2102970D01*
X13298640Y2108770D01*
X13300440Y2123750D01*
X13302550Y2130650D01*
X13305460Y2137140D01*
X13309170Y2143200D01*
X13313660Y2148820D01*
X13318940Y2153970D01*
X13325000Y2158650D01*
X13331830Y2162840D01*
X13341820Y2165980D01*
X13347910Y2166610D01*
X13354410Y2166660D01*
X13361060Y2166130D01*
X13367610Y2165040D01*
X13373810Y2163420D01*
X13379420Y2161290D01*
X13384180Y2158660D01*
G37*
G36*
G01X13866470Y2163820D02*
X13873760Y2159740D01*
X13876820Y2157770D01*
X13879550Y2155760D01*
X13882040Y2153670D01*
X13884320Y2151440D01*
X13886460Y2149030D01*
X13888520Y2146370D01*
X13890560Y2143420D01*
X13898920Y2131130D01*
X13839190Y2130390D01*
X13818430Y2130300D01*
X13809090D01*
X13800680Y2130340D01*
X13793370Y2130400D01*
X13787350Y2130490D01*
X13782780Y2130600D01*
X13779850Y2130730D01*
X13778720Y2130890D01*
X13779090Y2134270D01*
X13780360Y2137190D01*
X13782170Y2140620D01*
X13784390Y2144360D01*
X13786910Y2148180D01*
X13789590Y2151860D01*
X13792310Y2155180D01*
X13794940Y2157920D01*
X13803010Y2163980D01*
X13807840Y2166560D01*
X13813030Y2168790D01*
X13818430Y2170610D01*
X13823910Y2171980D01*
X13829330Y2172850D01*
X13834550Y2173180D01*
X13839430Y2172910D01*
X13844310Y2172080D01*
X13847210Y2171320D01*
X13850330Y2170380D01*
X13853580Y2169270D01*
X13856900Y2168040D01*
X13860200Y2166700D01*
X13863420Y2165280D01*
X13866470Y2163820D01*
G37*
G36*
G01X13619430Y2162100D02*
X13626720Y2157980D01*
X13630240Y2155450D01*
X13633620Y2152670D01*
X13636840Y2149660D01*
X13639840Y2146460D01*
X13642600Y2143100D01*
X13645060Y2139620D01*
X13647210Y2136050D01*
X13650230Y2125730D01*
X13651070Y2118840D01*
X13651450Y2111340D01*
X13651390Y2103610D01*
X13650890Y2096070D01*
X13649940Y2089110D01*
X13648550Y2083130D01*
X13646720Y2078530D01*
X13630530Y2059820D01*
X13620290Y2053730D01*
X13609170Y2049890D01*
X13597610Y2048350D01*
X13586040Y2049190D01*
X13574890Y2052450D01*
X13564570Y2058200D01*
X13555520Y2066490D01*
X13541330Y2095130D01*
X13540030Y2110130D01*
X13542230Y2124670D01*
X13547640Y2138080D01*
X13556010Y2149670D01*
X13567050Y2158770D01*
X13580500Y2164700D01*
X13596080Y2166770D01*
X13601550Y2166490D01*
X13604370Y2166160D01*
X13607190Y2165710D01*
X13609950Y2165160D01*
X13612610Y2164510D01*
X13615110Y2163780D01*
X13617400Y2162970D01*
X13619430Y2162100D01*
G37*
G36*
G01X14724120Y2252790D02*
X14734180Y2250060D01*
X14738550Y2248220D01*
X14742490Y2246050D01*
X14746040Y2243530D01*
X14749200Y2240650D01*
X14752000Y2237390D01*
X14754450Y2233740D01*
X14756570Y2229690D01*
X14760410Y2217330D01*
X14761040Y2211190D01*
X14760830Y2205150D01*
X14759790Y2199280D01*
X14757920Y2193620D01*
X14755240Y2188250D01*
X14751750Y2183210D01*
X14747480Y2178570D01*
X14740420Y2173010D01*
X14736660Y2171030D01*
X14732430Y2169500D01*
X14727480Y2168370D01*
X14721580Y2167590D01*
X14714510Y2167100D01*
X14706010Y2166840D01*
X14695860Y2166770D01*
X14665380D01*
Y2255250D01*
X14688480D01*
X14697240Y2255110D01*
X14701760Y2254940D01*
X14706240Y2254710D01*
X14710560Y2254420D01*
X14714610Y2254090D01*
X14718300Y2253700D01*
X14721500Y2253270D01*
X14724120Y2252790D01*
G37*
G54D27*
X3790000Y1905000D03*
Y2095000D03*
X3510000Y1905000D03*
Y2095000D03*
X3040000D03*
Y1905000D03*
X3150000Y1812500D03*
X200000Y2175000D03*
X195000Y7475000D03*
X370000Y1920000D03*
X395000Y2025000D03*
X412300Y2225000D03*
X280000Y2080000D03*
X665000Y3775000D03*
X587700Y4025000D03*
X240000Y7375000D03*
X412300Y7525000D03*
X775800Y850000D03*
X1140000Y1065000D03*
X710000Y5630000D03*
X806300Y5400000D03*
X700000Y7714200D03*
X914200Y9200000D03*
Y9300000D03*
X1675000Y5500000D03*
X2152300Y2895000D03*
Y2775000D03*
X2427700Y2715000D03*
Y2955000D03*
X2152300Y3015000D03*
Y3135000D03*
X2765000Y2009000D03*
X3400000Y1814800D03*
Y2185200D03*
X3150000D03*
X2972300Y2925000D03*
X3247700Y2865000D03*
Y2745000D03*
X2972300Y2685000D03*
X3247700Y2985000D03*
X2972300Y3165000D03*
X3247700Y3105000D03*
X2972300Y7425000D03*
Y7845000D03*
X3650000Y2185200D03*
X4200000Y164800D03*
X4077700Y1235000D03*
Y1365000D03*
X3900000Y1814800D03*
Y2185200D03*
X4780000Y700000D03*
X4900000D03*
X5364800Y9650000D03*
Y9450000D03*
X5780000Y587300D03*
X5710000Y1020000D03*
X6190000Y480000D03*
X6218000Y1038700D03*
X6892300Y1160000D03*
X7450000Y1004800D03*
X7577700Y1100000D03*
X7998000Y931300D03*
X2427700Y7875000D03*
Y7455000D03*
X405000Y3825000D03*
G54D29*
X1600000Y1454000D03*
X2328000Y10117000D03*
X6954000Y10177000D03*
G54D31*
X7572500Y200000D03*
X7027500D03*
X1672500D03*
X1127500D03*
G54D28*
X1600000Y946000D03*
X1312000Y9863000D03*
Y10117000D03*
X1566000Y9863000D03*
Y10117000D03*
X1820000Y9863000D03*
Y10117000D03*
X2074000Y9863000D03*
Y10117000D03*
X2328000Y9863000D03*
X8077000Y1917000D03*
Y2171000D03*
Y2425000D03*
Y2679000D03*
Y2933000D03*
Y3187000D03*
Y3441000D03*
Y3695000D03*
Y3949000D03*
Y4203000D03*
Y4457000D03*
Y4711000D03*
Y4965000D03*
Y5219000D03*
Y5473000D03*
Y5727000D03*
Y5981000D03*
Y6235000D03*
Y6489000D03*
Y6743000D03*
Y6997000D03*
Y7251000D03*
Y7505000D03*
Y7759000D03*
Y8013000D03*
Y8267000D03*
Y8521000D03*
Y8775000D03*
Y9029000D03*
Y9283000D03*
X6954000Y9923000D03*
X6700000Y10177000D03*
Y9923000D03*
X6446000Y10177000D03*
Y9923000D03*
G54D37*
X2700000Y9190000D03*
G54D38*
X7300000Y250000D03*
X7750000Y850000D03*
G54D36*
X2700000Y2510000D03*
G54D33*
X302000Y4525000D03*
G54D32*
X898000Y5975000D03*
Y4525000D03*
G54D35*
X2500000Y1150000D03*
X3200000D03*
G54D30*
X7542500Y503000D03*
X7057500D03*
X1642500D03*
X1157500D03*
G54D34*
X2193000Y879000D03*
X3507000D03*
%LPD*%
G75*
G36*
G01X375380Y1442100D02*
X361810Y1455670D01*
X342680Y1438000D01*
X361810Y1420330D01*
X375380Y1433900D01*
G03Y1442100I-4100J4100D01*
G37*
G36*
G01Y1363250D02*
X361810Y1376820D01*
X342680Y1359150D01*
X361810Y1341480D01*
X375380Y1355050D01*
G03Y1363250I-4100J4100D01*
G37*
G36*
G01Y1592100D02*
X361810Y1605670D01*
X342680Y1588000D01*
X361810Y1570330D01*
X375380Y1583900D01*
G03Y1592100I-4100J4100D01*
G37*
G36*
G01Y1513250D02*
X361810Y1526820D01*
X342680Y1509150D01*
X361810Y1491480D01*
X375380Y1505050D01*
G03Y1513250I-4100J4100D01*
G37*
G36*
G01X673020Y1811250D02*
X659450Y1797680D01*
X677120Y1778550D01*
X694790Y1797680D01*
X681220Y1811250D01*
G03X673020I-4100J-4100D01*
G37*
G36*
G01X407930Y3953280D02*
X397330Y3942680D01*
X415000Y3922500D01*
X432670Y3942680D01*
X422070Y3953280D01*
G03X407930I-7070J-7070D01*
G37*
G36*
G01X631720Y4252930D02*
X642320Y4242330D01*
X662500Y4260000D01*
X642320Y4277670D01*
X631720Y4267070D01*
G03Y4252930I7070J-7070D01*
G37*
G36*
G01X310690Y6527150D02*
Y6507950D01*
X336720Y6506920D01*
X335690Y6532950D01*
X316490D01*
G03X310690Y6527150I0J-5800D01*
G37*
G36*
G01X316490Y6567060D02*
X335690D01*
X336720Y6593090D01*
X310690Y6592060D01*
Y6572860D01*
G03X316490Y6567060I5800J0D01*
G37*
G36*
G01X324890Y6832940D02*
X305690D01*
X304660Y6806910D01*
X330690Y6807940D01*
Y6827140D01*
G03X324890Y6832940I-5800J0D01*
G37*
G36*
G01X330690Y6872850D02*
Y6892050D01*
X304660Y6893080D01*
X305690Y6867050D01*
X324890D01*
G03X330690Y6872850I0J5800D01*
G37*
G36*
G01X1065000Y757300D02*
Y742300D01*
X1091770Y740530D01*
X1090000Y767300D01*
X1075000D01*
G03X1065000Y757300I0J-10000D01*
G37*
G36*
G01X1105000Y767300D02*
X1090000D01*
X1088230Y740530D01*
X1115000Y742300D01*
Y757300D01*
G03X1105000Y767300I-10000J0D01*
G37*
G36*
G01X751870Y1811250D02*
X738300Y1797680D01*
X755970Y1778550D01*
X773640Y1797680D01*
X760070Y1811250D01*
G03X751870I-4100J-4100D01*
G37*
G36*
G01X727010Y6380140D02*
X713440Y6366570D01*
X731110Y6347440D01*
X748780Y6366570D01*
X735210Y6380140D01*
G03X727010I-4100J-4100D01*
G37*
G36*
G01X702880Y6412470D02*
X689310Y6426040D01*
X670180Y6408370D01*
X689310Y6390700D01*
X702880Y6404270D01*
G03Y6412470I-4100J4100D01*
G37*
G36*
G01X715970Y8482940D02*
X696770D01*
X695740Y8456910D01*
X721770Y8457940D01*
Y8477140D01*
G03X715970Y8482940I-5800J0D01*
G37*
G36*
G01X721770Y8522850D02*
Y8542050D01*
X695740Y8543080D01*
X696770Y8517050D01*
X715970D01*
G03X721770Y8522850I0J5800D01*
G37*
G36*
G01X715970Y8782950D02*
X696770D01*
X695740Y8756920D01*
X721770Y8757950D01*
Y8777150D01*
G03X715970Y8782950I-5800J0D01*
G37*
G36*
G01X721770Y8822860D02*
Y8842060D01*
X695740Y8843090D01*
X696770Y8817060D01*
X715970D01*
G03X721770Y8822860I0J5800D01*
G37*
G36*
G01X830000Y8972860D02*
Y8992060D01*
X803970Y8993090D01*
X805000Y8967060D01*
X824200D01*
G03X830000Y8972860I0J5800D01*
G37*
G36*
G01X824200Y8932950D02*
X805000D01*
X803970Y8906920D01*
X830000Y8907950D01*
Y8927150D01*
G03X824200Y8932950I-5800J0D01*
G37*
G36*
G01X1539200Y8332950D02*
X1520000D01*
X1518970Y8306920D01*
X1545000Y8307950D01*
Y8327150D01*
G03X1539200Y8332950I-5800J0D01*
G37*
G36*
G01X1304200Y8632940D02*
X1285000D01*
X1283970Y8606910D01*
X1310000Y8607940D01*
Y8627140D01*
G03X1304200Y8632940I-5800J0D01*
G37*
G36*
G01X1310000Y8672850D02*
Y8692050D01*
X1283970Y8693080D01*
X1285000Y8667050D01*
X1304200D01*
G03X1310000Y8672850I0J5800D01*
G37*
G36*
G01X1545000Y8372860D02*
Y8392060D01*
X1518970Y8393090D01*
X1520000Y8367060D01*
X1539200D01*
G03X1545000Y8372860I0J5800D01*
G37*
G36*
G01X1855000Y5662150D02*
Y5642950D01*
X1881030Y5641920D01*
X1880000Y5667950D01*
X1860800D01*
G03X1855000Y5662150I0J-5800D01*
G37*
G36*
G01X1860800Y5702060D02*
X1880000D01*
X1881030Y5728090D01*
X1855000Y5727060D01*
Y5707860D01*
G03X1860800Y5702060I5800J0D01*
G37*
G36*
G01X1784610Y6045040D02*
X1798180Y6031470D01*
X1817310Y6049140D01*
X1798180Y6066810D01*
X1784610Y6053240D01*
G03Y6045040I4100J-4100D01*
G37*
G36*
G01X1760480Y6077370D02*
X1774050Y6090940D01*
X1756380Y6110070D01*
X1738710Y6090940D01*
X1752280Y6077370D01*
G03X1760480I4100J4100D01*
G37*
G36*
G01X1855000Y5842150D02*
Y5822950D01*
X1881030Y5821920D01*
X1880000Y5847950D01*
X1860800D01*
G03X1855000Y5842150I0J-5800D01*
G37*
G36*
G01X1860800Y5882060D02*
X1880000D01*
X1881030Y5908090D01*
X1855000Y5907060D01*
Y5887860D01*
G03X1860800Y5882060I5800J0D01*
G37*
G36*
G01X2442700Y3400000D02*
X2427700D01*
X2425930Y3373230D01*
X2452700Y3375000D01*
Y3390000D01*
G03X2442700Y3400000I-10000J0D01*
G37*
G36*
G01X2483280Y3287070D02*
X2472680Y3297670D01*
X2452500Y3280000D01*
X2472680Y3262330D01*
X2483280Y3272930D01*
G03Y3287070I-7070J7070D01*
G37*
G36*
G01X2452700Y6540000D02*
Y6555000D01*
X2425930Y6556770D01*
X2427700Y6530000D01*
X2442700D01*
G03X2452700Y6540000I0J10000D01*
G37*
G36*
G01X2594090Y6366290D02*
X2592550Y6367830D01*
X2590020Y6370370D01*
Y6374940D01*
G03X2521600Y6403200I-40021J62D01*
G01X2414490Y6510300D01*
X2419930Y6515740D01*
G03X2427700Y6514980I7762J39261D01*
G01X2432330D01*
X2444210Y6503100D01*
X2451070Y6496250D01*
X3618360D01*
X6314630Y3799980D01*
X6496890D01*
G02X6502060Y3781080I-5J-10159D01*
G03X6489160Y3618000I50938J-86080D01*
G02X6482680Y3600020I-6483J-7821D01*
G01X6395360D01*
X3569090Y6426290D01*
X2669090D01*
X2667550Y6427830D01*
X2665020Y6430370D01*
Y6435000D01*
G03X2625000Y6394980I-40020J0D01*
G01X2629630D01*
X2640980Y6383630D01*
G02X2633800Y6366290I-7184J-7182D01*
G01X2594090D01*
G37*
G36*
G01X2452700Y6720000D02*
Y6735000D01*
X2425930Y6736770D01*
X2427700Y6710000D01*
X2442700D01*
G03X2452700Y6720000I0J10000D01*
G37*
G36*
G01Y6900000D02*
Y6915000D01*
X2425930Y6916770D01*
X2427700Y6890000D01*
X2442700D01*
G03X2452700Y6900000I0J10000D01*
G37*
G36*
G01X2470000Y7260000D02*
Y7275000D01*
X2443230Y7276770D01*
X2445000Y7250000D01*
X2460000D01*
G03X2470000Y7260000I0J10000D01*
G37*
G36*
G01Y7080000D02*
Y7095000D01*
X2443230Y7096770D01*
X2445000Y7070000D01*
X2460000D01*
G03X2470000Y7080000I0J10000D01*
G37*
G36*
G01Y8160000D02*
Y8175000D01*
X2443230Y8176770D01*
X2445000Y8150000D01*
X2460000D01*
G03X2470000Y8160000I0J10000D01*
G37*
G36*
G01X2452700Y7980000D02*
Y7995000D01*
X2425930Y7996770D01*
X2427700Y7970000D01*
X2442700D01*
G03X2452700Y7980000I0J10000D01*
G37*
G36*
G01X2495000Y8340000D02*
Y8355000D01*
X2468230Y8356770D01*
X2470000Y8330000D01*
X2485000D01*
G03X2495000Y8340000I0J10000D01*
G37*
G36*
G01X2493280Y8542070D02*
X2482680Y8552670D01*
X2462500Y8535000D01*
X2482680Y8517330D01*
X2493280Y8527930D01*
G03Y8542070I-7070J7070D01*
G37*
G36*
G01X2455980Y8782070D02*
X2445380Y8792670D01*
X2425200Y8775000D01*
X2445380Y8757330D01*
X2455980Y8767930D01*
G03Y8782070I-7070J7070D01*
G37*
G36*
G01Y8962070D02*
X2445380Y8972670D01*
X2425200Y8955000D01*
X2445380Y8937330D01*
X2455980Y8947930D01*
G03Y8962070I-7070J7070D01*
G37*
G36*
G01X2705000Y2180000D02*
Y2165000D01*
X2731770Y2163230D01*
X2730000Y2190000D01*
X2715000D01*
G03X2705000Y2180000I0J-10000D01*
G37*
G36*
G01X2863280Y6082070D02*
X2852680Y6092670D01*
X2832500Y6075000D01*
X2852680Y6057330D01*
X2863280Y6067930D01*
G03Y6082070I-7070J7070D01*
G37*
G36*
G01X2575000Y6360000D02*
Y6375000D01*
X2548230Y6376770D01*
X2550000Y6350000D01*
X2565000D01*
G03X2575000Y6360000I0J10000D01*
G37*
G36*
G01X2650000Y6420000D02*
Y6435000D01*
X2623230Y6436770D01*
X2625000Y6410000D01*
X2640000D01*
G03X2650000Y6420000I0J10000D01*
G37*
G36*
G01X2840000Y6180000D02*
Y6195000D01*
X2813230Y6196770D01*
X2815000Y6170000D01*
X2830000D01*
G03X2840000Y6180000I0J10000D01*
G37*
G36*
G01X2915000Y6240000D02*
Y6255000D01*
X2888230Y6256770D01*
X2890000Y6230000D01*
X2905000D01*
G03X2915000Y6240000I0J10000D01*
G37*
G36*
G01X2530000Y6780000D02*
Y6795000D01*
X2503230Y6796770D01*
X2505000Y6770000D01*
X2520000D01*
G03X2530000Y6780000I0J10000D01*
G37*
G36*
G01X2525000Y6960000D02*
Y6975000D01*
X2498230Y6976770D01*
X2500000Y6950000D01*
X2515000D01*
G03X2525000Y6960000I0J10000D01*
G37*
G36*
G01X2510000Y6600000D02*
Y6615000D01*
X2483230Y6616770D01*
X2485000Y6590000D01*
X2500000D01*
G03X2510000Y6600000I0J10000D01*
G37*
G36*
G01X2520000Y7320000D02*
Y7335000D01*
X2493230Y7336770D01*
X2495000Y7310000D01*
X2510000D01*
G03X2520000Y7320000I0J10000D01*
G37*
G36*
G01X2530000Y7140000D02*
Y7155000D01*
X2503230Y7156770D01*
X2505000Y7130000D01*
X2520000D01*
G03X2530000Y7140000I0J10000D01*
G37*
G36*
G01Y8040000D02*
Y8055000D01*
X2503230Y8056770D01*
X2505000Y8030000D01*
X2520000D01*
G03X2530000Y8040000I0J10000D01*
G37*
G36*
G01Y8220000D02*
Y8235000D01*
X2503230Y8236770D01*
X2505000Y8210000D01*
X2520000D01*
G03X2530000Y8220000I0J10000D01*
G37*
G36*
G01X2558280Y8422070D02*
X2547680Y8432670D01*
X2527500Y8415000D01*
X2547680Y8397330D01*
X2558280Y8407930D01*
G03Y8422070I-7070J7070D01*
G37*
G36*
G01X2508280Y8722070D02*
X2497680Y8732670D01*
X2477500Y8715000D01*
X2497680Y8697330D01*
X2508280Y8707930D01*
G03Y8722070I-7070J7070D01*
G37*
G36*
G01X2548280Y8602070D02*
X2537680Y8612670D01*
X2517500Y8595000D01*
X2537680Y8577330D01*
X2548280Y8587930D01*
G03Y8602070I-7070J7070D01*
G37*
G36*
G01X2508280Y8902070D02*
X2497680Y8912670D01*
X2477500Y8895000D01*
X2497680Y8877330D01*
X2508280Y8887930D01*
G03Y8902070I-7070J7070D01*
G37*
G36*
G01X3325250Y4250320D02*
X3338820Y4236750D01*
X3357950Y4254420D01*
X3338820Y4272090D01*
X3325250Y4258520D01*
G03Y4250320I4100J-4100D01*
G37*
G36*
G01Y4171470D02*
X3338820Y4157900D01*
X3357950Y4175570D01*
X3338820Y4193240D01*
X3325250Y4179670D01*
G03Y4171470I4100J-4100D01*
G37*
G36*
G01X3324750Y4527050D02*
X3338320Y4513480D01*
X3357450Y4531150D01*
X3338320Y4548820D01*
X3324750Y4535250D01*
G03Y4527050I4100J-4100D01*
G37*
G36*
G01Y4605900D02*
X3338320Y4592330D01*
X3357450Y4610000D01*
X3338320Y4627670D01*
X3324750Y4614100D01*
G03Y4605900I4100J-4100D01*
G37*
G36*
G01X3325250Y4430320D02*
X3338820Y4416750D01*
X3357950Y4434420D01*
X3338820Y4452090D01*
X3325250Y4438520D01*
G03Y4430320I4100J-4100D01*
G37*
G36*
G01Y4351470D02*
X3338820Y4337900D01*
X3357950Y4355570D01*
X3338820Y4373240D01*
X3325250Y4359670D01*
G03Y4351470I4100J-4100D01*
G37*
G36*
G01X3324650Y5071530D02*
X3338220Y5057960D01*
X3357350Y5075630D01*
X3338220Y5093300D01*
X3324650Y5079730D01*
G03Y5071530I4100J-4100D01*
G37*
G36*
G01Y5150270D02*
X3338220Y5136700D01*
X3357350Y5154370D01*
X3338220Y5172040D01*
X3324650Y5158470D01*
G03Y5150270I4100J-4100D01*
G37*
G36*
G01X3324750Y5329900D02*
X3338320Y5316330D01*
X3357450Y5334000D01*
X3338320Y5351670D01*
X3324750Y5338100D01*
G03Y5329900I4100J-4100D01*
G37*
G36*
G01Y5611160D02*
X3338320Y5597590D01*
X3357450Y5615260D01*
X3338320Y5632930D01*
X3324750Y5619360D01*
G03Y5611160I4100J-4100D01*
G37*
G36*
G01X3324650Y5510270D02*
X3338220Y5496700D01*
X3357350Y5514370D01*
X3338220Y5532040D01*
X3324650Y5518470D01*
G03Y5510270I4100J-4100D01*
G37*
G36*
G01X3324750Y5251160D02*
X3338320Y5237590D01*
X3357450Y5255260D01*
X3338320Y5272930D01*
X3324750Y5259360D01*
G03Y5251160I4100J-4100D01*
G37*
G36*
G01X3324650Y5431530D02*
X3338220Y5417960D01*
X3357350Y5435630D01*
X3338220Y5453300D01*
X3324650Y5439730D01*
G03Y5431530I4100J-4100D01*
G37*
G36*
G01X2955000Y6000000D02*
Y6015000D01*
X2928230Y6016770D01*
X2930000Y5990000D01*
X2945000D01*
G03X2955000Y6000000I0J10000D01*
G37*
G36*
G01X3324750Y5689900D02*
X3338320Y5676330D01*
X3357450Y5694000D01*
X3338320Y5711670D01*
X3324750Y5698100D01*
G03Y5689900I4100J-4100D01*
G37*
G36*
G01X3324650Y5791530D02*
X3338220Y5777960D01*
X3357350Y5795630D01*
X3338220Y5813300D01*
X3324650Y5799730D01*
G03Y5791530I4100J-4100D01*
G37*
G36*
G01Y5870270D02*
X3338220Y5856700D01*
X3357350Y5874370D01*
X3338220Y5892040D01*
X3324650Y5878470D01*
G03Y5870270I4100J-4100D01*
G37*
G36*
G01X4018280Y3537070D02*
X4007680Y3547670D01*
X3987500Y3530000D01*
X4007680Y3512330D01*
X4018280Y3522930D01*
G03Y3537070I-7070J7070D01*
G37*
G36*
G01X4755250Y319390D02*
X4762330Y312330D01*
X4783750Y330000D01*
X4762330Y347670D01*
X4755250Y340610D01*
G03Y319390I10610J-10610D01*
G37*
G36*
G01X5150000Y3290000D02*
X5165000D01*
X5166770Y3316770D01*
X5140000Y3315000D01*
Y3300000D01*
G03X5150000Y3290000I10000J0D01*
G37*
G36*
G01X5290610Y305250D02*
X5297670Y312330D01*
X5280000Y333750D01*
X5262330Y312330D01*
X5269390Y305250D01*
G03X5290610I10610J10610D01*
G37*
G36*
G01X5515000Y3225000D02*
Y3210000D01*
X5541770Y3208230D01*
X5540000Y3235000D01*
X5525000D01*
G03X5515000Y3225000I0J-10000D01*
G37*
G36*
G01X6609630Y2088550D02*
G03X6605440Y2256170I-56629J82447D01*
G02X6610770Y2274980I5329J8650D01*
G01X6749230D01*
G02X6754560Y2256170I1J-10160D01*
G03X6750370Y2088550I52439J-85173D01*
G02X6744620Y2070020I-5753J-8372D01*
G01X6615380D01*
G02X6609630Y2088550I3J10158D01*
G37*
G36*
G01X6597230Y2589290D02*
G03X6620980Y2752370I-44229J89711D01*
G02X6627880Y2769980I6906J7451D01*
G01X6732120D01*
G02X6739020Y2752370I-6J-10159D01*
G03X6762770Y2589290I67979J-73369D01*
G02X6758280Y2570020I-4496J-9111D01*
G01X6601720D01*
G02X6597230Y2589290I6J10159D01*
G37*
G36*
G01X6623320Y3600020D02*
G02X6616840Y3618000I3J10159D01*
G03X6603940Y3781080I-63838J77000D01*
G02X6609110Y3799980I5175J8741D01*
G01X6750890D01*
G02X6756060Y3781080I-5J-10159D01*
G03X6743160Y3618000I50938J-86080D01*
G02X6736680Y3600020I-6483J-7821D01*
G01X6623320D01*
G37*
G36*
G01X6606890Y4118740D02*
G03X6608280Y4286350I-53892J84258D01*
G02X6613900Y4304980I5615J8469D01*
G01X6746100D01*
G02X6751720Y4286350I5J-10161D01*
G03X6753110Y4118740I55282J-83352D01*
G02X6747640Y4100020I-5472J-8560D01*
G01X6612360D01*
G02X6606890Y4118740I2J10160D01*
G37*
G36*
G01X6602370Y4624020D02*
G03X6605440Y4796170I-49372J86983D01*
G02X6610770Y4814980I5329J8650D01*
G01X6749230D01*
G02X6754560Y4796170I1J-10160D01*
G03X6757630Y4624020I52442J-85167D01*
G02X6752610Y4605020I-5014J-8839D01*
G01X6607390D01*
G02X6602370Y4624020I-6J10161D01*
G37*
G36*
G01X6618200Y5120020D02*
G02X6612180Y5138370I-6J10161D01*
G03X6602370Y5305980I-59182J80628D01*
G02X6607390Y5324980I5014J8839D01*
G01X6752610D01*
G02X6757630Y5305980I6J-10161D01*
G03X6747820Y5138370I49372J-86982D01*
G02X6741800Y5120020I-6014J-8189D01*
G01X6618200D01*
G37*
G36*
G01X6608280Y5643650D02*
G03X6599030Y5815800I-55281J83353D01*
G02X6603700Y5834980I4673J9021D01*
G01X6756300D01*
G02X6760970Y5815800I-3J-10159D01*
G03X6751720Y5643650I46031J-88797D01*
G02X6746100Y5625020I-5615J-8469D01*
G01X6613900D01*
G02X6608280Y5643650I-5J10161D01*
G37*
G36*
G01X6616810Y6135020D02*
G02X6610930Y6153460I3J10159D01*
G03X6603940Y6321080I-57928J81540D01*
G02X6609110Y6339980I5175J8741D01*
G01X6750890D01*
G02X6756060Y6321080I-5J-10159D01*
G03X6749070Y6153460I50938J-86080D01*
G02X6743190Y6135020I-5883J-8281D01*
G01X6616810D01*
G37*
G36*
G01X6619540Y6645020D02*
G02X6613400Y6663280I-5J10161D01*
G03X6608280Y6826350I-60402J79719D01*
G02X6613900Y6844980I5615J8469D01*
G01X6746100D01*
G02X6751720Y6826350I5J-10161D01*
G03X6746600Y6663280I55282J-83351D01*
G02X6740460Y6645020I-6135J-8099D01*
G01X6619540D01*
G37*
G36*
G01X6602370Y7164020D02*
G03X6605440Y7336170I-49372J86983D01*
G02X6610770Y7354980I5329J8650D01*
G01X6749230D01*
G02X6754560Y7336170I1J-10160D01*
G03X6757630Y7164020I52442J-85167D01*
G02X6752610Y7145020I-5014J-8839D01*
G01X6607390D01*
G02X6602370Y7164020I-6J10161D01*
G37*
G36*
G01X6597230Y7669290D02*
G03X6609630Y7841450I-44228J89712D01*
G02X6615380Y7859980I5753J8372D01*
G01X6744620D01*
G02X6750370Y7841450I-3J-10158D01*
G03X6762770Y7669290I56628J-82448D01*
G02X6758280Y7650020I-4496J-9111D01*
G01X6601720D01*
G02X6597230Y7669290I6J10159D01*
G37*
G36*
G01X6608280Y8183650D02*
G03X6599030Y8355800I-55281J83353D01*
G02X6603700Y8374980I4673J9021D01*
G01X6756300D01*
G02X6760970Y8355800I-3J-10159D01*
G03X6751720Y8183650I46031J-88797D01*
G02X6746100Y8165020I-5615J-8469D01*
G01X6613900D01*
G02X6608280Y8183650I-5J10161D01*
G37*
G36*
G01X6603940Y8688920D02*
G03X6610930Y8856540I-50938J86080D01*
G02X6616810Y8874980I5883J8281D01*
G01X6743190D01*
G02X6749070Y8856540I-3J-10159D01*
G03X6756060Y8688920I57928J-81540D01*
G02X6750890Y8670020I-5175J-8741D01*
G01X6609110D01*
G02X6603940Y8688920I5J10159D01*
G37*
G36*
G01X7830000Y1125000D02*
X7815000D01*
X7813230Y1098230D01*
X7840000Y1100000D01*
Y1115000D01*
G03X7830000Y1125000I-10000J0D01*
G37*
G36*
G01X7995000Y1365000D02*
Y1350000D01*
X8021770Y1348230D01*
X8020000Y1375000D01*
X8005000D01*
G03X7995000Y1365000I0J-10000D01*
G37*
G54D10*
G01X1502300Y5400000D02*
Y5252300D01*
X1500000Y5250000D01*
G01X4265200Y1500000D02*
X4320000D01*
X4430000Y1390000D01*
G01X6090000Y189800D02*
Y310000D01*
X6000000Y400000D01*
G01X5810000Y1310200D02*
Y1190000D01*
X5900000Y1100000D01*
G01X7100000Y1047300D02*
Y1200000D01*
G01Y900000D02*
Y750000D01*
X400000Y400000D03*
X100000Y1100000D03*
Y700000D03*
Y1500000D03*
Y1900000D03*
Y2300000D03*
X200000Y2175000D03*
X100000Y2700000D03*
Y3100000D03*
Y3500000D03*
Y4300000D03*
Y3900000D03*
Y4700000D03*
Y5100000D03*
Y5500000D03*
Y5900000D03*
Y6300000D03*
Y6700000D03*
Y7100000D03*
Y7900000D03*
Y7500000D03*
X195000Y7475000D03*
X100000Y8300000D03*
Y8700000D03*
Y9100000D03*
Y9500000D03*
X400000Y10100000D03*
X100000Y9800000D03*
X344130Y1438000D03*
Y1359150D03*
Y1588000D03*
Y1509150D03*
X587700Y1475000D03*
Y1325000D03*
Y1175000D03*
X677120Y1780000D03*
X600000D03*
X587700Y1925000D03*
X412300Y1775000D03*
X587700Y1625000D03*
X370000Y1920000D03*
X395000Y2025000D03*
X412300Y2225000D03*
X587700Y2075000D03*
X280000Y2080000D03*
X587700Y3275000D03*
Y3125000D03*
Y2975000D03*
X405000Y3825000D03*
X665000Y3775000D03*
X587700Y3725000D03*
Y3575000D03*
Y3425000D03*
X340000Y3975000D03*
X660000Y4260000D03*
X415000Y3925000D03*
X587700Y4025000D03*
Y3875000D03*
X335690Y6507950D03*
X587700Y6475000D03*
X655000Y6330000D03*
X671630Y6408370D03*
X335690Y6592060D03*
X305690Y6807940D03*
Y6892050D03*
X587700Y6625000D03*
Y6775000D03*
Y6925000D03*
Y7075000D03*
Y7225000D03*
Y7375000D03*
X240000D03*
X412300Y7525000D03*
X587700Y8275000D03*
Y8725000D03*
Y8575000D03*
Y8425000D03*
X355000Y9275000D03*
X412300Y9225000D03*
X587700Y9025000D03*
Y8875000D03*
Y9175000D03*
X412300Y9325000D03*
X700000Y100000D03*
X775800Y850000D03*
Y950000D03*
X1040000Y1057700D03*
X1140000Y1065000D03*
X1090000Y742300D03*
X900000Y1200000D03*
X755970Y1780000D03*
X830000D03*
X806300Y4850000D03*
Y5000000D03*
Y5150000D03*
X1141700Y4850000D03*
Y5150000D03*
Y5000000D03*
X710000Y5630000D03*
X806300Y5400000D03*
Y5600000D03*
Y5300000D03*
X1141700D03*
Y5600000D03*
X755000Y5550000D03*
Y5480000D03*
X695000Y6090000D03*
X1100000Y6085000D03*
X731110Y6348890D03*
X995000Y6299300D03*
X700000Y7714200D03*
X800000Y7715000D03*
X696770Y8457940D03*
Y8542050D03*
Y8757950D03*
Y8842060D03*
X805000Y8992060D03*
Y8907950D03*
X914200Y9200000D03*
X805000Y9070000D03*
X914200Y9300000D03*
X850000Y9950000D03*
X1100000Y10400000D03*
X700000D03*
X1530000Y607700D03*
X1400000Y1950000D03*
X1502300Y5400000D03*
X1341700Y5590000D03*
Y5510000D03*
X1250000Y5641700D03*
X1160000Y5786300D03*
X1285000Y5862700D03*
X1160000Y6013700D03*
X1520000Y8307950D03*
Y8230000D03*
X1285000Y8607940D03*
Y8692050D03*
Y8770000D03*
Y8530000D03*
X1520000Y8470000D03*
Y8392060D03*
X1250000Y9150000D03*
X1550000Y10400000D03*
X1900000Y100000D03*
Y750000D03*
X1950000Y2450000D03*
X1800000Y2700000D03*
Y2950000D03*
Y3200000D03*
X1880000Y5642950D03*
X1675000Y5500000D03*
X1614200Y5600000D03*
X1880000Y5575000D03*
Y5727060D03*
X1815860Y6049140D03*
X1756380Y6108620D03*
X1880000Y5822950D03*
X1600000Y6015000D03*
X1880000Y5980000D03*
X1815000Y5775000D03*
X1880000Y5907060D03*
X1705000Y6165000D03*
X1960000Y6930000D03*
X1810000Y7460000D03*
X1990000Y7386300D03*
X1900000Y8150000D03*
X1990000Y7943700D03*
X1780000Y8640000D03*
X1710000Y9270000D03*
X1850000Y10400000D03*
X2300000Y100000D03*
X2400000Y1880000D03*
Y2140000D03*
X2152300Y2895000D03*
Y2775000D03*
X2427700Y2715000D03*
Y2835000D03*
Y2955000D03*
X2152300Y3015000D03*
Y3135000D03*
X2427700Y3195000D03*
Y3375000D03*
X2455000Y3280000D03*
X2427700Y3075000D03*
X2152300Y3255000D03*
X2060000Y3555000D03*
X2152300Y3795000D03*
Y3615000D03*
X2120000Y3495000D03*
X2060000Y3435000D03*
X2152300Y4155000D03*
Y3975000D03*
Y4695000D03*
Y4515000D03*
Y4335000D03*
Y5055000D03*
Y4875000D03*
Y5415000D03*
Y5235000D03*
Y5595000D03*
Y5955000D03*
Y5775000D03*
X2427700Y6555000D03*
X2152300Y6495000D03*
Y6315000D03*
Y6135000D03*
X2427700Y6735000D03*
Y6915000D03*
X2485000Y6615000D03*
X2152300Y6855000D03*
Y6675000D03*
X2495000Y7335000D03*
X2445000Y7275000D03*
Y7095000D03*
X2427700Y7455000D03*
X2152300Y7035000D03*
Y7215000D03*
Y7395000D03*
X2427700Y7875000D03*
X2300000Y7650000D03*
X2445000Y8175000D03*
X2427700Y7995000D03*
X2470000Y8355000D03*
X2152300Y7935000D03*
Y8115000D03*
Y8295000D03*
X2465000Y8535000D03*
X2480000Y8715000D03*
X2427700Y8775000D03*
X2152300Y8475000D03*
Y8655000D03*
X2480000Y8895000D03*
X2427700Y8955000D03*
X2152300Y8835000D03*
Y9015000D03*
X2300000Y10400000D03*
X2700000Y100000D03*
X2500000Y500000D03*
X2570000Y1400000D03*
X2765000Y2009000D03*
X2695000Y2030000D03*
X2700000Y2510000D03*
X2930000Y2080000D03*
X2730000Y2165000D03*
X2500000Y4550000D03*
X2550000Y5100000D03*
X2930000Y6015000D03*
X2835000Y6075000D03*
X2550000Y6375000D03*
X2625000Y6435000D03*
X2815000Y6195000D03*
X2890000Y6255000D03*
X2505000Y6795000D03*
X2500000Y6975000D03*
X2505000Y7155000D03*
X2850000Y7650000D03*
X2505000Y8055000D03*
Y8235000D03*
X2530000Y8415000D03*
X2520000Y8595000D03*
X2700000Y10400000D03*
X3100000Y100000D03*
Y850000D03*
X3250000Y1500000D03*
X3040000Y1905000D03*
X3400000Y1814800D03*
X3150000Y1812500D03*
X3400000Y2185200D03*
X3040000Y2095000D03*
X3150000Y2185200D03*
X2972300Y2925000D03*
X3247700Y2865000D03*
Y2745000D03*
X2972300Y2685000D03*
Y2805000D03*
X3247700Y2985000D03*
X2972300Y3165000D03*
X3247700Y3105000D03*
Y3225000D03*
X2972300Y3045000D03*
X3247700Y3765000D03*
Y3585000D03*
X3356500Y4254420D03*
Y4175570D03*
X3247700Y4305000D03*
Y4125000D03*
X3356000Y4531150D03*
Y4610000D03*
X3356500Y4434420D03*
Y4355570D03*
X3247700Y4665000D03*
Y4485000D03*
X3355900Y5075630D03*
Y5154370D03*
X3247700Y5205000D03*
Y5025000D03*
X3356000Y5334000D03*
Y5615260D03*
X3355900Y5514370D03*
X3356000Y5255260D03*
X3355900Y5435630D03*
X3247700Y5565000D03*
Y5385000D03*
X3356000Y5694000D03*
X3355900Y5795630D03*
X3247700Y6105000D03*
Y5925000D03*
Y5745000D03*
X3400000Y6100000D03*
X3355900Y5874370D03*
X3247700Y6465000D03*
Y6285000D03*
Y6645000D03*
Y7005000D03*
Y6825000D03*
X2972300Y7425000D03*
X3247700Y7365000D03*
Y7185000D03*
X2972300Y7845000D03*
X3247700Y7905000D03*
Y8265000D03*
Y8085000D03*
X3100000Y9200000D03*
X2975860Y9899380D03*
X3100000Y10400000D03*
X3500000Y100000D03*
X3700000Y104800D03*
Y295200D03*
X3510000Y1905000D03*
X3790000D03*
X3510000Y2095000D03*
X3650000Y2185200D03*
X3790000Y2095000D03*
X3575360Y3285000D03*
X3720000Y3345000D03*
X3790000Y3465000D03*
X3640000Y3405000D03*
X3850000Y3525000D03*
X3490000Y6285000D03*
Y8085000D03*
X3500000Y10400000D03*
X4300000Y100000D03*
X3950000Y104800D03*
X4200000Y164800D03*
X3950000Y295200D03*
X3980000Y1120000D03*
X4077700Y1235000D03*
Y1365000D03*
Y1300000D03*
X3934800Y1500000D03*
X4265200D03*
X3900000Y1814800D03*
X4300000Y1850000D03*
X3900000Y2185200D03*
Y3100000D03*
X3990000Y3530000D03*
X3950000Y4300000D03*
Y5150000D03*
X3955000Y6095000D03*
X4000000Y7750000D03*
X3900000Y9600000D03*
X4300000Y10400000D03*
X3900000D03*
X4700000Y100000D03*
X4400000Y1150000D03*
X4600000Y2650000D03*
X4700000Y10400000D03*
X5100000Y100000D03*
X5034800Y200000D03*
X4780000Y330000D03*
Y700000D03*
X4900000D03*
X5150000Y1200000D03*
X4800000Y1500000D03*
X5100000Y2300000D03*
X5165000Y3315000D03*
X5100000Y3150000D03*
X5050000Y7450000D03*
X5100000Y10400000D03*
X5500000Y100000D03*
X5420000Y565800D03*
X5280000Y330000D03*
X5550000Y1750000D03*
X5540000Y3210000D03*
X5364800Y9650000D03*
Y9450000D03*
X5500000Y10400000D03*
X6090000Y189800D03*
X5900000Y100000D03*
X5780000Y587300D03*
X5710000Y1020000D03*
X5810000Y1310200D03*
X6015000Y1305000D03*
X5920000D03*
X5720000Y2105800D03*
X5670000Y3540000D03*
X6050000Y9850000D03*
X5900000Y10400000D03*
X6300000Y100000D03*
X6190000Y480000D03*
X6480000Y934200D03*
X6218000Y1038700D03*
X6215000Y1193700D03*
X6200000Y10400000D03*
X6700000Y100000D03*
Y1350000D03*
X6892300Y1160000D03*
X7000000Y10400000D03*
X6800000D03*
X7430000Y610000D03*
X7450000Y704800D03*
Y1004800D03*
X7100000Y1047300D03*
Y900000D03*
Y1750000D03*
X7400000Y9700000D03*
Y10400000D03*
X8100000Y400000D03*
X7800000Y100000D03*
X7577700Y800000D03*
Y1100000D03*
X7815000D03*
X7650000Y1350000D03*
X7600000Y1850000D03*
X8100000Y10100000D03*
X7550000D03*
X7800000Y10400000D03*
X7998000Y931300D03*
X8197700Y1000000D03*
X8000000Y1510000D03*
X8020000Y1350000D03*
X8400000Y1100000D03*
Y700000D03*
Y1500000D03*
Y1900000D03*
Y2300000D03*
Y2700000D03*
Y3100000D03*
Y3500000D03*
Y3900000D03*
Y4300000D03*
Y4700000D03*
Y5100000D03*
Y5500000D03*
Y5800000D03*
Y6200000D03*
Y6600000D03*
Y7000000D03*
Y7400000D03*
Y7800000D03*
Y8200000D03*
Y8600000D03*
Y9000000D03*
Y9400000D03*
Y9800000D03*
G54D20*
X2700000Y9190000D03*
X5400000Y2770000D03*
Y8930000D03*
G54D11*
X302000Y4525000D03*
Y5975000D03*
G54D21*
G01X660000Y4260000D02*
X610000D01*
X415000Y4065000D01*
Y3925000D01*
G01X1090000Y742300D02*
X1250000Y902300D01*
Y1500000D01*
X2000000Y2250000D01*
X2645000D01*
X2730000Y2165000D01*
G01X950000Y900000D02*
X1038390Y811610D01*
Y793910D01*
X1090000Y742300D01*
G01X1600000Y1200000D02*
X2120000Y1720000D01*
X4850000D01*
X5090000Y1480000D01*
X7890000D01*
X8020000Y1350000D01*
G01X7823000Y2171000D02*
X7697000Y2045000D01*
X6390000D01*
X5715000Y2720000D01*
Y2945000D01*
X5280000Y3380000D01*
X3780000D01*
X3680000Y3480000D01*
X2532700D01*
X2427700Y3375000D01*
G01X5165000Y3315000D02*
X5060000Y3210000D01*
X3450000D01*
X3380000Y3280000D01*
X2455000D01*
G01X2427700Y6555000D02*
X2461430Y6521270D01*
X3628720D01*
X6324990Y3825000D01*
X7699000D01*
X7823000Y3949000D01*
G01X2427700Y6735000D02*
X2461430Y6701270D01*
X3978730D01*
X6350000Y4330000D01*
X7696000D01*
X7823000Y4457000D01*
G01X2427700Y6915000D02*
X2461430Y6881270D01*
X4328730D01*
X6370000Y4840000D01*
X7698000D01*
X7823000Y4965000D01*
G01X2485000Y6615000D02*
X2518730Y6581270D01*
X3833730D01*
X6340000Y4075000D01*
X7695000D01*
X7823000Y4203000D01*
G01Y5981000D02*
X7702000Y5860000D01*
X6325000D01*
X4950000Y7235000D01*
X2485000D01*
X2445000Y7275000D01*
G01X7823000Y5473000D02*
X7700000Y5350000D01*
X6370000D01*
X4660000Y7060000D01*
X2480000D01*
X2445000Y7095000D01*
G01X7823000Y6997000D02*
X7696000Y6870000D01*
X6390000D01*
X5120000Y8140000D01*
X2480000D01*
X2445000Y8175000D01*
G01X2427700Y7995000D02*
X2461430Y7961270D01*
X4813730D01*
X6410000Y6365000D01*
X7699000D01*
X7823000Y6489000D01*
G01X2470000Y8355000D02*
X2503730Y8321270D01*
X5428730D01*
X6370000Y7380000D01*
X7698000D01*
X7823000Y7505000D01*
G01Y8013000D02*
X7695000Y7885000D01*
X6315000D01*
X5715000Y8485000D01*
X2595000D01*
X2545000Y8535000D01*
X2465000D01*
G01X7823000Y8521000D02*
X7702000Y8400000D01*
X6080000D01*
X5860000Y8620000D01*
X5160000D01*
X5065000Y8715000D01*
X2480000D01*
G01X2427700Y8775000D02*
X4405000D01*
X4870000Y9240000D01*
X5585000D01*
X6180000Y8645000D01*
X7693000D01*
X7823000Y8775000D01*
G01X2480000Y8895000D02*
X4280000D01*
X4675000Y9290000D01*
X6005000D01*
X6395000Y8900000D01*
X7694000D01*
X7823000Y9029000D01*
G01Y9283000D02*
X7695000Y9155000D01*
X6355000D01*
X6165000Y9345000D01*
X4570000D01*
X4180000Y8955000D01*
X2427700D01*
G01X7823000Y2425000D02*
X7698000Y2300000D01*
X6395000D01*
X5795000Y2900000D01*
Y3580000D01*
X3393730Y5981270D01*
X2963730D01*
X2930000Y6015000D01*
G01X7823000Y2679000D02*
X7689000Y2545000D01*
X6385000D01*
X5880000Y3050000D01*
Y3615000D01*
X3455000Y6040000D01*
X3030000D01*
X2995000Y6075000D01*
X2835000D01*
G01X7823000Y3441000D02*
X7692000Y3310000D01*
X6385000D01*
X6242000Y3453000D01*
Y3608000D01*
X3508730Y6341270D01*
X2583730D01*
X2550000Y6375000D01*
G01X7823000Y3695000D02*
X7703000Y3575000D01*
X6385000D01*
X3558730Y6401270D01*
X2658730D01*
X2625000Y6435000D01*
G01X7823000Y2933000D02*
X7685000Y2795000D01*
X6395000D01*
X6014000Y3176000D01*
Y3596000D01*
X3448730Y6161270D01*
X2848730D01*
X2815000Y6195000D01*
G01X2890000Y6255000D02*
X2923730Y6221270D01*
X3498730D01*
X6118000Y3602000D01*
Y3317000D01*
X6385000Y3050000D01*
X7686000D01*
X7823000Y3187000D01*
G01Y4711000D02*
X7692000Y4580000D01*
X6345000D01*
X4163730Y6761270D01*
X2538730D01*
X2505000Y6795000D01*
G01X2500000Y6975000D02*
X2533730Y6941270D01*
X4385410D01*
X4385420Y6941280D01*
X4528720D01*
X6375000Y5095000D01*
X7699000D01*
X7823000Y5219000D01*
G01Y6235000D02*
X7698000Y6110000D01*
X6385000D01*
X5205000Y7290000D01*
X2540000D01*
X2495000Y7335000D01*
G01X7823000Y5727000D02*
X7696000Y5600000D01*
X6375000D01*
X4855000Y7120000D01*
X2540000D01*
X2505000Y7155000D01*
G01Y8055000D02*
X2538730Y8021270D01*
X5003730D01*
X6405000Y6620000D01*
X7700000D01*
X7823000Y6743000D01*
G01X2505000Y8235000D02*
X2550000Y8190000D01*
X5320000D01*
X6390000Y7120000D01*
X7692000D01*
X7823000Y7251000D01*
G01X2530000Y8415000D02*
X5540000D01*
X6330000Y7625000D01*
X7689000D01*
X7823000Y7759000D01*
G01Y8267000D02*
X7696000Y8140000D01*
X6200000D01*
X5785000Y8555000D01*
X5095000D01*
X5055000Y8595000D01*
X2520000D01*
G01X3990000Y3530000D02*
X5220000D01*
X5540000Y3210000D01*
G01X7823000Y1917000D02*
X8165000Y1575000D01*
Y1345000D01*
X8050000Y1230000D01*
X7945000D01*
X7815000Y1100000D01*
G01X11000000Y0D02*
X15500000D01*
Y2500000D01*
X11000000D01*
Y0D01*
G01Y400000D02*
X15500000D01*
G01X11000000Y800000D02*
X15500000D01*
G01X11000000Y1200000D02*
X15500000D01*
G01X11550000D02*
Y0D01*
G01X13300000D02*
Y800000D01*
G01X13110550Y1470000D02*
G03I-90550J0D01*
G01X13750000Y0D02*
Y800000D01*
G54D12*
X1127500Y200000D03*
X1672500D03*
X7027500D03*
X7572500D03*
G54D22*
G01X4780000Y330000D02*
X4630000D01*
X4600000Y300000D01*
G01X5280000Y330000D02*
Y280000D01*
X5200000Y200000D01*
G54D13*
X1157500Y503000D03*
X1642500D03*
X7057500D03*
X7542500D03*
G54D23*
G01X335690Y6592060D02*
X306180Y6562550D01*
X237550D01*
X175000Y6500000D01*
Y6345000D01*
X330000Y6190000D01*
X366130D01*
X377730Y6178400D01*
Y6126300D01*
X404030Y6100000D01*
X448030D01*
X474330Y6126300D01*
Y6178400D01*
X485930Y6190000D01*
X509130D01*
X520730Y6178400D01*
Y6126300D01*
X547030Y6100000D01*
X591030D01*
X617330Y6126300D01*
Y6178400D01*
X628930Y6190000D01*
X1105000D01*
X1622540Y5672460D01*
X1850490D01*
X1880000Y5642950D01*
G01X335690Y6507950D02*
X306190Y6537450D01*
X247950D01*
X200100Y6489600D01*
Y6355400D01*
X340400Y6215100D01*
X376530D01*
X402830Y6188800D01*
Y6136700D01*
X414430Y6125100D01*
X437630D01*
X449230Y6136700D01*
Y6188800D01*
X475530Y6215100D01*
X519530D01*
X545830Y6188800D01*
Y6136700D01*
X557430Y6125100D01*
X580630D01*
X592230Y6136700D01*
Y6188800D01*
X618530Y6215100D01*
X1115400D01*
X1632940Y5697560D01*
X1850500D01*
X1880000Y5727060D01*
G01X344130Y1438000D02*
X385870D01*
X412740Y1411130D01*
X930630D01*
X1089900Y1570400D01*
Y2755400D01*
X2049600Y3715100D01*
X2404600D01*
X2917050Y4227550D01*
X3287890D01*
X3314760Y4254420D01*
X3356500D01*
G01X344130Y1359150D02*
X385860D01*
X412740Y1386030D01*
X941030D01*
X1115000Y1560000D01*
Y2745000D01*
X2060000Y3690000D01*
X2415000D01*
X2927450Y4202450D01*
X3287890D01*
X3314770Y4175570D01*
X3356500D01*
G01X344130Y1588000D02*
X385860D01*
X412740Y1561120D01*
X870620D01*
X915000Y1605500D01*
Y2765000D01*
X2045000Y3895000D01*
X2340000D01*
X2852540Y4407540D01*
X3287890D01*
X3314770Y4434420D01*
X3356500D01*
G01X344130Y1509150D02*
X385870D01*
X412740Y1536020D01*
X881020D01*
X940100Y1595100D01*
Y2754600D01*
X2055400Y3869900D01*
X2350400D01*
X2862940Y4382440D01*
X3287890D01*
X3314760Y4355570D01*
X3356500D01*
G01X1880000Y5907060D02*
X1850500Y5877560D01*
X1617940D01*
X1400820Y6094680D01*
Y6111080D01*
X1441270Y6151530D01*
Y6188730D01*
X1410140Y6219860D01*
X1372940D01*
X1332490Y6179410D01*
X1316090D01*
X1299680Y6195820D01*
Y6212220D01*
X1340130Y6252670D01*
Y6289870D01*
X1309000Y6321000D01*
X1271800D01*
X1231350Y6280550D01*
X1214950D01*
X1198540Y6296960D01*
Y6313360D01*
X1238990Y6353810D01*
Y6391010D01*
X1207860Y6422140D01*
X1170660D01*
X1130210Y6381690D01*
X1113810D01*
X1097400Y6398100D01*
Y6414500D01*
X1137850Y6454950D01*
Y6492150D01*
X1106720Y6523280D01*
X1069520D01*
X1029070Y6482830D01*
X1012670D01*
X950400Y6545100D01*
X850080D01*
X713350Y6408370D01*
X671630D01*
G01X305690Y6807940D02*
X335190Y6837440D01*
X897060D01*
X1700930Y6033570D01*
X1758570D01*
X1774140Y6049140D01*
X1815860D01*
G01X305690Y6892050D02*
X335200Y6862540D01*
X907460D01*
X1711330Y6058670D01*
X1748170D01*
X1756380Y6066880D01*
Y6108620D01*
G01X755970Y1780000D02*
Y1821730D01*
X729090Y1848610D01*
Y2719090D01*
X2060000Y4050000D01*
X2315000D01*
X2823030Y4558030D01*
X3287390D01*
X3314270Y4531150D01*
X3356000D01*
G01X677120Y1780000D02*
Y1821740D01*
X703990Y1848610D01*
Y2729490D01*
X2049600Y4075100D01*
X2304600D01*
X2812630Y4583130D01*
X3287390D01*
X3314260Y4610000D01*
X3356000D01*
G01X1880000Y5822950D02*
X1850490Y5852460D01*
X1607540D01*
X1375720Y6084280D01*
Y6121480D01*
X1416170Y6161930D01*
Y6178330D01*
X1399740Y6194760D01*
X1383340D01*
X1342890Y6154310D01*
X1305690D01*
X1274580Y6185420D01*
Y6222620D01*
X1315030Y6263070D01*
Y6279470D01*
X1298600Y6295900D01*
X1282200D01*
X1241750Y6255450D01*
X1204550D01*
X1173440Y6286560D01*
Y6323760D01*
X1213890Y6364210D01*
Y6380610D01*
X1197460Y6397040D01*
X1181060D01*
X1140610Y6356590D01*
X1103410D01*
X1072300Y6387700D01*
Y6424900D01*
X1112750Y6465350D01*
Y6481750D01*
X1096320Y6498180D01*
X1079920D01*
X1039470Y6457730D01*
X1002270D01*
X940000Y6520000D01*
X860480D01*
X731110Y6390630D01*
Y6348890D01*
G01X3355900Y5075630D02*
X3314170D01*
X3287350Y5102450D01*
X2952050D01*
X2194600Y5859900D01*
X2114600D01*
X924900Y7049600D01*
Y8007560D01*
X913300Y8019160D01*
X886300D01*
X860000Y8045460D01*
Y8089460D01*
X886300Y8115760D01*
X913300D01*
X924900Y8127360D01*
Y8150560D01*
X913300Y8162160D01*
X886300D01*
X860000Y8188460D01*
Y8232460D01*
X886300Y8258760D01*
X913300D01*
X924900Y8270360D01*
Y8384600D01*
X822060Y8487440D01*
X726270D01*
X696770Y8457940D01*
G01X3355900Y5154370D02*
X3314170D01*
X3287350Y5127550D01*
X2962450D01*
X2205000Y5885000D01*
X2125000D01*
X950000Y7060000D01*
Y8017960D01*
X923700Y8044260D01*
X896700D01*
X885100Y8055860D01*
Y8079060D01*
X896700Y8090660D01*
X923700D01*
X950000Y8116960D01*
Y8160960D01*
X923700Y8187260D01*
X896700D01*
X885100Y8198860D01*
Y8222060D01*
X896700Y8233660D01*
X923700D01*
X950000Y8259960D01*
Y8395000D01*
X832460Y8512540D01*
X726280D01*
X696770Y8542050D01*
G01Y8842060D02*
X726270Y8812560D01*
X882940D01*
X1070100Y8625400D01*
Y7110400D01*
X2120400Y6060100D01*
X2220400D01*
X2973320Y5307180D01*
X3287450D01*
X3314270Y5334000D01*
X3356000D01*
G01X696770Y8757950D02*
X726280Y8787460D01*
X872540D01*
X1045000Y8615000D01*
Y7100000D01*
X2110000Y6035000D01*
X2210000D01*
X2962920Y5282080D01*
X3287450D01*
X3314270Y5255260D01*
X3356000D01*
G01X805000Y8992060D02*
X834510Y8962550D01*
X897450D01*
X1190100Y8669900D01*
Y7134900D01*
X2075000Y6250000D01*
X2205000D01*
X2967450Y5487550D01*
X3287350D01*
X3314170Y5514370D01*
X3355900D01*
G01X805000Y8907950D02*
X834500Y8937450D01*
X887050D01*
X1165000Y8659500D01*
Y7124500D01*
X2064600Y6224900D01*
X2194600D01*
X2957050Y5462450D01*
X3287350D01*
X3314170Y5435630D01*
X3355900D01*
G01X1285000Y8607940D02*
X1314510Y8637450D01*
X1347550D01*
X1390000Y8595000D01*
Y8480620D01*
X1378400Y8469020D01*
X1336300D01*
X1310000Y8442720D01*
Y8398720D01*
X1336300Y8372420D01*
X1378400D01*
X1390000Y8360820D01*
Y8337620D01*
X1378400Y8326020D01*
X1336300D01*
X1310000Y8299720D01*
Y8255720D01*
X1336300Y8229420D01*
X1378400D01*
X1390000Y8217820D01*
Y7100000D01*
X2095000Y6395000D01*
X2195000D01*
X2947920Y5642080D01*
X3287450D01*
X3314270Y5615260D01*
X3356000D01*
G01X1285000Y8692050D02*
X1314500Y8662550D01*
X1357950D01*
X1415100Y8605400D01*
Y8470220D01*
X1388800Y8443920D01*
X1346700D01*
X1335100Y8432320D01*
Y8409120D01*
X1346700Y8397520D01*
X1388800D01*
X1415100Y8371220D01*
Y8327220D01*
X1388800Y8300920D01*
X1346700D01*
X1335100Y8289320D01*
Y8266120D01*
X1346700Y8254520D01*
X1388800D01*
X1415100Y8228220D01*
Y7110400D01*
X2105400Y6420100D01*
X2205400D01*
X2958320Y5667180D01*
X3287450D01*
X3314270Y5694000D01*
X3356000D01*
G01X3355900Y5795630D02*
X3314170D01*
X3287350Y5822450D01*
X2952550D01*
X2195000Y6580000D01*
X2100000D01*
X1675000Y7005000D01*
Y7700380D01*
X1663400Y7711980D01*
X1586300D01*
X1560000Y7738280D01*
Y7782280D01*
X1586300Y7808580D01*
X1663400D01*
X1675000Y7820180D01*
Y7843380D01*
X1663400Y7854980D01*
X1586300D01*
X1560000Y7881280D01*
Y7925280D01*
X1586300Y7951580D01*
X1663400D01*
X1675000Y7963180D01*
Y7986380D01*
X1663400Y7997980D01*
X1586300D01*
X1560000Y8024280D01*
Y8068280D01*
X1586300Y8094580D01*
X1663400D01*
X1675000Y8106180D01*
Y8255000D01*
X1592540Y8337460D01*
X1549510D01*
X1520000Y8307950D01*
G01X3355900Y5874370D02*
X3314170D01*
X3287350Y5847550D01*
X2962950D01*
X2205400Y6605100D01*
X2110400D01*
X1700100Y7015400D01*
Y7710780D01*
X1673800Y7737080D01*
X1596700D01*
X1585100Y7748680D01*
Y7771880D01*
X1596700Y7783480D01*
X1673800D01*
X1700100Y7809780D01*
Y7853780D01*
X1673800Y7880080D01*
X1596700D01*
X1585100Y7891680D01*
Y7914880D01*
X1596700Y7926480D01*
X1673800D01*
X1700100Y7952780D01*
Y7996780D01*
X1673800Y8023080D01*
X1596700D01*
X1585100Y8034680D01*
Y8057880D01*
X1596700Y8069480D01*
X1673800D01*
X1700100Y8095780D01*
Y8265400D01*
X1602940Y8362560D01*
X1549500D01*
X1520000Y8392060D01*
G54D14*
X950000Y900000D03*
X1500000Y5250000D03*
X4600000Y300000D03*
X4430000Y1390000D03*
X5200000Y200000D03*
X6000000Y400000D03*
X5900000Y1100000D03*
X7300000Y250000D03*
X7100000Y750000D03*
Y1200000D03*
X7750000Y850000D03*
G54D24*
G01X161900Y4525000D02*
X302000D01*
G01X161900Y5975000D02*
X302000D01*
G01Y4424900D02*
Y4525000D01*
G01D02*
Y4625100D01*
G01Y4525000D02*
X442100D01*
G01X302000Y5874900D02*
Y5975000D01*
G01D02*
Y6075100D01*
G01Y5975000D02*
X442100D01*
G01X1127500Y84900D02*
Y200000D01*
G01D02*
Y315100D01*
G01X1047400Y200000D02*
X1127500D01*
G01D02*
X1207600D01*
G01X1079900Y503000D02*
X1157500D01*
G01X898000Y4424900D02*
Y4525000D01*
G01D02*
Y4625100D01*
G01X707900Y4525000D02*
X898000D01*
G01D02*
X1088100D01*
G01X898000Y5874900D02*
Y5975000D01*
G01D02*
Y6075100D01*
G01X707900Y5975000D02*
X898000D01*
G01D02*
X1088100D01*
G01X1564900Y503000D02*
X1642500D01*
G01X1157500Y405400D02*
Y503000D01*
G01D02*
Y600600D01*
G01Y503000D02*
X1235100D01*
G01X1494900Y946000D02*
X1600000D01*
G01X1566000Y9757900D02*
Y9863000D01*
G01D02*
Y9968100D01*
G01X1460900Y9863000D02*
X1566000D01*
G01D02*
X1671100D01*
G01X1312000Y9757900D02*
Y9863000D01*
G01D02*
Y9968100D01*
G01X1206900Y9863000D02*
X1312000D01*
G01D02*
X1417100D01*
G01X1672500Y84900D02*
Y200000D01*
G01D02*
Y315100D01*
G01X1592400Y200000D02*
X1672500D01*
G01D02*
X1752600D01*
G01X1642500Y405400D02*
Y503000D01*
G01D02*
Y600600D01*
G01Y503000D02*
X1720100D01*
G01X1995400Y879000D02*
X2193000D01*
G01X1600000Y840900D02*
Y946000D01*
G01D02*
Y1051100D01*
G01Y946000D02*
X1705100D01*
G01X1968900Y9863000D02*
X2074000D01*
G01X1820000Y9757900D02*
Y9863000D01*
G01D02*
Y9968100D01*
G01X1714900Y9863000D02*
X1820000D01*
G01D02*
X1925100D01*
G01X2193000Y681400D02*
Y879000D01*
G01D02*
Y1076600D01*
G01Y879000D02*
X2390600D01*
G01X2328000Y9757900D02*
Y9863000D01*
G01D02*
Y9968100D01*
G01X2222900Y9863000D02*
X2328000D01*
G01D02*
X2433100D01*
G01X2074000Y9757900D02*
Y9863000D01*
G01D02*
Y9968100D01*
G01Y9863000D02*
X2179100D01*
G01X3309400Y879000D02*
X3507000D01*
G01X3200000Y1049900D02*
Y1150000D01*
G01D02*
Y1250100D01*
G01X3099900Y1150000D02*
X3200000D01*
G01D02*
X3300100D01*
G01X3507000Y681400D02*
Y879000D01*
G01D02*
Y1076600D01*
G01Y879000D02*
X3704600D01*
G01X6447900Y2171000D02*
X6553000D01*
G01D02*
X6658100D01*
G01X6947400Y200000D02*
X7027500D01*
G01X6979900Y503000D02*
X7057500D01*
G01X6807000Y1811900D02*
Y1917000D01*
G01X6701900D02*
X6807000D01*
G01D02*
X6912100D01*
G01X6701900Y2171000D02*
X6807000D01*
G01D02*
X6912100D01*
G01X6701900Y2679000D02*
X6807000D01*
G01D02*
X6912100D01*
G01X6701900Y3187000D02*
X6807000D01*
G01D02*
X6912100D01*
G01X6701900Y3695000D02*
X6807000D01*
G01D02*
X6912100D01*
G01X6701900Y4203000D02*
X6807000D01*
G01D02*
X6912100D01*
G01X6701900Y4711000D02*
X6807000D01*
G01D02*
X6912100D01*
G01X6701900Y5219000D02*
X6807000D01*
G01D02*
X6912100D01*
G01X6701900Y5727000D02*
X6807000D01*
G01D02*
X6912100D01*
G01X6701900Y6235000D02*
X6807000D01*
G01D02*
X6912100D01*
G01X6701900Y6743000D02*
X6807000D01*
G01D02*
X6912100D01*
G01X6701900Y7251000D02*
X6807000D01*
G01D02*
X6912100D01*
G01X6701900Y7759000D02*
X6807000D01*
G01D02*
X6912100D01*
G01X6701900Y8267000D02*
X6807000D01*
G01D02*
X6912100D01*
G01X6701900Y8775000D02*
X6807000D01*
G01D02*
X6912100D01*
G01X6807000Y9283000D02*
Y9388100D01*
G01X6701900Y9283000D02*
X6807000D01*
G01D02*
X6912100D01*
G01X7300000Y129900D02*
Y250000D01*
G01X7027500Y84900D02*
Y200000D01*
G01D02*
Y315100D01*
G01Y200000D02*
X7107600D01*
G01X7300000Y250000D02*
Y370100D01*
G01X7179900Y250000D02*
X7300000D01*
G01D02*
X7420100D01*
G01X7057500Y405400D02*
Y503000D01*
G01D02*
Y600600D01*
G01Y503000D02*
X7135100D01*
G01X7572500Y84900D02*
Y200000D01*
G01D02*
Y315100D01*
G01X7492400Y200000D02*
X7572500D01*
G01D02*
X7652600D01*
G01X7542500Y405400D02*
Y503000D01*
G01D02*
Y600600D01*
G01X7464900Y503000D02*
X7542500D01*
G01D02*
X7620100D01*
G01X7750000Y729900D02*
Y850000D01*
G01D02*
Y970100D01*
G01X7629900Y850000D02*
X7750000D01*
G01D02*
X7870100D01*
G01X8077000Y1811900D02*
Y1917000D01*
G01D02*
Y2022100D01*
G01X7971900Y1917000D02*
X8077000D01*
G01D02*
X8182100D01*
G01X8077000Y2065900D02*
Y2171000D01*
G01D02*
Y2276100D01*
G01X7971900Y2171000D02*
X8077000D01*
G01D02*
X8182100D01*
G01X8077000Y2573900D02*
Y2679000D01*
G01D02*
Y2784100D01*
G01X7971900Y2679000D02*
X8077000D01*
G01D02*
X8182100D01*
G01X8077000Y3081900D02*
Y3187000D01*
G01D02*
Y3292100D01*
G01X7971900Y3187000D02*
X8077000D01*
G01D02*
X8182100D01*
G01X8077000Y3589900D02*
Y3695000D01*
G01D02*
Y3800100D01*
G01X7971900Y3695000D02*
X8077000D01*
G01D02*
X8182100D01*
G01X8077000Y4097900D02*
Y4203000D01*
G01D02*
Y4308100D01*
G01X7971900Y4203000D02*
X8077000D01*
G01D02*
X8182100D01*
G01X8077000Y4605900D02*
Y4711000D01*
G01D02*
Y4816100D01*
G01X7971900Y4711000D02*
X8077000D01*
G01D02*
X8182100D01*
G01X8077000Y5113900D02*
Y5219000D01*
G01Y5621900D02*
Y5727000D01*
G01Y5219000D02*
Y5324100D01*
G01X7971900Y5219000D02*
X8077000D01*
G01D02*
X8182100D01*
G01X8077000Y5727000D02*
Y5832100D01*
G01X7971900Y5727000D02*
X8077000D01*
G01D02*
X8182100D01*
G01X8077000Y6129900D02*
Y6235000D01*
G01D02*
Y6340100D01*
G01X7971900Y6235000D02*
X8077000D01*
G01D02*
X8182100D01*
G01X8077000Y6637900D02*
Y6743000D01*
G01D02*
Y6848100D01*
G01X7971900Y6743000D02*
X8077000D01*
G01D02*
X8182100D01*
G01X8077000Y7145900D02*
Y7251000D01*
G01D02*
Y7356100D01*
G01X7971900Y7251000D02*
X8077000D01*
G01D02*
X8182100D01*
G01X8077000Y7653900D02*
Y7759000D01*
G01D02*
Y7864100D01*
G01X7971900Y7759000D02*
X8077000D01*
G01D02*
X8182100D01*
G01X8077000Y8161900D02*
Y8267000D01*
G01D02*
Y8372100D01*
G01X7971900Y8267000D02*
X8077000D01*
G01D02*
X8182100D01*
G01X8077000Y8669900D02*
Y8775000D01*
G01D02*
Y8880100D01*
G01X7971900Y8775000D02*
X8077000D01*
G01D02*
X8182100D01*
G01X8077000Y9177900D02*
Y9283000D01*
G01D02*
Y9388100D01*
G01X7971900Y9283000D02*
X8077000D01*
G01D02*
X8182100D01*
G54D15*
X898000Y4525000D03*
Y5975000D03*
G54D25*
G01X11098000Y160000D02*
Y256000D01*
X11118000D01*
X11126000Y251200D01*
X11132000Y244800D01*
X11137000Y235200D01*
X11141000Y224000D01*
X11142000Y208000D01*
X11141000Y192000D01*
X11137000Y180800D01*
X11132000Y171200D01*
X11126000Y164800D01*
X11118000Y160000D01*
X11098000D01*
G01X11178000D02*
Y256000D01*
X11203000D01*
X11211000Y251200D01*
X11216000Y244800D01*
X11218000Y232000D01*
X11216000Y219200D01*
X11210000Y211200D01*
X11203000Y206400D01*
X11178000D01*
G01X11203000D02*
X11218000Y160000D01*
G01X11251000D02*
X11276000Y256000D01*
X11301000Y160000D01*
G01X11292000Y193600D02*
X11260000D01*
G01X11324000Y256000D02*
X11338000Y160000D01*
X11354000Y256000D01*
X11370000Y160000D01*
X11384000Y256000D01*
G01X11409000Y160000D02*
Y256000D01*
X11455000Y160000D01*
Y256000D01*
G01X11128000Y550000D02*
Y646000D01*
X11148000D01*
X11156000Y641200D01*
X11162000Y634800D01*
X11167000Y625200D01*
X11171000Y614000D01*
X11172000Y598000D01*
X11171000Y582000D01*
X11167000Y570800D01*
X11162000Y561200D01*
X11156000Y554800D01*
X11148000Y550000D01*
X11128000D01*
G01X11203000D02*
X11228000Y646000D01*
X11253000Y550000D01*
G01X11244000Y583600D02*
X11212000D01*
G01X11306000Y646000D02*
Y550000D01*
G01X11283000Y646000D02*
X11329000D01*
G01X11404000Y550000D02*
X11364000D01*
Y646000D01*
X11404000D01*
G01X11388000Y599600D02*
X11364000D01*
G01X11120000Y1046000D02*
Y950000D01*
G01X11097000Y1046000D02*
X11143000D01*
G01X11186000D02*
X11210000D01*
G01X11198000D02*
Y950000D01*
G01X11186000D02*
X11210000D01*
G01X11276000Y1046000D02*
Y950000D01*
G01X11253000Y1046000D02*
X11299000D01*
G01X11334000D02*
Y950000D01*
X11374000D01*
G01X11452000D02*
X11412000D01*
Y1046000D01*
X11452000D01*
G01X11436000Y999600D02*
X11412000D01*
G01X13036000Y1496000D02*
X13029000Y1502400D01*
X13023000Y1504000D01*
X13015000Y1500800D01*
X13009000Y1494400D01*
X13005000Y1483200D01*
X13004000Y1472000D01*
X13005000Y1460800D01*
X13009000Y1451200D01*
X13015000Y1443200D01*
X13023000Y1440000D01*
X13030000Y1443200D01*
X13036000Y1449600D01*
G01X13234000Y1440000D02*
Y1536000D01*
X13259000D01*
X13267000Y1531200D01*
X13272000Y1524800D01*
X13274000Y1512000D01*
X13272000Y1499200D01*
X13266000Y1491200D01*
X13259000Y1486400D01*
X13234000D01*
G01X13259000D02*
X13274000Y1440000D01*
G01X13350000D02*
Y1504000D01*
G01Y1492800D02*
X13346000Y1499200D01*
X13340000Y1502400D01*
X13333000Y1504000D01*
X13326000Y1500800D01*
X13320000Y1494400D01*
X13316000Y1484800D01*
X13314000Y1472000D01*
X13316000Y1459200D01*
X13320000Y1449600D01*
X13326000Y1443200D01*
X13333000Y1440000D01*
X13340000Y1441600D01*
X13346000Y1446400D01*
X13350000Y1452800D01*
G01X13395000Y1451200D02*
X13400000Y1444800D01*
X13407000Y1440000D01*
X13413000D01*
X13419000Y1443200D01*
X13423000Y1448000D01*
X13425000Y1454400D01*
X13424000Y1464000D01*
X13420000Y1468800D01*
X13402000Y1478400D01*
X13398000Y1489600D01*
X13400000Y1497600D01*
X13404000Y1502400D01*
X13410000Y1504000D01*
X13416000Y1502400D01*
X13422000Y1497600D01*
G01X13470000Y1408000D02*
Y1504000D01*
G01Y1489600D02*
X13475000Y1497600D01*
X13480000Y1502400D01*
X13488000Y1504000D01*
X13495000Y1502400D01*
X13502000Y1494400D01*
X13505000Y1483200D01*
X13506000Y1472000D01*
X13505000Y1460800D01*
X13502000Y1449600D01*
X13496000Y1443200D01*
X13488000Y1440000D01*
X13481000Y1441600D01*
X13474000Y1446400D01*
X13470000Y1452800D01*
G01X13548000Y1440000D02*
Y1536000D01*
G01Y1488000D02*
X13553000Y1497600D01*
X13559000Y1502400D01*
X13565000Y1504000D01*
X13574000Y1500800D01*
X13580000Y1494400D01*
X13584000Y1483200D01*
Y1470400D01*
X13582000Y1457600D01*
X13578000Y1448000D01*
X13571000Y1441600D01*
X13565000Y1440000D01*
X13559000Y1441600D01*
X13553000Y1446400D01*
X13548000Y1454400D01*
G01X13629000Y1483200D02*
X13661000D01*
X13658000Y1494400D01*
X13653000Y1500800D01*
X13646000Y1504000D01*
X13639000Y1502400D01*
X13633000Y1497600D01*
X13629000Y1486400D01*
X13627000Y1476800D01*
Y1467200D01*
X13629000Y1457600D01*
X13634000Y1448000D01*
X13640000Y1441600D01*
X13647000Y1440000D01*
X13654000Y1443200D01*
X13661000Y1452800D01*
G01X13708000Y1440000D02*
Y1504000D01*
G01Y1491200D02*
X13713000Y1497600D01*
X13718000Y1502400D01*
X13725000Y1504000D01*
X13730000Y1502400D01*
X13736000Y1497600D01*
G01X13786000Y1440000D02*
Y1504000D01*
G01Y1491200D02*
X13791000Y1497600D01*
X13796000Y1502400D01*
X13803000Y1504000D01*
X13808000Y1502400D01*
X13814000Y1497600D01*
G01X13857000Y1411200D02*
X13863000Y1408000D01*
X13871000Y1411200D01*
X13876000Y1417600D01*
X13880000Y1425600D01*
X13886000Y1451200D01*
X13899000Y1504000D01*
G01X13867000D02*
X13886000Y1451200D01*
G01X14014000Y1440000D02*
Y1536000D01*
X14038000D01*
X14046000Y1531200D01*
X14052000Y1520000D01*
X14054000Y1507200D01*
X14052000Y1494400D01*
X14047000Y1484800D01*
X14038000Y1480000D01*
X14014000D01*
G01X14112000Y1504000D02*
Y1440000D01*
G01Y1529600D02*
X14110000Y1531200D01*
Y1534400D01*
X14112000Y1536000D01*
X14114000Y1534400D01*
Y1531200D01*
X14112000Y1529600D01*
G01X14249000Y1520000D02*
X14255000Y1529600D01*
X14262000Y1534400D01*
X14270000Y1536000D01*
X14280000Y1532800D01*
X14287000Y1524800D01*
X14289000Y1515200D01*
X14288000Y1505600D01*
X14284000Y1497600D01*
X14264000Y1481600D01*
X14255000Y1470400D01*
X14249000Y1454400D01*
X14247000Y1440000D01*
X14289000D01*
G01X14346000Y1536000D02*
X14338000Y1532800D01*
X14332000Y1524800D01*
X14328000Y1515200D01*
X14325000Y1502400D01*
X14324000Y1488000D01*
X14325000Y1473600D01*
X14328000Y1460800D01*
X14332000Y1451200D01*
X14338000Y1443200D01*
X14346000Y1440000D01*
X14354000Y1443200D01*
X14360000Y1451200D01*
X14364000Y1460800D01*
X14367000Y1473600D01*
X14368000Y1488000D01*
X14367000Y1502400D01*
X14364000Y1515200D01*
X14360000Y1524800D01*
X14354000Y1532800D01*
X14346000Y1536000D01*
G01X14424000Y1440000D02*
Y1536000D01*
X14412000Y1516800D01*
G01Y1440000D02*
X14436000D01*
G01X14514000D02*
Y1536000D01*
X14477000Y1467200D01*
X14527000D01*
G01X13385000Y150000D02*
X13410000Y246000D01*
X13435000Y150000D01*
G01X13426000Y183600D02*
X13394000D01*
G01X13468000Y150000D02*
Y246000D01*
X13492000D01*
X13500000Y241200D01*
X13506000Y230000D01*
X13508000Y217200D01*
X13506000Y204400D01*
X13501000Y194800D01*
X13492000Y190000D01*
X13468000D01*
G01X13541000Y246000D02*
X13566000Y150000D01*
X13591000Y246000D01*
G01X13622000Y150000D02*
Y246000D01*
X13642000D01*
X13650000Y241200D01*
X13656000Y234800D01*
X13661000Y225200D01*
X13665000Y214000D01*
X13666000Y198000D01*
X13665000Y182000D01*
X13661000Y170800D01*
X13656000Y161200D01*
X13650000Y154800D01*
X13642000Y150000D01*
X13622000D01*
G01X13420000Y540000D02*
Y636000D01*
X13445000D01*
X13453000Y631200D01*
X13458000Y624800D01*
X13460000Y612000D01*
X13458000Y599200D01*
X13452000Y591200D01*
X13445000Y586400D01*
X13420000D01*
G01X13445000D02*
X13460000Y540000D01*
G01X13538000D02*
X13498000D01*
Y636000D01*
X13538000D01*
G01X13522000Y589600D02*
X13498000D01*
G01X13577000Y540000D02*
Y636000D01*
X13615000D01*
G01X13601000Y589600D02*
X13577000D01*
G54D16*
X1600000Y946000D03*
Y1200000D03*
X1312000Y9863000D03*
Y10117000D03*
X1566000Y9863000D03*
Y10117000D03*
X1820000Y9863000D03*
Y10117000D03*
X2074000Y9863000D03*
Y10117000D03*
X2328000Y9863000D03*
X6553000Y1917000D03*
Y2171000D03*
Y2425000D03*
Y2679000D03*
Y2933000D03*
Y3187000D03*
Y3441000D03*
Y3695000D03*
Y3949000D03*
Y4203000D03*
Y4457000D03*
Y4711000D03*
Y4965000D03*
Y5219000D03*
Y5473000D03*
Y5727000D03*
Y5981000D03*
Y6235000D03*
Y6489000D03*
Y6743000D03*
Y6997000D03*
Y7251000D03*
Y7505000D03*
Y7759000D03*
Y8013000D03*
Y8267000D03*
Y8521000D03*
Y8775000D03*
Y9029000D03*
X6446000Y9923000D03*
Y10177000D03*
X6807000Y1917000D03*
Y2171000D03*
Y2425000D03*
Y2679000D03*
Y2933000D03*
Y3187000D03*
Y3441000D03*
Y3695000D03*
Y3949000D03*
Y4203000D03*
Y4457000D03*
Y4711000D03*
Y4965000D03*
Y5219000D03*
Y5473000D03*
Y5727000D03*
Y5981000D03*
Y6235000D03*
Y6489000D03*
Y6743000D03*
Y6997000D03*
Y7251000D03*
Y7505000D03*
Y7759000D03*
Y8013000D03*
Y8267000D03*
Y8521000D03*
Y8775000D03*
Y9029000D03*
Y9283000D03*
X6700000Y9923000D03*
Y10177000D03*
X6954000Y9923000D03*
X7823000Y1917000D03*
Y2171000D03*
Y2425000D03*
Y2679000D03*
Y2933000D03*
Y3187000D03*
Y3441000D03*
Y3695000D03*
Y3949000D03*
Y4203000D03*
Y4457000D03*
Y4711000D03*
Y4965000D03*
Y5219000D03*
Y5473000D03*
Y5727000D03*
Y5981000D03*
Y6235000D03*
Y6489000D03*
Y6743000D03*
Y6997000D03*
Y7251000D03*
Y7505000D03*
Y7759000D03*
Y8013000D03*
Y8267000D03*
Y8521000D03*
Y8775000D03*
Y9029000D03*
X8077000Y1917000D03*
Y2171000D03*
Y2425000D03*
Y2679000D03*
Y2933000D03*
Y3187000D03*
Y3441000D03*
Y3695000D03*
Y3949000D03*
Y4203000D03*
Y4457000D03*
Y4711000D03*
Y4965000D03*
Y5219000D03*
Y5473000D03*
Y5727000D03*
Y5981000D03*
Y6235000D03*
Y6489000D03*
Y6743000D03*
Y6997000D03*
Y7251000D03*
Y7505000D03*
Y7759000D03*
Y8013000D03*
Y8267000D03*
Y8521000D03*
Y8775000D03*
Y9029000D03*
Y9283000D03*
G54D26*
G01X2861200Y11615200D02*
Y11500000D01*
X2909200D01*
G01X2978800Y11615200D02*
X2969200Y11611360D01*
X2962000Y11601760D01*
X2957200Y11590240D01*
X2953600Y11574880D01*
X2952400Y11557600D01*
X2953600Y11540320D01*
X2957200Y11524960D01*
X2962000Y11513440D01*
X2969200Y11503840D01*
X2978800Y11500000D01*
X2988400Y11503840D01*
X2995600Y11513440D01*
X3000400Y11524960D01*
X3004000Y11540320D01*
X3005200Y11557600D01*
X3004000Y11574880D01*
X3000400Y11590240D01*
X2995600Y11601760D01*
X2988400Y11611360D01*
X2978800Y11615200D01*
G01X3049600Y11548000D02*
X3058000Y11561440D01*
X3065200Y11569120D01*
X3074800Y11572960D01*
X3083200Y11569120D01*
X3089200Y11561440D01*
X3094000Y11549920D01*
X3095200Y11536480D01*
X3094000Y11524960D01*
X3089200Y11513440D01*
X3082000Y11503840D01*
X3073600Y11500000D01*
X3064000Y11503840D01*
X3055600Y11515360D01*
X3050800Y11532640D01*
X3049600Y11551840D01*
X3052000Y11576800D01*
X3055600Y11590240D01*
X3061600Y11603680D01*
X3070000Y11613280D01*
X3078400Y11615200D01*
X3086800Y11611360D01*
X3092800Y11601760D01*
G01X3244000Y11538400D02*
X3275200D01*
G01X3456400Y11561440D02*
X3461200Y11567200D01*
X3464800Y11576800D01*
X3467200Y11590240D01*
X3464800Y11601760D01*
X3460000Y11609440D01*
X3451600Y11615200D01*
X3419200D01*
Y11500000D01*
X3458800D01*
X3467200Y11507680D01*
X3472000Y11519200D01*
X3474400Y11532640D01*
X3472000Y11546080D01*
X3464800Y11557600D01*
X3456400Y11561440D01*
X3419200D01*
G01X3540400Y11500000D02*
X3530800Y11501920D01*
X3522400Y11509600D01*
X3515200Y11521120D01*
X3510400Y11534560D01*
X3508000Y11549920D01*
Y11565280D01*
X3510400Y11580640D01*
X3515200Y11594080D01*
X3522400Y11605600D01*
X3530800Y11613280D01*
X3540400Y11615200D01*
X3550000Y11613280D01*
X3558400Y11605600D01*
X3565600Y11594080D01*
X3570400Y11580640D01*
X3572800Y11565280D01*
Y11549920D01*
X3570400Y11534560D01*
X3565600Y11521120D01*
X3558400Y11509600D01*
X3550000Y11501920D01*
X3540400Y11500000D01*
G01X3634000Y11615200D02*
Y11500000D01*
G01X3606400Y11615200D02*
X3661600D01*
G01X3727600D02*
Y11500000D01*
G01X3700000Y11615200D02*
X3755200D01*
G01X3821200Y11500000D02*
X3811600Y11501920D01*
X3803200Y11509600D01*
X3796000Y11521120D01*
X3791200Y11534560D01*
X3788800Y11549920D01*
Y11565280D01*
X3791200Y11580640D01*
X3796000Y11594080D01*
X3803200Y11605600D01*
X3811600Y11613280D01*
X3821200Y11615200D01*
X3830800Y11613280D01*
X3839200Y11605600D01*
X3846400Y11594080D01*
X3851200Y11580640D01*
X3853600Y11565280D01*
Y11549920D01*
X3851200Y11534560D01*
X3846400Y11521120D01*
X3839200Y11509600D01*
X3830800Y11501920D01*
X3821200Y11500000D01*
G01X3883600D02*
Y11615200D01*
X3914800Y11519200D01*
X3946000Y11615200D01*
Y11500000D01*
G01X11958000Y163040D02*
X11964000Y151520D01*
X11971200Y143840D01*
X11979600Y140000D01*
X11989200Y143840D01*
X11996400Y151520D01*
X12003600Y163040D01*
X12006000Y178400D01*
Y255200D01*
G01X12097200Y140000D02*
Y216800D01*
G01Y203360D02*
X12092400Y211040D01*
X12085200Y214880D01*
X12076800Y216800D01*
X12068400Y212960D01*
X12061200Y205280D01*
X12056400Y193760D01*
X12054000Y178400D01*
X12056400Y163040D01*
X12061200Y151520D01*
X12068400Y143840D01*
X12076800Y140000D01*
X12085200Y141920D01*
X12092400Y147680D01*
X12097200Y155360D01*
G01X12133200Y140000D02*
Y216800D01*
G01Y195680D02*
X12136800Y205280D01*
X12142800Y212960D01*
X12151200Y216800D01*
X12159600Y212960D01*
X12165600Y205280D01*
X12169200Y195680D01*
Y140000D01*
G01Y195680D02*
X12172800Y205280D01*
X12178800Y212960D01*
X12187200Y216800D01*
X12195600Y212960D01*
X12201600Y205280D01*
X12205200Y193760D01*
Y140000D01*
G01X12244800Y191840D02*
X12283200D01*
X12279600Y205280D01*
X12273600Y212960D01*
X12265200Y216800D01*
X12256800Y214880D01*
X12249600Y209120D01*
X12244800Y195680D01*
X12242400Y184160D01*
Y172640D01*
X12244800Y161120D01*
X12250800Y149600D01*
X12258000Y141920D01*
X12266400Y140000D01*
X12274800Y143840D01*
X12283200Y155360D01*
G01X12338400Y153440D02*
X12344400Y145760D01*
X12352800Y140000D01*
X12360000D01*
X12367200Y143840D01*
X12372000Y149600D01*
X12374400Y157280D01*
X12373200Y168800D01*
X12368400Y174560D01*
X12346800Y186080D01*
X12342000Y199520D01*
X12344400Y209120D01*
X12349200Y214880D01*
X12356400Y216800D01*
X12363600Y214880D01*
X12370800Y209120D01*
G01X12513600Y140000D02*
X12543600Y255200D01*
X12573600Y140000D01*
G01X12562800Y180320D02*
X12524400D01*
G01X12658800Y255200D02*
Y140000D01*
G01Y157280D02*
X12654000Y147680D01*
X12646800Y141920D01*
X12638400Y140000D01*
X12628800Y143840D01*
X12621600Y153440D01*
X12616800Y164960D01*
X12615600Y178400D01*
X12616800Y191840D01*
X12621600Y203360D01*
X12628800Y212960D01*
X12638400Y216800D01*
X12646800Y214880D01*
X12652800Y211040D01*
X12658800Y203360D01*
G01X12752400Y140000D02*
Y216800D01*
G01Y203360D02*
X12747600Y211040D01*
X12740400Y214880D01*
X12732000Y216800D01*
X12723600Y212960D01*
X12716400Y205280D01*
X12711600Y193760D01*
X12709200Y178400D01*
X12711600Y163040D01*
X12716400Y151520D01*
X12723600Y143840D01*
X12732000Y140000D01*
X12740400Y141920D01*
X12747600Y147680D01*
X12752400Y155360D01*
G01X12788400Y140000D02*
Y216800D01*
G01Y195680D02*
X12792000Y205280D01*
X12798000Y212960D01*
X12806400Y216800D01*
X12814800Y212960D01*
X12820800Y205280D01*
X12824400Y195680D01*
Y140000D01*
G01Y195680D02*
X12828000Y205280D01*
X12834000Y212960D01*
X12842400Y216800D01*
X12850800Y212960D01*
X12856800Y205280D01*
X12860400Y193760D01*
Y140000D01*
G01X12900000Y153440D02*
X12906000Y145760D01*
X12914400Y140000D01*
X12921600D01*
X12928800Y143840D01*
X12933600Y149600D01*
X12936000Y157280D01*
X12934800Y168800D01*
X12930000Y174560D01*
X12908400Y186080D01*
X12903600Y199520D01*
X12906000Y209120D01*
X12910800Y214880D01*
X12918000Y216800D01*
X12925200Y214880D01*
X12932400Y209120D01*
G01X12018800Y540000D02*
Y655200D01*
X12004400Y632160D01*
G01Y540000D02*
X12033200D01*
G01X12112400Y655200D02*
X12102800Y651360D01*
X12095600Y641760D01*
X12090800Y630240D01*
X12087200Y614880D01*
X12086000Y597600D01*
X12087200Y580320D01*
X12090800Y564960D01*
X12095600Y553440D01*
X12102800Y543840D01*
X12112400Y540000D01*
X12122000Y543840D01*
X12129200Y553440D01*
X12134000Y564960D01*
X12137600Y580320D01*
X12138800Y597600D01*
X12137600Y614880D01*
X12134000Y630240D01*
X12129200Y641760D01*
X12122000Y651360D01*
X12112400Y655200D01*
G01X12184400Y536160D02*
X12227600Y655200D01*
G01X12299600D02*
X12290000Y651360D01*
X12282800Y641760D01*
X12278000Y630240D01*
X12274400Y614880D01*
X12273200Y597600D01*
X12274400Y580320D01*
X12278000Y564960D01*
X12282800Y553440D01*
X12290000Y543840D01*
X12299600Y540000D01*
X12309200Y543840D01*
X12316400Y553440D01*
X12321200Y564960D01*
X12324800Y580320D01*
X12326000Y597600D01*
X12324800Y614880D01*
X12321200Y630240D01*
X12316400Y641760D01*
X12309200Y651360D01*
X12299600Y655200D01*
G01X12407600Y540000D02*
Y655200D01*
X12363200Y572640D01*
X12423200D01*
G01X12465200Y536160D02*
X12508400Y655200D01*
G01X12557600Y636000D02*
X12564800Y647520D01*
X12573200Y653280D01*
X12582800Y655200D01*
X12594800Y651360D01*
X12603200Y641760D01*
X12605600Y630240D01*
X12604400Y618720D01*
X12599600Y609120D01*
X12575600Y589920D01*
X12564800Y576480D01*
X12557600Y557280D01*
X12555200Y540000D01*
X12605600D01*
G01X12674000Y655200D02*
X12664400Y651360D01*
X12657200Y641760D01*
X12652400Y630240D01*
X12648800Y614880D01*
X12647600Y597600D01*
X12648800Y580320D01*
X12652400Y564960D01*
X12657200Y553440D01*
X12664400Y543840D01*
X12674000Y540000D01*
X12683600Y543840D01*
X12690800Y553440D01*
X12695600Y564960D01*
X12699200Y580320D01*
X12700400Y597600D01*
X12699200Y614880D01*
X12695600Y630240D01*
X12690800Y641760D01*
X12683600Y651360D01*
X12674000Y655200D01*
G01X12767600Y540000D02*
Y655200D01*
X12753200Y632160D01*
G01Y540000D02*
X12782000D01*
G01X12875600D02*
Y655200D01*
X12831200Y572640D01*
X12891200D01*
G01X11848000Y950000D02*
Y1065200D01*
X11878000D01*
X11887600Y1059440D01*
X11893600Y1051760D01*
X11896000Y1036400D01*
X11893600Y1021040D01*
X11886400Y1011440D01*
X11878000Y1005680D01*
X11848000D01*
G01X11878000D02*
X11896000Y950000D01*
G01X11935600D02*
X11965600Y1065200D01*
X11995600Y950000D01*
G01X11984800Y990320D02*
X11946400D01*
G01X12034000Y965360D02*
X12043600Y955760D01*
X12054400Y950000D01*
X12064000D01*
X12073600Y955760D01*
X12080800Y965360D01*
X12084400Y978800D01*
X12082000Y992240D01*
X12076000Y1003760D01*
X12065200Y1011440D01*
X12050800Y1015280D01*
X12042400Y1022960D01*
X12038800Y1036400D01*
X12041200Y1049840D01*
X12047200Y1059440D01*
X12055600Y1065200D01*
X12064000D01*
X12072400Y1061360D01*
X12079600Y1051760D01*
G01X12128800Y950000D02*
Y1065200D01*
X12157600D01*
X12167200Y1059440D01*
X12174400Y1046000D01*
X12176800Y1030640D01*
X12174400Y1015280D01*
X12168400Y1003760D01*
X12157600Y998000D01*
X12128800D01*
G01X12256000Y1011440D02*
X12260800Y1017200D01*
X12264400Y1026800D01*
X12266800Y1040240D01*
X12264400Y1051760D01*
X12259600Y1059440D01*
X12251200Y1065200D01*
X12218800D01*
Y950000D01*
X12258400D01*
X12266800Y957680D01*
X12271600Y969200D01*
X12274000Y982640D01*
X12271600Y996080D01*
X12264400Y1007600D01*
X12256000Y1011440D01*
X12218800D01*
G01X12364000Y950000D02*
X12316000D01*
Y1065200D01*
X12364000D01*
G01X12344800Y1009520D02*
X12316000D01*
G01X12409600Y950000D02*
Y1065200D01*
X12439600D01*
X12449200Y1059440D01*
X12455200Y1051760D01*
X12457600Y1036400D01*
X12455200Y1021040D01*
X12448000Y1011440D01*
X12439600Y1005680D01*
X12409600D01*
G01X12439600D02*
X12457600Y950000D01*
G01X12503200D02*
Y1065200D01*
X12533200D01*
X12542800Y1059440D01*
X12548800Y1051760D01*
X12551200Y1036400D01*
X12548800Y1021040D01*
X12541600Y1011440D01*
X12533200Y1005680D01*
X12503200D01*
G01X12533200D02*
X12551200Y950000D01*
G01X12620800D02*
Y1001840D01*
X12596800Y1065200D01*
G01X12644800D02*
X12620800Y1001840D01*
G01X12784000Y950000D02*
Y1065200D01*
X12812800D01*
X12822400Y1059440D01*
X12829600Y1046000D01*
X12832000Y1030640D01*
X12829600Y1015280D01*
X12823600Y1003760D01*
X12812800Y998000D01*
X12784000D01*
G01X12887200Y1065200D02*
X12916000D01*
G01X12901600D02*
Y950000D01*
G01X12887200D02*
X12916000D01*
G01X13115200Y1055600D02*
X13108000Y1061360D01*
X13099600Y1065200D01*
X13090000D01*
X13079200Y1059440D01*
X13070800Y1049840D01*
X13064800Y1038320D01*
X13060000Y1019120D01*
X13058800Y1001840D01*
X13061200Y984560D01*
X13064800Y973040D01*
X13072000Y961520D01*
X13080400Y953840D01*
X13088800Y950000D01*
X13097200D01*
X13105600Y953840D01*
X13112800Y959600D01*
X13118800Y967280D01*
G01X13182400Y950000D02*
X13172800Y951920D01*
X13164400Y959600D01*
X13157200Y971120D01*
X13152400Y984560D01*
X13150000Y999920D01*
Y1015280D01*
X13152400Y1030640D01*
X13157200Y1044080D01*
X13164400Y1055600D01*
X13172800Y1063280D01*
X13182400Y1065200D01*
X13192000Y1063280D01*
X13200400Y1055600D01*
X13207600Y1044080D01*
X13212400Y1030640D01*
X13214800Y1015280D01*
Y999920D01*
X13212400Y984560D01*
X13207600Y971120D01*
X13200400Y959600D01*
X13192000Y951920D01*
X13182400Y950000D01*
G01X13244800D02*
Y1065200D01*
X13276000Y969200D01*
X13307200Y1065200D01*
Y950000D01*
G01X13345600D02*
Y1065200D01*
X13374400D01*
X13384000Y1059440D01*
X13391200Y1046000D01*
X13393600Y1030640D01*
X13391200Y1015280D01*
X13385200Y1003760D01*
X13374400Y998000D01*
X13345600D01*
G01X13436800Y1065200D02*
Y982640D01*
X13441600Y965360D01*
X13451200Y953840D01*
X13463200Y950000D01*
X13475200Y953840D01*
X13484800Y965360D01*
X13489600Y982640D01*
Y1065200D01*
G01X13556800D02*
Y950000D01*
G01X13529200Y1065200D02*
X13584400D01*
G01X13674400Y950000D02*
X13626400D01*
Y1065200D01*
X13674400D01*
G01X13655200Y1009520D02*
X13626400D01*
G01X13806400Y950000D02*
Y1065200D01*
X13837600Y969200D01*
X13868800Y1065200D01*
Y950000D01*
G01X13931200D02*
X13921600Y951920D01*
X13913200Y959600D01*
X13906000Y971120D01*
X13901200Y984560D01*
X13898800Y999920D01*
Y1015280D01*
X13901200Y1030640D01*
X13906000Y1044080D01*
X13913200Y1055600D01*
X13921600Y1063280D01*
X13931200Y1065200D01*
X13940800Y1063280D01*
X13949200Y1055600D01*
X13956400Y1044080D01*
X13961200Y1030640D01*
X13963600Y1015280D01*
Y999920D01*
X13961200Y984560D01*
X13956400Y971120D01*
X13949200Y959600D01*
X13940800Y951920D01*
X13931200Y950000D01*
G01X13998400D02*
Y1065200D01*
X14022400D01*
X14032000Y1059440D01*
X14039200Y1051760D01*
X14045200Y1040240D01*
X14050000Y1026800D01*
X14051200Y1007600D01*
X14050000Y988400D01*
X14045200Y974960D01*
X14039200Y963440D01*
X14032000Y955760D01*
X14022400Y950000D01*
X13998400D01*
G01X14092000Y1065200D02*
Y982640D01*
X14096800Y965360D01*
X14106400Y953840D01*
X14118400Y950000D01*
X14130400Y953840D01*
X14140000Y965360D01*
X14144800Y982640D01*
Y1065200D01*
G01X14188000D02*
Y950000D01*
X14236000D01*
G01X14329600D02*
X14281600D01*
Y1065200D01*
X14329600D01*
G01X14310400Y1009520D02*
X14281600D01*
G01X14478400Y1065200D02*
X14507200D01*
G01X14492800D02*
Y950000D01*
G01X14478400D02*
X14507200D01*
G01X14586400D02*
X14576800Y951920D01*
X14568400Y959600D01*
X14561200Y971120D01*
X14556400Y984560D01*
X14554000Y999920D01*
Y1015280D01*
X14556400Y1030640D01*
X14561200Y1044080D01*
X14568400Y1055600D01*
X14576800Y1063280D01*
X14586400Y1065200D01*
X14596000Y1063280D01*
X14604400Y1055600D01*
X14611600Y1044080D01*
X14616400Y1030640D01*
X14618800Y1015280D01*
Y999920D01*
X14616400Y984560D01*
X14611600Y971120D01*
X14604400Y959600D01*
X14596000Y951920D01*
X14586400Y950000D01*
G01X14783200Y1011440D02*
X14788000Y1017200D01*
X14791600Y1026800D01*
X14794000Y1040240D01*
X14791600Y1051760D01*
X14786800Y1059440D01*
X14778400Y1065200D01*
X14746000D01*
Y950000D01*
X14785600D01*
X14794000Y957680D01*
X14798800Y969200D01*
X14801200Y982640D01*
X14798800Y996080D01*
X14791600Y1007600D01*
X14783200Y1011440D01*
X14746000D01*
G01X14867200Y950000D02*
X14857600Y951920D01*
X14849200Y959600D01*
X14842000Y971120D01*
X14837200Y984560D01*
X14834800Y999920D01*
Y1015280D01*
X14837200Y1030640D01*
X14842000Y1044080D01*
X14849200Y1055600D01*
X14857600Y1063280D01*
X14867200Y1065200D01*
X14876800Y1063280D01*
X14885200Y1055600D01*
X14892400Y1044080D01*
X14897200Y1030640D01*
X14899600Y1015280D01*
Y999920D01*
X14897200Y984560D01*
X14892400Y971120D01*
X14885200Y959600D01*
X14876800Y951920D01*
X14867200Y950000D01*
G01X14930800D02*
X14960800Y1065200D01*
X14990800Y950000D01*
G01X14980000Y990320D02*
X14941600D01*
G01X15030400Y950000D02*
Y1065200D01*
X15060400D01*
X15070000Y1059440D01*
X15076000Y1051760D01*
X15078400Y1036400D01*
X15076000Y1021040D01*
X15068800Y1011440D01*
X15060400Y1005680D01*
X15030400D01*
G01X15060400D02*
X15078400Y950000D01*
G01X15121600D02*
Y1065200D01*
X15145600D01*
X15155200Y1059440D01*
X15162400Y1051760D01*
X15168400Y1040240D01*
X15173200Y1026800D01*
X15174400Y1007600D01*
X15173200Y988400D01*
X15168400Y974960D01*
X15162400Y963440D01*
X15155200Y955760D01*
X15145600Y950000D01*
X15121600D01*
G01X12896000Y1766800D02*
X12910400Y1690000D01*
X12926000Y1766800D01*
X12941600Y1690000D01*
X12956000Y1766800D01*
G01X12989600D02*
X13004000Y1690000D01*
X13019600Y1766800D01*
X13035200Y1690000D01*
X13049600Y1766800D01*
G01X13083200D02*
X13097600Y1690000D01*
X13113200Y1766800D01*
X13128800Y1690000D01*
X13143200Y1766800D01*
G01X13206800Y1686160D02*
X13204400Y1688080D01*
Y1691920D01*
X13206800Y1693840D01*
X13209200Y1691920D01*
Y1688080D01*
X13206800Y1686160D01*
G01X13283600Y1690000D02*
Y1766800D01*
G01Y1751440D02*
X13289600Y1759120D01*
X13295600Y1764880D01*
X13304000Y1766800D01*
X13310000Y1764880D01*
X13317200Y1759120D01*
G01X13415600Y1690000D02*
Y1766800D01*
G01Y1753360D02*
X13410800Y1761040D01*
X13403600Y1764880D01*
X13395200Y1766800D01*
X13386800Y1762960D01*
X13379600Y1755280D01*
X13374800Y1743760D01*
X13372400Y1728400D01*
X13374800Y1713040D01*
X13379600Y1701520D01*
X13386800Y1693840D01*
X13395200Y1690000D01*
X13403600Y1691920D01*
X13410800Y1697680D01*
X13415600Y1705360D01*
G01X13469600Y1703440D02*
X13475600Y1695760D01*
X13484000Y1690000D01*
X13491200D01*
X13498400Y1693840D01*
X13503200Y1699600D01*
X13505600Y1707280D01*
X13504400Y1718800D01*
X13499600Y1724560D01*
X13478000Y1736080D01*
X13473200Y1749520D01*
X13475600Y1759120D01*
X13480400Y1764880D01*
X13487600Y1766800D01*
X13494800Y1764880D01*
X13502000Y1759120D01*
G01X13559600Y1651600D02*
Y1766800D01*
G01Y1749520D02*
X13565600Y1759120D01*
X13571600Y1764880D01*
X13581200Y1766800D01*
X13589600Y1764880D01*
X13598000Y1755280D01*
X13601600Y1741840D01*
X13602800Y1728400D01*
X13601600Y1714960D01*
X13598000Y1701520D01*
X13590800Y1693840D01*
X13581200Y1690000D01*
X13572800Y1691920D01*
X13564400Y1697680D01*
X13559600Y1705360D01*
G01X13653200Y1690000D02*
Y1805200D01*
G01Y1747600D02*
X13659200Y1759120D01*
X13666400Y1764880D01*
X13673600Y1766800D01*
X13684400Y1762960D01*
X13691600Y1755280D01*
X13696400Y1741840D01*
Y1726480D01*
X13694000Y1711120D01*
X13689200Y1699600D01*
X13680800Y1691920D01*
X13673600Y1690000D01*
X13666400Y1691920D01*
X13659200Y1697680D01*
X13653200Y1707280D01*
G01X13750400Y1741840D02*
X13788800D01*
X13785200Y1755280D01*
X13779200Y1762960D01*
X13770800Y1766800D01*
X13762400Y1764880D01*
X13755200Y1759120D01*
X13750400Y1745680D01*
X13748000Y1734160D01*
Y1722640D01*
X13750400Y1711120D01*
X13756400Y1699600D01*
X13763600Y1691920D01*
X13772000Y1690000D01*
X13780400Y1693840D01*
X13788800Y1705360D01*
G01X13845200Y1690000D02*
Y1766800D01*
G01Y1751440D02*
X13851200Y1759120D01*
X13857200Y1764880D01*
X13865600Y1766800D01*
X13871600Y1764880D01*
X13878800Y1759120D01*
G01X13938800Y1690000D02*
Y1766800D01*
G01Y1751440D02*
X13944800Y1759120D01*
X13950800Y1764880D01*
X13959200Y1766800D01*
X13965200Y1764880D01*
X13972400Y1759120D01*
G01X14024000Y1655440D02*
X14031200Y1651600D01*
X14040800Y1655440D01*
X14046800Y1663120D01*
X14051600Y1672720D01*
X14058800Y1703440D01*
X14074400Y1766800D01*
G01X14036000D02*
X14058800Y1703440D01*
G01X14121200Y1651600D02*
Y1766800D01*
G01Y1749520D02*
X14127200Y1759120D01*
X14133200Y1764880D01*
X14142800Y1766800D01*
X14151200Y1764880D01*
X14159600Y1755280D01*
X14163200Y1741840D01*
X14164400Y1728400D01*
X14163200Y1714960D01*
X14159600Y1701520D01*
X14152400Y1693840D01*
X14142800Y1690000D01*
X14134400Y1691920D01*
X14126000Y1697680D01*
X14121200Y1705360D01*
G01X14236400Y1766800D02*
Y1690000D01*
G01Y1797520D02*
X14234000Y1799440D01*
Y1803280D01*
X14236400Y1805200D01*
X14238800Y1803280D01*
Y1799440D01*
X14236400Y1797520D01*
G01X14330000Y1686160D02*
X14327600Y1688080D01*
Y1691920D01*
X14330000Y1693840D01*
X14332400Y1691920D01*
Y1688080D01*
X14330000Y1686160D01*
G01X14423600Y1690000D02*
X14416400Y1691920D01*
X14409200Y1699600D01*
X14404400Y1713040D01*
X14402000Y1728400D01*
X14404400Y1743760D01*
X14409200Y1757200D01*
X14416400Y1764880D01*
X14423600Y1766800D01*
X14430800Y1764880D01*
X14438000Y1757200D01*
X14442800Y1743760D01*
X14444000Y1728400D01*
X14442800Y1713040D01*
X14438000Y1699600D01*
X14430800Y1691920D01*
X14423600Y1690000D01*
G01X14500400D02*
Y1766800D01*
G01Y1751440D02*
X14506400Y1759120D01*
X14512400Y1764880D01*
X14520800Y1766800D01*
X14526800Y1764880D01*
X14534000Y1759120D01*
G01X14594000Y1661200D02*
X14602400Y1653520D01*
X14612000Y1651600D01*
X14620400Y1653520D01*
X14627600Y1663120D01*
X14632400Y1676560D01*
Y1766800D01*
G01Y1751440D02*
X14627600Y1759120D01*
X14620400Y1764880D01*
X14612000Y1766800D01*
X14602400Y1762960D01*
X14596400Y1755280D01*
X14591600Y1741840D01*
X14589200Y1728400D01*
X14590400Y1716880D01*
X14595200Y1703440D01*
X14602400Y1693840D01*
X14612000Y1690000D01*
X14619200Y1691920D01*
X14627600Y1699600D01*
X14632400Y1707280D01*
G01X14138000Y163040D02*
X14144000Y151520D01*
X14151200Y143840D01*
X14159600Y140000D01*
X14169200Y143840D01*
X14176400Y151520D01*
X14183600Y163040D01*
X14186000Y178400D01*
Y255200D01*
G01X14277200Y140000D02*
Y216800D01*
G01Y203360D02*
X14272400Y211040D01*
X14265200Y214880D01*
X14256800Y216800D01*
X14248400Y212960D01*
X14241200Y205280D01*
X14236400Y193760D01*
X14234000Y178400D01*
X14236400Y163040D01*
X14241200Y151520D01*
X14248400Y143840D01*
X14256800Y140000D01*
X14265200Y141920D01*
X14272400Y147680D01*
X14277200Y155360D01*
G01X14313200Y140000D02*
Y216800D01*
G01Y195680D02*
X14316800Y205280D01*
X14322800Y212960D01*
X14331200Y216800D01*
X14339600Y212960D01*
X14345600Y205280D01*
X14349200Y195680D01*
Y140000D01*
G01Y195680D02*
X14352800Y205280D01*
X14358800Y212960D01*
X14367200Y216800D01*
X14375600Y212960D01*
X14381600Y205280D01*
X14385200Y193760D01*
Y140000D01*
G01X14424800Y191840D02*
X14463200D01*
X14459600Y205280D01*
X14453600Y212960D01*
X14445200Y216800D01*
X14436800Y214880D01*
X14429600Y209120D01*
X14424800Y195680D01*
X14422400Y184160D01*
Y172640D01*
X14424800Y161120D01*
X14430800Y149600D01*
X14438000Y141920D01*
X14446400Y140000D01*
X14454800Y143840D01*
X14463200Y155360D01*
G01X14518400Y153440D02*
X14524400Y145760D01*
X14532800Y140000D01*
X14540000D01*
X14547200Y143840D01*
X14552000Y149600D01*
X14554400Y157280D01*
X14553200Y168800D01*
X14548400Y174560D01*
X14526800Y186080D01*
X14522000Y199520D01*
X14524400Y209120D01*
X14529200Y214880D01*
X14536400Y216800D01*
X14543600Y214880D01*
X14550800Y209120D01*
G01X14693600Y140000D02*
X14723600Y255200D01*
X14753600Y140000D01*
G01X14742800Y180320D02*
X14704400D01*
G01X14838800Y255200D02*
Y140000D01*
G01Y157280D02*
X14834000Y147680D01*
X14826800Y141920D01*
X14818400Y140000D01*
X14808800Y143840D01*
X14801600Y153440D01*
X14796800Y164960D01*
X14795600Y178400D01*
X14796800Y191840D01*
X14801600Y203360D01*
X14808800Y212960D01*
X14818400Y216800D01*
X14826800Y214880D01*
X14832800Y211040D01*
X14838800Y203360D01*
G01X14932400Y140000D02*
Y216800D01*
G01Y203360D02*
X14927600Y211040D01*
X14920400Y214880D01*
X14912000Y216800D01*
X14903600Y212960D01*
X14896400Y205280D01*
X14891600Y193760D01*
X14889200Y178400D01*
X14891600Y163040D01*
X14896400Y151520D01*
X14903600Y143840D01*
X14912000Y140000D01*
X14920400Y141920D01*
X14927600Y147680D01*
X14932400Y155360D01*
G01X14968400Y140000D02*
Y216800D01*
G01Y195680D02*
X14972000Y205280D01*
X14978000Y212960D01*
X14986400Y216800D01*
X14994800Y212960D01*
X15000800Y205280D01*
X15004400Y195680D01*
Y140000D01*
G01Y195680D02*
X15008000Y205280D01*
X15014000Y212960D01*
X15022400Y216800D01*
X15030800Y212960D01*
X15036800Y205280D01*
X15040400Y193760D01*
Y140000D01*
G01X15080000Y153440D02*
X15086000Y145760D01*
X15094400Y140000D01*
X15101600D01*
X15108800Y143840D01*
X15113600Y149600D01*
X15116000Y157280D01*
X15114800Y168800D01*
X15110000Y174560D01*
X15088400Y186080D01*
X15083600Y199520D01*
X15086000Y209120D01*
X15090800Y214880D01*
X15098000Y216800D01*
X15105200Y214880D01*
X15112400Y209120D01*
G01X14034400Y530000D02*
Y645200D01*
X14064400D01*
X14074000Y639440D01*
X14080000Y631760D01*
X14082400Y616400D01*
X14080000Y601040D01*
X14072800Y591440D01*
X14064400Y585680D01*
X14034400D01*
G01X14064400D02*
X14082400Y530000D01*
G01X14128000D02*
Y645200D01*
X14156800D01*
X14166400Y639440D01*
X14173600Y626000D01*
X14176000Y610640D01*
X14173600Y595280D01*
X14167600Y583760D01*
X14156800Y578000D01*
X14128000D01*
G01X14231200Y645200D02*
X14260000D01*
G01X14245600D02*
Y530000D01*
G01X14231200D02*
X14260000D01*
G01X14323600Y568400D02*
X14354800D01*
G01X14459200Y635600D02*
X14452000Y641360D01*
X14443600Y645200D01*
X14434000D01*
X14423200Y639440D01*
X14414800Y629840D01*
X14408800Y618320D01*
X14404000Y599120D01*
X14402800Y581840D01*
X14405200Y564560D01*
X14408800Y553040D01*
X14416000Y541520D01*
X14424400Y533840D01*
X14432800Y530000D01*
X14441200D01*
X14449600Y533840D01*
X14456800Y539600D01*
X14462800Y547280D01*
G01X14495200Y530000D02*
Y645200D01*
X14526400Y549200D01*
X14557600Y645200D01*
Y530000D01*
G01X14605600Y645200D02*
X14634400D01*
G01X14620000D02*
Y530000D01*
G01X14605600D02*
X14634400D01*
G01X14713600D02*
X14704000Y531920D01*
X14695600Y539600D01*
X14688400Y551120D01*
X14683600Y564560D01*
X14681200Y579920D01*
Y595280D01*
X14683600Y610640D01*
X14688400Y624080D01*
X14695600Y635600D01*
X14704000Y643280D01*
X14713600Y645200D01*
X14723200Y643280D01*
X14731600Y635600D01*
X14738800Y624080D01*
X14743600Y610640D01*
X14746000Y595280D01*
Y579920D01*
X14743600Y564560D01*
X14738800Y551120D01*
X14731600Y539600D01*
X14723200Y531920D01*
X14713600Y530000D01*
G01X14870800Y645200D02*
X14900800Y530000D01*
X14930800Y645200D01*
G01X14994400Y530000D02*
Y645200D01*
X14980000Y622160D01*
G01Y530000D02*
X15008800D01*
G01X15088000Y526160D02*
X15085600Y528080D01*
Y531920D01*
X15088000Y533840D01*
X15090400Y531920D01*
Y528080D01*
X15088000Y526160D01*
G01X15158800Y626000D02*
X15166000Y637520D01*
X15174400Y643280D01*
X15184000Y645200D01*
X15196000Y641360D01*
X15204400Y631760D01*
X15206800Y620240D01*
X15205600Y608720D01*
X15200800Y599120D01*
X15176800Y579920D01*
X15166000Y566480D01*
X15158800Y547280D01*
X15156400Y530000D01*
X15206800D01*
G54D17*
X1600000Y1454000D03*
X2328000Y10117000D03*
X6553000Y9283000D03*
X6954000Y10177000D03*
X7823000Y9283000D03*
G54D18*
X2193000Y879000D03*
X3507000D03*
G54D19*
X2500000Y1150000D03*
X2750000D03*
X2950000D03*
X3200000D03*
M02*
