G04 ================== begin FILE IDENTIFICATION RECORD ==================*
G04 Layout Name:  C:/raspberrypi/rpi1/rpi-cmio/board/RPI-CMIO-V1_2-PUBLIC.brd*
G04 Film Name:    RPI-CMIO-V1_2-PUBLIC-L02*
G04 File Format:  Gerber RS274X*
G04 File Origin:  Cadence Allegro 16.6-S029*
G04 Origin Date:  Mon Oct 13 10:37:43 2014*
G04 *
G04 Layer:  VIA CLASS/GNDT*
G04 Layer:  PIN/GNDT*
G04 Layer:  MANUFACTURING/TITLEBLOCK*
G04 Layer:  ETCH/GNDT*
G04 *
G04 Offset:    (0.0000 0.0000)*
G04 Mirror:    No*
G04 Mode:      Positive*
G04 Rotation:  0*
G04 FullContactRelief:  No*
G04 UndefLineWidth:     0.0000*
G04 ================== end FILE IDENTIFICATION RECORD ====================*
%FSLAX35Y35*MOMM*%
%IR0*IPPOS*OFA0.00000B0.00000*MIA0B0*SFA1.00000B1.00000*%
%ADD10C,.5*%
%ADD11O,2.3X1.5*%
%ADD14O,3.3X1.5*%
%ADD12O,1.1X1.8*%
%ADD13O,1.05X1.45*%
%ADD18C,1.*%
%ADD17C,1.5*%
%ADD15C,1.6*%
%ADD16C,3.45*%
%ADD19C,.2*%
%ADD20C,.215*%
%ADD21C,.18*%
%ADD22C,.216*%
%ADD24C,.8004*%
%ADD32O,1.6004X2.3004*%
%ADD31O,2.8004X2.0004*%
%ADD34O,3.8004X2.0004*%
%ADD26C,2.0004*%
%ADD23C,2.1004*%
%ADD27C,2.2004*%
%ADD28C,1.7004*%
%ADD30C,5.6004*%
%ADD29C,5.604*%
%ADD33O,1.5504X1.9504*%
%ADD25C,3.9504*%
G75*
%LPD*%
G75*
G36*
G01X69490Y9957260D02*
G03X542740Y10430510I330510J142740D01*
G02X546760Y10450000I4027J9329D01*
G01X7953240D01*
G02X7957260Y10430510I-7J-10161D01*
G03X8430510Y9957260I142740J-330510D01*
G02X8450000Y9953240I9329J-4027D01*
G01Y546760D01*
G02X8430510Y542740I-10161J7D01*
G03X7957260Y69490I-330510J-142740D01*
G02X7953240Y50000I-4027J-9329D01*
G01X546760D01*
G02X542740Y69490I7J10161D01*
G03X69490Y542740I-142740J330510D01*
G02X50000Y546760I-9329J4027D01*
G01Y9953240D01*
G02X69490Y9957260I10161J-7D01*
G37*
G36*
G01X11647850Y2398650D02*
X11644880Y2397640D01*
X11643260Y2397220D01*
X11641590Y2396850D01*
X11639920Y2396560D01*
X11638300Y2396350D01*
X11636750Y2396230D01*
X11635330Y2396190D01*
X11634080Y2396260D01*
X11620560Y2397070D01*
X11615100Y2397160D01*
X11610410Y2397030D01*
X11606400Y2396680D01*
X11602980Y2396100D01*
X11600080Y2395290D01*
X11597620Y2394240D01*
X11595510Y2392960D01*
X11592920Y2391200D01*
X11591690Y2390540D01*
X11590500Y2390040D01*
X11589340Y2389670D01*
X11588200Y2389430D01*
X11587080Y2389330D01*
X11585970Y2389340D01*
X11584860Y2389470D01*
X11579150Y2389760D01*
X11575890Y2389440D01*
X11572540Y2388860D01*
X11569260Y2388050D01*
X11566180Y2387050D01*
X11563430Y2385890D01*
X11561170Y2384600D01*
X11559520Y2383220D01*
X11557780Y2381750D01*
X11556740Y2381180D01*
X11555540Y2380710D01*
X11554140Y2380340D01*
X11552520Y2380070D01*
X11550640Y2379880D01*
X11548450Y2379770D01*
X11545940Y2379730D01*
X11536850Y2379110D01*
X11532380Y2378350D01*
X11528050Y2377330D01*
X11523900Y2376060D01*
X11520010Y2374570D01*
X11516440Y2372860D01*
X11513250Y2370960D01*
X11510500Y2368900D01*
X11507570Y2366660D01*
X11506060Y2365770D01*
X11504490Y2365010D01*
X11502800Y2364370D01*
X11500980Y2363820D01*
X11498980Y2363370D01*
X11496780Y2362980D01*
X11494340Y2362650D01*
X11480530Y2359510D01*
X11475300Y2356770D01*
X11471170Y2353250D01*
X11468160Y2348950D01*
X11466250Y2343870D01*
X11465450Y2338000D01*
X11465760Y2331350D01*
X11467160Y2323900D01*
X11467980Y2319880D01*
X11468160Y2318230D01*
X11468170Y2316710D01*
X11468000Y2315260D01*
X11467640Y2313780D01*
X11467080Y2312210D01*
X11466320Y2310470D01*
X11465330Y2308480D01*
X11462720Y2302490D01*
X11462030Y2299820D01*
X11461750Y2297240D01*
X11461890Y2294630D01*
X11462440Y2291910D01*
X11463410Y2288960D01*
X11464800Y2285710D01*
X11466610Y2282030D01*
X11468850Y2277500D01*
X11469650Y2275630D01*
X11470230Y2273950D01*
X11470610Y2272420D01*
X11470800Y2270980D01*
X11470810Y2269600D01*
X11470630Y2268220D01*
X11470290Y2266790D01*
X11469740Y2261680D01*
X11469960Y2258900D01*
X11470510Y2255980D01*
X11471380Y2252950D01*
X11472570Y2249820D01*
X11474070Y2246600D01*
X11475880Y2243320D01*
X11478000Y2239970D01*
X11480250Y2236240D01*
X11481140Y2234480D01*
X11481880Y2232770D01*
X11482480Y2231070D01*
X11482930Y2229360D01*
X11483260Y2227630D01*
X11483440Y2225850D01*
X11483510Y2223990D01*
X11484080Y2217540D01*
X11484800Y2214500D01*
X11485820Y2211560D01*
X11487140Y2208710D01*
X11488760Y2205940D01*
X11490680Y2203230D01*
X11492900Y2200560D01*
X11495440Y2197920D01*
X11498030Y2195180D01*
X11499070Y2193860D01*
X11499930Y2192580D01*
X11500640Y2191320D01*
X11501180Y2190090D01*
X11501560Y2188890D01*
X11501790Y2187700D01*
X11501870Y2186530D01*
X11503120Y2179370D01*
X11504650Y2175690D01*
X11506760Y2171990D01*
X11509420Y2168290D01*
X11512610Y2164610D01*
X11516320Y2160990D01*
X11520520Y2157450D01*
X11525190Y2154020D01*
X11527290Y2152420D01*
X11528230Y2151560D01*
X11529070Y2150690D01*
X11529810Y2149830D01*
X11530410Y2149020D01*
X11530860Y2148260D01*
X11531150Y2147600D01*
X11531250Y2147040D01*
X11532450Y2142510D01*
X11533800Y2139730D01*
X11535530Y2136790D01*
X11537530Y2133850D01*
X11539710Y2131030D01*
X11541960Y2128490D01*
X11544190Y2126370D01*
X11546300Y2124820D01*
X11548810Y2123410D01*
X11550240Y2122690D01*
X11551740Y2121980D01*
X11553270Y2121290D01*
X11554790Y2120640D01*
X11556270Y2120060D01*
X11557680Y2119550D01*
X11558970Y2119130D01*
X11562030Y2117910D01*
X11563310Y2117170D01*
X11564450Y2116320D01*
X11565500Y2115330D01*
X11566450Y2114160D01*
X11567350Y2112800D01*
X11568220Y2111220D01*
X11569070Y2109390D01*
X11572360Y2103980D01*
X11574530Y2101540D01*
X11577040Y2099290D01*
X11579870Y2097240D01*
X11583010Y2095390D01*
X11586460Y2093770D01*
X11590200Y2092370D01*
X11594230Y2091210D01*
X11603040Y2089010D01*
X11589640Y2080560D01*
X11565280Y2062640D01*
X11554810Y2053060D01*
X11545440Y2043020D01*
X11537150Y2032480D01*
X11529900Y2021440D01*
X11523670Y2009840D01*
X11518440Y1997660D01*
X11514170Y1984870D01*
X11511160Y1972860D01*
X11509810Y1966180D01*
X11508610Y1959270D01*
X11507570Y1952310D01*
X11506720Y1945480D01*
X11506080Y1938930D01*
X11505680Y1932840D01*
X11505540Y1927390D01*
X11504740Y1920410D01*
X11503790Y1917000D01*
X11502510Y1913720D01*
X11500930Y1910630D01*
X11499090Y1907790D01*
X11497020Y1905250D01*
X11494760Y1903070D01*
X11492320Y1901310D01*
X11485470Y1896100D01*
X11481240Y1892270D01*
X11476720Y1887880D01*
X11472110Y1883130D01*
X11467590Y1878210D01*
X11463360Y1873320D01*
X11459600Y1868650D01*
X11456510Y1864400D01*
X11443690Y1842930D01*
X11438570Y1832180D01*
X11434270Y1821340D01*
X11430800Y1810350D01*
X11428130Y1799150D01*
X11426240Y1787690D01*
X11425120Y1775910D01*
X11424750Y1763750D01*
X11426400Y1740340D01*
X11428470Y1728990D01*
X11431350Y1717880D01*
X11435060Y1707020D01*
X11439570Y1696400D01*
X11444900Y1686030D01*
X11451040Y1675910D01*
X11457980Y1666050D01*
X11462090Y1660210D01*
X11463780Y1657540D01*
X11465240Y1654970D01*
X11466510Y1652480D01*
X11467610Y1650010D01*
X11468560Y1647530D01*
X11469380Y1644990D01*
X11470100Y1642360D01*
X11471560Y1636620D01*
X11472680Y1632660D01*
X11474010Y1628130D01*
X11475510Y1623150D01*
X11477130Y1617830D01*
X11478850Y1612290D01*
X11480620Y1606650D01*
X11482400Y1601030D01*
X11486060Y1589620D01*
X11487820Y1583910D01*
X11489490Y1578350D01*
X11491030Y1573070D01*
X11492410Y1568210D01*
X11493600Y1563880D01*
X11494560Y1560210D01*
X11495260Y1557320D01*
X11500780Y1538220D01*
X11504530Y1528810D01*
X11508920Y1519530D01*
X11513920Y1510410D01*
X11519520Y1501480D01*
X11525700Y1492770D01*
X11532430Y1484320D01*
X11539690Y1476150D01*
X11552930Y1463330D01*
X11559930Y1457350D01*
X11567050Y1451770D01*
X11574160Y1446660D01*
X11581150Y1442110D01*
X11587910Y1438200D01*
X11594330Y1435010D01*
X11600290Y1432620D01*
X11603190Y1431200D01*
X11605260Y1430030D01*
X11607650Y1428600D01*
X11610290Y1426950D01*
X11613130Y1425110D01*
X11616090Y1423120D01*
X11619120Y1421020D01*
X11622140Y1418850D01*
X11641480Y1405620D01*
X11650680Y1399770D01*
X11659640Y1394400D01*
X11668430Y1389450D01*
X11677090Y1384900D01*
X11685690Y1380720D01*
X11694290Y1376860D01*
X11702930Y1373300D01*
X11707830Y1371020D01*
X11710430Y1369580D01*
X11713100Y1367950D01*
X11715820Y1366160D01*
X11718570Y1364230D01*
X11721340Y1362160D01*
X11724090Y1359970D01*
X11726800Y1357690D01*
X11738490Y1347810D01*
X11743760Y1343690D01*
X11748820Y1339990D01*
X11753810Y1336620D01*
X11758880Y1333490D01*
X11764140Y1330510D01*
X11769750Y1327580D01*
X11775830Y1324630D01*
X11792110Y1317680D01*
X11799910Y1315010D01*
X11807660Y1312830D01*
X11815520Y1311110D01*
X11823610Y1309830D01*
X11832090Y1308950D01*
X11841090Y1308450D01*
X11850750Y1308290D01*
X11882580Y1310490D01*
X11897410Y1313420D01*
X11911690Y1317640D01*
X11925550Y1323200D01*
X11939100Y1330150D01*
X11952490Y1338540D01*
X11965840Y1348440D01*
X11979280Y1359890D01*
X11983630Y1363440D01*
X11985980Y1365160D01*
X11988410Y1366830D01*
X11990870Y1368400D01*
X11993330Y1369860D01*
X11995770Y1371180D01*
X11998130Y1372340D01*
X12000400Y1373300D01*
X12014870Y1379490D01*
X12022810Y1383340D01*
X12031040Y1387580D01*
X12039410Y1392140D01*
X12047760Y1396930D01*
X12055950Y1401870D01*
X12063840Y1406870D01*
X12071280Y1411870D01*
X12079630Y1417490D01*
X12084130Y1420390D01*
X12088700Y1423250D01*
X12093220Y1426020D01*
X12097600Y1428630D01*
X12101710Y1431010D01*
X12105460Y1433090D01*
X12108730Y1434820D01*
X12120970Y1441500D01*
X12126710Y1445030D01*
X12132250Y1448730D01*
X12137660Y1452650D01*
X12142970Y1456820D01*
X12148240Y1461280D01*
X12153520Y1466050D01*
X12158860Y1471190D01*
X12175610Y1489720D01*
X12182730Y1499310D01*
X12189090Y1509230D01*
X12194700Y1519530D01*
X12199630Y1530300D01*
X12203900Y1541610D01*
X12207560Y1553530D01*
X12210640Y1566140D01*
X12212320Y1573100D01*
X12213440Y1577310D01*
X12214710Y1581860D01*
X12216100Y1586630D01*
X12217580Y1591510D01*
X12219110Y1596380D01*
X12220670Y1601120D01*
X12222210Y1605620D01*
X12225260Y1614660D01*
X12226720Y1619200D01*
X12228100Y1623620D01*
X12229370Y1627830D01*
X12230500Y1631720D01*
X12231440Y1635190D01*
X12232180Y1638160D01*
X12232680Y1640520D01*
X12233990Y1645540D01*
X12234810Y1647910D01*
X12235760Y1650220D01*
X12236840Y1652480D01*
X12238080Y1654740D01*
X12239470Y1657000D01*
X12241040Y1659290D01*
X12242780Y1661640D01*
X12262120Y1692550D01*
X12269120Y1708610D01*
X12274320Y1725020D01*
X12277720Y1741710D01*
X12279300Y1758650D01*
X12279060Y1775780D01*
X12276990Y1793040D01*
X12273080Y1810400D01*
X12265000Y1832240D01*
X12259610Y1843230D01*
X12253500Y1853980D01*
X12246800Y1864290D01*
X12239660Y1873930D01*
X12232200Y1882690D01*
X12224560Y1890360D01*
X12216890Y1896720D01*
X12208780Y1903540D01*
X12205650Y1906920D01*
X12203110Y1910360D01*
X12201100Y1913930D01*
X12199600Y1917680D01*
X12198570Y1921690D01*
X12197980Y1926010D01*
X12197790Y1930700D01*
X12196790Y1947800D01*
X12195660Y1956560D01*
X12194130Y1965350D01*
X12192220Y1974070D01*
X12189940Y1982640D01*
X12187320Y1990960D01*
X12184360Y1998960D01*
X12181080Y2006550D01*
X12171120Y2025040D01*
X12165390Y2033560D01*
X12159090Y2041660D01*
X12152190Y2049400D01*
X12144630Y2056850D01*
X12136370Y2064060D01*
X12127360Y2071090D01*
X12117550Y2077990D01*
X12112220Y2081530D01*
X12109840Y2083160D01*
X12107720Y2084650D01*
X12105880Y2085970D01*
X12104380Y2087080D01*
X12103260Y2087940D01*
X12102550Y2088540D01*
X12102310Y2088820D01*
X12102800Y2089170D01*
X12103380Y2089410D01*
X12104150Y2089680D01*
X12105100Y2089990D01*
X12106200Y2090320D01*
X12107430Y2090670D01*
X12108770Y2091030D01*
X12110200Y2091390D01*
X12117530Y2094000D01*
X12120860Y2095660D01*
X12123940Y2097540D01*
X12126740Y2099620D01*
X12129230Y2101880D01*
X12131400Y2104310D01*
X12133200Y2106880D01*
X12134630Y2109580D01*
X12136340Y2113040D01*
X12137250Y2114410D01*
X12138250Y2115570D01*
X12139390Y2116590D01*
X12140690Y2117480D01*
X12142200Y2118300D01*
X12143960Y2119080D01*
X12146010Y2119860D01*
X12153500Y2122950D01*
X12156740Y2124820D01*
X12159670Y2126920D01*
X12162300Y2129260D01*
X12164660Y2131860D01*
X12166760Y2134730D01*
X12168610Y2137890D01*
X12170250Y2141350D01*
X12172250Y2145520D01*
X12173370Y2147420D01*
X12174570Y2149220D01*
X12175860Y2150900D01*
X12177230Y2152480D01*
X12178670Y2153950D01*
X12180200Y2155320D01*
X12181820Y2156590D01*
X12188690Y2162350D01*
X12191580Y2165300D01*
X12194100Y2168290D01*
X12196240Y2171300D01*
X12198000Y2174330D01*
X12199370Y2177370D01*
X12200340Y2180390D01*
X12200910Y2183410D01*
X12201610Y2187160D01*
X12202150Y2188880D01*
X12202830Y2190520D01*
X12203670Y2192130D01*
X12204690Y2193730D01*
X12205910Y2195360D01*
X12207340Y2197050D01*
X12208990Y2198830D01*
X12213620Y2204230D01*
X12215390Y2206820D01*
X12216830Y2209400D01*
X12217970Y2212020D01*
X12218810Y2214720D01*
X12219390Y2217560D01*
X12219720Y2220570D01*
X12219830Y2223810D01*
X12220080Y2227260D01*
X12220420Y2228950D01*
X12220920Y2230640D01*
X12221580Y2232370D01*
X12222410Y2234160D01*
X12223430Y2236040D01*
X12224650Y2238030D01*
X12226070Y2240160D01*
X12229990Y2246830D01*
X12231470Y2250160D01*
X12232620Y2253430D01*
X12233430Y2256610D01*
X12233890Y2259660D01*
X12233990Y2262560D01*
X12233710Y2265250D01*
X12233050Y2267700D01*
X12232470Y2269940D01*
X12232410Y2271020D01*
X12232520Y2272140D01*
X12232790Y2273300D01*
X12233250Y2274550D01*
X12233900Y2275910D01*
X12234740Y2277410D01*
X12235800Y2279090D01*
X12239340Y2285680D01*
X12240460Y2288970D01*
X12241150Y2292250D01*
X12241410Y2295540D01*
X12241240Y2298840D01*
X12240650Y2302160D01*
X12239630Y2305490D01*
X12238190Y2308840D01*
X12236410Y2312970D01*
X12235830Y2314640D01*
X12235440Y2316130D01*
X12235240Y2317510D01*
X12235220Y2318840D01*
X12235380Y2320190D01*
X12235690Y2321610D01*
X12236170Y2323170D01*
X12237680Y2329320D01*
X12238020Y2332520D01*
X12238090Y2335720D01*
X12237890Y2338880D01*
X12237430Y2341920D01*
X12236710Y2344790D01*
X12235740Y2347430D01*
X12234520Y2349800D01*
X12230940Y2354310D01*
X12228750Y2356190D01*
X12226270Y2357840D01*
X12223490Y2359240D01*
X12220380Y2360420D01*
X12216940Y2361380D01*
X12213150Y2362120D01*
X12208990Y2362650D01*
X12204590Y2363260D01*
X12202650Y2363660D01*
X12200870Y2364130D01*
X12199250Y2364690D01*
X12197770Y2365320D01*
X12196430Y2366050D01*
X12195210Y2366870D01*
X12194120Y2367800D01*
X12188510Y2372170D01*
X12185550Y2373890D01*
X12182410Y2375340D01*
X12179040Y2376540D01*
X12175390Y2377500D01*
X12171390Y2378240D01*
X12167010Y2378800D01*
X12162170Y2379180D01*
X12155620Y2379740D01*
X12152980Y2380090D01*
X12150700Y2380490D01*
X12148740Y2380970D01*
X12147060Y2381520D01*
X12145610Y2382170D01*
X12144360Y2382920D01*
X12143260Y2383780D01*
X12139210Y2386440D01*
X12136660Y2387540D01*
X12133880Y2388460D01*
X12130940Y2389180D01*
X12127940Y2389680D01*
X12124960Y2389940D01*
X12122080Y2389930D01*
X12119380Y2389650D01*
X12116730Y2389390D01*
X12115500Y2389430D01*
X12114310Y2389610D01*
X12113130Y2389910D01*
X12111940Y2390360D01*
X12110740Y2390950D01*
X12109490Y2391690D01*
X12108180Y2392590D01*
X12102580Y2395490D01*
X12099180Y2396530D01*
X12095490Y2397280D01*
X12091590Y2397740D01*
X12087560Y2397900D01*
X12083490Y2397740D01*
X12079440Y2397260D01*
X12075500Y2396450D01*
X12071160Y2395460D01*
X12069350Y2395250D01*
X12067650Y2395230D01*
X12065940Y2395420D01*
X12064140Y2395810D01*
X12062140Y2396410D01*
X12059840Y2397240D01*
X12057140Y2398280D01*
X12047410Y2402320D01*
X12035840Y2398100D01*
X12030260Y2396160D01*
X12027680Y2395460D01*
X12025150Y2394920D01*
X12022590Y2394520D01*
X12019940Y2394250D01*
X12017110Y2394090D01*
X12014050Y2394040D01*
X12010680Y2394060D01*
X12004130Y2394140D01*
X12001490Y2394030D01*
X11999130Y2393780D01*
X11996970Y2393380D01*
X11994900Y2392810D01*
X11992830Y2392040D01*
X11990660Y2391060D01*
X11988280Y2389840D01*
X11983960Y2387850D01*
X11981900Y2387090D01*
X11979840Y2386490D01*
X11977740Y2386010D01*
X11975560Y2385660D01*
X11973250Y2385420D01*
X11970770Y2385290D01*
X11968080Y2385240D01*
X11959980Y2384740D01*
X11956440Y2384070D01*
X11953150Y2383090D01*
X11950040Y2381760D01*
X11947040Y2380050D01*
X11944070Y2377940D01*
X11941070Y2375390D01*
X11937970Y2372390D01*
X11934410Y2368940D01*
X11932890Y2367710D01*
X11931450Y2366760D01*
X11930020Y2366050D01*
X11928540Y2365560D01*
X11926940Y2365250D01*
X11925150Y2365090D01*
X11923090Y2365040D01*
X11917230Y2364200D01*
X11914230Y2363100D01*
X11911120Y2361500D01*
X11907840Y2359360D01*
X11904350Y2356630D01*
X11900590Y2353300D01*
X11896510Y2349320D01*
X11892060Y2344660D01*
X11882190Y2333080D01*
X11877720Y2327010D01*
X11873530Y2320700D01*
X11869620Y2314130D01*
X11865950Y2307270D01*
X11862510Y2300080D01*
X11859290Y2292540D01*
X11856260Y2284600D01*
X11852030Y2273030D01*
X11847080Y2285700D01*
X11838300Y2305340D01*
X11833360Y2314560D01*
X11828110Y2323280D01*
X11822590Y2331450D01*
X11816840Y2339000D01*
X11810900Y2345880D01*
X11804800Y2352010D01*
X11798600Y2357330D01*
X11793760Y2360890D01*
X11791730Y2362190D01*
X11789870Y2363190D01*
X11788110Y2363940D01*
X11786370Y2364470D01*
X11784590Y2364810D01*
X11782690Y2364990D01*
X11780600Y2365040D01*
X11776590Y2365230D01*
X11774940Y2365520D01*
X11773430Y2365990D01*
X11771990Y2366680D01*
X11770540Y2367630D01*
X11769000Y2368870D01*
X11767300Y2370440D01*
X11765360Y2372390D01*
X11759260Y2377940D01*
X11756300Y2380050D01*
X11753310Y2381760D01*
X11750210Y2383090D01*
X11746950Y2384070D01*
X11743440Y2384740D01*
X11739630Y2385120D01*
X11735430Y2385240D01*
X11730210Y2385420D01*
X11727920Y2385670D01*
X11725770Y2386030D01*
X11723720Y2386520D01*
X11721710Y2387150D01*
X11719690Y2387940D01*
X11717610Y2388890D01*
X11715420Y2390020D01*
X11710890Y2392290D01*
X11708930Y2393050D01*
X11707020Y2393590D01*
X11705060Y2393930D01*
X11702930Y2394090D01*
X11700530D01*
X11697760Y2393950D01*
X11694490Y2393690D01*
X11688730Y2393310D01*
X11686310Y2393290D01*
X11684110Y2393400D01*
X11682080Y2393650D01*
X11680140Y2394030D01*
X11678230Y2394560D01*
X11676300Y2395240D01*
X11674290Y2396080D01*
X11666920Y2398930D01*
X11663760Y2399850D01*
X11660860Y2400430D01*
X11658150Y2400690D01*
X11655560Y2400640D01*
X11653020Y2400270D01*
X11650480Y2399610D01*
X11647850Y2398650D01*
G37*
G36*
G01X12885670Y2215430D02*
X12865310Y2209690D01*
X12855620Y2204970D01*
X12846370Y2199100D01*
X12837670Y2192180D01*
X12829610Y2184280D01*
X12822280Y2175480D01*
X12815780Y2165850D01*
X12810210Y2155460D01*
X12805750Y2145620D01*
X12804150Y2141460D01*
X12802910Y2137530D01*
X12801960Y2133610D01*
X12801260Y2129480D01*
X12800760Y2124930D01*
X12800400Y2119730D01*
X12800130Y2113680D01*
X12800610Y2091990D01*
X12802010Y2082170D01*
X12804230Y2072890D01*
X12807300Y2064060D01*
X12811270Y2055570D01*
X12816170Y2047310D01*
X12822030Y2039190D01*
X12828890Y2031100D01*
X12851000Y2013180D01*
X12863650Y2006830D01*
X12877010Y2002290D01*
X12890850Y1999610D01*
X12904910Y1998840D01*
X12918940Y2000030D01*
X12932680Y2003230D01*
X12945900Y2008490D01*
X12958920Y2014880D01*
X12966050Y2007010D01*
X12973070Y2001270D01*
X12976840Y1999630D01*
X12980700Y1998800D01*
X12984590Y1998780D01*
X12988450Y1999570D01*
X12992220Y2001160D01*
X12995830Y2003560D01*
X12999240Y2006770D01*
X13006120Y2014390D01*
Y2107540D01*
Y2200690D01*
X12999970Y2208060D01*
X12997430Y2210640D01*
X12996030Y2211870D01*
X12994590Y2213000D01*
X12993130Y2214020D01*
X12991710Y2214910D01*
X12990340Y2215620D01*
X12989070Y2216130D01*
X12987930Y2216420D01*
X12982090Y2216570D01*
X12978980Y2215950D01*
X12975860Y2214940D01*
X12972810Y2213570D01*
X12969920Y2211880D01*
X12967280Y2209920D01*
X12964980Y2207740D01*
X12963100Y2205360D01*
X12959170Y2199210D01*
X12948850Y2204870D01*
X12936260Y2210530D01*
X12929460Y2212690D01*
X12922420Y2214370D01*
X12915190Y2215580D01*
X12907840Y2216300D01*
X12900430Y2216520D01*
X12893020Y2216240D01*
X12885670Y2215430D01*
G37*
G36*
G01X12590940Y2297280D02*
X12588200Y2292800D01*
X12587300Y2288040D01*
X12586660Y2280050D01*
X12586230Y2267670D01*
X12585970Y2249740D01*
X12585830Y2225100D01*
X12585780Y2192590D01*
Y2151040D01*
Y2009960D01*
X12593400Y2003570D01*
X12598780Y1999660D01*
X12601290Y1998450D01*
X12603770Y1997710D01*
X12606270Y1997440D01*
X12608850Y1997640D01*
X12611590Y1998280D01*
X12614530Y1999360D01*
X12617730Y2000870D01*
X12624950Y2005900D01*
X12627450Y2009330D01*
X12629340Y2013900D01*
X12630700Y2019970D01*
X12631610Y2027960D01*
X12632150Y2038240D01*
X12632410Y2051200D01*
X12632480Y2067230D01*
Y2115160D01*
X12660260D01*
X12677930Y2114580D01*
X12685030Y2113800D01*
X12691200Y2112620D01*
X12696620Y2111000D01*
X12701450Y2108890D01*
X12705850Y2106250D01*
X12710010Y2103030D01*
X12714090Y2099180D01*
X12717940Y2094990D01*
X12719330Y2092700D01*
X12720470Y2089840D01*
X12721450Y2086080D01*
X12722380Y2081080D01*
X12723320Y2074530D01*
X12724380Y2066090D01*
X12725640Y2055430D01*
X12728180Y2040270D01*
X12729910Y2033780D01*
X12731960Y2027980D01*
X12734350Y2022820D01*
X12737120Y2018250D01*
X12740260Y2014250D01*
X12743800Y2010760D01*
X12747770Y2007750D01*
X12754720Y2004150D01*
X12758230Y2003080D01*
X12761760Y2002510D01*
X12765300Y2002420D01*
X12768850Y2002830D01*
X12772400Y2003740D01*
X12775950Y2005130D01*
X12779480Y2007010D01*
X12787390Y2014230D01*
X12789780Y2018520D01*
X12791120Y2023110D01*
X12791410Y2027880D01*
X12790640Y2032700D01*
X12788810Y2037470D01*
X12785910Y2042050D01*
X12781940Y2046340D01*
X12778310Y2050130D01*
X12777000Y2052080D01*
X12775960Y2054310D01*
X12775110Y2057000D01*
X12774420Y2060340D01*
X12773800Y2064510D01*
X12773220Y2069690D01*
X12772600Y2076080D01*
X12770880Y2091340D01*
X12769740Y2097570D01*
X12768310Y2103150D01*
X12766520Y2108280D01*
X12764310Y2113160D01*
X12761600Y2118010D01*
X12758320Y2123030D01*
X12754400Y2128430D01*
X12745060Y2140230D01*
X12753910Y2149320D01*
X12757330Y2153340D01*
X12759180Y2155820D01*
X12761080Y2158510D01*
X12762960Y2161360D01*
X12764780Y2164280D01*
X12766500Y2167230D01*
X12768050Y2170130D01*
X12769400Y2172910D01*
X12774310Y2187790D01*
X12775770Y2196050D01*
X12776570Y2204630D01*
X12776690Y2213350D01*
X12776140Y2222030D01*
X12774900Y2230510D01*
X12772990Y2238610D01*
X12770380Y2246160D01*
X12763880Y2258440D01*
X12759400Y2264730D01*
X12754310Y2270900D01*
X12748750Y2276810D01*
X12742850Y2282310D01*
X12736780Y2287250D01*
X12730660Y2291470D01*
X12724660Y2294820D01*
X12717460Y2297850D01*
X12713580Y2298890D01*
X12708840Y2299670D01*
X12702710Y2300250D01*
X12694690Y2300670D01*
X12684260Y2300970D01*
X12670900Y2301220D01*
X12654110Y2301460D01*
X12624100Y2301790D01*
X12613920D01*
X12606320Y2301640D01*
X12600850Y2301290D01*
X12597050Y2300710D01*
X12594430Y2299870D01*
X12592550Y2298740D01*
X12590940Y2297280D01*
G37*
G36*
G01X13262260Y2214210D02*
X13254190Y2208830D01*
X13251540Y2203960D01*
X13249630Y2196000D01*
X13248360Y2183740D01*
X13247580Y2165960D01*
X13247190Y2141430D01*
X13247040Y2108920D01*
X13247020Y2067230D01*
X13247180Y1993100D01*
X13247570Y1968530D01*
X13248340Y1950690D01*
X13249590Y1938350D01*
X13251460Y1930300D01*
X13254070Y1925330D01*
X13257550Y1922220D01*
X13262010Y1919760D01*
X13267580Y1917250D01*
X13270100Y1916580D01*
X13272520Y1916310D01*
X13274920Y1916430D01*
X13277360Y1916960D01*
X13279920Y1917890D01*
X13282640Y1919230D01*
X13285610Y1920990D01*
X13291770Y1926380D01*
X13294000Y1930120D01*
X13295720Y1934830D01*
X13296970Y1940710D01*
X13297790Y1947990D01*
X13298240Y1956860D01*
X13298340Y1967530D01*
X13298150Y1980220D01*
X13297890Y1992070D01*
X13297800Y1997380D01*
X13297740Y2002160D01*
X13297700Y2006290D01*
X13297680Y2009680D01*
X13297660Y2012230D01*
Y2013830D01*
Y2014390D01*
X13298710Y2013970D01*
X13299840Y2013480D01*
X13301320Y2012830D01*
X13303100Y2012030D01*
X13305140Y2011110D01*
X13307400Y2010070D01*
X13309840Y2008950D01*
X13312410Y2007750D01*
X13320100Y2004400D01*
X13323560Y2003230D01*
X13327080Y2002350D01*
X13330900Y2001710D01*
X13335260Y2001290D01*
X13340390Y2001030D01*
X13346540Y2000900D01*
X13353950Y2000870D01*
X13367870Y2001010D01*
X13373050Y2001270D01*
X13377440Y2001720D01*
X13381320Y2002420D01*
X13384990Y2003420D01*
X13388760Y2004770D01*
X13392890Y2006520D01*
X13397700Y2008730D01*
X13434780Y2037620D01*
X13447240Y2056590D01*
X13455470Y2077520D01*
X13459340Y2099650D01*
X13458700Y2122190D01*
X13453430Y2144360D01*
X13443380Y2165380D01*
X13428430Y2184470D01*
X13418340Y2193440D01*
X13412660Y2197660D01*
X13406730Y2201600D01*
X13400650Y2205210D01*
X13394550Y2208390D01*
X13388540Y2211080D01*
X13382750Y2213210D01*
X13377300Y2214700D01*
X13362130Y2216590D01*
X13354070Y2216650D01*
X13345860Y2216140D01*
X13337650Y2215080D01*
X13329580Y2213480D01*
X13321770Y2211350D01*
X13314360Y2208720D01*
X13307490Y2205600D01*
X13297900Y2200690D01*
X13292740Y2207320D01*
X13287250Y2212200D01*
X13283960Y2213970D01*
X13280430Y2215270D01*
X13276750Y2216090D01*
X13273000Y2216410D01*
X13269280Y2216210D01*
X13265670Y2215480D01*
X13262260Y2214210D01*
G37*
G36*
G01X13113050Y2215680D02*
X13095470Y2211410D01*
X13087180Y2207920D01*
X13079370Y2203610D01*
X13072160Y2198570D01*
X13065670Y2192890D01*
X13060000Y2186620D01*
X13055270Y2179860D01*
X13051600Y2172670D01*
X13049080Y2163850D01*
X13048390Y2158930D01*
X13048080Y2153850D01*
X13048140Y2148730D01*
X13048570Y2143720D01*
X13049380Y2138950D01*
X13050550Y2134540D01*
X13052090Y2130640D01*
X13056660Y2123140D01*
X13059680Y2119290D01*
X13063080Y2115480D01*
X13066790Y2111800D01*
X13070710Y2108320D01*
X13074790Y2105130D01*
X13078930Y2102300D01*
X13083060Y2099920D01*
X13088140Y2097890D01*
X13091740Y2096630D01*
X13095890Y2095260D01*
X13100500Y2093810D01*
X13105440Y2092310D01*
X13110600Y2090800D01*
X13115880Y2089310D01*
X13121160Y2087870D01*
X13138290Y2083200D01*
X13144940Y2080980D01*
X13150420Y2078800D01*
X13154810Y2076610D01*
X13158180Y2074370D01*
X13160610Y2072040D01*
X13162170Y2069590D01*
X13162950Y2066980D01*
X13161970Y2062020D01*
X13160340Y2059570D01*
X13158020Y2057210D01*
X13155070Y2054980D01*
X13151550Y2052930D01*
X13147520Y2051100D01*
X13143020Y2049540D01*
X13138120Y2048300D01*
X13127060Y2047030D01*
X13121510Y2047290D01*
X13115880Y2048180D01*
X13110120Y2049690D01*
X13104180Y2051850D01*
X13098010Y2054670D01*
X13091560Y2058150D01*
X13084780Y2062310D01*
X13075370Y2067660D01*
X13071260Y2069310D01*
X13067480Y2070300D01*
X13063980Y2070630D01*
X13060690Y2070310D01*
X13057570Y2069340D01*
X13054550Y2067740D01*
X13051600Y2065510D01*
X13044500Y2056350D01*
X13042860Y2051500D01*
X13042470Y2046540D01*
X13043330Y2041520D01*
X13045420Y2036510D01*
X13048740Y2031550D01*
X13053250Y2026690D01*
X13058970Y2022010D01*
X13087540Y2006630D01*
X13102510Y2002040D01*
X13117620Y1999530D01*
X13132640Y1999100D01*
X13147350Y2000760D01*
X13161520Y2004510D01*
X13174910Y2010360D01*
X13187290Y2018320D01*
X13194070Y2024970D01*
X13197460Y2029330D01*
X13200730Y2034160D01*
X13203760Y2039270D01*
X13206440Y2044500D01*
X13208680Y2049660D01*
X13210360Y2054600D01*
X13211380Y2059120D01*
X13211640Y2068450D01*
X13210930Y2073650D01*
X13209720Y2079000D01*
X13208070Y2084380D01*
X13206000Y2089650D01*
X13203580Y2094660D01*
X13200850Y2099280D01*
X13197860Y2103360D01*
X13189070Y2111270D01*
X13183140Y2115170D01*
X13176340Y2118990D01*
X13168740Y2122650D01*
X13160460Y2126120D01*
X13151580Y2129330D01*
X13142220Y2132250D01*
X13132470Y2134820D01*
X13117300Y2138980D01*
X13111150Y2141100D01*
X13105960Y2143240D01*
X13101760Y2145390D01*
X13098560Y2147540D01*
X13096380Y2149700D01*
X13095220Y2151850D01*
X13095110Y2153990D01*
X13098230Y2158290D01*
X13101310Y2160560D01*
X13105110Y2162770D01*
X13109410Y2164810D01*
X13113970Y2166590D01*
X13118580Y2167980D01*
X13123020Y2168900D01*
X13127060Y2169230D01*
X13131590Y2168720D01*
X13134270Y2168100D01*
X13137210Y2167230D01*
X13140380Y2166130D01*
X13143780Y2164790D01*
X13147370Y2163210D01*
X13151150Y2161420D01*
X13155080Y2159400D01*
X13162180Y2155970D01*
X13165650Y2154440D01*
X13168960Y2153070D01*
X13172050Y2151880D01*
X13174840Y2150910D01*
X13177250Y2150180D01*
X13179210Y2149720D01*
X13180650Y2149570D01*
X13190140Y2152120D01*
X13194090Y2155020D01*
X13197360Y2158750D01*
X13199860Y2163130D01*
X13201460Y2167950D01*
X13202060Y2173040D01*
X13201550Y2178200D01*
X13199820Y2183240D01*
X13191930Y2192620D01*
X13185730Y2197360D01*
X13178430Y2201910D01*
X13170360Y2206120D01*
X13161800Y2209840D01*
X13153090Y2212900D01*
X13144520Y2215140D01*
X13136400Y2216420D01*
X13131770Y2216640D01*
X13129150Y2216660D01*
X13126400Y2216640D01*
X13123600Y2216550D01*
X13120800Y2216420D01*
X13118060Y2216230D01*
X13115460Y2215980D01*
X13113050Y2215680D01*
G37*
G36*
G01X13817800Y2215430D02*
X13796760Y2209550D01*
X13786700Y2204650D01*
X13777090Y2198540D01*
X13768020Y2191320D01*
X13759590Y2183050D01*
X13751900Y2173810D01*
X13745050Y2163690D01*
X13739140Y2152760D01*
X13734520Y2142510D01*
X13732960Y2138420D01*
X13731810Y2134590D01*
X13731010Y2130690D01*
X13730490Y2126380D01*
X13730200Y2121350D01*
X13730080Y2115260D01*
X13730050Y2107780D01*
X13730200Y2094330D01*
X13730480Y2089320D01*
X13730990Y2085050D01*
X13731770Y2081180D01*
X13732890Y2077410D01*
X13734410Y2073430D01*
X13736390Y2068910D01*
X13738900Y2063540D01*
X13754550Y2037970D01*
X13763680Y2027630D01*
X13773690Y2018910D01*
X13784590Y2011800D01*
X13796380Y2006300D01*
X13809080Y2002410D01*
X13822690Y2000100D01*
X13837220Y1999390D01*
X13856760Y2000650D01*
X13865760Y2002240D01*
X13874290Y2004500D01*
X13882400Y2007430D01*
X13890140Y2011050D01*
X13897530Y2015370D01*
X13904620Y2020410D01*
X13911460Y2026180D01*
X13915920Y2032260D01*
X13917310Y2035760D01*
X13918120Y2039420D01*
X13918350Y2043120D01*
X13917980Y2046760D01*
X13917000Y2050220D01*
X13915400Y2053390D01*
X13913180Y2056170D01*
X13907440Y2059670D01*
X13903850Y2060600D01*
X13899900Y2061000D01*
X13895680Y2060850D01*
X13891290Y2060170D01*
X13886830Y2058960D01*
X13882370Y2057220D01*
X13878030Y2054940D01*
X13873530Y2052740D01*
X13870940Y2051620D01*
X13868230Y2050520D01*
X13865450Y2049480D01*
X13862660Y2048510D01*
X13859930Y2047650D01*
X13857330Y2046920D01*
X13854920Y2046340D01*
X13834250Y2045420D01*
X13824130Y2047390D01*
X13814480Y2050820D01*
X13805540Y2055570D01*
X13797550Y2061500D01*
X13790740Y2068500D01*
X13785370Y2076440D01*
X13781670Y2085170D01*
X13780190Y2090580D01*
X13850990D01*
X13886630Y2090660D01*
X13899020Y2090810D01*
X13908470Y2091090D01*
X13915500Y2091520D01*
X13920620Y2092140D01*
X13924340Y2092990D01*
X13927180Y2094090D01*
X13929650Y2095490D01*
X13935460Y2100570D01*
X13937450Y2103770D01*
X13938830Y2107460D01*
X13939610Y2111680D01*
X13939790Y2116470D01*
X13939380Y2121850D01*
X13938370Y2127880D01*
X13936780Y2134570D01*
X13932570Y2148570D01*
X13930190Y2154750D01*
X13927560Y2160500D01*
X13924650Y2165890D01*
X13921410Y2171000D01*
X13917790Y2175910D01*
X13913750Y2180700D01*
X13909250Y2185450D01*
X13891970Y2199840D01*
X13882590Y2205400D01*
X13872750Y2209870D01*
X13862490Y2213230D01*
X13851830Y2215470D01*
X13840810Y2216590D01*
X13829460Y2216580D01*
X13817800Y2215430D01*
G37*
G36*
G01X13497510Y2294820D02*
X13490380Y2287690D01*
Y2152020D01*
X13490470Y2073080D01*
X13490820Y2047500D01*
X13491580Y2029330D01*
X13492900Y2017170D01*
X13494930Y2009620D01*
X13497830Y2005270D01*
X13501750Y2002740D01*
X13506850Y2000620D01*
X13513220Y1998880D01*
X13516360Y1998790D01*
X13519460Y1999210D01*
X13522490Y2000130D01*
X13525440Y2001550D01*
X13528290Y2003460D01*
X13531030Y2005860D01*
X13533640Y2008730D01*
X13539050Y2015120D01*
X13552570Y2008490D01*
X13588100Y1999100D01*
X13606000Y1999330D01*
X13623490Y2002640D01*
X13640190Y2008910D01*
X13655720Y2017970D01*
X13669690Y2029700D01*
X13681730Y2043960D01*
X13691450Y2060590D01*
X13700250Y2088810D01*
X13701710Y2103450D01*
X13701260Y2118130D01*
X13698950Y2132620D01*
X13694800Y2146690D01*
X13688870Y2160090D01*
X13681190Y2172600D01*
X13671790Y2183970D01*
X13657180Y2196820D01*
X13649380Y2202050D01*
X13641270Y2206490D01*
X13632850Y2210110D01*
X13624140Y2212920D01*
X13615140Y2214910D01*
X13605860Y2216080D01*
X13596320Y2216420D01*
X13583730Y2215240D01*
X13576640Y2214030D01*
X13569500Y2212520D01*
X13562670Y2210810D01*
X13556520Y2208970D01*
X13551400Y2207100D01*
X13547660Y2205300D01*
X13545690Y2203640D01*
X13543030Y2201150D01*
X13542020Y2202020D01*
X13541200Y2204440D01*
X13540560Y2208550D01*
X13540100Y2214430D01*
X13539780Y2222220D01*
X13539600Y2232020D01*
X13539540Y2243940D01*
X13539470Y2266600D01*
X13539300Y2274270D01*
X13538980Y2280030D01*
X13538440Y2284280D01*
X13537650Y2287440D01*
X13536530Y2289900D01*
X13535050Y2292060D01*
X13533150Y2294330D01*
X13529840Y2297870D01*
X13528300Y2299150D01*
X13526720Y2300140D01*
X13525040Y2300880D01*
X13523170Y2301390D01*
X13521040Y2301720D01*
X13518580Y2301900D01*
X13515700Y2301950D01*
X13510510Y2301700D01*
X13508360Y2301360D01*
X13506410Y2300840D01*
X13504610Y2300120D01*
X13502880Y2299180D01*
X13501160Y2298000D01*
X13499390Y2296550D01*
X13497510Y2294820D01*
G37*
G36*
G01X14132200Y2210760D02*
X14130190Y2208640D01*
X14129180Y2207400D01*
X14128190Y2206070D01*
X14127250Y2204700D01*
X14126370Y2203320D01*
X14125580Y2201960D01*
X14124900Y2200660D01*
X14124340Y2199460D01*
X14123560Y2192030D01*
X14123220Y2184740D01*
X14122910Y2175410D01*
X14122640Y2164300D01*
X14122420Y2151670D01*
X14122260Y2137780D01*
X14122160Y2122900D01*
X14122120Y2107290D01*
X14122370Y2056550D01*
X14122840Y2039280D01*
X14123680Y2026400D01*
X14125000Y2017130D01*
X14126890Y2010710D01*
X14129480Y2006370D01*
X14132850Y2003340D01*
X14137120Y2000870D01*
X14142030Y1998450D01*
X14144050Y1997750D01*
X14145950Y1997410D01*
X14147840D01*
X14149850Y1997750D01*
X14152090Y1998450D01*
X14154690Y1999480D01*
X14157770Y2000870D01*
X14164430Y2005240D01*
X14166730Y2008310D01*
X14168460Y2012430D01*
X14169690Y2017970D01*
X14170510Y2025300D01*
X14171000Y2034770D01*
X14171230Y2046740D01*
X14171290Y2061580D01*
Y2105820D01*
X14178910Y2122040D01*
X14189080Y2139360D01*
X14194900Y2146780D01*
X14201100Y2153270D01*
X14207590Y2158750D01*
X14214290Y2163160D01*
X14221090Y2166430D01*
X14227930Y2168480D01*
X14234710Y2169230D01*
X14246430Y2172820D01*
X14250930Y2176790D01*
X14254360Y2181770D01*
X14256590Y2187410D01*
X14257490Y2193370D01*
X14256930Y2199310D01*
X14254780Y2204900D01*
X14250930Y2209780D01*
X14240410Y2214940D01*
X14233500Y2215920D01*
X14225790Y2215860D01*
X14217510Y2214820D01*
X14208870Y2212820D01*
X14200100Y2209900D01*
X14191430Y2206090D01*
X14183080Y2201420D01*
X14177930Y2198240D01*
X14175980Y2197190D01*
X14174420Y2196490D01*
X14173210Y2196120D01*
X14172320Y2196070D01*
X14171730Y2196330D01*
X14171390Y2196890D01*
X14171290Y2197740D01*
X14170840Y2199570D01*
X14170310Y2200710D01*
X14169610Y2201970D01*
X14168750Y2203300D01*
X14167750Y2204670D01*
X14166640Y2206070D01*
X14165440Y2207460D01*
X14164160Y2208800D01*
X14157450Y2213520D01*
X14153740Y2214990D01*
X14149920Y2215850D01*
X14146070Y2216090D01*
X14142290Y2215720D01*
X14138660Y2214710D01*
X14135260Y2213060D01*
X14132200Y2210760D01*
G37*
G36*
G01X13975620Y2211500D02*
X13969990Y2205690D01*
X13968110Y2201430D01*
X13966760Y2195240D01*
X13965830Y2186310D01*
X13965260Y2173890D01*
X13964950Y2157180D01*
X13964820Y2135400D01*
X13964800Y2107780D01*
X13964990Y2055820D01*
X13965410Y2038390D01*
X13966200Y2025550D01*
X13967470Y2016460D01*
X13969350Y2010290D01*
X13971950Y2006190D01*
X13975400Y2003330D01*
X13979800Y2000870D01*
X13986390Y1998520D01*
X13989680Y1998160D01*
X13992940Y1998360D01*
X13996130Y1999090D01*
X13999240Y2000380D01*
X14002240Y2002210D01*
X14005110Y2004580D01*
X14007820Y2007500D01*
X14011070Y2011840D01*
X14012140Y2014320D01*
X14012910Y2017580D01*
X14013420Y2022050D01*
X14013740Y2028130D01*
X14013900Y2036260D01*
X14013960Y2046860D01*
Y2060350D01*
Y2106060D01*
X14022320Y2123510D01*
X14032400Y2140450D01*
X14038130Y2147650D01*
X14044210Y2153920D01*
X14050580Y2159210D01*
X14057150Y2163440D01*
X14063860Y2166560D01*
X14070630Y2168510D01*
X14077380Y2169230D01*
X14081220Y2169540D01*
X14082980Y2169950D01*
X14084670Y2170540D01*
X14086310Y2171340D01*
X14087930Y2172360D01*
X14089540Y2173610D01*
X14091180Y2175100D01*
X14092870Y2176850D01*
X14097880Y2184060D01*
X14099330Y2187840D01*
X14100100Y2191670D01*
X14100160Y2195500D01*
X14099520Y2199280D01*
X14098170Y2202950D01*
X14096120Y2206470D01*
X14093360Y2209780D01*
X14089610Y2213190D01*
X14087870Y2214310D01*
X14086010Y2215090D01*
X14083850Y2215590D01*
X14081240Y2215830D01*
X14078000Y2215850D01*
X14073990Y2215710D01*
X14069030Y2215430D01*
X14056700Y2213600D01*
X14050270Y2212020D01*
X14043880Y2210070D01*
X14037700Y2207820D01*
X14031900Y2205330D01*
X14026630Y2202650D01*
X14022080Y2199860D01*
X14018390Y2197000D01*
X14016140Y2195090D01*
X14015380Y2194550D01*
X14014820Y2194290D01*
X14014430Y2194310D01*
X14014180Y2194620D01*
X14014040Y2195200D01*
X14013980Y2196080D01*
X14013960Y2197250D01*
X14013520Y2199240D01*
X14012990Y2200460D01*
X14012290Y2201780D01*
X14011430Y2203170D01*
X14010430Y2204600D01*
X14009320Y2206040D01*
X14008120Y2207450D01*
X14006840Y2208800D01*
X14000390Y2213300D01*
X13996770Y2214740D01*
X13993030Y2215630D01*
X13989240Y2215960D01*
X13985510Y2215720D01*
X13981940Y2214900D01*
X13978610Y2213500D01*
X13975620Y2211500D01*
G37*
G36*
G01X14287800Y2214450D02*
X14280750Y2210000D01*
X14278420Y2206700D01*
X14276770Y2201890D01*
X14275680Y2194940D01*
X14275060Y2185250D01*
X14274810Y2172200D01*
X14274830Y2155180D01*
X14275020Y2133590D01*
X14275480Y2098570D01*
X14275780Y2086660D01*
X14276190Y2077640D01*
X14276790Y2070880D01*
X14277620Y2065740D01*
X14278760Y2061580D01*
X14280250Y2057790D01*
X14282150Y2053710D01*
X14294360Y2034030D01*
X14301790Y2025720D01*
X14310020Y2018480D01*
X14318990Y2012360D01*
X14328640Y2007390D01*
X14338900Y2003630D01*
X14349730Y2001120D01*
X14361060Y1999880D01*
X14369250Y1999780D01*
X14373000Y1999890D01*
X14376540Y2000120D01*
X14379880Y2000470D01*
X14383030Y2000940D01*
X14386020Y2001530D01*
X14388850Y2002240D01*
X14391540Y2003080D01*
X14395640Y2004400D01*
X14397520Y2004940D01*
X14399230Y2005380D01*
X14400750Y2005730D01*
X14402020Y2005970D01*
X14403030Y2006110D01*
X14403720Y2006130D01*
X14404070Y2006030D01*
X14402880Y2002130D01*
X14400540Y1998880D01*
X14397380Y1995140D01*
X14393640Y1991150D01*
X14389580Y1987200D01*
X14385450Y1983560D01*
X14381520Y1980490D01*
X14378020Y1978260D01*
X14368290Y1974580D01*
X14362840Y1973440D01*
X14357160Y1972760D01*
X14351360Y1972560D01*
X14345590Y1972830D01*
X14339950Y1973580D01*
X14334580Y1974810D01*
X14329590Y1976540D01*
X14317990Y1979080D01*
X14312550Y1978680D01*
X14307550Y1977280D01*
X14303130Y1974950D01*
X14299440Y1971770D01*
X14296620Y1967800D01*
X14294820Y1963140D01*
X14294190Y1957860D01*
X14295270Y1950100D01*
X14296650Y1946640D01*
X14298610Y1943450D01*
X14301170Y1940500D01*
X14304350Y1937780D01*
X14308170Y1935270D01*
X14312640Y1932950D01*
X14317790Y1930820D01*
X14330890Y1926810D01*
X14337330Y1925490D01*
X14343700Y1924610D01*
X14350010Y1924180D01*
X14356270Y1924190D01*
X14362480Y1924650D01*
X14368670Y1925550D01*
X14374820Y1926890D01*
X14395830Y1934140D01*
X14405170Y1938920D01*
X14413760Y1944500D01*
X14421620Y1950890D01*
X14428790Y1958110D01*
X14435290Y1966170D01*
X14441130Y1975090D01*
X14446350Y1984890D01*
X14455200Y2003330D01*
X14455940Y2101150D01*
X14456210Y2158700D01*
X14455960Y2177570D01*
X14455270Y2191160D01*
X14453990Y2200480D01*
X14451990Y2206520D01*
X14449120Y2210280D01*
X14445240Y2212760D01*
X14440210Y2214940D01*
X14436050Y2216470D01*
X14434310Y2216920D01*
X14432690Y2217150D01*
X14431130Y2217170D01*
X14429560Y2216980D01*
X14427890Y2216590D01*
X14426050Y2215990D01*
X14423980Y2215190D01*
X14416850Y2210980D01*
X14414420Y2207750D01*
X14412610Y2203080D01*
X14411320Y2196440D01*
X14410440Y2187320D01*
X14409860Y2175170D01*
X14409500Y2159480D01*
X14409240Y2139730D01*
X14408750Y2108600D01*
X14408450Y2097910D01*
X14408050Y2089790D01*
X14407490Y2083700D01*
X14406740Y2079140D01*
X14405750Y2075590D01*
X14404460Y2072530D01*
X14402840Y2069440D01*
X14391990Y2057120D01*
X14385150Y2052850D01*
X14377640Y2049890D01*
X14369700Y2048290D01*
X14361550Y2048100D01*
X14353390Y2049360D01*
X14345450Y2052120D01*
X14337950Y2056410D01*
X14330130Y2063300D01*
X14327440Y2067490D01*
X14325410Y2072980D01*
X14323930Y2080330D01*
X14322890Y2090150D01*
X14322170Y2103010D01*
X14321650Y2119510D01*
X14321230Y2140230D01*
X14320000Y2203640D01*
X14313860Y2209540D01*
X14308380Y2213840D01*
X14305570Y2215290D01*
X14302730Y2216280D01*
X14299840Y2216810D01*
X14296910Y2216890D01*
X14293920Y2216520D01*
X14290890Y2215710D01*
X14287800Y2214450D01*
G37*
G36*
G01X14625800Y2299000D02*
X14620820Y2293100D01*
X14619160Y2287790D01*
X14617960Y2279370D01*
X14617130Y2266660D01*
X14616620Y2248510D01*
X14616350Y2223760D01*
X14616230Y2191250D01*
X14616210Y2149810D01*
Y2014390D01*
X14623340Y2006520D01*
X14626930Y2002820D01*
X14628580Y2001470D01*
X14630210Y2000410D01*
X14631920Y1999610D01*
X14633760Y1999040D01*
X14635800Y1998670D01*
X14638120Y1998470D01*
X14640790Y1998410D01*
X14645790Y1998670D01*
X14647830Y1999040D01*
X14649670Y1999610D01*
X14651370Y2000410D01*
X14653010Y2001470D01*
X14654660Y2002820D01*
X14656380Y2004500D01*
X14658250Y2006520D01*
X14665380Y2014390D01*
Y2064770D01*
Y2115160D01*
X14692170D01*
X14702190Y2115320D01*
X14707290Y2115520D01*
X14712290Y2115780D01*
X14717080Y2116080D01*
X14721540Y2116430D01*
X14725550Y2116810D01*
X14728990Y2117210D01*
X14731750Y2117610D01*
X14757370Y2125860D01*
X14768640Y2132130D01*
X14778810Y2139750D01*
X14787800Y2148630D01*
X14795550Y2158720D01*
X14801980Y2169950D01*
X14807040Y2182240D01*
X14810650Y2195530D01*
X14811400Y2220860D01*
X14808730Y2233590D01*
X14804220Y2245990D01*
X14798000Y2257820D01*
X14790200Y2268800D01*
X14780980Y2278690D01*
X14770460Y2287200D01*
X14758780Y2294080D01*
X14750940Y2297610D01*
X14747020Y2298780D01*
X14742350Y2299650D01*
X14736340Y2300260D01*
X14728430Y2300690D01*
X14718040Y2300990D01*
X14704580Y2301230D01*
X14687500Y2301460D01*
X14662500Y2301500D01*
X14652820Y2301420D01*
X14644840Y2301260D01*
X14638420Y2301020D01*
X14633440Y2300670D01*
X14629760Y2300230D01*
X14627260Y2299670D01*
X14625800Y2299000D01*
G37*
G36*
G01X14839410Y2209780D02*
X14837150Y2207140D01*
X14836060Y2205610D01*
X14835040Y2204000D01*
X14834100Y2202340D01*
X14833260Y2200680D01*
X14832540Y2199040D01*
X14831960Y2197480D01*
X14831550Y2196020D01*
X14831060Y2188020D01*
X14830840Y2180620D01*
X14830630Y2171300D01*
X14830440Y2160320D01*
X14830290Y2147920D01*
X14830170Y2134370D01*
X14830100Y2119920D01*
X14830070Y2104830D01*
X14830170Y2065410D01*
X14830330Y2051030D01*
X14830580Y2039640D01*
X14830950Y2030830D01*
X14831460Y2024200D01*
X14832120Y2019320D01*
X14832960Y2015780D01*
X14834000Y2013160D01*
X14840200Y2004840D01*
X14844250Y2001980D01*
X14848720Y2000020D01*
X14853440Y1999000D01*
X14858260Y1998940D01*
X14863000Y1999870D01*
X14867510Y2001810D01*
X14871610Y2004800D01*
X14874350Y2008570D01*
X14875250Y2012150D01*
X14875890Y2017900D01*
X14876320Y2026640D01*
X14876590Y2039160D01*
X14876720Y2056240D01*
X14876770Y2078680D01*
X14876780Y2107290D01*
X14876640Y2141380D01*
X14876490Y2156770D01*
X14876280Y2170670D01*
X14876030Y2182780D01*
X14875760Y2192820D01*
X14875450Y2200490D01*
X14875140Y2205510D01*
X14874810Y2207570D01*
X14868690Y2212830D01*
X14864650Y2214480D01*
X14860230Y2215450D01*
X14855630Y2215740D01*
X14851050Y2215330D01*
X14846680Y2214200D01*
X14842740Y2212360D01*
X14839410Y2209780D01*
G37*
G36*
G01X14841620Y2299250D02*
X14838080Y2295890D01*
X14836340Y2293360D01*
X14834680Y2290450D01*
X14833190Y2287280D01*
X14831920Y2283990D01*
X14830930Y2280700D01*
X14830300Y2277550D01*
X14830070Y2274670D01*
X14832360Y2264260D01*
X14834970Y2259470D01*
X14838330Y2255170D01*
X14842280Y2251510D01*
X14846640Y2248650D01*
X14851250Y2246740D01*
X14855950Y2245940D01*
X14860550Y2246400D01*
X14867660Y2249110D01*
X14870330Y2251010D01*
X14872480Y2253380D01*
X14874140Y2256290D01*
X14875360Y2259820D01*
X14876170Y2264050D01*
X14876630Y2269060D01*
X14876780Y2274910D01*
X14876610Y2282900D01*
X14876380Y2286000D01*
X14876020Y2288610D01*
X14875530Y2290800D01*
X14874880Y2292660D01*
X14874070Y2294270D01*
X14873060Y2295700D01*
X14871860Y2297030D01*
X14866740Y2300000D01*
X14863310Y2300990D01*
X14859530Y2301640D01*
X14855590Y2301920D01*
X14851650Y2301840D01*
X14847890Y2301370D01*
X14844490Y2300510D01*
X14841620Y2299250D01*
G37*
%LPC*%
G75*
G36*
G01X2455990Y3223300D02*
G02X2421180Y3234490I-28300J-28297D01*
G03X2426710Y3251700I-1653J10024D01*
G02X2461520Y3240510I28300J28297D01*
G03X2455990Y3223300I1653J-10024D01*
G37*
G36*
G01X2099040Y3443810D02*
G02X2068810Y3474040I-39040J-8810D01*
G03X2080960Y3486190I2243J9907D01*
G02Y3503810I39040J8810D01*
G03X2068810Y3515960I-9907J2243D01*
G02X2099040Y3546190I-8810J39040D01*
G03X2111190Y3534040I9907J-2243D01*
G02Y3455960I8810J-39040D01*
G03X2099040Y3443810I-2243J-9907D01*
G37*
G36*
G01X3829040Y3473810D02*
G02X3798810Y3504040I-39040J-8810D01*
G03X3810960Y3516190I2243J9907D01*
G02X3841190Y3485960I39040J8810D01*
G03X3829040Y3473810I-2243J-9907D01*
G37*
G36*
G01X394850Y3959580D02*
G02X375330Y3930300I20150J-34580D01*
G03X360150Y3940420I-10069J1341D01*
G02X379670Y3969700I-20150J34580D01*
G03X394850Y3959580I10069J-1341D01*
G37*
G36*
G01X1901830Y5676490D02*
G02X1858170I-21830J-33540D01*
G03Y5693520I-5545J8515D01*
G02X1901830I21830J33540D01*
G03Y5676490I5545J-8515D01*
G37*
G36*
G01Y5856490D02*
G02X1858170I-21830J-33540D01*
G03Y5873520I-5545J8515D01*
G02X1901830I21830J33540D01*
G03Y5856490I5545J-8515D01*
G37*
G36*
G01X1807580Y6088290D02*
G02X1776710Y6057420I8280J-39150D01*
G03X1764660Y6069470I-9941J2109D01*
G02X1795530Y6100340I-8280J39150D01*
G03X1807580Y6088290I9941J-2109D01*
G37*
G36*
G01X722830Y6388040D02*
G02X691960Y6357170I8280J-39150D01*
G03X679910Y6369220I-9941J2109D01*
G02X710780Y6400090I-8280J39150D01*
G03X722830Y6388040I9941J-2109D01*
G37*
G36*
G01X357520Y6541490D02*
G02X313860I-21830J-33540D01*
G03Y6558520I-5545J8515D01*
G02X357520I21830J33540D01*
G03Y6541490I5545J-8515D01*
G37*
G36*
G01X2466830Y6563370D02*
G02X2434260Y6594480I-39134J-8367D01*
G03X2445870Y6606630I1674J10022D01*
G02X2478440Y6575520I39134J8367D01*
G03X2466830Y6563370I-1674J-10022D01*
G37*
G36*
G01X327520Y6841480D02*
G02X283860I-21830J-33540D01*
G03Y6858510I-5545J8515D01*
G02X327520I21830J33540D01*
G03Y6841480I5545J-8515D01*
G37*
G36*
G01X2484040Y7103810D02*
G02X2453810Y7134040I-39040J-8810D01*
G03X2465960Y7146190I2242J9908D01*
G02X2496190Y7115960I39040J8810D01*
G03X2484040Y7103810I-2242J-9908D01*
G37*
G36*
G01Y8183810D02*
G02X2453810Y8214040I-39040J-8810D01*
G03X2465960Y8226190I2242J9908D01*
G02X2496190Y8195960I39040J8810D01*
G03X2484040Y8183810I-2242J-9908D01*
G37*
G36*
G01X1541830Y8341490D02*
G02X1498170I-21830J-33540D01*
G03Y8358520I-5545J8515D01*
G02X1541830I21830J33540D01*
G03Y8341490I5545J-8515D01*
G37*
G36*
G01X2509040Y8363810D02*
G02X2478810Y8394040I-39040J-8810D01*
G03X2490960Y8406190I2242J9908D01*
G02X2521190Y8375960I39040J8810D01*
G03X2509040Y8363810I-2242J-9908D01*
G37*
G36*
G01X718600Y8491480D02*
G02X674940I-21830J-33540D01*
G03Y8508510I-5545J8515D01*
G02X718600I21830J33540D01*
G03Y8491480I5545J-8515D01*
G37*
G36*
G01X2504190Y8543110D02*
G02X2469670Y8574750I-39191J-8108D01*
G03X2480810Y8586890I1191J10088D01*
G02X2515330Y8555250I39191J8108D01*
G03X2504190Y8543110I-1191J-10088D01*
G37*
G36*
G01X1306830Y8641480D02*
G02X1263170I-21830J-33540D01*
G03Y8658510I-5545J8515D01*
G02X1306830I21830J33540D01*
G03Y8641480I5545J-8515D01*
G37*
G36*
G01X718600Y8791490D02*
G02X674940I-21830J-33540D01*
G03Y8808520I-5545J8515D01*
G02X718600I21830J33540D01*
G03Y8791490I5545J-8515D01*
G37*
G36*
G01X826830Y8941490D02*
G02X783170I-21830J-33540D01*
G03Y8958520I-5545J8515D01*
G02X826830I21830J33540D01*
G03Y8941490I5545J-8515D01*
G37*
G36*
G01X2859220Y1108010D02*
G03X2840780I-9220J-4265D01*
G02Y1191990I-90780J41990D01*
G03X2859220I9220J4265D01*
G02Y1108010I90780J-41990D01*
G37*
G36*
G01X368890Y1406560D02*
G03Y1390590I6283J-7985D01*
G02X319370I-24760J-31440D01*
G03Y1406560I-6283J7985D01*
G02X315910Y1466370I24762J31438D01*
G03Y1480780I-7170J7205D01*
G02X319370Y1540590I28222J28372D01*
G03Y1556560I-6283J7985D01*
G02X368890I24760J31440D01*
G03Y1540590I6283J-7985D01*
G02X372350Y1480780I-24762J-31438D01*
G03Y1466370I7170J-7205D01*
G02X368890Y1406560I-28222J-28372D01*
G37*
G36*
G01X724530Y1755240D02*
G03X708560I-7985J-6283D01*
G02Y1804760I-31440J24760D01*
G03X724530I7985J6283D01*
G02Y1755240I31440J-24760D01*
G37*
G36*
G01X3381260Y4222980D02*
G03Y4207010I6283J-7985D01*
G02X3331740I-24760J-31440D01*
G03Y4222980I-6283J7985D01*
G02X3381260I24760J31440D01*
G37*
G36*
G01Y4402980D02*
G03Y4387010I6283J-7985D01*
G02X3331740I-24760J-31440D01*
G03Y4402980I-6283J7985D01*
G02X3381260I24760J31440D01*
G37*
G36*
G01X3380760Y4578560D02*
G03Y4562590I6283J-7985D01*
G02X3331240I-24760J-31440D01*
G03Y4578560I-6283J7985D01*
G02X3380760I24760J31440D01*
G37*
G36*
G01X3380710Y5122970D02*
G03Y5107030I6303J-7970D01*
G02X3331090I-24810J-31400D01*
G03Y5122970I-6303J7970D01*
G02X3380710I24810J31400D01*
G37*
G36*
G01X3380810Y5302600D02*
G03Y5286660I6303J-7970D01*
G02X3331190I-24810J-31400D01*
G03Y5302600I-6303J7970D01*
G02X3380810I24810J31400D01*
G37*
G36*
G01X3380710Y5482970D02*
G03Y5467030I6303J-7970D01*
G02X3331090I-24810J-31400D01*
G03Y5482970I-6303J7970D01*
G02X3380710I24810J31400D01*
G37*
G36*
G01X783680Y5522090D02*
G03Y5507910I7278J-7090D01*
G02X726320I-28680J-27910D01*
G03Y5522090I-7278J7090D01*
G02X783680I28680J27910D01*
G37*
G36*
G01X1365860Y5558100D02*
G03Y5541900I6139J-8100D01*
G02X1317540I-24160J-31900D01*
G03Y5558100I-6139J8100D01*
G02X1365860I24160J31900D01*
G37*
G36*
G01X3380810Y5662600D02*
G03Y5646660I6303J-7970D01*
G02X3331190I-24810J-31400D01*
G03Y5662600I-6303J7970D01*
G02X3380810I24810J31400D01*
G37*
G36*
G01X3380710Y5842970D02*
G03Y5827030I6303J-7970D01*
G02X3331090I-24810J-31400D01*
G03Y5842970I-6303J7970D01*
G02X3380710I24810J31400D01*
G37*
G36*
G01X2494370Y7294980D02*
G03X2484250Y7282840I-160J-10155D01*
G02X2445630Y7315020I-39248J-7839D01*
G03X2455750Y7327160I160J10155D01*
G02X2494370Y7294980I39248J7839D01*
G37*
G36*
G01X2466930Y8767090D02*
G03X2477520Y8754940I9960J-2009D01*
G02X2440770Y8722910I2479J-39942D01*
G03X2430180Y8735060I-9960J2009D01*
G02X2466930Y8767090I-2479J39942D01*
G37*
G36*
G01Y8947090D02*
G03X2477520Y8934940I9960J-2009D01*
G02X2440770Y8902910I2479J-39942D01*
G03X2430180Y8915060I-9960J2009D01*
G02X2466930Y8947090I-2479J39942D01*
G37*
G36*
G01X395020Y9274740D02*
G03X406620Y9264610I10161J-71D01*
G02X372280Y9225260I5678J-39614D01*
G03X360680Y9235390I-10161J71D01*
G02Y9314610I-5680J39610D01*
G03X372280Y9324740I1439J10059D01*
G02X406620Y9285390I40018J264D01*
G03X395020Y9275260I-1439J-10059D01*
G02Y9274740I-40020J-260D01*
G37*
G36*
G01X11887470Y1455940D02*
X11914600Y1451370D01*
X11926730Y1448310D01*
X11937690Y1444820D01*
X11947360Y1440950D01*
X11955570Y1436760D01*
X11962200Y1432320D01*
X11967090Y1427670D01*
X11970100Y1422890D01*
X11967550Y1405160D01*
X11960640Y1394940D01*
X11950740Y1384440D01*
X11938430Y1374160D01*
X11924290Y1364580D01*
X11908890Y1356170D01*
X11892820Y1349430D01*
X11876640Y1344830D01*
X11852670Y1342110D01*
X11840590Y1342450D01*
X11828500Y1343910D01*
X11816450Y1346490D01*
X11804470Y1350150D01*
X11792610Y1354900D01*
X11780900Y1360720D01*
X11769400Y1367610D01*
X11754980Y1378090D01*
X11748940Y1383330D01*
X11743730Y1388500D01*
X11739390Y1393560D01*
X11735940Y1398470D01*
X11733440Y1403190D01*
X11731910Y1407670D01*
X11731390Y1411870D01*
X11743240Y1429470D01*
X11756720Y1437330D01*
X11774050Y1444240D01*
X11794350Y1449960D01*
X11816730Y1454230D01*
X11840300Y1456820D01*
X11864180Y1457470D01*
X11887470Y1455940D01*
G37*
G36*
G01X11592580Y1657970D02*
X11619130Y1645490D01*
X11631970Y1637020D01*
X11644280Y1627290D01*
X11655900Y1616440D01*
X11666660Y1604650D01*
X11676400Y1592080D01*
X11684930Y1578880D01*
X11692100Y1565220D01*
X11698130Y1550780D01*
X11700470Y1543970D01*
X11702400Y1537310D01*
X11703930Y1530690D01*
X11705090Y1524030D01*
X11705910Y1517220D01*
X11706400Y1510170D01*
X11706610Y1502780D01*
X11706270Y1490350D01*
X11705770Y1485490D01*
X11704990Y1481300D01*
X11703870Y1477620D01*
X11702360Y1474280D01*
X11700420Y1471100D01*
X11698000Y1467920D01*
X11695040Y1464580D01*
X11685990Y1458710D01*
X11679910Y1456650D01*
X11673010Y1455200D01*
X11665470Y1454370D01*
X11657470Y1454200D01*
X11649180Y1454690D01*
X11640770Y1455880D01*
X11632420Y1457780D01*
X11596750Y1473580D01*
X11580900Y1485070D01*
X11566640Y1498650D01*
X11554160Y1514080D01*
X11543660Y1531130D01*
X11535320Y1549570D01*
X11529340Y1569150D01*
X11525920Y1589650D01*
X11525300Y1606440D01*
X11525770Y1614500D01*
X11526730Y1622200D01*
X11528170Y1629420D01*
X11530060Y1636050D01*
X11532380Y1641990D01*
X11535110Y1647130D01*
X11538220Y1651350D01*
X11546500Y1657140D01*
X11551990Y1659190D01*
X11558140Y1660640D01*
X11564770Y1661470D01*
X11571710Y1661640D01*
X11578780Y1661130D01*
X11585790Y1659920D01*
X11592580Y1657970D01*
G37*
G36*
G01X12151520Y1674130D02*
X12160580Y1664790D01*
X12164410Y1658210D01*
X12167750Y1650490D01*
X12170550Y1641730D01*
X12172780Y1632010D01*
X12174410Y1621430D01*
X12175410Y1610100D01*
X12175760Y1598090D01*
X12174050Y1571910D01*
X12171820Y1560130D01*
X12168560Y1548990D01*
X12164210Y1538300D01*
X12158700Y1527880D01*
X12151950Y1517570D01*
X12143890Y1507180D01*
X12134440Y1496530D01*
X12122350Y1484780D01*
X12116030Y1479550D01*
X12109520Y1474730D01*
X12102800Y1470320D01*
X12095870Y1466320D01*
X12088710Y1462710D01*
X12081310Y1459500D01*
X12073660Y1456680D01*
X12066350Y1454330D01*
X12063070Y1453470D01*
X12059850Y1452800D01*
X12056550Y1452290D01*
X12053040Y1451930D01*
X12049190Y1451700D01*
X12044840Y1451570D01*
X12039880Y1451540D01*
X12030060D01*
X12026390Y1451690D01*
X12023300Y1451990D01*
X12020580Y1452470D01*
X12018050Y1453160D01*
X12015500Y1454100D01*
X12012740Y1455320D01*
X12009580Y1456860D01*
X12004550Y1459640D01*
X12002510Y1460960D01*
X12000730Y1462300D01*
X11999150Y1463700D01*
X11997730Y1465190D01*
X11996430Y1466810D01*
X11995190Y1468620D01*
X11993970Y1470640D01*
X11991690Y1475180D01*
X11990900Y1477380D01*
X11990320Y1479800D01*
X11989910Y1482630D01*
X11989630Y1486050D01*
X11989470Y1490270D01*
X11989400Y1495470D01*
X11989380Y1501860D01*
X11990070Y1518520D01*
X11990930Y1526010D01*
X11992210Y1533240D01*
X11993980Y1540430D01*
X11996280Y1547800D01*
X11999180Y1555590D01*
X12002740Y1564010D01*
X12007010Y1573300D01*
X12014490Y1587910D01*
X12018300Y1594430D01*
X12022290Y1600630D01*
X12026560Y1606640D01*
X12031220Y1612590D01*
X12036360Y1618630D01*
X12042090Y1624890D01*
X12048510Y1631520D01*
X12064380Y1646550D01*
X12071960Y1652980D01*
X12079340Y1658710D01*
X12086540Y1663760D01*
X12093610Y1668160D01*
X12100560Y1671920D01*
X12107430Y1675060D01*
X12114240Y1677620D01*
X12122490Y1679290D01*
X12127010Y1679570D01*
X12131620Y1679490D01*
X12136190Y1679060D01*
X12140590Y1678300D01*
X12144700Y1677210D01*
X12148380Y1675820D01*
X12151520Y1674130D01*
G37*
G36*
G01X11887470Y1719310D02*
X11900070Y1715130D01*
X11906750Y1712250D01*
X11913480Y1708970D01*
X11920080Y1705380D01*
X11926400Y1701570D01*
X11932270Y1697630D01*
X11937530Y1693660D01*
X11942010Y1689740D01*
X11955570Y1674780D01*
X11961010Y1667090D01*
X11965590Y1659180D01*
X11969360Y1650980D01*
X11972340Y1642410D01*
X11974570Y1633420D01*
X11976070Y1623930D01*
X11976900Y1613890D01*
X11976380Y1592310D01*
X11974830Y1582590D01*
X11972360Y1573410D01*
X11968920Y1564650D01*
X11964450Y1556180D01*
X11958910Y1547870D01*
X11952240Y1539600D01*
X11944390Y1531240D01*
X11933920Y1521410D01*
X11928900Y1517350D01*
X11923850Y1513750D01*
X11918660Y1510530D01*
X11913190Y1507610D01*
X11907330Y1504910D01*
X11900940Y1502350D01*
X11893900Y1499840D01*
X11887000Y1497730D01*
X11883750Y1496980D01*
X11880350Y1496410D01*
X11876570Y1496000D01*
X11872220Y1495720D01*
X11867060Y1495540D01*
X11860900Y1495450D01*
X11853500Y1495430D01*
X11839260Y1495610D01*
X11834050Y1495800D01*
X11829720Y1496130D01*
X11825980Y1496620D01*
X11822520Y1497320D01*
X11819050Y1498280D01*
X11815280Y1499530D01*
X11810900Y1501120D01*
X11798440Y1506320D01*
X11792790Y1509110D01*
X11787460Y1512060D01*
X11782390Y1515220D01*
X11777540Y1518610D01*
X11772840Y1522260D01*
X11768250Y1526220D01*
X11763710Y1530510D01*
X11751020Y1545090D01*
X11746000Y1552450D01*
X11741820Y1559980D01*
X11738420Y1567790D01*
X11735760Y1575970D01*
X11733790Y1584640D01*
X11732480Y1593870D01*
X11731760Y1603790D01*
X11732510Y1625080D01*
X11734130Y1634890D01*
X11736600Y1644220D01*
X11739950Y1653110D01*
X11744210Y1661630D01*
X11749390Y1669840D01*
X11755510Y1677780D01*
X11762610Y1685510D01*
X11785920Y1703960D01*
X11799020Y1710970D01*
X11812860Y1716450D01*
X11827290Y1720350D01*
X11842120Y1722630D01*
X11857210Y1723240D01*
X11872380Y1722150D01*
X11887470Y1719310D01*
G37*
G36*
G01X11540800Y1874680D02*
X11546420Y1865060D01*
X11548580Y1858400D01*
X11550270Y1850620D01*
X11551490Y1841790D01*
X11552230Y1832000D01*
X11552480Y1821340D01*
X11552220Y1809890D01*
X11551450Y1797730D01*
X11545530Y1753720D01*
X11541180Y1733970D01*
X11536110Y1716240D01*
X11530440Y1700890D01*
X11524310Y1688300D01*
X11517870Y1678840D01*
X11511260Y1672890D01*
X11504620Y1670820D01*
X11495110Y1675050D01*
X11489910Y1679950D01*
X11484640Y1686370D01*
X11479480Y1694040D01*
X11474590Y1702710D01*
X11470150Y1712130D01*
X11466330Y1722030D01*
X11463310Y1732160D01*
X11460740Y1746440D01*
X11460000Y1754230D01*
X11459640Y1762240D01*
Y1770310D01*
X11460000Y1778300D01*
X11460740Y1786030D01*
X11461840Y1793350D01*
X11463310Y1800120D01*
X11470630Y1820490D01*
X11475670Y1830400D01*
X11481490Y1839910D01*
X11487970Y1848870D01*
X11495010Y1857130D01*
X11502500Y1864530D01*
X11510330Y1870920D01*
X11518390Y1876150D01*
X11524970Y1879520D01*
X11527630Y1880420D01*
X11530000Y1880800D01*
X11532180Y1880640D01*
X11534250Y1879960D01*
X11536320Y1878740D01*
X11538470Y1876980D01*
X11540800Y1874680D01*
G37*
G36*
G01X12174840Y1878900D02*
X12187630Y1869410D01*
X12193300Y1864460D01*
X12198540Y1859330D01*
X12203380Y1853970D01*
X12207850Y1848350D01*
X12212000Y1842420D01*
X12215850Y1836150D01*
X12219460Y1829500D01*
X12228090Y1807460D01*
X12230880Y1795910D01*
X12232640Y1784090D01*
X12233380Y1772080D01*
X12233070Y1759940D01*
X12231730Y1747760D01*
X12229330Y1735600D01*
X12225880Y1723530D01*
X12219080Y1707630D01*
X12214790Y1699890D01*
X12210170Y1692640D01*
X12205410Y1686130D01*
X12200680Y1680620D01*
X12196180Y1676370D01*
X12192090Y1673630D01*
X12188610Y1672660D01*
X12181220Y1675830D01*
X12177250Y1679580D01*
X12173210Y1684610D01*
X12169190Y1690770D01*
X12165270Y1697940D01*
X12161540Y1705960D01*
X12158090Y1714720D01*
X12155010Y1724080D01*
X12148770Y1747290D01*
X12146380Y1758640D01*
X12144440Y1769950D01*
X12142960Y1781320D01*
X12141910Y1792870D01*
X12141280Y1804670D01*
X12141060Y1816850D01*
X12141240Y1829500D01*
X12141740Y1843930D01*
X12142040Y1849320D01*
X12142410Y1853770D01*
X12142890Y1857460D01*
X12143490Y1860610D01*
X12144260Y1863420D01*
X12145210Y1866080D01*
X12146380Y1868800D01*
X12151280Y1877540D01*
X12153960Y1880480D01*
X12156830Y1882490D01*
X12159900Y1883580D01*
X12163220Y1883750D01*
X12166790Y1883030D01*
X12170660Y1881410D01*
X12174840Y1878900D01*
G37*
G36*
G01X11761140Y1945760D02*
X11776540Y1938770D01*
X11783500Y1934530D01*
X11789970Y1929770D01*
X11795950Y1924510D01*
X11801460Y1918720D01*
X11806480Y1912410D01*
X11811040Y1905570D01*
X11815130Y1898190D01*
X11819940Y1887280D01*
X11821840Y1881820D01*
X11823430Y1876280D01*
X11824700Y1870600D01*
X11825670Y1864720D01*
X11826350Y1858580D01*
X11826750Y1852130D01*
X11826880Y1845300D01*
X11824800Y1820500D01*
X11822210Y1808550D01*
X11818610Y1796930D01*
X11814010Y1785670D01*
X11808410Y1774790D01*
X11801820Y1764300D01*
X11794270Y1754250D01*
X11785750Y1744650D01*
X11766970Y1727750D01*
X11757130Y1720860D01*
X11747000Y1715020D01*
X11736610Y1710230D01*
X11725980Y1706490D01*
X11715130Y1703820D01*
X11704070Y1702210D01*
X11692830Y1701680D01*
X11674270Y1702940D01*
X11665840Y1704550D01*
X11657890Y1706850D01*
X11650340Y1709860D01*
X11643130Y1713620D01*
X11636200Y1718140D01*
X11629470Y1723460D01*
X11622870Y1729590D01*
X11606110Y1751860D01*
X11600160Y1764520D01*
X11595860Y1778000D01*
X11593250Y1792170D01*
X11592340Y1806880D01*
X11593160Y1821980D01*
X11595740Y1837350D01*
X11600110Y1852830D01*
X11615010Y1883940D01*
X11625010Y1897970D01*
X11636440Y1910750D01*
X11649120Y1922120D01*
X11662850Y1931890D01*
X11677440Y1939910D01*
X11692700Y1945990D01*
X11708440Y1949980D01*
X11719580Y1951150D01*
X11725740Y1951250D01*
X11732080Y1951040D01*
X11738450Y1950540D01*
X11744700Y1949750D01*
X11750670Y1948680D01*
X11756200Y1947350D01*
X11761140Y1945760D01*
G37*
G36*
G01X12000950Y1954570D02*
X12035080Y1941370D01*
X12050490Y1931490D01*
X12064560Y1919680D01*
X12077130Y1906130D01*
X12088030Y1891030D01*
X12097070Y1874560D01*
X12104090Y1856930D01*
X12108920Y1838320D01*
X12110580Y1799280D01*
X12107100Y1781200D01*
X12100960Y1764440D01*
X12092310Y1749270D01*
X12081290Y1735960D01*
X12068080Y1724790D01*
X12052810Y1716020D01*
X12035650Y1709940D01*
X12022870Y1707920D01*
X12015810Y1707580D01*
X12008480Y1707680D01*
X12001020Y1708220D01*
X11993560Y1709180D01*
X11986230Y1710560D01*
X11979160Y1712340D01*
X11972490Y1714530D01*
X11943040Y1729550D01*
X11929830Y1739470D01*
X11917780Y1750800D01*
X11907030Y1763410D01*
X11897690Y1777140D01*
X11889890Y1791850D01*
X11883750Y1807390D01*
X11879390Y1823620D01*
X11877070Y1863070D01*
X11880270Y1881450D01*
X11886160Y1898550D01*
X11894580Y1914070D01*
X11905380Y1927720D01*
X11918400Y1939220D01*
X11933480Y1948270D01*
X11950450Y1954570D01*
X11960290Y1956290D01*
X11965990Y1956770D01*
X11972010Y1957020D01*
X11978170D01*
X11984310Y1956770D01*
X11990260Y1956290D01*
X11995860Y1955550D01*
X12000950Y1954570D01*
G37*
G36*
G01X12050530Y2063850D02*
X12065940Y2059070D01*
X12073150Y2056110D01*
X12080060Y2052730D01*
X12086720Y2048910D01*
X12093150Y2044650D01*
X12099410Y2039920D01*
X12105510Y2034690D01*
X12111490Y2028950D01*
X12118840Y2021410D01*
X12121820Y2018080D01*
X12124430Y2014900D01*
X12126760Y2011780D01*
X12128890Y2008600D01*
X12130880Y2005270D01*
X12132830Y2001680D01*
X12134810Y1997730D01*
X12140660Y1984690D01*
X12142900Y1978680D01*
X12144740Y1972780D01*
X12146230Y1966810D01*
X12147400Y1960580D01*
X12148310Y1953920D01*
X12148990Y1946650D01*
X12149500Y1938590D01*
X12150600Y1916920D01*
X12144360D01*
X12126470Y1922590D01*
X12114330Y1929340D01*
X12100460Y1938370D01*
X12085210Y1949450D01*
X12068870Y1962360D01*
X12051770Y1976850D01*
X12034230Y1992700D01*
X12016560Y2009670D01*
X11999540Y2027050D01*
X11992880Y2034270D01*
X11987390Y2040610D01*
X11983010Y2046120D01*
X11979700Y2050870D01*
X11977390Y2054940D01*
X11976050Y2058390D01*
X11975610Y2061280D01*
X11975840Y2063250D01*
X11976190Y2064000D01*
X11976730Y2064610D01*
X11977490Y2065120D01*
X11978520Y2065530D01*
X11979840Y2065870D01*
X11981490Y2066160D01*
X11983510Y2066420D01*
X11986470Y2066830D01*
X11989530Y2067290D01*
X11991010Y2067520D01*
X11992410Y2067740D01*
X11993710Y2067940D01*
X11994850Y2068110D01*
X11995810Y2068250D01*
X12004730Y2068770D01*
X12010890Y2068620D01*
X12017730Y2068240D01*
X12024930Y2067660D01*
X12032140Y2066910D01*
X12039030Y2066000D01*
X12045270Y2064970D01*
X12050530Y2063850D01*
G37*
G36*
G01X11710280Y2069540D02*
X11712480Y2068910D01*
X11713400Y2068500D01*
X11714190Y2068020D01*
X11714870Y2067470D01*
X11715420Y2066850D01*
X11715850Y2066160D01*
X11716150Y2065400D01*
X11716340Y2064580D01*
X11704990Y2043840D01*
X11691320Y2028160D01*
X11673870Y2010380D01*
X11653760Y1991570D01*
X11632160Y1972810D01*
X11610200Y1955170D01*
X11589030Y1939730D01*
X11569810Y1927570D01*
X11562150Y1923680D01*
X11558480Y1922160D01*
X11555020Y1920940D01*
X11551860Y1920060D01*
X11549070Y1919520D01*
X11546730Y1919360D01*
X11544920Y1919580D01*
X11543730Y1920230D01*
X11542330Y1925500D01*
X11542030Y1930160D01*
X11541990Y1935750D01*
X11542190Y1941970D01*
X11542620Y1948500D01*
X11543270Y1955030D01*
X11544140Y1961260D01*
X11545200Y1966880D01*
X11556780Y1999850D01*
X11565200Y2014270D01*
X11575290Y2027250D01*
X11586990Y2038720D01*
X11600250Y2048650D01*
X11615000Y2056980D01*
X11631190Y2063650D01*
X11648760Y2068620D01*
X11659720Y2069930D01*
X11667320Y2070370D01*
X11675660Y2070650D01*
X11684200Y2070770D01*
X11692450Y2070730D01*
X11699890Y2070510D01*
X11706000Y2070120D01*
X11710280Y2069540D01*
G37*
G36*
G01X11876640Y2090660D02*
X11906470Y2080890D01*
X11920090Y2074000D01*
X11932430Y2066090D01*
X11943210Y2057400D01*
X11952110Y2048190D01*
X11958850Y2038680D01*
X11963110Y2029130D01*
X11964590Y2019770D01*
X11957210Y1998490D01*
X11948540Y1989280D01*
X11936970Y1981220D01*
X11922800Y1974460D01*
X11906340Y1969150D01*
X11887900Y1965430D01*
X11867800Y1963460D01*
X11846340Y1963390D01*
X11821560Y1965780D01*
X11810100Y1967930D01*
X11799320Y1970700D01*
X11789250Y1974080D01*
X11779940Y1978070D01*
X11771420Y1982640D01*
X11763730Y1987790D01*
X11756920Y1993510D01*
X11745210Y2007340D01*
X11741870Y2014140D01*
X11740220Y2020920D01*
X11740250Y2027720D01*
X11741970Y2034580D01*
X11745380Y2041540D01*
X11750480Y2048650D01*
X11757280Y2055950D01*
X11780120Y2073320D01*
X11792880Y2080090D01*
X11806290Y2085510D01*
X11820160Y2089530D01*
X11834310Y2092110D01*
X11848560Y2093190D01*
X11862730Y2092720D01*
X11876640Y2090660D01*
G37*
G36*
G01X12044650Y2367800D02*
X12043000Y2364470D01*
X12042420Y2362620D01*
X12042010Y2360750D01*
X12041780Y2358930D01*
X12041740Y2357240D01*
X12041890Y2355750D01*
X12042250Y2354530D01*
X12042810Y2353660D01*
X12043740Y2353630D01*
X12044590Y2353850D01*
X12045650Y2354220D01*
X12046910Y2354730D01*
X12048320Y2355360D01*
X12049880Y2356100D01*
X12051540Y2356940D01*
X12053280Y2357880D01*
X12061020Y2361630D01*
X12065580Y2363530D01*
X12070330Y2365360D01*
X12075030Y2367020D01*
X12079480Y2368450D01*
X12083450Y2369570D01*
X12086720Y2370290D01*
X12089090Y2370550D01*
X12090020Y2370270D01*
X12090160Y2369920D01*
X12090080Y2369420D01*
X12089780Y2368760D01*
X12089240Y2367940D01*
X12088460Y2366960D01*
X12087430Y2365810D01*
X12086150Y2364490D01*
X12082330Y2359860D01*
X12081150Y2357820D01*
X12080460Y2356040D01*
X12080260Y2354570D01*
X12080560Y2353470D01*
X12081360Y2352790D01*
X12082670Y2352590D01*
X12084500Y2352920D01*
X12092300Y2355020D01*
X12097090Y2356250D01*
X12102130Y2357540D01*
X12107190Y2358810D01*
X12112000Y2360000D01*
X12116320Y2361040D01*
X12119910Y2361890D01*
X12122510Y2362470D01*
X12128750Y2363760D01*
X12122870Y2356960D01*
X12117980Y2350580D01*
X12117070Y2348450D01*
X12117230Y2346970D01*
X12118520Y2346130D01*
X12120970Y2345890D01*
X12124630Y2346230D01*
X12129530Y2347110D01*
X12135730Y2348510D01*
X12145380Y2350600D01*
X12149570Y2351300D01*
X12153420Y2351780D01*
X12157000Y2352040D01*
X12160390Y2352090D01*
X12163650Y2351950D01*
X12166850Y2351610D01*
X12170060Y2351080D01*
X12175940Y2349800D01*
X12169150Y2342820D01*
X12162170Y2335660D01*
X12187320D01*
X12196050Y2335610D01*
X12199970Y2335550D01*
X12203480Y2335470D01*
X12206520Y2335380D01*
X12209020Y2335280D01*
X12210890Y2335160D01*
X12212070Y2335040D01*
X12212480Y2334920D01*
X12212120Y2334050D01*
X12211700Y2333270D01*
X12211130Y2332300D01*
X12210450Y2331170D01*
X12209650Y2329900D01*
X12208770Y2328530D01*
X12207810Y2327070D01*
X12206790Y2325560D01*
X12203040Y2319170D01*
X12201140Y2315480D01*
X12199310Y2311690D01*
X12197650Y2307960D01*
X12196220Y2304470D01*
X12195100Y2301380D01*
X12194380Y2298860D01*
X12194120Y2297090D01*
X12194760Y2296410D01*
X12195510Y2296120D01*
X12196520Y2295870D01*
X12197740Y2295660D01*
X12199150Y2295480D01*
X12200720Y2295360D01*
X12202420Y2295280D01*
X12204220Y2295250D01*
X12207940Y2295150D01*
X12209530Y2295010D01*
X12210920Y2294830D01*
X12212100Y2294600D01*
X12213050Y2294330D01*
X12213740Y2294010D01*
X12214170Y2293640D01*
X12214320Y2293230D01*
X12213390Y2291610D01*
X12212300Y2290210D01*
X12210850Y2288470D01*
X12209080Y2286450D01*
X12207030Y2284200D01*
X12204740Y2281760D01*
X12202260Y2279190D01*
X12199630Y2276520D01*
X12194590Y2271280D01*
X12192390Y2268850D01*
X12190450Y2266600D01*
X12188820Y2264600D01*
X12187520Y2262890D01*
X12186600Y2261520D01*
X12186090Y2260530D01*
X12186040Y2259990D01*
X12187110Y2259370D01*
X12188040Y2259130D01*
X12189180Y2258960D01*
X12190510Y2258830D01*
X12192000Y2258770D01*
X12193600Y2258750D01*
X12195300Y2258790D01*
X12197060Y2258890D01*
X12200530Y2259120D01*
X12202080Y2259150D01*
X12203460Y2259110D01*
X12204650Y2259020D01*
X12205630Y2258880D01*
X12206360Y2258680D01*
X12206810Y2258440D01*
X12206970Y2258150D01*
X12206000Y2256570D01*
X12204840Y2255130D01*
X12203300Y2253310D01*
X12201420Y2251170D01*
X12199250Y2248750D01*
X12196810Y2246110D01*
X12194170Y2243290D01*
X12191360Y2240340D01*
X12185910Y2234670D01*
X12183480Y2232060D01*
X12181300Y2229680D01*
X12179420Y2227570D01*
X12177890Y2225780D01*
X12176730Y2224370D01*
X12176010Y2223390D01*
X12175760Y2222890D01*
X12176350Y2222530D01*
X12177050Y2222360D01*
X12177990Y2222210D01*
X12179130Y2222070D01*
X12180460Y2221950D01*
X12181950Y2221870D01*
X12183570Y2221810D01*
X12185300Y2221790D01*
X12194850D01*
X12189340Y2216100D01*
X12186590Y2213450D01*
X12184710Y2211780D01*
X12182560Y2209930D01*
X12180200Y2207960D01*
X12177700Y2205910D01*
X12175110Y2203830D01*
X12172480Y2201760D01*
X12169880Y2199750D01*
X12165060Y2195960D01*
X12162950Y2194210D01*
X12161090Y2192610D01*
X12159510Y2191190D01*
X12158260Y2189980D01*
X12157380Y2189030D01*
X12156890Y2188350D01*
X12156840Y2188000D01*
X12157870Y2187640D01*
X12158740Y2187470D01*
X12159820Y2187310D01*
X12161070Y2187170D01*
X12162470Y2187060D01*
X12164000Y2186970D01*
X12165620Y2186920D01*
X12167310Y2186900D01*
X12176670Y2186710D01*
X12169510Y2180650D01*
X12166030Y2177970D01*
X12163800Y2176410D01*
X12161320Y2174770D01*
X12158660Y2173070D01*
X12155880Y2171360D01*
X12153050Y2169670D01*
X12150230Y2168040D01*
X12147480Y2166510D01*
X12137310Y2161100D01*
X12133900Y2159180D01*
X12131470Y2157670D01*
X12129910Y2156510D01*
X12129100Y2155600D01*
X12128960Y2154870D01*
X12129370Y2154250D01*
X12130220Y2153650D01*
X12131470Y2153080D01*
X12132360Y2152820D01*
X12133380Y2152590D01*
X12134510Y2152390D01*
X12135730Y2152230D01*
X12136990Y2152100D01*
X12138290Y2152030D01*
X12139580Y2152000D01*
X12142110Y2151900D01*
X12143150Y2151770D01*
X12144010Y2151600D01*
X12144700Y2151380D01*
X12145200Y2151130D01*
X12145500Y2150840D01*
X12145590Y2150520D01*
X12145460Y2150160D01*
X12142360Y2147570D01*
X12139560Y2145950D01*
X12136050Y2144180D01*
X12131960Y2142300D01*
X12127370Y2140360D01*
X12122390Y2138390D01*
X12117120Y2136440D01*
X12111670Y2134550D01*
X12096070Y2129410D01*
X12100290Y2126110D01*
X12101940Y2124850D01*
X12102780Y2124300D01*
X12103620Y2123820D01*
X12104430Y2123410D01*
X12105200Y2123070D01*
X12105910Y2122820D01*
X12106540Y2122670D01*
X12107080Y2122620D01*
X12108000Y2122510D01*
X12108400Y2122390D01*
X12108760Y2122230D01*
X12109060Y2122030D01*
X12109310Y2121800D01*
X12109500Y2121540D01*
X12109610Y2121260D01*
X12109650Y2120960D01*
X12107030Y2119100D01*
X12104040Y2118040D01*
X12100180Y2116940D01*
X12095660Y2115860D01*
X12090670Y2114830D01*
X12085390Y2113900D01*
X12080020Y2113110D01*
X12074770Y2112520D01*
X12064930Y2111610D01*
X12061500Y2111160D01*
X12058940Y2110690D01*
X12057170Y2110150D01*
X12056080Y2109520D01*
X12055590Y2108780D01*
X12055600Y2107890D01*
X12056040Y2106820D01*
X12056950Y2105580D01*
X12057600Y2104870D01*
X12058360Y2104130D01*
X12059200Y2103360D01*
X12060100Y2102590D01*
X12061050Y2101830D01*
X12062030Y2101090D01*
X12063010Y2100390D01*
X12068340Y2096540D01*
X12043550Y2097460D01*
X12017950Y2099840D01*
X12006320Y2102010D01*
X11995460Y2104840D01*
X11985380Y2108330D01*
X11976060Y2112490D01*
X11967500Y2117320D01*
X11959700Y2122840D01*
X11952660Y2129040D01*
X11946070Y2136560D01*
X11942860Y2141000D01*
X11939850Y2145630D01*
X11937140Y2150270D01*
X11934850Y2154740D01*
X11933080Y2158850D01*
X11931940Y2162410D01*
X11931540Y2165220D01*
X11934810Y2170080D01*
X11938570Y2174090D01*
X11943440Y2178890D01*
X11949220Y2184270D01*
X11955670Y2190020D01*
X11962580Y2195940D01*
X11969730Y2201830D01*
X11976900Y2207470D01*
X11999340Y2223840D01*
X12011910Y2232410D01*
X12025170Y2241090D01*
X12038950Y2249780D01*
X12053090Y2258370D01*
X12067430Y2266770D01*
X12081810Y2274880D01*
X12096070Y2282580D01*
X12103340Y2286560D01*
X12106570Y2288370D01*
X12109450Y2290010D01*
X12111910Y2291440D01*
X12113900Y2292650D01*
X12115360Y2293580D01*
X12116230Y2294220D01*
X12116450Y2294520D01*
X12111260Y2293170D01*
X12105790Y2291280D01*
X12098980Y2288790D01*
X12091280Y2285880D01*
X12083100Y2282700D01*
X12074880Y2279420D01*
X12067060Y2276200D01*
X12060080Y2273210D01*
X12030040Y2259150D01*
X12014800Y2251280D01*
X11999640Y2242980D01*
X11984760Y2234370D01*
X11970330Y2225550D01*
X11956530Y2216610D01*
X11943540Y2207670D01*
X11931540Y2198830D01*
X11912810Y2184690D01*
X11903080Y2191490D01*
X11893550Y2199080D01*
X11889680Y2203120D01*
X11886360Y2207380D01*
X11883570Y2211890D01*
X11881290Y2216710D01*
X11879480Y2221870D01*
X11878130Y2227400D01*
X11877190Y2233360D01*
X11877960Y2251720D01*
X11880270Y2262000D01*
X11883770Y2272790D01*
X11888370Y2283890D01*
X11894000Y2295140D01*
X11900580Y2306350D01*
X11908040Y2317340D01*
X11916300Y2327940D01*
X11921090Y2333300D01*
X11922970Y2335140D01*
X11924520Y2336430D01*
X11925760Y2337180D01*
X11926710Y2337400D01*
X11927360Y2337090D01*
X11927740Y2336260D01*
X11927870Y2334920D01*
X11927990Y2333670D01*
X11928140Y2332880D01*
X11928330Y2332010D01*
X11928560Y2331080D01*
X11928820Y2330110D01*
X11929100Y2329120D01*
X11929400Y2328150D01*
X11929700Y2327210D01*
X11930880Y2324890D01*
X11931680Y2324550D01*
X11932840Y2324910D01*
X11934530Y2326100D01*
X11936910Y2328220D01*
X11940160Y2331390D01*
X11944430Y2335730D01*
X11949900Y2341350D01*
X11968080Y2360450D01*
X11968260Y2352190D01*
X11968720Y2345070D01*
X11969370Y2342970D01*
X11970380Y2341820D01*
X11971810Y2341620D01*
X11973710Y2342360D01*
X11976130Y2344040D01*
X11979130Y2346640D01*
X11982770Y2350170D01*
X11986820Y2353970D01*
X11988880Y2355810D01*
X11990900Y2357570D01*
X11992840Y2359210D01*
X11994660Y2360680D01*
X11996310Y2361960D01*
X11997750Y2362990D01*
X11998930Y2363760D01*
X12004620Y2366880D01*
X12003700Y2359900D01*
X12003410Y2356910D01*
Y2355640D01*
X12003520Y2354500D01*
X12003730Y2353490D01*
X12004060Y2352590D01*
X12004500Y2351810D01*
X12005050Y2351130D01*
X12005720Y2350530D01*
X12007350Y2349520D01*
X12008190Y2349390D01*
X12009110Y2349530D01*
X12010180Y2349960D01*
X12011460Y2350700D01*
X12013010Y2351760D01*
X12014870Y2353170D01*
X12017110Y2354940D01*
X12023740Y2359860D01*
X12027610Y2362440D01*
X12031580Y2364950D01*
X12035460Y2367270D01*
X12039050Y2369290D01*
X12042150Y2370900D01*
X12044580Y2371970D01*
X12046120Y2372390D01*
X12046420Y2372110D01*
X12046430Y2371770D01*
X12046350Y2371320D01*
X12046190Y2370770D01*
X12045930Y2370130D01*
X12045590Y2369410D01*
X12045160Y2368630D01*
X12044650Y2367800D01*
G37*
G36*
G01X11672640Y2366330D02*
X11675390Y2364610D01*
X11677030Y2363520D01*
X11678780Y2362310D01*
X11680600Y2361010D01*
X11682440Y2359650D01*
X11684270Y2358260D01*
X11686030Y2356860D01*
X11687690Y2355490D01*
X11690810Y2353060D01*
X11692280Y2351970D01*
X11693640Y2350990D01*
X11694880Y2350150D01*
X11695960Y2349470D01*
X11696860Y2348950D01*
X11697540Y2348630D01*
X11697980Y2348510D01*
X11699960Y2349700D01*
X11700820Y2351020D01*
X11701550Y2352690D01*
X11702110Y2354580D01*
X11702480Y2356590D01*
X11702610Y2358620D01*
X11702460Y2360560D01*
X11702010Y2362290D01*
X11701490Y2363900D01*
X11701290Y2364620D01*
X11701150Y2365260D01*
X11701060Y2365810D01*
X11701020Y2366260D01*
X11701040Y2366600D01*
X11701130Y2366810D01*
X11701280Y2366880D01*
X11704570Y2365340D01*
X11707150Y2363610D01*
X11710130Y2361410D01*
X11713350Y2358870D01*
X11716650Y2356130D01*
X11719860Y2353310D01*
X11722800Y2350550D01*
X11725330Y2347960D01*
X11729170Y2343940D01*
X11730580Y2342620D01*
X11731720Y2341740D01*
X11732680Y2341240D01*
X11733500Y2341120D01*
X11734250Y2341330D01*
X11734990Y2341850D01*
X11735800Y2342640D01*
X11736770Y2344180D01*
X11737230Y2345150D01*
X11737660Y2346230D01*
X11738060Y2347370D01*
X11738410Y2348570D01*
X11738710Y2349790D01*
X11738940Y2351000D01*
X11739110Y2352190D01*
X11739660Y2358610D01*
X11747920Y2350350D01*
X11751380Y2346840D01*
X11753330Y2344820D01*
X11755360Y2342690D01*
X11757420Y2340510D01*
X11759470Y2338310D01*
X11761450Y2336160D01*
X11763300Y2334090D01*
X11765000Y2332170D01*
X11773810Y2322250D01*
X11776750Y2329960D01*
X11779690Y2337680D01*
X11785930Y2331620D01*
X11796570Y2319150D01*
X11801950Y2311470D01*
X11807170Y2303140D01*
X11812110Y2294410D01*
X11816610Y2285530D01*
X11820550Y2276730D01*
X11823770Y2268260D01*
X11826140Y2260360D01*
X11828540Y2240340D01*
X11827740Y2230820D01*
X11825670Y2221780D01*
X11822370Y2213330D01*
X11817870Y2205600D01*
X11812230Y2198690D01*
X11805490Y2192730D01*
X11797680Y2187810D01*
X11794620Y2186460D01*
X11793340Y2186220D01*
X11792040Y2186340D01*
X11790600Y2186880D01*
X11788870Y2187880D01*
X11786720Y2189410D01*
X11784010Y2191510D01*
X11780600Y2194240D01*
X11751470Y2215470D01*
X11734500Y2226330D01*
X11716310Y2237140D01*
X11697210Y2247740D01*
X11677490Y2257960D01*
X11657440Y2267650D01*
X11637370Y2276650D01*
X11617550Y2284780D01*
X11600700Y2291200D01*
X11595880Y2292840D01*
X11593470Y2293380D01*
Y2292800D01*
X11595880Y2291060D01*
X11600700Y2288120D01*
X11607920Y2283960D01*
X11617550Y2278540D01*
X11659940Y2254020D01*
X11678400Y2242650D01*
X11695270Y2231710D01*
X11710730Y2221070D01*
X11724960Y2210600D01*
X11738140Y2200180D01*
X11750450Y2189690D01*
X11762060Y2179000D01*
X11769750Y2171190D01*
X11772080Y2168200D01*
X11773440Y2165470D01*
X11773870Y2162740D01*
X11773400Y2159740D01*
X11772080Y2156200D01*
X11769940Y2151880D01*
X11767020Y2146490D01*
X11753300Y2128760D01*
X11744170Y2121250D01*
X11733630Y2114690D01*
X11721760Y2109120D01*
X11708640Y2104580D01*
X11694340Y2101090D01*
X11678950Y2098710D01*
X11662540Y2097460D01*
X11638670Y2096540D01*
X11645090Y2102050D01*
X11647520Y2104330D01*
X11648450Y2105340D01*
X11649170Y2106260D01*
X11649690Y2107090D01*
X11650000Y2107810D01*
X11650110Y2108440D01*
X11650000Y2108970D01*
X11649680Y2109390D01*
X11647850Y2110100D01*
X11646110Y2110510D01*
X11643910Y2110940D01*
X11641310Y2111380D01*
X11638380Y2111830D01*
X11635170Y2112260D01*
X11631760Y2112680D01*
X11628200Y2113070D01*
X11620910Y2114040D01*
X11617340Y2114600D01*
X11613910Y2115180D01*
X11610700Y2115780D01*
X11607780Y2116370D01*
X11605240Y2116950D01*
X11603150Y2117510D01*
X11601570Y2118020D01*
X11594780Y2120960D01*
X11601020Y2124090D01*
X11603140Y2125250D01*
X11604110Y2125850D01*
X11604990Y2126450D01*
X11605750Y2127040D01*
X11606380Y2127580D01*
X11606860Y2128080D01*
X11607160Y2128510D01*
X11607270Y2128860D01*
X11606260Y2129720D01*
X11604990Y2130400D01*
X11603290Y2131200D01*
X11601190Y2132100D01*
X11598770Y2133080D01*
X11596060Y2134110D01*
X11593120Y2135160D01*
X11590010Y2136210D01*
X11574220Y2141980D01*
X11568410Y2144460D01*
X11564060Y2146650D01*
X11561200Y2148500D01*
X11559880Y2149990D01*
X11560140Y2151090D01*
X11562030Y2151770D01*
X11565580Y2152000D01*
X11569850Y2152340D01*
X11571850Y2152730D01*
X11573660Y2153220D01*
X11575200Y2153780D01*
X11576400Y2154400D01*
X11577170Y2155030D01*
X11577450Y2155650D01*
X11577150Y2156230D01*
X11575890Y2156950D01*
X11574660Y2157640D01*
X11573080Y2158510D01*
X11571200Y2159530D01*
X11569060Y2160690D01*
X11566710Y2161950D01*
X11564190Y2163280D01*
X11561540Y2164670D01*
X11551670Y2170280D01*
X11547040Y2173120D01*
X11542770Y2175880D01*
X11539000Y2178480D01*
X11535840Y2180840D01*
X11533410Y2182860D01*
X11531840Y2184480D01*
X11531250Y2185610D01*
X11531760Y2186070D01*
X11532360Y2186270D01*
X11533170Y2186450D01*
X11534140Y2186600D01*
X11535270Y2186730D01*
X11536530Y2186820D01*
X11537890Y2186880D01*
X11539330Y2186900D01*
X11542270Y2187000D01*
X11543620Y2187120D01*
X11544860Y2187280D01*
X11545960Y2187480D01*
X11546900Y2187710D01*
X11547660Y2187970D01*
X11548200Y2188250D01*
X11548510Y2188550D01*
X11548430Y2189410D01*
X11548090Y2190000D01*
X11547550Y2190670D01*
X11546850Y2191400D01*
X11545990Y2192180D01*
X11544990Y2192990D01*
X11543870Y2193800D01*
X11542630Y2194610D01*
X11535030Y2200210D01*
X11530680Y2203680D01*
X11526300Y2207310D01*
X11522150Y2210880D01*
X11518480Y2214190D01*
X11515540Y2217000D01*
X11513590Y2219120D01*
X11512890Y2220320D01*
X11513400Y2220800D01*
X11513990Y2221030D01*
X11514790Y2221240D01*
X11515750Y2221420D01*
X11516860Y2221570D01*
X11518080Y2221690D01*
X11519400Y2221760D01*
X11520780Y2221790D01*
X11523630Y2221870D01*
X11524950Y2221950D01*
X11526170Y2222070D01*
X11527250Y2222210D01*
X11528180Y2222360D01*
X11528930Y2222530D01*
X11529470Y2222710D01*
X11529780Y2222890D01*
X11529390Y2224030D01*
X11528600Y2225110D01*
X11527460Y2226490D01*
X11526010Y2228130D01*
X11524280Y2229980D01*
X11522320Y2232020D01*
X11520160Y2234200D01*
X11517840Y2236480D01*
X11513010Y2241130D01*
X11510710Y2243470D01*
X11508550Y2245740D01*
X11506580Y2247900D01*
X11504840Y2249880D01*
X11503380Y2251650D01*
X11502250Y2253140D01*
X11501500Y2254300D01*
X11498380Y2259810D01*
X11508110Y2258890D01*
X11511940Y2258680D01*
X11513590Y2258690D01*
X11515050Y2258780D01*
X11516320Y2258930D01*
X11517390Y2259150D01*
X11518250Y2259430D01*
X11518890Y2259770D01*
X11519310Y2260170D01*
X11519060Y2261660D01*
X11518390Y2262830D01*
X11517390Y2264280D01*
X11516060Y2265960D01*
X11514420Y2267860D01*
X11512470Y2269960D01*
X11510240Y2272250D01*
X11507740Y2274680D01*
X11503200Y2279230D01*
X11501070Y2281460D01*
X11499090Y2283590D01*
X11497300Y2285570D01*
X11495750Y2287380D01*
X11494460Y2288950D01*
X11493490Y2290240D01*
X11492870Y2291210D01*
X11491910Y2293350D01*
X11491820Y2294060D01*
X11492080Y2294560D01*
X11492760Y2294900D01*
X11493920Y2295100D01*
X11495620Y2295210D01*
X11497950Y2295250D01*
X11500950D01*
X11505700Y2295350D01*
X11507400Y2295500D01*
X11508710Y2295740D01*
X11509680Y2296080D01*
X11510350Y2296530D01*
X11510770Y2297120D01*
X11510990Y2297850D01*
X11511050Y2298740D01*
X11510340Y2302880D01*
X11509500Y2305500D01*
X11508350Y2308430D01*
X11506930Y2311610D01*
X11505250Y2315000D01*
X11503350Y2318550D01*
X11501230Y2322200D01*
X11498930Y2325920D01*
X11492690Y2335660D01*
X11542630D01*
X11536940Y2342820D01*
X11533970Y2346620D01*
X11533090Y2347900D01*
X11532590Y2348850D01*
X11532470Y2349540D01*
X11532710Y2350040D01*
X11533300Y2350420D01*
X11534220Y2350750D01*
X11535470Y2351080D01*
X11541750Y2352130D01*
X11545350Y2352220D01*
X11549490Y2351990D01*
X11554330Y2351420D01*
X11560050Y2350500D01*
X11566810Y2349200D01*
X11574780Y2347500D01*
X11584130Y2345390D01*
X11587050Y2345560D01*
X11587860Y2346330D01*
X11588240Y2347500D01*
X11588180Y2349010D01*
X11587680Y2350820D01*
X11586750Y2352870D01*
X11585380Y2355120D01*
X11583580Y2357510D01*
X11578810Y2363020D01*
X11585780Y2361920D01*
X11589170Y2361300D01*
X11591380Y2360820D01*
X11593850Y2360240D01*
X11596530Y2359580D01*
X11599340Y2358860D01*
X11602230Y2358080D01*
X11605140Y2357260D01*
X11608000Y2356410D01*
X11619050Y2353730D01*
X11622720Y2353270D01*
X11625210Y2353410D01*
X11626540Y2354200D01*
X11626760Y2355640D01*
X11625890Y2357750D01*
X11623970Y2360580D01*
X11621040Y2364120D01*
X11618970Y2366640D01*
X11618230Y2367670D01*
X11617680Y2368540D01*
X11617330Y2369260D01*
X11617180Y2369820D01*
X11617220Y2370230D01*
X11617470Y2370470D01*
X11617920Y2370550D01*
X11623320Y2369550D01*
X11627220Y2368420D01*
X11631600Y2366990D01*
X11636210Y2365340D01*
X11640810Y2363560D01*
X11645150Y2361730D01*
X11648980Y2359930D01*
X11652070Y2358250D01*
X11655020Y2356780D01*
X11656460Y2356160D01*
X11657840Y2355630D01*
X11659130Y2355200D01*
X11660290Y2354890D01*
X11661290Y2354700D01*
X11662110Y2354650D01*
X11662720Y2354760D01*
X11664540Y2356320D01*
X11664990Y2357490D01*
X11665130Y2358870D01*
X11664960Y2360420D01*
X11664490Y2362130D01*
X11663710Y2363950D01*
X11662630Y2365850D01*
X11661250Y2367800D01*
X11657390Y2372760D01*
X11661800Y2371470D01*
X11663730Y2370780D01*
X11664900Y2370300D01*
X11666150Y2369750D01*
X11667470Y2369140D01*
X11668810Y2368480D01*
X11670140Y2367780D01*
X11671420Y2367060D01*
X11672640Y2366330D01*
G37*
G36*
G01X12916400Y2166520D02*
X12936990Y2155830D01*
X12944940Y2147440D01*
X12951140Y2137490D01*
X12955460Y2126360D01*
X12957750Y2114420D01*
X12957870Y2102020D01*
X12955690Y2089520D01*
X12951060Y2077310D01*
X12930350Y2054260D01*
X12917120Y2048640D01*
X12903050Y2046810D01*
X12888970Y2048670D01*
X12875690Y2054110D01*
X12864030Y2063020D01*
X12854790Y2075290D01*
X12848800Y2090820D01*
X12847080Y2112220D01*
X12848700Y2122540D01*
X12851810Y2132320D01*
X12856320Y2141340D01*
X12862090Y2149390D01*
X12869020Y2156250D01*
X12877000Y2161710D01*
X12885920Y2165540D01*
X12893690Y2167750D01*
X12896880Y2168420D01*
X12899820Y2168800D01*
X12902670Y2168910D01*
X12905600Y2168730D01*
X12908760Y2168270D01*
X12912300Y2167530D01*
X12916400Y2166520D01*
G37*
G36*
G01X12705240Y2248120D02*
X12714150Y2241910D01*
X12717690Y2238390D01*
X12720640Y2234560D01*
X12723010Y2230380D01*
X12724830Y2225820D01*
X12726110Y2220850D01*
X12726870Y2215430D01*
X12727120Y2209540D01*
X12726930Y2201920D01*
X12726630Y2198960D01*
X12726150Y2196390D01*
X12725450Y2194090D01*
X12724500Y2191930D01*
X12723250Y2189770D01*
X12721680Y2187490D01*
X12719740Y2184960D01*
X12711560Y2176320D01*
X12707410Y2173250D01*
X12702850Y2170900D01*
X12697590Y2169180D01*
X12691360Y2167990D01*
X12683860Y2167250D01*
X12674820Y2166880D01*
X12663940Y2166770D01*
X12632480D01*
Y2255990D01*
X12663940Y2254760D01*
X12679000Y2254060D01*
X12684700Y2253640D01*
X12689440Y2253120D01*
X12693400Y2252490D01*
X12696770Y2251700D01*
X12699750Y2250730D01*
X12702510Y2249550D01*
X12705240Y2248120D01*
G37*
G36*
G01X13384180Y2158660D02*
X13401300Y2141210D01*
X13406660Y2130550D01*
X13409860Y2119090D01*
X13410860Y2107230D01*
X13409640Y2095340D01*
X13406160Y2083800D01*
X13400390Y2072990D01*
X13392300Y2063300D01*
X13374630Y2051460D01*
X13365060Y2048330D01*
X13355300Y2047040D01*
X13345570Y2047570D01*
X13336120Y2049910D01*
X13327170Y2054060D01*
X13318940Y2060000D01*
X13311670Y2067720D01*
X13306060Y2075760D01*
X13303920Y2079780D01*
X13302190Y2083910D01*
X13300840Y2088210D01*
X13299830Y2092770D01*
X13299150Y2097670D01*
X13298760Y2102970D01*
X13298640Y2108770D01*
X13300440Y2123750D01*
X13302550Y2130650D01*
X13305460Y2137140D01*
X13309170Y2143200D01*
X13313660Y2148820D01*
X13318940Y2153970D01*
X13325000Y2158650D01*
X13331830Y2162840D01*
X13341820Y2165980D01*
X13347910Y2166610D01*
X13354410Y2166660D01*
X13361060Y2166130D01*
X13367610Y2165040D01*
X13373810Y2163420D01*
X13379420Y2161290D01*
X13384180Y2158660D01*
G37*
G36*
G01X13866470Y2163820D02*
X13873760Y2159740D01*
X13876820Y2157770D01*
X13879550Y2155760D01*
X13882040Y2153670D01*
X13884320Y2151440D01*
X13886460Y2149030D01*
X13888520Y2146370D01*
X13890560Y2143420D01*
X13898920Y2131130D01*
X13839190Y2130390D01*
X13818430Y2130300D01*
X13809090D01*
X13800680Y2130340D01*
X13793370Y2130400D01*
X13787350Y2130490D01*
X13782780Y2130600D01*
X13779850Y2130730D01*
X13778720Y2130890D01*
X13779090Y2134270D01*
X13780360Y2137190D01*
X13782170Y2140620D01*
X13784390Y2144360D01*
X13786910Y2148180D01*
X13789590Y2151860D01*
X13792310Y2155180D01*
X13794940Y2157920D01*
X13803010Y2163980D01*
X13807840Y2166560D01*
X13813030Y2168790D01*
X13818430Y2170610D01*
X13823910Y2171980D01*
X13829330Y2172850D01*
X13834550Y2173180D01*
X13839430Y2172910D01*
X13844310Y2172080D01*
X13847210Y2171320D01*
X13850330Y2170380D01*
X13853580Y2169270D01*
X13856900Y2168040D01*
X13860200Y2166700D01*
X13863420Y2165280D01*
X13866470Y2163820D01*
G37*
G36*
G01X13619430Y2162100D02*
X13626720Y2157980D01*
X13630240Y2155450D01*
X13633620Y2152670D01*
X13636840Y2149660D01*
X13639840Y2146460D01*
X13642600Y2143100D01*
X13645060Y2139620D01*
X13647210Y2136050D01*
X13650230Y2125730D01*
X13651070Y2118840D01*
X13651450Y2111340D01*
X13651390Y2103610D01*
X13650890Y2096070D01*
X13649940Y2089110D01*
X13648550Y2083130D01*
X13646720Y2078530D01*
X13630530Y2059820D01*
X13620290Y2053730D01*
X13609170Y2049890D01*
X13597610Y2048350D01*
X13586040Y2049190D01*
X13574890Y2052450D01*
X13564570Y2058200D01*
X13555520Y2066490D01*
X13541330Y2095130D01*
X13540030Y2110130D01*
X13542230Y2124670D01*
X13547640Y2138080D01*
X13556010Y2149670D01*
X13567050Y2158770D01*
X13580500Y2164700D01*
X13596080Y2166770D01*
X13601550Y2166490D01*
X13604370Y2166160D01*
X13607190Y2165710D01*
X13609950Y2165160D01*
X13612610Y2164510D01*
X13615110Y2163780D01*
X13617400Y2162970D01*
X13619430Y2162100D01*
G37*
G36*
G01X14724120Y2252790D02*
X14734180Y2250060D01*
X14738550Y2248220D01*
X14742490Y2246050D01*
X14746040Y2243530D01*
X14749200Y2240650D01*
X14752000Y2237390D01*
X14754450Y2233740D01*
X14756570Y2229690D01*
X14760410Y2217330D01*
X14761040Y2211190D01*
X14760830Y2205150D01*
X14759790Y2199280D01*
X14757920Y2193620D01*
X14755240Y2188250D01*
X14751750Y2183210D01*
X14747480Y2178570D01*
X14740420Y2173010D01*
X14736660Y2171030D01*
X14732430Y2169500D01*
X14727480Y2168370D01*
X14721580Y2167590D01*
X14714510Y2167100D01*
X14706010Y2166840D01*
X14695860Y2166770D01*
X14665380D01*
Y2255250D01*
X14688480D01*
X14697240Y2255110D01*
X14701760Y2254940D01*
X14706240Y2254710D01*
X14710560Y2254420D01*
X14714610Y2254090D01*
X14718300Y2253700D01*
X14721500Y2253270D01*
X14724120Y2252790D01*
G37*
G54D24*
X8020000Y1350000D03*
X7998000Y931300D03*
X7815000Y1100000D03*
X7577700D03*
X7100000Y900000D03*
Y1047300D03*
X7450000Y1004800D03*
X6892300Y1160000D03*
X6218000Y1038700D03*
X6190000Y480000D03*
X5810000Y1310200D03*
X5710000Y1020000D03*
X5780000Y587300D03*
X6090000Y189800D03*
X5364800Y9450000D03*
Y9650000D03*
X5540000Y3210000D03*
X5280000Y330000D03*
X5165000Y3315000D03*
X4900000Y700000D03*
X4780000D03*
Y330000D03*
X3990000Y3530000D03*
X3900000Y2185200D03*
Y1814800D03*
X4265200Y1500000D03*
X4077700Y1365000D03*
Y1235000D03*
X4200000Y164800D03*
X3640000Y3405000D03*
X3720000Y3345000D03*
X3575360Y3285000D03*
X3650000Y2185200D03*
X2972300Y7845000D03*
Y7425000D03*
X3400000Y6100000D03*
X3247700Y3105000D03*
X2972300Y3165000D03*
X3247700Y2985000D03*
X2972300Y2685000D03*
X3247700Y2745000D03*
Y2865000D03*
X2972300Y2925000D03*
X3150000Y2185200D03*
X3400000D03*
Y1814800D03*
X2505000Y8055000D03*
X2500000Y6975000D03*
X2505000Y6795000D03*
X2890000Y6255000D03*
X2815000Y6195000D03*
X2625000Y6435000D03*
X2550000Y6375000D03*
X2835000Y6075000D03*
X2930000Y6015000D03*
X2730000Y2165000D03*
X2765000Y2009000D03*
X2427700Y7995000D03*
Y7875000D03*
Y7455000D03*
Y6915000D03*
Y6735000D03*
Y3375000D03*
X2152300Y3135000D03*
Y3015000D03*
X2427700Y2955000D03*
Y2715000D03*
X2152300Y2775000D03*
Y2895000D03*
X1614200Y5600000D03*
X1675000Y5500000D03*
X1160000Y6013700D03*
X1502300Y5400000D03*
X914200Y9300000D03*
Y9200000D03*
X800000Y7715000D03*
X700000Y7714200D03*
X995000Y6299300D03*
X1100000Y6085000D03*
X806300Y5400000D03*
X710000Y5630000D03*
X1090000Y742300D03*
X1140000Y1065000D03*
X775800Y850000D03*
X412300Y7525000D03*
X240000Y7375000D03*
X587700Y4025000D03*
X660000Y4260000D03*
X665000Y3775000D03*
X405000Y3825000D03*
X280000Y2080000D03*
X412300Y2225000D03*
X395000Y2025000D03*
X370000Y1920000D03*
X195000Y7475000D03*
X200000Y2175000D03*
X3150000Y1812500D03*
X3040000Y1905000D03*
Y2095000D03*
X3510000D03*
Y1905000D03*
X3790000Y2095000D03*
Y1905000D03*
G54D32*
X1127500Y200000D03*
X1672500D03*
X7027500D03*
X7572500D03*
G54D31*
X302000Y4525000D03*
Y5975000D03*
G54D34*
X898000Y4525000D03*
Y5975000D03*
G54D26*
X3200000Y1150000D03*
X2500000D03*
G54D23*
X6446000Y9923000D03*
Y10177000D03*
X6700000Y9923000D03*
Y10177000D03*
X6954000Y9923000D03*
Y10177000D03*
X8077000Y9283000D03*
Y9029000D03*
Y8775000D03*
Y8521000D03*
Y8267000D03*
Y8013000D03*
Y7759000D03*
Y7505000D03*
Y7251000D03*
Y6997000D03*
Y6743000D03*
Y6489000D03*
Y6235000D03*
Y5981000D03*
Y5727000D03*
Y5473000D03*
Y5219000D03*
Y4965000D03*
Y4711000D03*
Y4457000D03*
Y4203000D03*
Y3949000D03*
Y3695000D03*
Y3441000D03*
Y3187000D03*
Y2933000D03*
Y2679000D03*
Y2425000D03*
Y2171000D03*
Y1917000D03*
X7823000Y9029000D03*
Y9283000D03*
Y8775000D03*
Y8521000D03*
Y8267000D03*
Y8013000D03*
Y7759000D03*
Y7505000D03*
Y7251000D03*
Y6997000D03*
Y6743000D03*
Y6489000D03*
Y6235000D03*
Y5981000D03*
Y5727000D03*
Y5473000D03*
Y5219000D03*
Y4965000D03*
Y4711000D03*
Y4457000D03*
Y4203000D03*
Y3949000D03*
Y3695000D03*
Y3441000D03*
Y3187000D03*
Y2933000D03*
Y2679000D03*
Y2425000D03*
Y2171000D03*
Y1917000D03*
X6807000Y9283000D03*
Y9029000D03*
Y8775000D03*
Y8521000D03*
Y8267000D03*
Y8013000D03*
Y7759000D03*
Y7505000D03*
Y7251000D03*
Y6997000D03*
Y6743000D03*
Y6489000D03*
Y6235000D03*
Y5981000D03*
Y5727000D03*
Y5473000D03*
Y5219000D03*
Y4965000D03*
Y4711000D03*
Y4457000D03*
Y4203000D03*
Y3949000D03*
Y3695000D03*
Y3441000D03*
Y3187000D03*
Y2933000D03*
Y2679000D03*
Y2425000D03*
Y2171000D03*
Y1917000D03*
X6553000Y9029000D03*
Y9283000D03*
Y8775000D03*
Y8521000D03*
Y8267000D03*
Y8013000D03*
Y7759000D03*
Y7505000D03*
Y7251000D03*
Y6997000D03*
Y6743000D03*
Y6489000D03*
Y6235000D03*
Y5981000D03*
Y5727000D03*
Y5473000D03*
Y5219000D03*
Y4965000D03*
Y4711000D03*
Y4457000D03*
Y4203000D03*
Y3949000D03*
Y3695000D03*
Y3441000D03*
Y3187000D03*
Y2933000D03*
Y2679000D03*
Y2425000D03*
Y2171000D03*
Y1917000D03*
X2328000Y10117000D03*
Y9863000D03*
X2074000Y10117000D03*
Y9863000D03*
X1820000Y10117000D03*
Y9863000D03*
X1566000Y10117000D03*
Y9863000D03*
X1312000Y10117000D03*
Y9863000D03*
X1600000Y1454000D03*
Y1200000D03*
Y946000D03*
G54D27*
X2700000Y9190000D03*
G54D28*
Y2510000D03*
G54D30*
X5400000Y2770000D03*
G54D29*
Y8930000D03*
G54D33*
X1157500Y503000D03*
X1642500D03*
X7057500D03*
X7542500D03*
G54D25*
X3507000Y879000D03*
X2193000D03*
%LPD*%
G75*
G54D10*
X400000Y400000D03*
X100000Y1100000D03*
Y700000D03*
Y1500000D03*
Y1900000D03*
Y2300000D03*
X200000Y2175000D03*
X100000Y2700000D03*
Y3100000D03*
Y3500000D03*
Y4300000D03*
Y3900000D03*
Y4700000D03*
Y5100000D03*
Y5500000D03*
Y5900000D03*
Y6300000D03*
Y6700000D03*
Y7100000D03*
Y7900000D03*
Y7500000D03*
X195000Y7475000D03*
X100000Y8300000D03*
Y8700000D03*
Y9100000D03*
Y9500000D03*
X400000Y10100000D03*
X100000Y9800000D03*
X344130Y1438000D03*
Y1359150D03*
Y1588000D03*
Y1509150D03*
X587700Y1475000D03*
Y1325000D03*
Y1175000D03*
X677120Y1780000D03*
X600000D03*
X587700Y1925000D03*
X412300Y1775000D03*
X587700Y1625000D03*
X370000Y1920000D03*
X395000Y2025000D03*
X412300Y2225000D03*
X587700Y2075000D03*
X280000Y2080000D03*
X587700Y3275000D03*
Y3125000D03*
Y2975000D03*
X405000Y3825000D03*
X665000Y3775000D03*
X587700Y3725000D03*
Y3575000D03*
Y3425000D03*
X340000Y3975000D03*
X660000Y4260000D03*
X415000Y3925000D03*
X587700Y4025000D03*
Y3875000D03*
X335690Y6507950D03*
X587700Y6475000D03*
X655000Y6330000D03*
X671630Y6408370D03*
X335690Y6592060D03*
X305690Y6807940D03*
Y6892050D03*
X587700Y6625000D03*
Y6775000D03*
Y6925000D03*
Y7075000D03*
Y7225000D03*
Y7375000D03*
X240000D03*
X412300Y7525000D03*
X587700Y8275000D03*
Y8725000D03*
Y8575000D03*
Y8425000D03*
X355000Y9275000D03*
X412300Y9225000D03*
X587700Y9025000D03*
Y8875000D03*
Y9175000D03*
X412300Y9325000D03*
X700000Y100000D03*
X775800Y850000D03*
Y950000D03*
X1040000Y1057700D03*
X1140000Y1065000D03*
X1090000Y742300D03*
X900000Y1200000D03*
X755970Y1780000D03*
X830000D03*
X806300Y4850000D03*
Y5000000D03*
Y5150000D03*
X1141700Y4850000D03*
Y5150000D03*
Y5000000D03*
X710000Y5630000D03*
X806300Y5400000D03*
Y5600000D03*
Y5300000D03*
X1141700D03*
Y5600000D03*
X755000Y5550000D03*
Y5480000D03*
X695000Y6090000D03*
X1100000Y6085000D03*
X731110Y6348890D03*
X995000Y6299300D03*
X700000Y7714200D03*
X800000Y7715000D03*
X696770Y8457940D03*
Y8542050D03*
Y8757950D03*
Y8842060D03*
X805000Y8992060D03*
Y8907950D03*
X914200Y9200000D03*
X805000Y9070000D03*
X914200Y9300000D03*
X850000Y9950000D03*
X1100000Y10400000D03*
X700000D03*
X1530000Y607700D03*
X1400000Y1950000D03*
X1502300Y5400000D03*
X1341700Y5590000D03*
Y5510000D03*
X1250000Y5641700D03*
X1160000Y5786300D03*
X1285000Y5862700D03*
X1160000Y6013700D03*
X1520000Y8307950D03*
Y8230000D03*
X1285000Y8607940D03*
Y8692050D03*
Y8770000D03*
Y8530000D03*
X1520000Y8470000D03*
Y8392060D03*
X1250000Y9150000D03*
X1550000Y10400000D03*
X1900000Y100000D03*
Y750000D03*
X1950000Y2450000D03*
X1800000Y2700000D03*
Y2950000D03*
Y3200000D03*
X1880000Y5642950D03*
X1675000Y5500000D03*
X1614200Y5600000D03*
X1880000Y5575000D03*
Y5727060D03*
X1815860Y6049140D03*
X1756380Y6108620D03*
X1880000Y5822950D03*
X1600000Y6015000D03*
X1880000Y5980000D03*
X1815000Y5775000D03*
X1880000Y5907060D03*
X1705000Y6165000D03*
X1960000Y6930000D03*
X1810000Y7460000D03*
X1990000Y7386300D03*
X1900000Y8150000D03*
X1990000Y7943700D03*
X1780000Y8640000D03*
X1710000Y9270000D03*
X1850000Y10400000D03*
X2300000Y100000D03*
X2400000Y1880000D03*
Y2140000D03*
X2152300Y2895000D03*
Y2775000D03*
X2427700Y2715000D03*
Y2835000D03*
Y2955000D03*
X2152300Y3015000D03*
Y3135000D03*
X2427700Y3195000D03*
Y3375000D03*
X2455000Y3280000D03*
X2427700Y3075000D03*
X2152300Y3255000D03*
X2060000Y3555000D03*
X2152300Y3795000D03*
Y3615000D03*
X2120000Y3495000D03*
X2060000Y3435000D03*
X2152300Y4155000D03*
Y3975000D03*
Y4695000D03*
Y4515000D03*
Y4335000D03*
Y5055000D03*
Y4875000D03*
Y5415000D03*
Y5235000D03*
Y5595000D03*
Y5955000D03*
Y5775000D03*
X2427700Y6555000D03*
X2152300Y6495000D03*
Y6315000D03*
Y6135000D03*
X2427700Y6735000D03*
Y6915000D03*
X2485000Y6615000D03*
X2152300Y6855000D03*
Y6675000D03*
X2495000Y7335000D03*
X2445000Y7275000D03*
Y7095000D03*
X2427700Y7455000D03*
X2152300Y7035000D03*
Y7215000D03*
Y7395000D03*
X2427700Y7875000D03*
X2300000Y7650000D03*
X2445000Y8175000D03*
X2427700Y7995000D03*
X2470000Y8355000D03*
X2152300Y7935000D03*
Y8115000D03*
Y8295000D03*
X2465000Y8535000D03*
X2480000Y8715000D03*
X2427700Y8775000D03*
X2152300Y8475000D03*
Y8655000D03*
X2480000Y8895000D03*
X2427700Y8955000D03*
X2152300Y8835000D03*
Y9015000D03*
X2300000Y10400000D03*
X2700000Y100000D03*
X2500000Y500000D03*
X2570000Y1400000D03*
X2765000Y2009000D03*
X2695000Y2030000D03*
X2700000Y2510000D03*
X2930000Y2080000D03*
X2730000Y2165000D03*
X2500000Y4550000D03*
X2550000Y5100000D03*
X2930000Y6015000D03*
X2835000Y6075000D03*
X2550000Y6375000D03*
X2625000Y6435000D03*
X2815000Y6195000D03*
X2890000Y6255000D03*
X2505000Y6795000D03*
X2500000Y6975000D03*
X2505000Y7155000D03*
X2850000Y7650000D03*
X2505000Y8055000D03*
Y8235000D03*
X2530000Y8415000D03*
X2520000Y8595000D03*
X2700000Y10400000D03*
X3100000Y100000D03*
Y850000D03*
X3250000Y1500000D03*
X3040000Y1905000D03*
X3400000Y1814800D03*
X3150000Y1812500D03*
X3400000Y2185200D03*
X3040000Y2095000D03*
X3150000Y2185200D03*
X2972300Y2925000D03*
X3247700Y2865000D03*
Y2745000D03*
X2972300Y2685000D03*
Y2805000D03*
X3247700Y2985000D03*
X2972300Y3165000D03*
X3247700Y3105000D03*
Y3225000D03*
X2972300Y3045000D03*
X3247700Y3765000D03*
Y3585000D03*
X3356500Y4254420D03*
Y4175570D03*
X3247700Y4305000D03*
Y4125000D03*
X3356000Y4531150D03*
Y4610000D03*
X3356500Y4434420D03*
Y4355570D03*
X3247700Y4665000D03*
Y4485000D03*
X3355900Y5075630D03*
Y5154370D03*
X3247700Y5205000D03*
Y5025000D03*
X3356000Y5334000D03*
Y5615260D03*
X3355900Y5514370D03*
X3356000Y5255260D03*
X3355900Y5435630D03*
X3247700Y5565000D03*
Y5385000D03*
X3356000Y5694000D03*
X3355900Y5795630D03*
X3247700Y6105000D03*
Y5925000D03*
Y5745000D03*
X3400000Y6100000D03*
X3355900Y5874370D03*
X3247700Y6465000D03*
Y6285000D03*
Y6645000D03*
Y7005000D03*
Y6825000D03*
X2972300Y7425000D03*
X3247700Y7365000D03*
Y7185000D03*
X2972300Y7845000D03*
X3247700Y7905000D03*
Y8265000D03*
Y8085000D03*
X3100000Y9200000D03*
X2975860Y9899380D03*
X3100000Y10400000D03*
X3500000Y100000D03*
X3700000Y104800D03*
Y295200D03*
X3510000Y1905000D03*
X3790000D03*
X3510000Y2095000D03*
X3650000Y2185200D03*
X3790000Y2095000D03*
X3575360Y3285000D03*
X3720000Y3345000D03*
X3790000Y3465000D03*
X3640000Y3405000D03*
X3850000Y3525000D03*
X3490000Y6285000D03*
Y8085000D03*
X3500000Y10400000D03*
X4300000Y100000D03*
X3950000Y104800D03*
X4200000Y164800D03*
X3950000Y295200D03*
X3980000Y1120000D03*
X4077700Y1235000D03*
Y1365000D03*
Y1300000D03*
X3934800Y1500000D03*
X4265200D03*
X3900000Y1814800D03*
X4300000Y1850000D03*
X3900000Y2185200D03*
Y3100000D03*
X3990000Y3530000D03*
X3950000Y4300000D03*
Y5150000D03*
X3955000Y6095000D03*
X4000000Y7750000D03*
X3900000Y9600000D03*
X4300000Y10400000D03*
X3900000D03*
X4700000Y100000D03*
X4400000Y1150000D03*
X4600000Y2650000D03*
X4700000Y10400000D03*
X5100000Y100000D03*
X5034800Y200000D03*
X4780000Y330000D03*
Y700000D03*
X4900000D03*
X5150000Y1200000D03*
X4800000Y1500000D03*
X5100000Y2300000D03*
X5165000Y3315000D03*
X5100000Y3150000D03*
X5050000Y7450000D03*
X5100000Y10400000D03*
X5500000Y100000D03*
X5420000Y565800D03*
X5280000Y330000D03*
X5550000Y1750000D03*
X5540000Y3210000D03*
X5364800Y9650000D03*
Y9450000D03*
X5500000Y10400000D03*
X6090000Y189800D03*
X5900000Y100000D03*
X5780000Y587300D03*
X5710000Y1020000D03*
X5810000Y1310200D03*
X6015000Y1305000D03*
X5920000D03*
X5720000Y2105800D03*
X5670000Y3540000D03*
X6050000Y9850000D03*
X5900000Y10400000D03*
X6300000Y100000D03*
X6190000Y480000D03*
X6480000Y934200D03*
X6218000Y1038700D03*
X6215000Y1193700D03*
X6200000Y10400000D03*
X6700000Y100000D03*
Y1350000D03*
X6892300Y1160000D03*
X7000000Y10400000D03*
X6800000D03*
X7430000Y610000D03*
X7450000Y704800D03*
Y1004800D03*
X7100000Y1047300D03*
Y900000D03*
Y1750000D03*
X7400000Y9700000D03*
Y10400000D03*
X8100000Y400000D03*
X7800000Y100000D03*
X7577700Y800000D03*
Y1100000D03*
X7815000D03*
X7650000Y1350000D03*
X7600000Y1850000D03*
X8100000Y10100000D03*
X7550000D03*
X7800000Y10400000D03*
X7998000Y931300D03*
X8197700Y1000000D03*
X8000000Y1510000D03*
X8020000Y1350000D03*
X8400000Y1100000D03*
Y700000D03*
Y1500000D03*
Y1900000D03*
Y2300000D03*
Y2700000D03*
Y3100000D03*
Y3500000D03*
Y3900000D03*
Y4300000D03*
Y4700000D03*
Y5100000D03*
Y5500000D03*
Y5800000D03*
Y6200000D03*
Y6600000D03*
Y7000000D03*
Y7400000D03*
Y7800000D03*
Y8200000D03*
Y8600000D03*
Y9000000D03*
Y9400000D03*
Y9800000D03*
G54D20*
G01X156900Y4525000D02*
X302000D01*
G01X156900Y5975000D02*
X302000D01*
G01Y4419900D02*
Y4525000D01*
G01D02*
Y4630100D01*
G01Y4525000D02*
X447100D01*
G01X302000Y5869900D02*
Y5975000D01*
G01D02*
Y6080100D01*
G01Y5975000D02*
X447100D01*
G01X1127500Y79900D02*
Y200000D01*
G01D02*
Y320100D01*
G01X1042400Y200000D02*
X1127500D01*
G01D02*
X1212600D01*
G01X1074900Y503000D02*
X1157500D01*
G01X898000Y4419900D02*
Y4525000D01*
G01D02*
Y4630100D01*
G01X702900Y4525000D02*
X898000D01*
G01D02*
X1093100D01*
G01X898000Y5869900D02*
Y5975000D01*
G01D02*
Y6080100D01*
G01X702900Y5975000D02*
X898000D01*
G01D02*
X1093100D01*
G01X1559900Y503000D02*
X1642500D01*
G01X1157500Y400400D02*
Y503000D01*
G01D02*
Y605600D01*
G01Y503000D02*
X1240100D01*
G01X1489900Y946000D02*
X1600000D01*
G01X1566000Y9752900D02*
Y9863000D01*
G01D02*
Y9973100D01*
G01X1455900Y9863000D02*
X1566000D01*
G01D02*
X1676100D01*
G01X1312000Y9752900D02*
Y9863000D01*
G01D02*
Y9973100D01*
G01X1201900Y9863000D02*
X1312000D01*
G01D02*
X1422100D01*
G01X1672500Y79900D02*
Y200000D01*
G01D02*
Y320100D01*
G01X1587400Y200000D02*
X1672500D01*
G01D02*
X1757600D01*
G01X1642500Y400400D02*
Y503000D01*
G01D02*
Y605600D01*
G01Y503000D02*
X1725100D01*
G01X1990400Y879000D02*
X2193000D01*
G01X1600000Y835900D02*
Y946000D01*
G01D02*
Y1056100D01*
G01Y946000D02*
X1710100D01*
G01X1963900Y9863000D02*
X2074000D01*
G01X1820000Y9752900D02*
Y9863000D01*
G01D02*
Y9973100D01*
G01X1709900Y9863000D02*
X1820000D01*
G01D02*
X1930100D01*
G01X2193000Y676400D02*
Y879000D01*
G01D02*
Y1081600D01*
G01Y879000D02*
X2395600D01*
G01X2328000Y9752900D02*
Y9863000D01*
G01D02*
Y9973100D01*
G01X2217900Y9863000D02*
X2328000D01*
G01D02*
X2438100D01*
G01X2074000Y9752900D02*
Y9863000D01*
G01D02*
Y9973100D01*
G01Y9863000D02*
X2184100D01*
G01X3304400Y879000D02*
X3507000D01*
G01X3200000Y1044900D02*
Y1150000D01*
G01D02*
Y1255100D01*
G01X3094900Y1150000D02*
X3200000D01*
G01D02*
X3305100D01*
G01X3507000Y676400D02*
Y879000D01*
G01D02*
Y1081600D01*
G01Y879000D02*
X3709600D01*
G01X6553000Y2060900D02*
Y2171000D01*
G01D02*
Y2281100D01*
G01X6442900Y2171000D02*
X6553000D01*
G01D02*
X6663100D01*
G01X6942400Y200000D02*
X7027500D01*
G01X6974900Y503000D02*
X7057500D01*
G01X6807000Y1806900D02*
Y1917000D01*
G01D02*
Y2027100D01*
G01X6696900Y1917000D02*
X6807000D01*
G01D02*
X6917100D01*
G01X6807000Y2060900D02*
Y2171000D01*
G01D02*
Y2281100D01*
G01X6696900Y2171000D02*
X6807000D01*
G01D02*
X6917100D01*
G01X6807000Y2568900D02*
Y2679000D01*
G01D02*
Y2789100D01*
G01X6696900Y2679000D02*
X6807000D01*
G01D02*
X6917100D01*
G01X6807000Y3076900D02*
Y3187000D01*
G01D02*
Y3297100D01*
G01X6696900Y3187000D02*
X6807000D01*
G01D02*
X6917100D01*
G01X6807000Y3584900D02*
Y3695000D01*
G01D02*
Y3805100D01*
G01X6696900Y3695000D02*
X6807000D01*
G01D02*
X6917100D01*
G01X6807000Y4092900D02*
Y4203000D01*
G01D02*
Y4313100D01*
G01X6696900Y4203000D02*
X6807000D01*
G01D02*
X6917100D01*
G01X6807000Y4600900D02*
Y4711000D01*
G01D02*
Y4821100D01*
G01X6696900Y4711000D02*
X6807000D01*
G01D02*
X6917100D01*
G01X6807000Y5108900D02*
Y5219000D01*
G01Y5616900D02*
Y5727000D01*
G01Y5219000D02*
Y5329100D01*
G01X6696900Y5219000D02*
X6807000D01*
G01D02*
X6917100D01*
G01X6807000Y5727000D02*
Y5837100D01*
G01X6696900Y5727000D02*
X6807000D01*
G01D02*
X6917100D01*
G01X6807000Y6124900D02*
Y6235000D01*
G01D02*
Y6345100D01*
G01X6696900Y6235000D02*
X6807000D01*
G01D02*
X6917100D01*
G01X6807000Y6632900D02*
Y6743000D01*
G01D02*
Y6853100D01*
G01X6696900Y6743000D02*
X6807000D01*
G01D02*
X6917100D01*
G01X6807000Y7140900D02*
Y7251000D01*
G01D02*
Y7361100D01*
G01X6696900Y7251000D02*
X6807000D01*
G01D02*
X6917100D01*
G01X6807000Y7648900D02*
Y7759000D01*
G01D02*
Y7869100D01*
G01X6696900Y7759000D02*
X6807000D01*
G01D02*
X6917100D01*
G01X6807000Y8156900D02*
Y8267000D01*
G01D02*
Y8377100D01*
G01X6696900Y8267000D02*
X6807000D01*
G01D02*
X6917100D01*
G01X6807000Y8664900D02*
Y8775000D01*
G01D02*
Y8885100D01*
G01X6696900Y8775000D02*
X6807000D01*
G01D02*
X6917100D01*
G01X6807000Y9172900D02*
Y9283000D01*
G01D02*
Y9393100D01*
G01X6696900Y9283000D02*
X6807000D01*
G01D02*
X6917100D01*
G01X7027500Y79900D02*
Y200000D01*
G01D02*
Y320100D01*
G01Y200000D02*
X7112600D01*
G01X7459900Y503000D02*
X7542500D01*
G01X7057500Y400400D02*
Y503000D01*
G01D02*
Y605600D01*
G01Y503000D02*
X7140100D01*
G01X7572500Y79900D02*
Y200000D01*
G01D02*
Y320100D01*
G01X7487400Y200000D02*
X7572500D01*
G01D02*
X7657600D01*
G01X7542500Y400400D02*
Y503000D01*
G01D02*
Y605600D01*
G01Y503000D02*
X7625100D01*
G01X8077000Y1806900D02*
Y1917000D01*
G01D02*
Y2027100D01*
G01X7966900Y1917000D02*
X8077000D01*
G01D02*
X8187100D01*
G01X8077000Y2060900D02*
Y2171000D01*
G01D02*
Y2281100D01*
G01X7966900Y2171000D02*
X8077000D01*
G01D02*
X8187100D01*
G01X8077000Y2568900D02*
Y2679000D01*
G01D02*
Y2789100D01*
G01X7966900Y2679000D02*
X8077000D01*
G01D02*
X8187100D01*
G01X8077000Y3076900D02*
Y3187000D01*
G01D02*
Y3297100D01*
G01X7966900Y3187000D02*
X8077000D01*
G01D02*
X8187100D01*
G01X8077000Y3584900D02*
Y3695000D01*
G01D02*
Y3805100D01*
G01X7966900Y3695000D02*
X8077000D01*
G01D02*
X8187100D01*
G01X8077000Y4092900D02*
Y4203000D01*
G01D02*
Y4313100D01*
G01X7966900Y4203000D02*
X8077000D01*
G01D02*
X8187100D01*
G01X8077000Y4600900D02*
Y4711000D01*
G01D02*
Y4821100D01*
G01X7966900Y4711000D02*
X8077000D01*
G01D02*
X8187100D01*
G01X8077000Y5108900D02*
Y5219000D01*
G01Y5616900D02*
Y5727000D01*
G01Y5219000D02*
Y5329100D01*
G01X7966900Y5219000D02*
X8077000D01*
G01D02*
X8187100D01*
G01X8077000Y5727000D02*
Y5837100D01*
G01X7966900Y5727000D02*
X8077000D01*
G01D02*
X8187100D01*
G01X8077000Y6124900D02*
Y6235000D01*
G01D02*
Y6345100D01*
G01X7966900Y6235000D02*
X8077000D01*
G01D02*
X8187100D01*
G01X8077000Y6632900D02*
Y6743000D01*
G01D02*
Y6853100D01*
G01X7966900Y6743000D02*
X8077000D01*
G01D02*
X8187100D01*
G01X8077000Y7140900D02*
Y7251000D01*
G01D02*
Y7361100D01*
G01X7966900Y7251000D02*
X8077000D01*
G01D02*
X8187100D01*
G01X8077000Y7648900D02*
Y7759000D01*
G01D02*
Y7869100D01*
G01X7966900Y7759000D02*
X8077000D01*
G01D02*
X8187100D01*
G01X8077000Y8156900D02*
Y8267000D01*
G01D02*
Y8377100D01*
G01X7966900Y8267000D02*
X8077000D01*
G01D02*
X8187100D01*
G01X8077000Y8664900D02*
Y8775000D01*
G01D02*
Y8885100D01*
G01X7966900Y8775000D02*
X8077000D01*
G01D02*
X8187100D01*
G01X8077000Y9172900D02*
Y9283000D01*
G01D02*
Y9393100D01*
G01X7966900Y9283000D02*
X8077000D01*
G01D02*
X8187100D01*
G54D11*
X302000Y4525000D03*
Y5975000D03*
G54D21*
G01X11098000Y160000D02*
Y256000D01*
X11118000D01*
X11126000Y251200D01*
X11132000Y244800D01*
X11137000Y235200D01*
X11141000Y224000D01*
X11142000Y208000D01*
X11141000Y192000D01*
X11137000Y180800D01*
X11132000Y171200D01*
X11126000Y164800D01*
X11118000Y160000D01*
X11098000D01*
G01X11178000D02*
Y256000D01*
X11203000D01*
X11211000Y251200D01*
X11216000Y244800D01*
X11218000Y232000D01*
X11216000Y219200D01*
X11210000Y211200D01*
X11203000Y206400D01*
X11178000D01*
G01X11203000D02*
X11218000Y160000D01*
G01X11251000D02*
X11276000Y256000D01*
X11301000Y160000D01*
G01X11292000Y193600D02*
X11260000D01*
G01X11324000Y256000D02*
X11338000Y160000D01*
X11354000Y256000D01*
X11370000Y160000D01*
X11384000Y256000D01*
G01X11409000Y160000D02*
Y256000D01*
X11455000Y160000D01*
Y256000D01*
G01X11128000Y550000D02*
Y646000D01*
X11148000D01*
X11156000Y641200D01*
X11162000Y634800D01*
X11167000Y625200D01*
X11171000Y614000D01*
X11172000Y598000D01*
X11171000Y582000D01*
X11167000Y570800D01*
X11162000Y561200D01*
X11156000Y554800D01*
X11148000Y550000D01*
X11128000D01*
G01X11203000D02*
X11228000Y646000D01*
X11253000Y550000D01*
G01X11244000Y583600D02*
X11212000D01*
G01X11306000Y646000D02*
Y550000D01*
G01X11283000Y646000D02*
X11329000D01*
G01X11404000Y550000D02*
X11364000D01*
Y646000D01*
X11404000D01*
G01X11388000Y599600D02*
X11364000D01*
G01X11120000Y1046000D02*
Y950000D01*
G01X11097000Y1046000D02*
X11143000D01*
G01X11186000D02*
X11210000D01*
G01X11198000D02*
Y950000D01*
G01X11186000D02*
X11210000D01*
G01X11276000Y1046000D02*
Y950000D01*
G01X11253000Y1046000D02*
X11299000D01*
G01X11334000D02*
Y950000D01*
X11374000D01*
G01X11452000D02*
X11412000D01*
Y1046000D01*
X11452000D01*
G01X11436000Y999600D02*
X11412000D01*
G01X13036000Y1496000D02*
X13029000Y1502400D01*
X13023000Y1504000D01*
X13015000Y1500800D01*
X13009000Y1494400D01*
X13005000Y1483200D01*
X13004000Y1472000D01*
X13005000Y1460800D01*
X13009000Y1451200D01*
X13015000Y1443200D01*
X13023000Y1440000D01*
X13030000Y1443200D01*
X13036000Y1449600D01*
G01X13234000Y1440000D02*
Y1536000D01*
X13259000D01*
X13267000Y1531200D01*
X13272000Y1524800D01*
X13274000Y1512000D01*
X13272000Y1499200D01*
X13266000Y1491200D01*
X13259000Y1486400D01*
X13234000D01*
G01X13259000D02*
X13274000Y1440000D01*
G01X13350000D02*
Y1504000D01*
G01Y1492800D02*
X13346000Y1499200D01*
X13340000Y1502400D01*
X13333000Y1504000D01*
X13326000Y1500800D01*
X13320000Y1494400D01*
X13316000Y1484800D01*
X13314000Y1472000D01*
X13316000Y1459200D01*
X13320000Y1449600D01*
X13326000Y1443200D01*
X13333000Y1440000D01*
X13340000Y1441600D01*
X13346000Y1446400D01*
X13350000Y1452800D01*
G01X13395000Y1451200D02*
X13400000Y1444800D01*
X13407000Y1440000D01*
X13413000D01*
X13419000Y1443200D01*
X13423000Y1448000D01*
X13425000Y1454400D01*
X13424000Y1464000D01*
X13420000Y1468800D01*
X13402000Y1478400D01*
X13398000Y1489600D01*
X13400000Y1497600D01*
X13404000Y1502400D01*
X13410000Y1504000D01*
X13416000Y1502400D01*
X13422000Y1497600D01*
G01X13470000Y1408000D02*
Y1504000D01*
G01Y1489600D02*
X13475000Y1497600D01*
X13480000Y1502400D01*
X13488000Y1504000D01*
X13495000Y1502400D01*
X13502000Y1494400D01*
X13505000Y1483200D01*
X13506000Y1472000D01*
X13505000Y1460800D01*
X13502000Y1449600D01*
X13496000Y1443200D01*
X13488000Y1440000D01*
X13481000Y1441600D01*
X13474000Y1446400D01*
X13470000Y1452800D01*
G01X13548000Y1440000D02*
Y1536000D01*
G01Y1488000D02*
X13553000Y1497600D01*
X13559000Y1502400D01*
X13565000Y1504000D01*
X13574000Y1500800D01*
X13580000Y1494400D01*
X13584000Y1483200D01*
Y1470400D01*
X13582000Y1457600D01*
X13578000Y1448000D01*
X13571000Y1441600D01*
X13565000Y1440000D01*
X13559000Y1441600D01*
X13553000Y1446400D01*
X13548000Y1454400D01*
G01X13629000Y1483200D02*
X13661000D01*
X13658000Y1494400D01*
X13653000Y1500800D01*
X13646000Y1504000D01*
X13639000Y1502400D01*
X13633000Y1497600D01*
X13629000Y1486400D01*
X13627000Y1476800D01*
Y1467200D01*
X13629000Y1457600D01*
X13634000Y1448000D01*
X13640000Y1441600D01*
X13647000Y1440000D01*
X13654000Y1443200D01*
X13661000Y1452800D01*
G01X13708000Y1440000D02*
Y1504000D01*
G01Y1491200D02*
X13713000Y1497600D01*
X13718000Y1502400D01*
X13725000Y1504000D01*
X13730000Y1502400D01*
X13736000Y1497600D01*
G01X13786000Y1440000D02*
Y1504000D01*
G01Y1491200D02*
X13791000Y1497600D01*
X13796000Y1502400D01*
X13803000Y1504000D01*
X13808000Y1502400D01*
X13814000Y1497600D01*
G01X13857000Y1411200D02*
X13863000Y1408000D01*
X13871000Y1411200D01*
X13876000Y1417600D01*
X13880000Y1425600D01*
X13886000Y1451200D01*
X13899000Y1504000D01*
G01X13867000D02*
X13886000Y1451200D01*
G01X14014000Y1440000D02*
Y1536000D01*
X14038000D01*
X14046000Y1531200D01*
X14052000Y1520000D01*
X14054000Y1507200D01*
X14052000Y1494400D01*
X14047000Y1484800D01*
X14038000Y1480000D01*
X14014000D01*
G01X14112000Y1504000D02*
Y1440000D01*
G01Y1529600D02*
X14110000Y1531200D01*
Y1534400D01*
X14112000Y1536000D01*
X14114000Y1534400D01*
Y1531200D01*
X14112000Y1529600D01*
G01X14249000Y1520000D02*
X14255000Y1529600D01*
X14262000Y1534400D01*
X14270000Y1536000D01*
X14280000Y1532800D01*
X14287000Y1524800D01*
X14289000Y1515200D01*
X14288000Y1505600D01*
X14284000Y1497600D01*
X14264000Y1481600D01*
X14255000Y1470400D01*
X14249000Y1454400D01*
X14247000Y1440000D01*
X14289000D01*
G01X14346000Y1536000D02*
X14338000Y1532800D01*
X14332000Y1524800D01*
X14328000Y1515200D01*
X14325000Y1502400D01*
X14324000Y1488000D01*
X14325000Y1473600D01*
X14328000Y1460800D01*
X14332000Y1451200D01*
X14338000Y1443200D01*
X14346000Y1440000D01*
X14354000Y1443200D01*
X14360000Y1451200D01*
X14364000Y1460800D01*
X14367000Y1473600D01*
X14368000Y1488000D01*
X14367000Y1502400D01*
X14364000Y1515200D01*
X14360000Y1524800D01*
X14354000Y1532800D01*
X14346000Y1536000D01*
G01X14424000Y1440000D02*
Y1536000D01*
X14412000Y1516800D01*
G01Y1440000D02*
X14436000D01*
G01X14514000D02*
Y1536000D01*
X14477000Y1467200D01*
X14527000D01*
G01X13385000Y150000D02*
X13410000Y246000D01*
X13435000Y150000D01*
G01X13426000Y183600D02*
X13394000D01*
G01X13468000Y150000D02*
Y246000D01*
X13492000D01*
X13500000Y241200D01*
X13506000Y230000D01*
X13508000Y217200D01*
X13506000Y204400D01*
X13501000Y194800D01*
X13492000Y190000D01*
X13468000D01*
G01X13541000Y246000D02*
X13566000Y150000D01*
X13591000Y246000D01*
G01X13622000Y150000D02*
Y246000D01*
X13642000D01*
X13650000Y241200D01*
X13656000Y234800D01*
X13661000Y225200D01*
X13665000Y214000D01*
X13666000Y198000D01*
X13665000Y182000D01*
X13661000Y170800D01*
X13656000Y161200D01*
X13650000Y154800D01*
X13642000Y150000D01*
X13622000D01*
G01X13420000Y540000D02*
Y636000D01*
X13445000D01*
X13453000Y631200D01*
X13458000Y624800D01*
X13460000Y612000D01*
X13458000Y599200D01*
X13452000Y591200D01*
X13445000Y586400D01*
X13420000D01*
G01X13445000D02*
X13460000Y540000D01*
G01X13538000D02*
X13498000D01*
Y636000D01*
X13538000D01*
G01X13522000Y589600D02*
X13498000D01*
G01X13577000Y540000D02*
Y636000D01*
X13615000D01*
G01X13601000Y589600D02*
X13577000D01*
G54D12*
X1127500Y200000D03*
X1672500D03*
X7027500D03*
X7572500D03*
G54D22*
G01X3001600Y12415200D02*
Y12300000D01*
X3049600D01*
G01X3119200Y12415200D02*
X3109600Y12411360D01*
X3102400Y12401760D01*
X3097600Y12390240D01*
X3094000Y12374880D01*
X3092800Y12357600D01*
X3094000Y12340320D01*
X3097600Y12324960D01*
X3102400Y12313440D01*
X3109600Y12303840D01*
X3119200Y12300000D01*
X3128800Y12303840D01*
X3136000Y12313440D01*
X3140800Y12324960D01*
X3144400Y12340320D01*
X3145600Y12357600D01*
X3144400Y12374880D01*
X3140800Y12390240D01*
X3136000Y12401760D01*
X3128800Y12411360D01*
X3119200Y12415200D01*
G01X3190000Y12396000D02*
X3197200Y12407520D01*
X3205600Y12413280D01*
X3215200Y12415200D01*
X3227200Y12411360D01*
X3235600Y12401760D01*
X3238000Y12390240D01*
X3236800Y12378720D01*
X3232000Y12369120D01*
X3208000Y12349920D01*
X3197200Y12336480D01*
X3190000Y12317280D01*
X3187600Y12300000D01*
X3238000D01*
G01X3384400Y12338400D02*
X3415600D01*
G01X3594400Y12357600D02*
X3618400D01*
Y12323040D01*
X3611200Y12311520D01*
X3602800Y12303840D01*
X3590800Y12300000D01*
X3578800Y12303840D01*
X3570400Y12311520D01*
X3563200Y12323040D01*
X3558400Y12336480D01*
X3556000Y12351840D01*
Y12365280D01*
X3558400Y12376800D01*
X3563200Y12390240D01*
X3570400Y12401760D01*
X3577600Y12409440D01*
X3587200Y12415200D01*
X3595600D01*
X3605200Y12411360D01*
X3612400Y12403680D01*
G01X3653200Y12300000D02*
Y12415200D01*
X3708400Y12300000D01*
Y12415200D01*
G01X3748000Y12300000D02*
Y12415200D01*
X3772000D01*
X3781600Y12409440D01*
X3788800Y12401760D01*
X3794800Y12390240D01*
X3799600Y12376800D01*
X3800800Y12357600D01*
X3799600Y12338400D01*
X3794800Y12324960D01*
X3788800Y12313440D01*
X3781600Y12305760D01*
X3772000Y12300000D01*
X3748000D01*
G01X11958000Y163040D02*
X11964000Y151520D01*
X11971200Y143840D01*
X11979600Y140000D01*
X11989200Y143840D01*
X11996400Y151520D01*
X12003600Y163040D01*
X12006000Y178400D01*
Y255200D01*
G01X12097200Y140000D02*
Y216800D01*
G01Y203360D02*
X12092400Y211040D01*
X12085200Y214880D01*
X12076800Y216800D01*
X12068400Y212960D01*
X12061200Y205280D01*
X12056400Y193760D01*
X12054000Y178400D01*
X12056400Y163040D01*
X12061200Y151520D01*
X12068400Y143840D01*
X12076800Y140000D01*
X12085200Y141920D01*
X12092400Y147680D01*
X12097200Y155360D01*
G01X12133200Y140000D02*
Y216800D01*
G01Y195680D02*
X12136800Y205280D01*
X12142800Y212960D01*
X12151200Y216800D01*
X12159600Y212960D01*
X12165600Y205280D01*
X12169200Y195680D01*
Y140000D01*
G01Y195680D02*
X12172800Y205280D01*
X12178800Y212960D01*
X12187200Y216800D01*
X12195600Y212960D01*
X12201600Y205280D01*
X12205200Y193760D01*
Y140000D01*
G01X12244800Y191840D02*
X12283200D01*
X12279600Y205280D01*
X12273600Y212960D01*
X12265200Y216800D01*
X12256800Y214880D01*
X12249600Y209120D01*
X12244800Y195680D01*
X12242400Y184160D01*
Y172640D01*
X12244800Y161120D01*
X12250800Y149600D01*
X12258000Y141920D01*
X12266400Y140000D01*
X12274800Y143840D01*
X12283200Y155360D01*
G01X12338400Y153440D02*
X12344400Y145760D01*
X12352800Y140000D01*
X12360000D01*
X12367200Y143840D01*
X12372000Y149600D01*
X12374400Y157280D01*
X12373200Y168800D01*
X12368400Y174560D01*
X12346800Y186080D01*
X12342000Y199520D01*
X12344400Y209120D01*
X12349200Y214880D01*
X12356400Y216800D01*
X12363600Y214880D01*
X12370800Y209120D01*
G01X12513600Y140000D02*
X12543600Y255200D01*
X12573600Y140000D01*
G01X12562800Y180320D02*
X12524400D01*
G01X12658800Y255200D02*
Y140000D01*
G01Y157280D02*
X12654000Y147680D01*
X12646800Y141920D01*
X12638400Y140000D01*
X12628800Y143840D01*
X12621600Y153440D01*
X12616800Y164960D01*
X12615600Y178400D01*
X12616800Y191840D01*
X12621600Y203360D01*
X12628800Y212960D01*
X12638400Y216800D01*
X12646800Y214880D01*
X12652800Y211040D01*
X12658800Y203360D01*
G01X12752400Y140000D02*
Y216800D01*
G01Y203360D02*
X12747600Y211040D01*
X12740400Y214880D01*
X12732000Y216800D01*
X12723600Y212960D01*
X12716400Y205280D01*
X12711600Y193760D01*
X12709200Y178400D01*
X12711600Y163040D01*
X12716400Y151520D01*
X12723600Y143840D01*
X12732000Y140000D01*
X12740400Y141920D01*
X12747600Y147680D01*
X12752400Y155360D01*
G01X12788400Y140000D02*
Y216800D01*
G01Y195680D02*
X12792000Y205280D01*
X12798000Y212960D01*
X12806400Y216800D01*
X12814800Y212960D01*
X12820800Y205280D01*
X12824400Y195680D01*
Y140000D01*
G01Y195680D02*
X12828000Y205280D01*
X12834000Y212960D01*
X12842400Y216800D01*
X12850800Y212960D01*
X12856800Y205280D01*
X12860400Y193760D01*
Y140000D01*
G01X12900000Y153440D02*
X12906000Y145760D01*
X12914400Y140000D01*
X12921600D01*
X12928800Y143840D01*
X12933600Y149600D01*
X12936000Y157280D01*
X12934800Y168800D01*
X12930000Y174560D01*
X12908400Y186080D01*
X12903600Y199520D01*
X12906000Y209120D01*
X12910800Y214880D01*
X12918000Y216800D01*
X12925200Y214880D01*
X12932400Y209120D01*
G01X12018800Y540000D02*
Y655200D01*
X12004400Y632160D01*
G01Y540000D02*
X12033200D01*
G01X12112400Y655200D02*
X12102800Y651360D01*
X12095600Y641760D01*
X12090800Y630240D01*
X12087200Y614880D01*
X12086000Y597600D01*
X12087200Y580320D01*
X12090800Y564960D01*
X12095600Y553440D01*
X12102800Y543840D01*
X12112400Y540000D01*
X12122000Y543840D01*
X12129200Y553440D01*
X12134000Y564960D01*
X12137600Y580320D01*
X12138800Y597600D01*
X12137600Y614880D01*
X12134000Y630240D01*
X12129200Y641760D01*
X12122000Y651360D01*
X12112400Y655200D01*
G01X12184400Y536160D02*
X12227600Y655200D01*
G01X12299600D02*
X12290000Y651360D01*
X12282800Y641760D01*
X12278000Y630240D01*
X12274400Y614880D01*
X12273200Y597600D01*
X12274400Y580320D01*
X12278000Y564960D01*
X12282800Y553440D01*
X12290000Y543840D01*
X12299600Y540000D01*
X12309200Y543840D01*
X12316400Y553440D01*
X12321200Y564960D01*
X12324800Y580320D01*
X12326000Y597600D01*
X12324800Y614880D01*
X12321200Y630240D01*
X12316400Y641760D01*
X12309200Y651360D01*
X12299600Y655200D01*
G01X12407600Y540000D02*
Y655200D01*
X12363200Y572640D01*
X12423200D01*
G01X12465200Y536160D02*
X12508400Y655200D01*
G01X12557600Y636000D02*
X12564800Y647520D01*
X12573200Y653280D01*
X12582800Y655200D01*
X12594800Y651360D01*
X12603200Y641760D01*
X12605600Y630240D01*
X12604400Y618720D01*
X12599600Y609120D01*
X12575600Y589920D01*
X12564800Y576480D01*
X12557600Y557280D01*
X12555200Y540000D01*
X12605600D01*
G01X12674000Y655200D02*
X12664400Y651360D01*
X12657200Y641760D01*
X12652400Y630240D01*
X12648800Y614880D01*
X12647600Y597600D01*
X12648800Y580320D01*
X12652400Y564960D01*
X12657200Y553440D01*
X12664400Y543840D01*
X12674000Y540000D01*
X12683600Y543840D01*
X12690800Y553440D01*
X12695600Y564960D01*
X12699200Y580320D01*
X12700400Y597600D01*
X12699200Y614880D01*
X12695600Y630240D01*
X12690800Y641760D01*
X12683600Y651360D01*
X12674000Y655200D01*
G01X12767600Y540000D02*
Y655200D01*
X12753200Y632160D01*
G01Y540000D02*
X12782000D01*
G01X12875600D02*
Y655200D01*
X12831200Y572640D01*
X12891200D01*
G01X11848000Y950000D02*
Y1065200D01*
X11878000D01*
X11887600Y1059440D01*
X11893600Y1051760D01*
X11896000Y1036400D01*
X11893600Y1021040D01*
X11886400Y1011440D01*
X11878000Y1005680D01*
X11848000D01*
G01X11878000D02*
X11896000Y950000D01*
G01X11935600D02*
X11965600Y1065200D01*
X11995600Y950000D01*
G01X11984800Y990320D02*
X11946400D01*
G01X12034000Y965360D02*
X12043600Y955760D01*
X12054400Y950000D01*
X12064000D01*
X12073600Y955760D01*
X12080800Y965360D01*
X12084400Y978800D01*
X12082000Y992240D01*
X12076000Y1003760D01*
X12065200Y1011440D01*
X12050800Y1015280D01*
X12042400Y1022960D01*
X12038800Y1036400D01*
X12041200Y1049840D01*
X12047200Y1059440D01*
X12055600Y1065200D01*
X12064000D01*
X12072400Y1061360D01*
X12079600Y1051760D01*
G01X12128800Y950000D02*
Y1065200D01*
X12157600D01*
X12167200Y1059440D01*
X12174400Y1046000D01*
X12176800Y1030640D01*
X12174400Y1015280D01*
X12168400Y1003760D01*
X12157600Y998000D01*
X12128800D01*
G01X12256000Y1011440D02*
X12260800Y1017200D01*
X12264400Y1026800D01*
X12266800Y1040240D01*
X12264400Y1051760D01*
X12259600Y1059440D01*
X12251200Y1065200D01*
X12218800D01*
Y950000D01*
X12258400D01*
X12266800Y957680D01*
X12271600Y969200D01*
X12274000Y982640D01*
X12271600Y996080D01*
X12264400Y1007600D01*
X12256000Y1011440D01*
X12218800D01*
G01X12364000Y950000D02*
X12316000D01*
Y1065200D01*
X12364000D01*
G01X12344800Y1009520D02*
X12316000D01*
G01X12409600Y950000D02*
Y1065200D01*
X12439600D01*
X12449200Y1059440D01*
X12455200Y1051760D01*
X12457600Y1036400D01*
X12455200Y1021040D01*
X12448000Y1011440D01*
X12439600Y1005680D01*
X12409600D01*
G01X12439600D02*
X12457600Y950000D01*
G01X12503200D02*
Y1065200D01*
X12533200D01*
X12542800Y1059440D01*
X12548800Y1051760D01*
X12551200Y1036400D01*
X12548800Y1021040D01*
X12541600Y1011440D01*
X12533200Y1005680D01*
X12503200D01*
G01X12533200D02*
X12551200Y950000D01*
G01X12620800D02*
Y1001840D01*
X12596800Y1065200D01*
G01X12644800D02*
X12620800Y1001840D01*
G01X12784000Y950000D02*
Y1065200D01*
X12812800D01*
X12822400Y1059440D01*
X12829600Y1046000D01*
X12832000Y1030640D01*
X12829600Y1015280D01*
X12823600Y1003760D01*
X12812800Y998000D01*
X12784000D01*
G01X12887200Y1065200D02*
X12916000D01*
G01X12901600D02*
Y950000D01*
G01X12887200D02*
X12916000D01*
G01X13115200Y1055600D02*
X13108000Y1061360D01*
X13099600Y1065200D01*
X13090000D01*
X13079200Y1059440D01*
X13070800Y1049840D01*
X13064800Y1038320D01*
X13060000Y1019120D01*
X13058800Y1001840D01*
X13061200Y984560D01*
X13064800Y973040D01*
X13072000Y961520D01*
X13080400Y953840D01*
X13088800Y950000D01*
X13097200D01*
X13105600Y953840D01*
X13112800Y959600D01*
X13118800Y967280D01*
G01X13182400Y950000D02*
X13172800Y951920D01*
X13164400Y959600D01*
X13157200Y971120D01*
X13152400Y984560D01*
X13150000Y999920D01*
Y1015280D01*
X13152400Y1030640D01*
X13157200Y1044080D01*
X13164400Y1055600D01*
X13172800Y1063280D01*
X13182400Y1065200D01*
X13192000Y1063280D01*
X13200400Y1055600D01*
X13207600Y1044080D01*
X13212400Y1030640D01*
X13214800Y1015280D01*
Y999920D01*
X13212400Y984560D01*
X13207600Y971120D01*
X13200400Y959600D01*
X13192000Y951920D01*
X13182400Y950000D01*
G01X13244800D02*
Y1065200D01*
X13276000Y969200D01*
X13307200Y1065200D01*
Y950000D01*
G01X13345600D02*
Y1065200D01*
X13374400D01*
X13384000Y1059440D01*
X13391200Y1046000D01*
X13393600Y1030640D01*
X13391200Y1015280D01*
X13385200Y1003760D01*
X13374400Y998000D01*
X13345600D01*
G01X13436800Y1065200D02*
Y982640D01*
X13441600Y965360D01*
X13451200Y953840D01*
X13463200Y950000D01*
X13475200Y953840D01*
X13484800Y965360D01*
X13489600Y982640D01*
Y1065200D01*
G01X13556800D02*
Y950000D01*
G01X13529200Y1065200D02*
X13584400D01*
G01X13674400Y950000D02*
X13626400D01*
Y1065200D01*
X13674400D01*
G01X13655200Y1009520D02*
X13626400D01*
G01X13806400Y950000D02*
Y1065200D01*
X13837600Y969200D01*
X13868800Y1065200D01*
Y950000D01*
G01X13931200D02*
X13921600Y951920D01*
X13913200Y959600D01*
X13906000Y971120D01*
X13901200Y984560D01*
X13898800Y999920D01*
Y1015280D01*
X13901200Y1030640D01*
X13906000Y1044080D01*
X13913200Y1055600D01*
X13921600Y1063280D01*
X13931200Y1065200D01*
X13940800Y1063280D01*
X13949200Y1055600D01*
X13956400Y1044080D01*
X13961200Y1030640D01*
X13963600Y1015280D01*
Y999920D01*
X13961200Y984560D01*
X13956400Y971120D01*
X13949200Y959600D01*
X13940800Y951920D01*
X13931200Y950000D01*
G01X13998400D02*
Y1065200D01*
X14022400D01*
X14032000Y1059440D01*
X14039200Y1051760D01*
X14045200Y1040240D01*
X14050000Y1026800D01*
X14051200Y1007600D01*
X14050000Y988400D01*
X14045200Y974960D01*
X14039200Y963440D01*
X14032000Y955760D01*
X14022400Y950000D01*
X13998400D01*
G01X14092000Y1065200D02*
Y982640D01*
X14096800Y965360D01*
X14106400Y953840D01*
X14118400Y950000D01*
X14130400Y953840D01*
X14140000Y965360D01*
X14144800Y982640D01*
Y1065200D01*
G01X14188000D02*
Y950000D01*
X14236000D01*
G01X14329600D02*
X14281600D01*
Y1065200D01*
X14329600D01*
G01X14310400Y1009520D02*
X14281600D01*
G01X14478400Y1065200D02*
X14507200D01*
G01X14492800D02*
Y950000D01*
G01X14478400D02*
X14507200D01*
G01X14586400D02*
X14576800Y951920D01*
X14568400Y959600D01*
X14561200Y971120D01*
X14556400Y984560D01*
X14554000Y999920D01*
Y1015280D01*
X14556400Y1030640D01*
X14561200Y1044080D01*
X14568400Y1055600D01*
X14576800Y1063280D01*
X14586400Y1065200D01*
X14596000Y1063280D01*
X14604400Y1055600D01*
X14611600Y1044080D01*
X14616400Y1030640D01*
X14618800Y1015280D01*
Y999920D01*
X14616400Y984560D01*
X14611600Y971120D01*
X14604400Y959600D01*
X14596000Y951920D01*
X14586400Y950000D01*
G01X14783200Y1011440D02*
X14788000Y1017200D01*
X14791600Y1026800D01*
X14794000Y1040240D01*
X14791600Y1051760D01*
X14786800Y1059440D01*
X14778400Y1065200D01*
X14746000D01*
Y950000D01*
X14785600D01*
X14794000Y957680D01*
X14798800Y969200D01*
X14801200Y982640D01*
X14798800Y996080D01*
X14791600Y1007600D01*
X14783200Y1011440D01*
X14746000D01*
G01X14867200Y950000D02*
X14857600Y951920D01*
X14849200Y959600D01*
X14842000Y971120D01*
X14837200Y984560D01*
X14834800Y999920D01*
Y1015280D01*
X14837200Y1030640D01*
X14842000Y1044080D01*
X14849200Y1055600D01*
X14857600Y1063280D01*
X14867200Y1065200D01*
X14876800Y1063280D01*
X14885200Y1055600D01*
X14892400Y1044080D01*
X14897200Y1030640D01*
X14899600Y1015280D01*
Y999920D01*
X14897200Y984560D01*
X14892400Y971120D01*
X14885200Y959600D01*
X14876800Y951920D01*
X14867200Y950000D01*
G01X14930800D02*
X14960800Y1065200D01*
X14990800Y950000D01*
G01X14980000Y990320D02*
X14941600D01*
G01X15030400Y950000D02*
Y1065200D01*
X15060400D01*
X15070000Y1059440D01*
X15076000Y1051760D01*
X15078400Y1036400D01*
X15076000Y1021040D01*
X15068800Y1011440D01*
X15060400Y1005680D01*
X15030400D01*
G01X15060400D02*
X15078400Y950000D01*
G01X15121600D02*
Y1065200D01*
X15145600D01*
X15155200Y1059440D01*
X15162400Y1051760D01*
X15168400Y1040240D01*
X15173200Y1026800D01*
X15174400Y1007600D01*
X15173200Y988400D01*
X15168400Y974960D01*
X15162400Y963440D01*
X15155200Y955760D01*
X15145600Y950000D01*
X15121600D01*
G01X12896000Y1766800D02*
X12910400Y1690000D01*
X12926000Y1766800D01*
X12941600Y1690000D01*
X12956000Y1766800D01*
G01X12989600D02*
X13004000Y1690000D01*
X13019600Y1766800D01*
X13035200Y1690000D01*
X13049600Y1766800D01*
G01X13083200D02*
X13097600Y1690000D01*
X13113200Y1766800D01*
X13128800Y1690000D01*
X13143200Y1766800D01*
G01X13206800Y1686160D02*
X13204400Y1688080D01*
Y1691920D01*
X13206800Y1693840D01*
X13209200Y1691920D01*
Y1688080D01*
X13206800Y1686160D01*
G01X13283600Y1690000D02*
Y1766800D01*
G01Y1751440D02*
X13289600Y1759120D01*
X13295600Y1764880D01*
X13304000Y1766800D01*
X13310000Y1764880D01*
X13317200Y1759120D01*
G01X13415600Y1690000D02*
Y1766800D01*
G01Y1753360D02*
X13410800Y1761040D01*
X13403600Y1764880D01*
X13395200Y1766800D01*
X13386800Y1762960D01*
X13379600Y1755280D01*
X13374800Y1743760D01*
X13372400Y1728400D01*
X13374800Y1713040D01*
X13379600Y1701520D01*
X13386800Y1693840D01*
X13395200Y1690000D01*
X13403600Y1691920D01*
X13410800Y1697680D01*
X13415600Y1705360D01*
G01X13469600Y1703440D02*
X13475600Y1695760D01*
X13484000Y1690000D01*
X13491200D01*
X13498400Y1693840D01*
X13503200Y1699600D01*
X13505600Y1707280D01*
X13504400Y1718800D01*
X13499600Y1724560D01*
X13478000Y1736080D01*
X13473200Y1749520D01*
X13475600Y1759120D01*
X13480400Y1764880D01*
X13487600Y1766800D01*
X13494800Y1764880D01*
X13502000Y1759120D01*
G01X13559600Y1651600D02*
Y1766800D01*
G01Y1749520D02*
X13565600Y1759120D01*
X13571600Y1764880D01*
X13581200Y1766800D01*
X13589600Y1764880D01*
X13598000Y1755280D01*
X13601600Y1741840D01*
X13602800Y1728400D01*
X13601600Y1714960D01*
X13598000Y1701520D01*
X13590800Y1693840D01*
X13581200Y1690000D01*
X13572800Y1691920D01*
X13564400Y1697680D01*
X13559600Y1705360D01*
G01X13653200Y1690000D02*
Y1805200D01*
G01Y1747600D02*
X13659200Y1759120D01*
X13666400Y1764880D01*
X13673600Y1766800D01*
X13684400Y1762960D01*
X13691600Y1755280D01*
X13696400Y1741840D01*
Y1726480D01*
X13694000Y1711120D01*
X13689200Y1699600D01*
X13680800Y1691920D01*
X13673600Y1690000D01*
X13666400Y1691920D01*
X13659200Y1697680D01*
X13653200Y1707280D01*
G01X13750400Y1741840D02*
X13788800D01*
X13785200Y1755280D01*
X13779200Y1762960D01*
X13770800Y1766800D01*
X13762400Y1764880D01*
X13755200Y1759120D01*
X13750400Y1745680D01*
X13748000Y1734160D01*
Y1722640D01*
X13750400Y1711120D01*
X13756400Y1699600D01*
X13763600Y1691920D01*
X13772000Y1690000D01*
X13780400Y1693840D01*
X13788800Y1705360D01*
G01X13845200Y1690000D02*
Y1766800D01*
G01Y1751440D02*
X13851200Y1759120D01*
X13857200Y1764880D01*
X13865600Y1766800D01*
X13871600Y1764880D01*
X13878800Y1759120D01*
G01X13938800Y1690000D02*
Y1766800D01*
G01Y1751440D02*
X13944800Y1759120D01*
X13950800Y1764880D01*
X13959200Y1766800D01*
X13965200Y1764880D01*
X13972400Y1759120D01*
G01X14024000Y1655440D02*
X14031200Y1651600D01*
X14040800Y1655440D01*
X14046800Y1663120D01*
X14051600Y1672720D01*
X14058800Y1703440D01*
X14074400Y1766800D01*
G01X14036000D02*
X14058800Y1703440D01*
G01X14121200Y1651600D02*
Y1766800D01*
G01Y1749520D02*
X14127200Y1759120D01*
X14133200Y1764880D01*
X14142800Y1766800D01*
X14151200Y1764880D01*
X14159600Y1755280D01*
X14163200Y1741840D01*
X14164400Y1728400D01*
X14163200Y1714960D01*
X14159600Y1701520D01*
X14152400Y1693840D01*
X14142800Y1690000D01*
X14134400Y1691920D01*
X14126000Y1697680D01*
X14121200Y1705360D01*
G01X14236400Y1766800D02*
Y1690000D01*
G01Y1797520D02*
X14234000Y1799440D01*
Y1803280D01*
X14236400Y1805200D01*
X14238800Y1803280D01*
Y1799440D01*
X14236400Y1797520D01*
G01X14330000Y1686160D02*
X14327600Y1688080D01*
Y1691920D01*
X14330000Y1693840D01*
X14332400Y1691920D01*
Y1688080D01*
X14330000Y1686160D01*
G01X14423600Y1690000D02*
X14416400Y1691920D01*
X14409200Y1699600D01*
X14404400Y1713040D01*
X14402000Y1728400D01*
X14404400Y1743760D01*
X14409200Y1757200D01*
X14416400Y1764880D01*
X14423600Y1766800D01*
X14430800Y1764880D01*
X14438000Y1757200D01*
X14442800Y1743760D01*
X14444000Y1728400D01*
X14442800Y1713040D01*
X14438000Y1699600D01*
X14430800Y1691920D01*
X14423600Y1690000D01*
G01X14500400D02*
Y1766800D01*
G01Y1751440D02*
X14506400Y1759120D01*
X14512400Y1764880D01*
X14520800Y1766800D01*
X14526800Y1764880D01*
X14534000Y1759120D01*
G01X14594000Y1661200D02*
X14602400Y1653520D01*
X14612000Y1651600D01*
X14620400Y1653520D01*
X14627600Y1663120D01*
X14632400Y1676560D01*
Y1766800D01*
G01Y1751440D02*
X14627600Y1759120D01*
X14620400Y1764880D01*
X14612000Y1766800D01*
X14602400Y1762960D01*
X14596400Y1755280D01*
X14591600Y1741840D01*
X14589200Y1728400D01*
X14590400Y1716880D01*
X14595200Y1703440D01*
X14602400Y1693840D01*
X14612000Y1690000D01*
X14619200Y1691920D01*
X14627600Y1699600D01*
X14632400Y1707280D01*
G01X14138000Y163040D02*
X14144000Y151520D01*
X14151200Y143840D01*
X14159600Y140000D01*
X14169200Y143840D01*
X14176400Y151520D01*
X14183600Y163040D01*
X14186000Y178400D01*
Y255200D01*
G01X14277200Y140000D02*
Y216800D01*
G01Y203360D02*
X14272400Y211040D01*
X14265200Y214880D01*
X14256800Y216800D01*
X14248400Y212960D01*
X14241200Y205280D01*
X14236400Y193760D01*
X14234000Y178400D01*
X14236400Y163040D01*
X14241200Y151520D01*
X14248400Y143840D01*
X14256800Y140000D01*
X14265200Y141920D01*
X14272400Y147680D01*
X14277200Y155360D01*
G01X14313200Y140000D02*
Y216800D01*
G01Y195680D02*
X14316800Y205280D01*
X14322800Y212960D01*
X14331200Y216800D01*
X14339600Y212960D01*
X14345600Y205280D01*
X14349200Y195680D01*
Y140000D01*
G01Y195680D02*
X14352800Y205280D01*
X14358800Y212960D01*
X14367200Y216800D01*
X14375600Y212960D01*
X14381600Y205280D01*
X14385200Y193760D01*
Y140000D01*
G01X14424800Y191840D02*
X14463200D01*
X14459600Y205280D01*
X14453600Y212960D01*
X14445200Y216800D01*
X14436800Y214880D01*
X14429600Y209120D01*
X14424800Y195680D01*
X14422400Y184160D01*
Y172640D01*
X14424800Y161120D01*
X14430800Y149600D01*
X14438000Y141920D01*
X14446400Y140000D01*
X14454800Y143840D01*
X14463200Y155360D01*
G01X14518400Y153440D02*
X14524400Y145760D01*
X14532800Y140000D01*
X14540000D01*
X14547200Y143840D01*
X14552000Y149600D01*
X14554400Y157280D01*
X14553200Y168800D01*
X14548400Y174560D01*
X14526800Y186080D01*
X14522000Y199520D01*
X14524400Y209120D01*
X14529200Y214880D01*
X14536400Y216800D01*
X14543600Y214880D01*
X14550800Y209120D01*
G01X14693600Y140000D02*
X14723600Y255200D01*
X14753600Y140000D01*
G01X14742800Y180320D02*
X14704400D01*
G01X14838800Y255200D02*
Y140000D01*
G01Y157280D02*
X14834000Y147680D01*
X14826800Y141920D01*
X14818400Y140000D01*
X14808800Y143840D01*
X14801600Y153440D01*
X14796800Y164960D01*
X14795600Y178400D01*
X14796800Y191840D01*
X14801600Y203360D01*
X14808800Y212960D01*
X14818400Y216800D01*
X14826800Y214880D01*
X14832800Y211040D01*
X14838800Y203360D01*
G01X14932400Y140000D02*
Y216800D01*
G01Y203360D02*
X14927600Y211040D01*
X14920400Y214880D01*
X14912000Y216800D01*
X14903600Y212960D01*
X14896400Y205280D01*
X14891600Y193760D01*
X14889200Y178400D01*
X14891600Y163040D01*
X14896400Y151520D01*
X14903600Y143840D01*
X14912000Y140000D01*
X14920400Y141920D01*
X14927600Y147680D01*
X14932400Y155360D01*
G01X14968400Y140000D02*
Y216800D01*
G01Y195680D02*
X14972000Y205280D01*
X14978000Y212960D01*
X14986400Y216800D01*
X14994800Y212960D01*
X15000800Y205280D01*
X15004400Y195680D01*
Y140000D01*
G01Y195680D02*
X15008000Y205280D01*
X15014000Y212960D01*
X15022400Y216800D01*
X15030800Y212960D01*
X15036800Y205280D01*
X15040400Y193760D01*
Y140000D01*
G01X15080000Y153440D02*
X15086000Y145760D01*
X15094400Y140000D01*
X15101600D01*
X15108800Y143840D01*
X15113600Y149600D01*
X15116000Y157280D01*
X15114800Y168800D01*
X15110000Y174560D01*
X15088400Y186080D01*
X15083600Y199520D01*
X15086000Y209120D01*
X15090800Y214880D01*
X15098000Y216800D01*
X15105200Y214880D01*
X15112400Y209120D01*
G01X14034400Y530000D02*
Y645200D01*
X14064400D01*
X14074000Y639440D01*
X14080000Y631760D01*
X14082400Y616400D01*
X14080000Y601040D01*
X14072800Y591440D01*
X14064400Y585680D01*
X14034400D01*
G01X14064400D02*
X14082400Y530000D01*
G01X14128000D02*
Y645200D01*
X14156800D01*
X14166400Y639440D01*
X14173600Y626000D01*
X14176000Y610640D01*
X14173600Y595280D01*
X14167600Y583760D01*
X14156800Y578000D01*
X14128000D01*
G01X14231200Y645200D02*
X14260000D01*
G01X14245600D02*
Y530000D01*
G01X14231200D02*
X14260000D01*
G01X14323600Y568400D02*
X14354800D01*
G01X14459200Y635600D02*
X14452000Y641360D01*
X14443600Y645200D01*
X14434000D01*
X14423200Y639440D01*
X14414800Y629840D01*
X14408800Y618320D01*
X14404000Y599120D01*
X14402800Y581840D01*
X14405200Y564560D01*
X14408800Y553040D01*
X14416000Y541520D01*
X14424400Y533840D01*
X14432800Y530000D01*
X14441200D01*
X14449600Y533840D01*
X14456800Y539600D01*
X14462800Y547280D01*
G01X14495200Y530000D02*
Y645200D01*
X14526400Y549200D01*
X14557600Y645200D01*
Y530000D01*
G01X14605600Y645200D02*
X14634400D01*
G01X14620000D02*
Y530000D01*
G01X14605600D02*
X14634400D01*
G01X14713600D02*
X14704000Y531920D01*
X14695600Y539600D01*
X14688400Y551120D01*
X14683600Y564560D01*
X14681200Y579920D01*
Y595280D01*
X14683600Y610640D01*
X14688400Y624080D01*
X14695600Y635600D01*
X14704000Y643280D01*
X14713600Y645200D01*
X14723200Y643280D01*
X14731600Y635600D01*
X14738800Y624080D01*
X14743600Y610640D01*
X14746000Y595280D01*
Y579920D01*
X14743600Y564560D01*
X14738800Y551120D01*
X14731600Y539600D01*
X14723200Y531920D01*
X14713600Y530000D01*
G01X14870800Y645200D02*
X14900800Y530000D01*
X14930800Y645200D01*
G01X14994400Y530000D02*
Y645200D01*
X14980000Y622160D01*
G01Y530000D02*
X15008800D01*
G01X15088000Y526160D02*
X15085600Y528080D01*
Y531920D01*
X15088000Y533840D01*
X15090400Y531920D01*
Y528080D01*
X15088000Y526160D01*
G01X15158800Y626000D02*
X15166000Y637520D01*
X15174400Y643280D01*
X15184000Y645200D01*
X15196000Y641360D01*
X15204400Y631760D01*
X15206800Y620240D01*
X15205600Y608720D01*
X15200800Y599120D01*
X15176800Y579920D01*
X15166000Y566480D01*
X15158800Y547280D01*
X15156400Y530000D01*
X15206800D01*
G54D13*
X1157500Y503000D03*
X1642500D03*
X7057500D03*
X7542500D03*
G54D14*
X898000Y4525000D03*
Y5975000D03*
G54D15*
X1600000Y946000D03*
Y1200000D03*
Y1454000D03*
X1312000Y9863000D03*
Y10117000D03*
X1566000Y9863000D03*
Y10117000D03*
X1820000Y9863000D03*
Y10117000D03*
X2074000Y9863000D03*
Y10117000D03*
X2328000Y9863000D03*
Y10117000D03*
X6553000Y1917000D03*
Y2171000D03*
Y2425000D03*
Y2679000D03*
Y2933000D03*
Y3187000D03*
Y3441000D03*
Y3695000D03*
Y3949000D03*
Y4203000D03*
Y4457000D03*
Y4711000D03*
Y4965000D03*
Y5219000D03*
Y5473000D03*
Y5727000D03*
Y5981000D03*
Y6235000D03*
Y6489000D03*
Y6743000D03*
Y6997000D03*
Y7251000D03*
Y7505000D03*
Y7759000D03*
Y8013000D03*
Y8267000D03*
Y8521000D03*
Y8775000D03*
Y9283000D03*
Y9029000D03*
X6446000Y9923000D03*
Y10177000D03*
X6807000Y1917000D03*
Y2171000D03*
Y2425000D03*
Y2679000D03*
Y2933000D03*
Y3187000D03*
Y3441000D03*
Y3695000D03*
Y3949000D03*
Y4203000D03*
Y4457000D03*
Y4711000D03*
Y4965000D03*
Y5219000D03*
Y5473000D03*
Y5727000D03*
Y5981000D03*
Y6235000D03*
Y6489000D03*
Y6743000D03*
Y6997000D03*
Y7251000D03*
Y7505000D03*
Y7759000D03*
Y8013000D03*
Y8267000D03*
Y8521000D03*
Y8775000D03*
Y9029000D03*
Y9283000D03*
X6700000Y9923000D03*
Y10177000D03*
X6954000Y9923000D03*
Y10177000D03*
X7823000Y1917000D03*
Y2171000D03*
Y2425000D03*
Y2679000D03*
Y2933000D03*
Y3187000D03*
Y3441000D03*
Y3695000D03*
Y3949000D03*
Y4203000D03*
Y4457000D03*
Y4711000D03*
Y4965000D03*
Y5219000D03*
Y5473000D03*
Y5727000D03*
Y5981000D03*
Y6235000D03*
Y6489000D03*
Y6743000D03*
Y6997000D03*
Y7251000D03*
Y7505000D03*
Y7759000D03*
Y8013000D03*
Y8267000D03*
Y8521000D03*
Y8775000D03*
Y9283000D03*
Y9029000D03*
X8077000Y1917000D03*
Y2171000D03*
Y2425000D03*
Y2679000D03*
Y2933000D03*
Y3187000D03*
Y3441000D03*
Y3695000D03*
Y3949000D03*
Y4203000D03*
Y4457000D03*
Y4711000D03*
Y4965000D03*
Y5219000D03*
Y5473000D03*
Y5727000D03*
Y5981000D03*
Y6235000D03*
Y6489000D03*
Y6743000D03*
Y6997000D03*
Y7251000D03*
Y7505000D03*
Y7759000D03*
Y8013000D03*
Y8267000D03*
Y8521000D03*
Y8775000D03*
Y9029000D03*
Y9283000D03*
G54D16*
X2193000Y879000D03*
X3507000D03*
G54D17*
X2500000Y1150000D03*
X2750000D03*
X2950000D03*
X3200000D03*
G54D18*
X2700000Y9190000D03*
X5400000Y2770000D03*
Y8930000D03*
G54D19*
G01X11000000Y0D02*
X15500000D01*
Y2500000D01*
X11000000D01*
Y0D01*
G01Y400000D02*
X15500000D01*
G01X11000000Y800000D02*
X15500000D01*
G01X11000000Y1200000D02*
X15500000D01*
G01X11550000D02*
Y0D01*
G01X13300000D02*
Y800000D01*
G01X13110550Y1470000D02*
G03I-90550J0D01*
G01X13750000Y0D02*
Y800000D01*
M02*
