%
M48
M72
T01C0.0039
T02C0.0079
T03C0.0098
T04C0.0197
T05C0.0236
T06C0.0400
T07C0.0433
T08C0.0906
T09C0.1004
T10C0.1260
%
T01
X14720Y41216
X13740Y44433
X15067Y44996
X15323Y45559
X15244Y46043
X16476Y45948
X14126Y49846
X11071Y46011
X18508Y59574
X18931Y59521
X19287Y59326
X19289Y59324
X18882Y60374
X18291Y60303
X20214Y59521
X20921Y60901
X20921Y61543
X20775Y61716
X20429Y61716
X20823Y62098
X21145Y62374
X21925Y62696
X22122Y62870
X22319Y63051
X22968Y62220
X23055Y61905
X23260Y61704
X22819Y61220
X22889Y60870
X21921Y60878
X21732Y60594
X20389Y58189
X21071Y55279
X20185Y54000
X20586Y53263
X21193Y51106
X22275Y52130
X22976Y52570
X24326Y56118
X25067Y56504
X25429Y61067
X25350Y62161
X22236Y65039
X19775Y65283
X18988Y54807
X19307Y53826
X20752Y44433
T02
X33350Y66271
T03
X34149Y66992
X35126Y65822
X33862Y63256
X33700Y61460
X33008Y59744
X34078Y58413
X36665Y59779
X37763Y58397
X36681Y62039
X36480Y62972
X38055Y62972
X38445Y62574
X38055Y64881
X37815Y67090
X32342Y63464
X30968Y63885
X29523Y60543
X29031Y63019
X27551Y65759
X26397Y63893
X25870Y63393
X26397Y62913
X24669Y60563
X23700Y58196
X22854Y57787
X25224Y58000
X25618Y56149
X26760Y54429
X26775Y54413
X27515Y54441
X28303Y54433
X29523Y56460
X29523Y57295
X31752Y56063
X30567Y52031
X30161Y49381
X31232Y47189
X31917Y48303
X32224Y50626
X33685Y51181
X34988Y45090
X35397Y44696
X36090Y44704
X36968Y42795
X36271Y39259
X36271Y34889
X36271Y30507
X34015Y30956
X32013Y32757
X31417Y30555
X31417Y26130
X31417Y21787
X31417Y17441
X31417Y13043
X31417Y8740
X31413Y4338
X36271Y4342
X36271Y8681
X36271Y13055
X36271Y17433
X36271Y21767
X36271Y26177
X31421Y37681
X31417Y39350
X31716Y42716
X32315Y44909
X32893Y44909
X34441Y44696
X33791Y41330
X33858Y38511
X30248Y44358
X28937Y38511
X28622Y35614
X28614Y34200
X28622Y32630
X28634Y31578
X26551Y30507
X26551Y34893
X26551Y39252
X26555Y42822
X26897Y45878
X23791Y41425
X22515Y42610
X21913Y44578
X21693Y42842
X23382Y44515
X23598Y44992
X22933Y47295
X19279Y42429
X19338Y38511
X21700Y39216
X21700Y34874
X21700Y30527
X21700Y26169
X21700Y21795
X21700Y17441
X21700Y13070
X21700Y8704
X21704Y4338
X16846Y4338
X16846Y8696
X16846Y13063
X16846Y17444
X16846Y21783
X16846Y26153
X16846Y30500
X16846Y34858
X16846Y39228
X16829Y39245
X16137Y42724
X16838Y42822
X15153Y42653
X14523Y38511
X11988Y39244
X11987Y39245
X12098Y42811
X9866Y40161
X9984Y35661
X11988Y34885
X11988Y30511
X11988Y26157
X11988Y21791
X11988Y17421
X11988Y13059
X11988Y8704
X11988Y4330
X26551Y4338
X26551Y8700
X26551Y13059
X26551Y17433
X26551Y21795
X26551Y26137
X24267Y38511
X27098Y59693
X24606Y67027
X23189Y67689
X20342Y66354
X19307Y66346
X16043Y66567
X15236Y66157
X13208Y66004
X29559Y68826
X30834Y68527
X31716Y68783
X38082Y51602
T04
X34244Y36315
X34228Y31976
X34244Y27578
X34256Y23267
X35358Y18102
X34275Y14468
X34244Y10118
X34232Y5744
X32878Y1287
X29338Y5744
X29500Y10118
X29382Y14468
X29354Y18874
X29358Y23257
X29358Y27573
X29015Y36362
X24606Y36342
X24421Y31976
X24523Y27567
X24488Y23247
X24724Y18874
X24523Y14468
X24535Y10118
X24563Y5744
X24543Y1287
X28716Y1287
X19708Y1287
X19732Y5744
X19685Y10118
X19610Y14468
X19704Y18874
X19748Y23237
X19830Y27562
X19811Y31976
X19767Y36342
X14826Y36342
X14685Y31976
X14807Y27556
X14925Y23227
X15921Y18133
X14838Y14468
X14874Y10118
X14866Y5744
X15539Y1287
X11626Y1287
X10008Y5744
X10008Y10118
X9980Y14468
X10004Y18858
X10004Y23196
X9976Y27559
X9976Y31948
T05
X10842Y41976
T06
X16342Y68604
X17342Y68604
X18342Y68604
X19342Y68604
X20342Y68604
X21342Y68604
X22342Y68604
X24681Y68405
X25681Y68405
X26681Y68405
T07
X37141Y41976
T08
X36330Y66067
X31157Y66067
T09
X31157Y66067
X36334Y66067
T10
X10134Y1001
X14425Y18688
X10080Y46697
X10384Y68876
X33891Y18794
X38134Y1001
X37634Y46501
X37884Y68751
M30
