G75*
%MOIN*%
%OFA0B0*%
%FSLAX24Y24*%
%IPPOS*%
%LPD*%
%AMOC8*
5,1,8,0,0,1.08239X$1,22.5*
%
%ADD10C,0.1320*%
%ADD11C,0.0050*%
%ADD12OC8,0.0760*%
%ADD13C,0.0296*%
%ADD14C,0.0493*%
%ADD15R,0.1320X0.0532*%
%ADD16R,0.1060X0.1060*%
%ADD17R,0.0532X0.0532*%
%ADD18R,0.0611X0.0651*%
%ADD19R,0.0611X0.0572*%
%ADD20C,0.0966*%
%ADD21C,0.0660*%
%ADD22R,0.0690X0.0520*%
%ADD23C,0.0298*%
%ADD24C,0.0239*%
%ADD25C,0.1464*%
%ADD26C,0.0279*%
%ADD27C,0.0397*%
D10*
X010134Y001001D03*
X014425Y018688D03*
X010080Y046697D03*
X010384Y068876D03*
X033891Y018794D03*
X038134Y001001D03*
X037634Y046501D03*
X037884Y068751D03*
D11*
X012468Y068943D02*
X012462Y068874D01*
X012444Y068808D01*
X012415Y068746D01*
X012376Y068689D01*
X012328Y068641D01*
X012271Y068602D01*
X012209Y068573D01*
X012143Y068555D01*
X012074Y068549D01*
X012006Y068555D01*
X011940Y068573D01*
X011878Y068602D01*
X011821Y068641D01*
X011773Y068689D01*
X011734Y068746D01*
X011705Y068808D01*
X011687Y068874D01*
X011681Y068943D01*
X011687Y069011D01*
X011705Y069077D01*
X011734Y069139D01*
X011773Y069196D01*
X011821Y069244D01*
X011878Y069283D01*
X011940Y069312D01*
X012006Y069330D01*
X012074Y069336D01*
X012143Y069330D01*
X012209Y069312D01*
X012271Y069283D01*
X012328Y069244D01*
X012376Y069196D01*
X012415Y069139D01*
X012444Y069077D01*
X012462Y069011D01*
X012468Y068943D01*
X012468Y068947D02*
X011681Y068947D01*
X011685Y068899D02*
X012464Y068899D01*
X012456Y068850D02*
X011693Y068850D01*
X011707Y068802D02*
X012442Y068802D01*
X012419Y068753D02*
X011730Y068753D01*
X011762Y068705D02*
X012387Y068705D01*
X012343Y068656D02*
X011806Y068656D01*
X011869Y068608D02*
X012280Y068608D01*
X012160Y068559D02*
X011989Y068559D01*
X011685Y068996D02*
X012464Y068996D01*
X012453Y069044D02*
X011696Y069044D01*
X011712Y069093D02*
X012437Y069093D01*
X012414Y069141D02*
X011735Y069141D01*
X011769Y069190D02*
X012380Y069190D01*
X012333Y069238D02*
X011816Y069238D01*
X011885Y069287D02*
X012264Y069287D01*
X012083Y069335D02*
X012066Y069335D01*
D12*
X016342Y068604D03*
X017342Y068604D03*
X018342Y068604D03*
X019342Y068604D03*
X020342Y068604D03*
X021342Y068604D03*
X022342Y068604D03*
D13*
X010842Y041976D03*
D14*
X037141Y041976D03*
D15*
X037611Y042034D03*
X037611Y043608D03*
X037611Y039245D03*
X037611Y037670D03*
X037611Y034881D03*
X037611Y033306D03*
X037611Y030518D03*
X037611Y028943D03*
X037611Y026154D03*
X037611Y024579D03*
X037611Y021790D03*
X037611Y020215D03*
X037611Y017427D03*
X037611Y015852D03*
X037611Y013063D03*
X037611Y011488D03*
X037611Y008699D03*
X037611Y007125D03*
X037611Y004336D03*
X037611Y002761D03*
X034934Y002761D03*
X034934Y004336D03*
X034934Y007125D03*
X034934Y008699D03*
X034934Y011488D03*
X034934Y013063D03*
X034934Y015852D03*
X034934Y017427D03*
X034934Y020215D03*
X034934Y021790D03*
X034934Y024579D03*
X034934Y026154D03*
X034934Y028943D03*
X034934Y030518D03*
X034934Y033306D03*
X034934Y034881D03*
X034934Y037670D03*
X034934Y039245D03*
X034934Y042034D03*
X034934Y043608D03*
X032754Y043608D03*
X032754Y042034D03*
X032754Y039245D03*
X032754Y037670D03*
X030077Y037670D03*
X030077Y039245D03*
X030077Y042034D03*
X030077Y043608D03*
X027897Y043608D03*
X027897Y042034D03*
X027897Y039245D03*
X027897Y037670D03*
X027897Y034881D03*
X027897Y033306D03*
X027897Y030518D03*
X027897Y028943D03*
X027897Y026154D03*
X027897Y024579D03*
X027897Y021790D03*
X027897Y020215D03*
X027897Y017427D03*
X027897Y015852D03*
X027897Y013063D03*
X027897Y011488D03*
X027897Y008699D03*
X027897Y007125D03*
X027897Y004336D03*
X027897Y002761D03*
X030077Y002761D03*
X030077Y004336D03*
X030077Y007125D03*
X030077Y008699D03*
X030077Y011488D03*
X030077Y013063D03*
X030077Y015852D03*
X030077Y017427D03*
X030077Y020215D03*
X030077Y021790D03*
X030077Y024579D03*
X030077Y026154D03*
X030077Y028976D03*
X030077Y030550D03*
X032754Y030550D03*
X032754Y028976D03*
X032754Y026154D03*
X032754Y024579D03*
X032754Y021790D03*
X032754Y020215D03*
X032754Y017427D03*
X032754Y015852D03*
X032754Y013063D03*
X032754Y011488D03*
X032754Y008699D03*
X032754Y007125D03*
X032754Y004336D03*
X032754Y002761D03*
X025220Y002761D03*
X025220Y004336D03*
X025220Y007125D03*
X025220Y008699D03*
X025220Y011488D03*
X025220Y013063D03*
X025220Y015852D03*
X025220Y017427D03*
X025220Y020215D03*
X025220Y021790D03*
X025220Y024579D03*
X025220Y026154D03*
X025220Y028943D03*
X025220Y030518D03*
X025220Y033306D03*
X025220Y034881D03*
X025220Y037670D03*
X025220Y039245D03*
X025220Y042034D03*
X025220Y043608D03*
X023040Y043608D03*
X023040Y042034D03*
X023040Y039245D03*
X023040Y037670D03*
X023040Y034881D03*
X023040Y033306D03*
X023040Y030518D03*
X023040Y028943D03*
X023040Y026154D03*
X023040Y024579D03*
X023040Y021790D03*
X023040Y020215D03*
X023040Y017427D03*
X023040Y015852D03*
X023040Y013063D03*
X023040Y011488D03*
X023040Y008699D03*
X023040Y007125D03*
X023040Y004336D03*
X023040Y002761D03*
X020362Y002761D03*
X020362Y004336D03*
X020362Y007125D03*
X020362Y008699D03*
X020362Y011488D03*
X020362Y013063D03*
X020362Y015852D03*
X020362Y017427D03*
X020362Y020215D03*
X020362Y021790D03*
X020362Y024579D03*
X020362Y026154D03*
X020362Y028943D03*
X020362Y030518D03*
X020362Y033306D03*
X020362Y034881D03*
X020362Y037670D03*
X020362Y039245D03*
X020362Y042034D03*
X020362Y043608D03*
X018182Y043608D03*
X018182Y042034D03*
X018182Y039245D03*
X018182Y037670D03*
X018182Y034881D03*
X018182Y033306D03*
X018182Y030518D03*
X018182Y028943D03*
X018182Y026154D03*
X018182Y024579D03*
X018182Y021790D03*
X018182Y020215D03*
X018182Y017427D03*
X018182Y015852D03*
X018182Y013063D03*
X018182Y011488D03*
X018182Y008699D03*
X018182Y007125D03*
X018182Y004336D03*
X018182Y002761D03*
X015505Y002761D03*
X015505Y004336D03*
X015505Y007125D03*
X015505Y008699D03*
X015505Y011488D03*
X015505Y013063D03*
X015505Y015852D03*
X015505Y017427D03*
X015505Y020215D03*
X015505Y021790D03*
X015505Y024579D03*
X015505Y026154D03*
X015505Y028943D03*
X015505Y030518D03*
X015505Y033306D03*
X015505Y034881D03*
X015505Y037670D03*
X015505Y039245D03*
X015505Y042034D03*
X015505Y043608D03*
X013325Y043608D03*
X013325Y042034D03*
X013325Y039245D03*
X013325Y037670D03*
X013325Y034881D03*
X013325Y033306D03*
X013325Y030518D03*
X013325Y028943D03*
X013325Y026154D03*
X013325Y024579D03*
X013325Y021790D03*
X013325Y020215D03*
X013325Y017427D03*
X013325Y015852D03*
X013325Y013063D03*
X013325Y011488D03*
X013325Y008699D03*
X013325Y007125D03*
X013325Y004336D03*
X013325Y002761D03*
X010648Y002761D03*
X010648Y004336D03*
X010648Y007125D03*
X010648Y008699D03*
X010648Y011488D03*
X010648Y013063D03*
X010648Y015852D03*
X010648Y017427D03*
X010648Y020215D03*
X010648Y021790D03*
X010648Y024579D03*
X010648Y026154D03*
X010648Y028943D03*
X010648Y030518D03*
X010648Y033306D03*
X010648Y034881D03*
X010648Y037670D03*
X010648Y039245D03*
X010648Y042034D03*
X010648Y043608D03*
D16*
X011062Y040690D03*
X012912Y040690D03*
X012912Y036327D03*
X011062Y036327D03*
X011062Y031963D03*
X012912Y031963D03*
X012912Y027599D03*
X011062Y027599D03*
X011062Y023236D03*
X012912Y023236D03*
X012912Y018872D03*
X011062Y018872D03*
X011062Y014508D03*
X012912Y014508D03*
X012912Y010145D03*
X011062Y010145D03*
X011062Y005781D03*
X012912Y005781D03*
X012629Y001335D03*
X014479Y001335D03*
X016702Y001418D03*
X018552Y001418D03*
X020776Y001418D03*
X022626Y001418D03*
X022626Y005781D03*
X020776Y005781D03*
X020776Y010145D03*
X022626Y010145D03*
X022626Y014508D03*
X020776Y014508D03*
X020776Y018872D03*
X022626Y018872D03*
X022626Y023236D03*
X020776Y023236D03*
X020776Y027599D03*
X022626Y027599D03*
X022626Y031963D03*
X020776Y031963D03*
X020776Y036327D03*
X022626Y036327D03*
X022626Y040690D03*
X020776Y040690D03*
X017769Y040690D03*
X015919Y040690D03*
X015919Y036327D03*
X017769Y036327D03*
X017769Y031963D03*
X015919Y031963D03*
X015919Y027599D03*
X017769Y027599D03*
X017769Y023236D03*
X015919Y023236D03*
X015919Y018872D03*
X017769Y018872D03*
X017769Y014508D03*
X015919Y014508D03*
X015919Y010145D03*
X017769Y010145D03*
X017769Y005781D03*
X015919Y005781D03*
X025633Y005781D03*
X027483Y005781D03*
X027483Y010145D03*
X025633Y010145D03*
X025633Y014508D03*
X027483Y014508D03*
X027483Y018872D03*
X025633Y018872D03*
X025633Y023236D03*
X027483Y023236D03*
X027483Y027599D03*
X025633Y027599D03*
X025633Y031963D03*
X027483Y031963D03*
X027483Y036327D03*
X025633Y036327D03*
X025633Y040690D03*
X027483Y040690D03*
X030490Y040690D03*
X032340Y040690D03*
X035347Y040690D03*
X037197Y040690D03*
X037197Y036327D03*
X035347Y036327D03*
X035347Y031963D03*
X037197Y031963D03*
X037197Y027599D03*
X035347Y027599D03*
X035347Y023236D03*
X037197Y023236D03*
X037197Y018872D03*
X035347Y018872D03*
X035347Y014508D03*
X037197Y014508D03*
X037197Y010145D03*
X035347Y010145D03*
X035347Y005781D03*
X037197Y005781D03*
X036331Y001292D03*
X034481Y001292D03*
X032340Y005781D03*
X030490Y005781D03*
X030490Y010145D03*
X032340Y010145D03*
X032340Y014508D03*
X030490Y014508D03*
X030490Y018872D03*
X032340Y018872D03*
X032340Y023236D03*
X030490Y023236D03*
X030490Y027632D03*
X032340Y027632D03*
X031659Y001374D03*
X029809Y001374D03*
X027483Y001418D03*
X025633Y001418D03*
D17*
X028216Y068854D03*
X029043Y068854D03*
D18*
X029382Y035307D03*
X029382Y032748D03*
X033397Y032748D03*
X033397Y035307D03*
D19*
X033397Y034204D03*
X029382Y034204D03*
D20*
X031157Y066067D03*
X036330Y066067D03*
D21*
X026681Y068405D03*
X025681Y068405D03*
X024681Y068405D03*
D22*
X022354Y067678D03*
X022354Y067078D03*
X021342Y067078D03*
X021342Y067678D03*
X020342Y067689D03*
X020342Y067089D03*
X019326Y067081D03*
X019326Y067681D03*
X018342Y067697D03*
X018342Y067097D03*
X017342Y067078D03*
X017342Y067678D03*
X016338Y067697D03*
X016338Y067097D03*
D23*
X016043Y066567D03*
X015236Y066157D03*
X013208Y066004D03*
X019307Y066346D03*
X020342Y066354D03*
X023189Y067689D03*
X024606Y067027D03*
X026397Y063893D03*
X025870Y063393D03*
X026397Y062913D03*
X024669Y060563D03*
X023700Y058196D03*
X022854Y057787D03*
X025224Y058000D03*
X025618Y056149D03*
X026760Y054429D03*
X026775Y054413D03*
X027515Y054441D03*
X028303Y054433D03*
X029523Y056460D03*
X029523Y057295D03*
X029523Y060543D03*
X029031Y063019D03*
X027551Y065759D03*
X029559Y068826D03*
X030834Y068527D03*
X031716Y068783D03*
X034149Y066992D03*
X035126Y065822D03*
X033862Y063256D03*
X033700Y061460D03*
X033008Y059744D03*
X034078Y058413D03*
X036665Y059779D03*
X037763Y058397D03*
X036681Y062039D03*
X036480Y062972D03*
X038055Y062972D03*
X038445Y062574D03*
X038055Y064881D03*
X037815Y067090D03*
X032342Y063464D03*
X030968Y063885D03*
X027098Y059693D03*
X030567Y052031D03*
X030161Y049381D03*
X031232Y047189D03*
X031917Y048303D03*
X032224Y050626D03*
X033685Y051181D03*
X031752Y056063D03*
X026897Y045878D03*
X026555Y042822D03*
X026551Y039252D03*
X028622Y035614D03*
X028614Y034200D03*
X028622Y032630D03*
X028634Y031578D03*
X026551Y030507D03*
X026551Y034893D03*
X024267Y038511D03*
X023791Y041425D03*
X022515Y042610D03*
X021913Y044578D03*
X021693Y042842D03*
X023382Y044515D03*
X023598Y044992D03*
X022933Y047295D03*
X019279Y042429D03*
X019338Y038511D03*
X021700Y039216D03*
X021700Y034874D03*
X021700Y030527D03*
X021700Y026169D03*
X021700Y021795D03*
X021700Y017441D03*
X021700Y013070D03*
X021700Y008704D03*
X021704Y004338D03*
X016846Y004338D03*
X016846Y008696D03*
X016846Y013063D03*
X016846Y017444D03*
X016846Y021783D03*
X016846Y026153D03*
X016846Y030500D03*
X016846Y034858D03*
X016846Y039228D03*
X016829Y039245D03*
X016137Y042724D03*
X016838Y042822D03*
X015153Y042653D03*
X014523Y038511D03*
X011988Y039244D03*
X011987Y039245D03*
X012098Y042811D03*
X009866Y040161D03*
X009984Y035661D03*
X011988Y034885D03*
X011988Y030511D03*
X011988Y026157D03*
X011988Y021791D03*
X011988Y017421D03*
X011988Y013059D03*
X011988Y008704D03*
X011988Y004330D03*
X026551Y004338D03*
X026551Y008700D03*
X026551Y013059D03*
X026551Y017433D03*
X026551Y021795D03*
X026551Y026137D03*
X031417Y026130D03*
X031417Y021787D03*
X031417Y017441D03*
X031417Y013043D03*
X031417Y008740D03*
X031413Y004338D03*
X036271Y004342D03*
X036271Y008681D03*
X036271Y013055D03*
X036271Y017433D03*
X036271Y021767D03*
X036271Y026177D03*
X036271Y030507D03*
X034015Y030956D03*
X032013Y032757D03*
X031417Y030555D03*
X031421Y037681D03*
X031417Y039350D03*
X031716Y042716D03*
X032315Y044909D03*
X032893Y044909D03*
X034441Y044696D03*
X034988Y045090D03*
X035397Y044696D03*
X036090Y044704D03*
X036968Y042795D03*
X036271Y039259D03*
X036271Y034889D03*
X033858Y038511D03*
X033791Y041330D03*
X030248Y044358D03*
X028937Y038511D03*
X038082Y051602D03*
D24*
X025429Y061067D03*
X025350Y062161D03*
X023260Y061704D03*
X023055Y061905D03*
X022968Y062220D03*
X022819Y061220D03*
X022889Y060870D03*
X021921Y060878D03*
X021732Y060594D03*
X021145Y062374D03*
X020823Y062098D03*
X020775Y061716D03*
X020921Y061543D03*
X020429Y061716D03*
X020921Y060901D03*
X020214Y059521D03*
X020389Y058189D03*
X019289Y059324D03*
X019287Y059326D03*
X018931Y059521D03*
X018508Y059574D03*
X018291Y060303D03*
X018882Y060374D03*
X019775Y065283D03*
X021925Y062696D03*
X022122Y062870D03*
X022319Y063051D03*
X022236Y065039D03*
X025067Y056504D03*
X024326Y056118D03*
X022976Y052570D03*
X022275Y052130D03*
X021193Y051106D03*
X020586Y053263D03*
X020185Y054000D03*
X021071Y055279D03*
X018988Y054807D03*
X019307Y053826D03*
X016476Y045948D03*
X015323Y045559D03*
X015244Y046043D03*
X015067Y044996D03*
X013740Y044433D03*
X014720Y041216D03*
X011071Y046011D03*
X014126Y049846D03*
X020752Y044433D03*
D25*
X031157Y066067D03*
X036334Y066067D03*
D26*
X033350Y066271D03*
D27*
X034244Y036315D03*
X034228Y031976D03*
X034244Y027578D03*
X034256Y023267D03*
X035358Y018102D03*
X034275Y014468D03*
X034244Y010118D03*
X034232Y005744D03*
X032878Y001287D03*
X029338Y005744D03*
X029500Y010118D03*
X029382Y014468D03*
X029354Y018874D03*
X029358Y023257D03*
X029358Y027573D03*
X029015Y036362D03*
X024606Y036342D03*
X024421Y031976D03*
X024523Y027567D03*
X024488Y023247D03*
X024724Y018874D03*
X024523Y014468D03*
X024535Y010118D03*
X024563Y005744D03*
X024543Y001287D03*
X028716Y001287D03*
X019708Y001287D03*
X019732Y005744D03*
X019685Y010118D03*
X019610Y014468D03*
X019704Y018874D03*
X019748Y023237D03*
X019830Y027562D03*
X019811Y031976D03*
X019767Y036342D03*
X014826Y036342D03*
X014685Y031976D03*
X014807Y027556D03*
X014925Y023227D03*
X015921Y018133D03*
X014838Y014468D03*
X014874Y010118D03*
X014866Y005744D03*
X015539Y001287D03*
X011626Y001287D03*
X010008Y005744D03*
X010008Y010118D03*
X009980Y014468D03*
X010004Y018858D03*
X010004Y023196D03*
X009976Y027559D03*
X009976Y031948D03*
M02*
