G75*
%MOIN*%
%OFA0B0*%
%FSLAX24Y24*%
%IPPOS*%
%LPD*%
%AMOC8*
5,1,8,0,0,1.08239X$1,22.5*
%
%ADD10R,0.1260X0.0472*%
%ADD11R,0.1000X0.1000*%
%ADD12R,0.0472X0.0472*%
%ADD13R,0.0551X0.0591*%
%ADD14R,0.0551X0.0512*%
%ADD15R,0.0630X0.0460*%
D10*
X010648Y002761D03*
X010648Y004336D03*
X010648Y007125D03*
X010648Y008699D03*
X010648Y011488D03*
X010648Y013063D03*
X010648Y015852D03*
X010648Y017427D03*
X010648Y020215D03*
X010648Y021790D03*
X010648Y024579D03*
X010648Y026154D03*
X010648Y028943D03*
X010648Y030518D03*
X010648Y033306D03*
X010648Y034881D03*
X010648Y037670D03*
X010648Y039245D03*
X010648Y042034D03*
X010648Y043608D03*
X013325Y043608D03*
X013325Y042034D03*
X013325Y039245D03*
X013325Y037670D03*
X013325Y034881D03*
X013325Y033306D03*
X013325Y030518D03*
X013325Y028943D03*
X013325Y026154D03*
X013325Y024579D03*
X013325Y021790D03*
X013325Y020215D03*
X013325Y017427D03*
X013325Y015852D03*
X013325Y013063D03*
X013325Y011488D03*
X013325Y008699D03*
X013325Y007125D03*
X013325Y004336D03*
X013325Y002761D03*
X015505Y002761D03*
X015505Y004336D03*
X015505Y007125D03*
X015505Y008699D03*
X015505Y011488D03*
X015505Y013063D03*
X015505Y015852D03*
X015505Y017427D03*
X015505Y020215D03*
X015505Y021790D03*
X015505Y024579D03*
X015505Y026154D03*
X015505Y028943D03*
X015505Y030518D03*
X015505Y033306D03*
X015505Y034881D03*
X015505Y037670D03*
X015505Y039245D03*
X015505Y042034D03*
X015505Y043608D03*
X018182Y043608D03*
X018182Y042034D03*
X018182Y039245D03*
X018182Y037670D03*
X018182Y034881D03*
X018182Y033306D03*
X018182Y030518D03*
X018182Y028943D03*
X018182Y026154D03*
X018182Y024579D03*
X018182Y021790D03*
X018182Y020215D03*
X018182Y017427D03*
X018182Y015852D03*
X018182Y013063D03*
X018182Y011488D03*
X018182Y008699D03*
X018182Y007125D03*
X018182Y004336D03*
X018182Y002761D03*
X020362Y002761D03*
X020362Y004336D03*
X020362Y007125D03*
X020362Y008699D03*
X020362Y011488D03*
X020362Y013063D03*
X020362Y015852D03*
X020362Y017427D03*
X020362Y020215D03*
X020362Y021790D03*
X020362Y024579D03*
X020362Y026154D03*
X020362Y028943D03*
X020362Y030518D03*
X020362Y033306D03*
X020362Y034881D03*
X020362Y037670D03*
X020362Y039245D03*
X020362Y042034D03*
X020362Y043608D03*
X023040Y043608D03*
X023040Y042034D03*
X023040Y039245D03*
X023040Y037670D03*
X023040Y034881D03*
X023040Y033306D03*
X023040Y030518D03*
X023040Y028943D03*
X023040Y026154D03*
X023040Y024579D03*
X023040Y021790D03*
X023040Y020215D03*
X023040Y017427D03*
X023040Y015852D03*
X023040Y013063D03*
X023040Y011488D03*
X023040Y008699D03*
X023040Y007125D03*
X023040Y004336D03*
X023040Y002761D03*
X025220Y002761D03*
X025220Y004336D03*
X025220Y007125D03*
X025220Y008699D03*
X025220Y011488D03*
X025220Y013063D03*
X025220Y015852D03*
X025220Y017427D03*
X025220Y020215D03*
X025220Y021790D03*
X025220Y024579D03*
X025220Y026154D03*
X025220Y028943D03*
X025220Y030518D03*
X025220Y033306D03*
X025220Y034881D03*
X025220Y037670D03*
X025220Y039245D03*
X025220Y042034D03*
X025220Y043608D03*
X027897Y043608D03*
X027897Y042034D03*
X027897Y039245D03*
X027897Y037670D03*
X027897Y034881D03*
X027897Y033306D03*
X027897Y030518D03*
X027897Y028943D03*
X027897Y026154D03*
X027897Y024579D03*
X027897Y021790D03*
X027897Y020215D03*
X027897Y017427D03*
X027897Y015852D03*
X027897Y013063D03*
X027897Y011488D03*
X027897Y008699D03*
X027897Y007125D03*
X027897Y004336D03*
X027897Y002761D03*
X030077Y002761D03*
X030077Y004336D03*
X030077Y007125D03*
X030077Y008699D03*
X030077Y011488D03*
X030077Y013063D03*
X030077Y015852D03*
X030077Y017427D03*
X030077Y020215D03*
X030077Y021790D03*
X030077Y024579D03*
X030077Y026154D03*
X030077Y028976D03*
X030077Y030550D03*
X032754Y030550D03*
X032754Y028976D03*
X032754Y026154D03*
X032754Y024579D03*
X032754Y021790D03*
X032754Y020215D03*
X032754Y017427D03*
X032754Y015852D03*
X032754Y013063D03*
X032754Y011488D03*
X032754Y008699D03*
X032754Y007125D03*
X032754Y004336D03*
X032754Y002761D03*
X034934Y002761D03*
X034934Y004336D03*
X034934Y007125D03*
X034934Y008699D03*
X034934Y011488D03*
X034934Y013063D03*
X034934Y015852D03*
X034934Y017427D03*
X034934Y020215D03*
X034934Y021790D03*
X034934Y024579D03*
X034934Y026154D03*
X034934Y028943D03*
X034934Y030518D03*
X034934Y033306D03*
X034934Y034881D03*
X034934Y037670D03*
X034934Y039245D03*
X034934Y042034D03*
X034934Y043608D03*
X032754Y043608D03*
X032754Y042034D03*
X032754Y039245D03*
X032754Y037670D03*
X030077Y037670D03*
X030077Y039245D03*
X030077Y042034D03*
X030077Y043608D03*
X037611Y043608D03*
X037611Y042034D03*
X037611Y039245D03*
X037611Y037670D03*
X037611Y034881D03*
X037611Y033306D03*
X037611Y030518D03*
X037611Y028943D03*
X037611Y026154D03*
X037611Y024579D03*
X037611Y021790D03*
X037611Y020215D03*
X037611Y017427D03*
X037611Y015852D03*
X037611Y013063D03*
X037611Y011488D03*
X037611Y008699D03*
X037611Y007125D03*
X037611Y004336D03*
X037611Y002761D03*
D11*
X036331Y001292D03*
X034481Y001292D03*
X035347Y005781D03*
X037197Y005781D03*
X037197Y010145D03*
X035347Y010145D03*
X035347Y014508D03*
X037197Y014508D03*
X037197Y018872D03*
X035347Y018872D03*
X035347Y023236D03*
X037197Y023236D03*
X037197Y027599D03*
X035347Y027599D03*
X035347Y031963D03*
X037197Y031963D03*
X037197Y036327D03*
X035347Y036327D03*
X035347Y040690D03*
X037197Y040690D03*
X032340Y040690D03*
X030490Y040690D03*
X027483Y040690D03*
X025633Y040690D03*
X025633Y036327D03*
X027483Y036327D03*
X027483Y031963D03*
X025633Y031963D03*
X025633Y027599D03*
X027483Y027599D03*
X027483Y023236D03*
X025633Y023236D03*
X025633Y018872D03*
X027483Y018872D03*
X027483Y014508D03*
X025633Y014508D03*
X025633Y010145D03*
X027483Y010145D03*
X027483Y005781D03*
X025633Y005781D03*
X025633Y001418D03*
X027483Y001418D03*
X029809Y001374D03*
X031659Y001374D03*
X032340Y005781D03*
X030490Y005781D03*
X030490Y010145D03*
X032340Y010145D03*
X032340Y014508D03*
X030490Y014508D03*
X030490Y018872D03*
X032340Y018872D03*
X032340Y023236D03*
X030490Y023236D03*
X030490Y027632D03*
X032340Y027632D03*
X022626Y027599D03*
X020776Y027599D03*
X020776Y031963D03*
X022626Y031963D03*
X022626Y036327D03*
X020776Y036327D03*
X020776Y040690D03*
X022626Y040690D03*
X017769Y040690D03*
X015919Y040690D03*
X015919Y036327D03*
X017769Y036327D03*
X017769Y031963D03*
X015919Y031963D03*
X015919Y027599D03*
X017769Y027599D03*
X017769Y023236D03*
X015919Y023236D03*
X015919Y018872D03*
X017769Y018872D03*
X017769Y014508D03*
X015919Y014508D03*
X015919Y010145D03*
X017769Y010145D03*
X017769Y005781D03*
X015919Y005781D03*
X016702Y001418D03*
X018552Y001418D03*
X020776Y001418D03*
X022626Y001418D03*
X022626Y005781D03*
X020776Y005781D03*
X020776Y010145D03*
X022626Y010145D03*
X022626Y014508D03*
X020776Y014508D03*
X020776Y018872D03*
X022626Y018872D03*
X022626Y023236D03*
X020776Y023236D03*
X012912Y023236D03*
X011062Y023236D03*
X011062Y018872D03*
X012912Y018872D03*
X012912Y014508D03*
X011062Y014508D03*
X011062Y010145D03*
X012912Y010145D03*
X012912Y005781D03*
X011062Y005781D03*
X012629Y001335D03*
X014479Y001335D03*
X012912Y027599D03*
X011062Y027599D03*
X011062Y031963D03*
X012912Y031963D03*
X012912Y036327D03*
X011062Y036327D03*
X011062Y040690D03*
X012912Y040690D03*
D12*
X028216Y068854D03*
X029043Y068854D03*
D13*
X029382Y035307D03*
X029382Y032748D03*
X033397Y032748D03*
X033397Y035307D03*
D14*
X033397Y034204D03*
X029382Y034204D03*
D15*
X022354Y067078D03*
X022354Y067678D03*
X021342Y067678D03*
X021342Y067078D03*
X020342Y067089D03*
X020342Y067689D03*
X019326Y067681D03*
X019326Y067081D03*
X018342Y067097D03*
X018342Y067697D03*
X017342Y067678D03*
X017342Y067078D03*
X016338Y067097D03*
X016338Y067697D03*
M02*
