G75*
%MOIN*%
%OFA0B0*%
%FSLAX24Y24*%
%IPPOS*%
%LPD*%
%AMOC8*
5,1,8,0,0,1.08239X$1,22.5*
%
%ADD10OC8,0.0700*%
%ADD11C,0.0600*%
%ADD12C,0.0238*%
%ADD13C,0.0179*%
%ADD14C,0.1404*%
%ADD15C,0.0219*%
%ADD16C,0.0337*%
D10*
X016342Y068604D03*
X017342Y068604D03*
X018342Y068604D03*
X019342Y068604D03*
X020342Y068604D03*
X021342Y068604D03*
X022342Y068604D03*
D11*
X024681Y068405D03*
X025681Y068405D03*
X026681Y068405D03*
D12*
X027551Y065759D03*
X026397Y063893D03*
X025870Y063393D03*
X026397Y062913D03*
X024669Y060563D03*
X023700Y058196D03*
X022854Y057787D03*
X025224Y058000D03*
X025618Y056149D03*
X026760Y054429D03*
X026775Y054413D03*
X027515Y054441D03*
X028303Y054433D03*
X029523Y056460D03*
X029523Y057295D03*
X029523Y060543D03*
X029031Y063019D03*
X030968Y063885D03*
X032342Y063464D03*
X033862Y063256D03*
X033700Y061460D03*
X033008Y059744D03*
X034078Y058413D03*
X036665Y059779D03*
X037763Y058397D03*
X036681Y062039D03*
X036480Y062972D03*
X038055Y062972D03*
X038445Y062574D03*
X038055Y064881D03*
X037815Y067090D03*
X035126Y065822D03*
X034149Y066992D03*
X031716Y068783D03*
X030834Y068527D03*
X029559Y068826D03*
X027098Y059693D03*
X024606Y067027D03*
X023189Y067689D03*
X020342Y066354D03*
X019307Y066346D03*
X016043Y066567D03*
X015236Y066157D03*
X013208Y066004D03*
X022933Y047295D03*
X023598Y044992D03*
X023382Y044515D03*
X022515Y042610D03*
X021913Y044578D03*
X021693Y042842D03*
X021700Y039216D03*
X021700Y034874D03*
X021700Y030527D03*
X021700Y026169D03*
X021700Y021795D03*
X021700Y017441D03*
X021700Y013070D03*
X021700Y008704D03*
X021704Y004338D03*
X016846Y004338D03*
X016846Y008696D03*
X016846Y013063D03*
X016846Y017444D03*
X016846Y021783D03*
X016846Y026153D03*
X016846Y030500D03*
X016846Y034858D03*
X016846Y039228D03*
X016829Y039245D03*
X016137Y042724D03*
X016838Y042822D03*
X015153Y042653D03*
X014523Y038511D03*
X011988Y039244D03*
X011987Y039245D03*
X012098Y042811D03*
X009866Y040161D03*
X009984Y035661D03*
X011988Y034885D03*
X011988Y030511D03*
X011988Y026157D03*
X011988Y021791D03*
X011988Y017421D03*
X011988Y013059D03*
X011988Y008704D03*
X011988Y004330D03*
X026551Y004338D03*
X026551Y008700D03*
X026551Y013059D03*
X026551Y017433D03*
X026551Y021795D03*
X026551Y026137D03*
X026551Y030507D03*
X028634Y031578D03*
X028622Y032630D03*
X028614Y034200D03*
X028622Y035614D03*
X028937Y038511D03*
X026551Y039252D03*
X026555Y042822D03*
X026897Y045878D03*
X030248Y044358D03*
X031232Y047189D03*
X031917Y048303D03*
X032224Y050626D03*
X033685Y051181D03*
X031752Y056063D03*
X030567Y052031D03*
X030161Y049381D03*
X032315Y044909D03*
X032893Y044909D03*
X031716Y042716D03*
X031417Y039350D03*
X031421Y037681D03*
X033858Y038511D03*
X033791Y041330D03*
X034441Y044696D03*
X034988Y045090D03*
X035397Y044696D03*
X036090Y044704D03*
X036968Y042795D03*
X036271Y039259D03*
X036271Y034889D03*
X036271Y030507D03*
X034015Y030956D03*
X032013Y032757D03*
X031417Y030555D03*
X031417Y026130D03*
X031417Y021787D03*
X031417Y017441D03*
X031417Y013043D03*
X031417Y008740D03*
X031413Y004338D03*
X036271Y004342D03*
X036271Y008681D03*
X036271Y013055D03*
X036271Y017433D03*
X036271Y021767D03*
X036271Y026177D03*
X026551Y034893D03*
X024267Y038511D03*
X023791Y041425D03*
X019279Y042429D03*
X019338Y038511D03*
X038082Y051602D03*
D13*
X025429Y061067D03*
X025350Y062161D03*
X023260Y061704D03*
X023055Y061905D03*
X022968Y062220D03*
X022819Y061220D03*
X022889Y060870D03*
X021921Y060878D03*
X021732Y060594D03*
X021145Y062374D03*
X020823Y062098D03*
X020775Y061716D03*
X020921Y061543D03*
X020429Y061716D03*
X020921Y060901D03*
X020214Y059521D03*
X020389Y058189D03*
X019289Y059324D03*
X019287Y059326D03*
X018931Y059521D03*
X018508Y059574D03*
X018291Y060303D03*
X018882Y060374D03*
X019775Y065283D03*
X021925Y062696D03*
X022122Y062870D03*
X022319Y063051D03*
X022236Y065039D03*
X025067Y056504D03*
X024326Y056118D03*
X022976Y052570D03*
X022275Y052130D03*
X021193Y051106D03*
X020586Y053263D03*
X020185Y054000D03*
X021071Y055279D03*
X018988Y054807D03*
X019307Y053826D03*
X016476Y045948D03*
X015323Y045559D03*
X015244Y046043D03*
X015067Y044996D03*
X013740Y044433D03*
X014720Y041216D03*
X011071Y046011D03*
X014126Y049846D03*
X020752Y044433D03*
D14*
X031157Y066067D03*
X036334Y066067D03*
D15*
X033350Y066271D03*
D16*
X010008Y005744D03*
X010008Y010118D03*
X009980Y014468D03*
X010004Y018858D03*
X010004Y023196D03*
X009976Y027559D03*
X009976Y031948D03*
X014685Y031976D03*
X014807Y027556D03*
X014925Y023227D03*
X015921Y018133D03*
X014838Y014468D03*
X014874Y010118D03*
X014866Y005744D03*
X015539Y001287D03*
X011626Y001287D03*
X019708Y001287D03*
X019732Y005744D03*
X019685Y010118D03*
X019610Y014468D03*
X019704Y018874D03*
X019748Y023237D03*
X019830Y027562D03*
X019811Y031976D03*
X019767Y036342D03*
X024421Y031976D03*
X024523Y027567D03*
X024488Y023247D03*
X024724Y018874D03*
X024523Y014468D03*
X024535Y010118D03*
X024563Y005744D03*
X024543Y001287D03*
X028716Y001287D03*
X029338Y005744D03*
X029500Y010118D03*
X029382Y014468D03*
X029354Y018874D03*
X029358Y023257D03*
X029358Y027573D03*
X029015Y036362D03*
X024606Y036342D03*
X034244Y036315D03*
X034228Y031976D03*
X034244Y027578D03*
X034256Y023267D03*
X035358Y018102D03*
X034275Y014468D03*
X034244Y010118D03*
X034232Y005744D03*
X032878Y001287D03*
X014826Y036342D03*
M02*
