G75*
%MOIN*%
%OFA0B0*%
%FSLAX24Y24*%
%IPPOS*%
%LPD*%
%AMOC8*
5,1,8,0,0,1.08239X$1,22.5*
%
%ADD10C,0.0000*%
%ADD11C,0.0051*%
%ADD12C,0.0060*%
%ADD13C,0.0050*%
D10*
X009134Y000830D02*
X009134Y069105D01*
X009147Y069173D01*
X009164Y069240D01*
X009184Y069306D01*
X009208Y069371D01*
X009236Y069434D01*
X009267Y069496D01*
X009302Y069556D01*
X009340Y069613D01*
X009381Y069669D01*
X009425Y069722D01*
X009472Y069773D01*
X009522Y069821D01*
X009575Y069866D01*
X009629Y069908D01*
X009687Y069947D01*
X009746Y069982D01*
X009807Y070015D01*
X009870Y070043D01*
X009934Y070069D01*
X010000Y070090D01*
X010067Y070108D01*
X010135Y070122D01*
X010203Y070132D01*
X010272Y070138D01*
X010341Y070141D01*
X010410Y070140D01*
X010479Y070134D01*
X010548Y070125D01*
X010548Y070126D02*
X038015Y070126D01*
X038080Y070124D01*
X038145Y070118D01*
X038209Y070109D01*
X038273Y070096D01*
X038336Y070079D01*
X038397Y070059D01*
X038458Y070035D01*
X038517Y070007D01*
X038574Y069976D01*
X038629Y069942D01*
X038683Y069905D01*
X038734Y069864D01*
X038782Y069821D01*
X038828Y069775D01*
X038871Y069727D01*
X038912Y069676D01*
X038949Y069622D01*
X038983Y069567D01*
X039014Y069510D01*
X039042Y069451D01*
X039066Y069390D01*
X039086Y069329D01*
X039103Y069266D01*
X039116Y069202D01*
X039125Y069138D01*
X039131Y069073D01*
X039133Y069008D01*
X039134Y069008D02*
X039134Y000833D01*
X039133Y000833D02*
X039131Y000783D01*
X039126Y000732D01*
X039117Y000683D01*
X039104Y000634D01*
X039088Y000586D01*
X039069Y000539D01*
X039047Y000494D01*
X039021Y000451D01*
X038992Y000409D01*
X038960Y000370D01*
X038926Y000333D01*
X038889Y000299D01*
X038850Y000267D01*
X038808Y000238D01*
X038765Y000212D01*
X038720Y000190D01*
X038673Y000171D01*
X038625Y000155D01*
X038576Y000142D01*
X038527Y000133D01*
X038476Y000128D01*
X038426Y000126D01*
X010035Y000126D01*
X010034Y000126D02*
X009979Y000121D01*
X009924Y000120D01*
X009869Y000123D01*
X009814Y000129D01*
X009760Y000139D01*
X009706Y000153D01*
X009654Y000171D01*
X009603Y000192D01*
X009553Y000216D01*
X009506Y000244D01*
X009460Y000275D01*
X009416Y000309D01*
X009375Y000346D01*
X009337Y000386D01*
X009301Y000428D01*
X009268Y000472D01*
X009239Y000519D01*
X009212Y000567D01*
X009189Y000618D01*
X009170Y000669D01*
X009154Y000722D01*
X009142Y000776D01*
X009133Y000831D01*
X009504Y001001D02*
X009506Y001051D01*
X009512Y001101D01*
X009522Y001150D01*
X009536Y001198D01*
X009553Y001245D01*
X009574Y001290D01*
X009599Y001334D01*
X009627Y001375D01*
X009659Y001414D01*
X009693Y001451D01*
X009730Y001485D01*
X009770Y001515D01*
X009812Y001542D01*
X009856Y001566D01*
X009902Y001587D01*
X009949Y001603D01*
X009997Y001616D01*
X010047Y001625D01*
X010096Y001630D01*
X010147Y001631D01*
X010197Y001628D01*
X010246Y001621D01*
X010295Y001610D01*
X010343Y001595D01*
X010389Y001577D01*
X010434Y001555D01*
X010477Y001529D01*
X010518Y001500D01*
X010557Y001468D01*
X010593Y001433D01*
X010625Y001395D01*
X010655Y001355D01*
X010682Y001312D01*
X010705Y001268D01*
X010724Y001222D01*
X010740Y001174D01*
X010752Y001125D01*
X010760Y001076D01*
X010764Y001026D01*
X010764Y000976D01*
X010760Y000926D01*
X010752Y000877D01*
X010740Y000828D01*
X010724Y000780D01*
X010705Y000734D01*
X010682Y000690D01*
X010655Y000647D01*
X010625Y000607D01*
X010593Y000569D01*
X010557Y000534D01*
X010518Y000502D01*
X010477Y000473D01*
X010434Y000447D01*
X010389Y000425D01*
X010343Y000407D01*
X010295Y000392D01*
X010246Y000381D01*
X010197Y000374D01*
X010147Y000371D01*
X010096Y000372D01*
X010047Y000377D01*
X009997Y000386D01*
X009949Y000399D01*
X009902Y000415D01*
X009856Y000436D01*
X009812Y000460D01*
X009770Y000487D01*
X009730Y000517D01*
X009693Y000551D01*
X009659Y000588D01*
X009627Y000627D01*
X009599Y000668D01*
X009574Y000712D01*
X009553Y000757D01*
X009536Y000804D01*
X009522Y000852D01*
X009512Y000901D01*
X009506Y000951D01*
X009504Y001001D01*
X013795Y018688D02*
X013797Y018738D01*
X013803Y018788D01*
X013813Y018837D01*
X013827Y018885D01*
X013844Y018932D01*
X013865Y018977D01*
X013890Y019021D01*
X013918Y019062D01*
X013950Y019101D01*
X013984Y019138D01*
X014021Y019172D01*
X014061Y019202D01*
X014103Y019229D01*
X014147Y019253D01*
X014193Y019274D01*
X014240Y019290D01*
X014288Y019303D01*
X014338Y019312D01*
X014387Y019317D01*
X014438Y019318D01*
X014488Y019315D01*
X014537Y019308D01*
X014586Y019297D01*
X014634Y019282D01*
X014680Y019264D01*
X014725Y019242D01*
X014768Y019216D01*
X014809Y019187D01*
X014848Y019155D01*
X014884Y019120D01*
X014916Y019082D01*
X014946Y019042D01*
X014973Y018999D01*
X014996Y018955D01*
X015015Y018909D01*
X015031Y018861D01*
X015043Y018812D01*
X015051Y018763D01*
X015055Y018713D01*
X015055Y018663D01*
X015051Y018613D01*
X015043Y018564D01*
X015031Y018515D01*
X015015Y018467D01*
X014996Y018421D01*
X014973Y018377D01*
X014946Y018334D01*
X014916Y018294D01*
X014884Y018256D01*
X014848Y018221D01*
X014809Y018189D01*
X014768Y018160D01*
X014725Y018134D01*
X014680Y018112D01*
X014634Y018094D01*
X014586Y018079D01*
X014537Y018068D01*
X014488Y018061D01*
X014438Y018058D01*
X014387Y018059D01*
X014338Y018064D01*
X014288Y018073D01*
X014240Y018086D01*
X014193Y018102D01*
X014147Y018123D01*
X014103Y018147D01*
X014061Y018174D01*
X014021Y018204D01*
X013984Y018238D01*
X013950Y018275D01*
X013918Y018314D01*
X013890Y018355D01*
X013865Y018399D01*
X013844Y018444D01*
X013827Y018491D01*
X013813Y018539D01*
X013803Y018588D01*
X013797Y018638D01*
X013795Y018688D01*
X010724Y041976D02*
X010726Y041997D01*
X010732Y042017D01*
X010741Y042037D01*
X010753Y042054D01*
X010768Y042068D01*
X010786Y042080D01*
X010806Y042088D01*
X010826Y042093D01*
X010847Y042094D01*
X010868Y042091D01*
X010888Y042085D01*
X010907Y042074D01*
X010924Y042061D01*
X010937Y042045D01*
X010948Y042027D01*
X010956Y042007D01*
X010960Y041987D01*
X010960Y041965D01*
X010956Y041945D01*
X010948Y041925D01*
X010937Y041907D01*
X010924Y041891D01*
X010907Y041878D01*
X010888Y041867D01*
X010868Y041861D01*
X010847Y041858D01*
X010826Y041859D01*
X010806Y041864D01*
X010786Y041872D01*
X010768Y041884D01*
X010753Y041898D01*
X010741Y041915D01*
X010732Y041935D01*
X010726Y041955D01*
X010724Y041976D01*
X009450Y046697D02*
X009452Y046747D01*
X009458Y046797D01*
X009468Y046846D01*
X009482Y046894D01*
X009499Y046941D01*
X009520Y046986D01*
X009545Y047030D01*
X009573Y047071D01*
X009605Y047110D01*
X009639Y047147D01*
X009676Y047181D01*
X009716Y047211D01*
X009758Y047238D01*
X009802Y047262D01*
X009848Y047283D01*
X009895Y047299D01*
X009943Y047312D01*
X009993Y047321D01*
X010042Y047326D01*
X010093Y047327D01*
X010143Y047324D01*
X010192Y047317D01*
X010241Y047306D01*
X010289Y047291D01*
X010335Y047273D01*
X010380Y047251D01*
X010423Y047225D01*
X010464Y047196D01*
X010503Y047164D01*
X010539Y047129D01*
X010571Y047091D01*
X010601Y047051D01*
X010628Y047008D01*
X010651Y046964D01*
X010670Y046918D01*
X010686Y046870D01*
X010698Y046821D01*
X010706Y046772D01*
X010710Y046722D01*
X010710Y046672D01*
X010706Y046622D01*
X010698Y046573D01*
X010686Y046524D01*
X010670Y046476D01*
X010651Y046430D01*
X010628Y046386D01*
X010601Y046343D01*
X010571Y046303D01*
X010539Y046265D01*
X010503Y046230D01*
X010464Y046198D01*
X010423Y046169D01*
X010380Y046143D01*
X010335Y046121D01*
X010289Y046103D01*
X010241Y046088D01*
X010192Y046077D01*
X010143Y046070D01*
X010093Y046067D01*
X010042Y046068D01*
X009993Y046073D01*
X009943Y046082D01*
X009895Y046095D01*
X009848Y046111D01*
X009802Y046132D01*
X009758Y046156D01*
X009716Y046183D01*
X009676Y046213D01*
X009639Y046247D01*
X009605Y046284D01*
X009573Y046323D01*
X009545Y046364D01*
X009520Y046408D01*
X009499Y046453D01*
X009482Y046500D01*
X009468Y046548D01*
X009458Y046597D01*
X009452Y046647D01*
X009450Y046697D01*
X009754Y068876D02*
X009756Y068926D01*
X009762Y068976D01*
X009772Y069025D01*
X009786Y069073D01*
X009803Y069120D01*
X009824Y069165D01*
X009849Y069209D01*
X009877Y069250D01*
X009909Y069289D01*
X009943Y069326D01*
X009980Y069360D01*
X010020Y069390D01*
X010062Y069417D01*
X010106Y069441D01*
X010152Y069462D01*
X010199Y069478D01*
X010247Y069491D01*
X010297Y069500D01*
X010346Y069505D01*
X010397Y069506D01*
X010447Y069503D01*
X010496Y069496D01*
X010545Y069485D01*
X010593Y069470D01*
X010639Y069452D01*
X010684Y069430D01*
X010727Y069404D01*
X010768Y069375D01*
X010807Y069343D01*
X010843Y069308D01*
X010875Y069270D01*
X010905Y069230D01*
X010932Y069187D01*
X010955Y069143D01*
X010974Y069097D01*
X010990Y069049D01*
X011002Y069000D01*
X011010Y068951D01*
X011014Y068901D01*
X011014Y068851D01*
X011010Y068801D01*
X011002Y068752D01*
X010990Y068703D01*
X010974Y068655D01*
X010955Y068609D01*
X010932Y068565D01*
X010905Y068522D01*
X010875Y068482D01*
X010843Y068444D01*
X010807Y068409D01*
X010768Y068377D01*
X010727Y068348D01*
X010684Y068322D01*
X010639Y068300D01*
X010593Y068282D01*
X010545Y068267D01*
X010496Y068256D01*
X010447Y068249D01*
X010397Y068246D01*
X010346Y068247D01*
X010297Y068252D01*
X010247Y068261D01*
X010199Y068274D01*
X010152Y068290D01*
X010106Y068311D01*
X010062Y068335D01*
X010020Y068362D01*
X009980Y068392D01*
X009943Y068426D01*
X009909Y068463D01*
X009877Y068502D01*
X009849Y068543D01*
X009824Y068587D01*
X009803Y068632D01*
X009786Y068679D01*
X009772Y068727D01*
X009762Y068776D01*
X009756Y068826D01*
X009754Y068876D01*
X030704Y066067D02*
X030706Y066109D01*
X030712Y066151D01*
X030722Y066193D01*
X030735Y066233D01*
X030753Y066272D01*
X030774Y066309D01*
X030798Y066343D01*
X030826Y066376D01*
X030856Y066406D01*
X030889Y066432D01*
X030924Y066456D01*
X030962Y066476D01*
X031001Y066492D01*
X031041Y066505D01*
X031083Y066514D01*
X031125Y066519D01*
X031168Y066520D01*
X031210Y066517D01*
X031252Y066510D01*
X031293Y066499D01*
X031333Y066484D01*
X031371Y066466D01*
X031408Y066444D01*
X031442Y066419D01*
X031474Y066391D01*
X031502Y066360D01*
X031528Y066326D01*
X031551Y066290D01*
X031570Y066253D01*
X031586Y066213D01*
X031598Y066172D01*
X031606Y066131D01*
X031610Y066088D01*
X031610Y066046D01*
X031606Y066003D01*
X031598Y065962D01*
X031586Y065921D01*
X031570Y065881D01*
X031551Y065844D01*
X031528Y065808D01*
X031502Y065774D01*
X031474Y065743D01*
X031442Y065715D01*
X031408Y065690D01*
X031371Y065668D01*
X031333Y065650D01*
X031293Y065635D01*
X031252Y065624D01*
X031210Y065617D01*
X031168Y065614D01*
X031125Y065615D01*
X031083Y065620D01*
X031041Y065629D01*
X031001Y065642D01*
X030962Y065658D01*
X030924Y065678D01*
X030889Y065702D01*
X030856Y065728D01*
X030826Y065758D01*
X030798Y065791D01*
X030774Y065825D01*
X030753Y065862D01*
X030735Y065901D01*
X030722Y065941D01*
X030712Y065983D01*
X030706Y066025D01*
X030704Y066067D01*
X035877Y066067D02*
X035879Y066109D01*
X035885Y066151D01*
X035895Y066193D01*
X035908Y066233D01*
X035926Y066272D01*
X035947Y066309D01*
X035971Y066343D01*
X035999Y066376D01*
X036029Y066406D01*
X036062Y066432D01*
X036097Y066456D01*
X036135Y066476D01*
X036174Y066492D01*
X036214Y066505D01*
X036256Y066514D01*
X036298Y066519D01*
X036341Y066520D01*
X036383Y066517D01*
X036425Y066510D01*
X036466Y066499D01*
X036506Y066484D01*
X036544Y066466D01*
X036581Y066444D01*
X036615Y066419D01*
X036647Y066391D01*
X036675Y066360D01*
X036701Y066326D01*
X036724Y066290D01*
X036743Y066253D01*
X036759Y066213D01*
X036771Y066172D01*
X036779Y066131D01*
X036783Y066088D01*
X036783Y066046D01*
X036779Y066003D01*
X036771Y065962D01*
X036759Y065921D01*
X036743Y065881D01*
X036724Y065844D01*
X036701Y065808D01*
X036675Y065774D01*
X036647Y065743D01*
X036615Y065715D01*
X036581Y065690D01*
X036544Y065668D01*
X036506Y065650D01*
X036466Y065635D01*
X036425Y065624D01*
X036383Y065617D01*
X036341Y065614D01*
X036298Y065615D01*
X036256Y065620D01*
X036214Y065629D01*
X036174Y065642D01*
X036135Y065658D01*
X036097Y065678D01*
X036062Y065702D01*
X036029Y065728D01*
X035999Y065758D01*
X035971Y065791D01*
X035947Y065825D01*
X035926Y065862D01*
X035908Y065901D01*
X035895Y065941D01*
X035885Y065983D01*
X035879Y066025D01*
X035877Y066067D01*
X037254Y068751D02*
X037256Y068801D01*
X037262Y068851D01*
X037272Y068900D01*
X037286Y068948D01*
X037303Y068995D01*
X037324Y069040D01*
X037349Y069084D01*
X037377Y069125D01*
X037409Y069164D01*
X037443Y069201D01*
X037480Y069235D01*
X037520Y069265D01*
X037562Y069292D01*
X037606Y069316D01*
X037652Y069337D01*
X037699Y069353D01*
X037747Y069366D01*
X037797Y069375D01*
X037846Y069380D01*
X037897Y069381D01*
X037947Y069378D01*
X037996Y069371D01*
X038045Y069360D01*
X038093Y069345D01*
X038139Y069327D01*
X038184Y069305D01*
X038227Y069279D01*
X038268Y069250D01*
X038307Y069218D01*
X038343Y069183D01*
X038375Y069145D01*
X038405Y069105D01*
X038432Y069062D01*
X038455Y069018D01*
X038474Y068972D01*
X038490Y068924D01*
X038502Y068875D01*
X038510Y068826D01*
X038514Y068776D01*
X038514Y068726D01*
X038510Y068676D01*
X038502Y068627D01*
X038490Y068578D01*
X038474Y068530D01*
X038455Y068484D01*
X038432Y068440D01*
X038405Y068397D01*
X038375Y068357D01*
X038343Y068319D01*
X038307Y068284D01*
X038268Y068252D01*
X038227Y068223D01*
X038184Y068197D01*
X038139Y068175D01*
X038093Y068157D01*
X038045Y068142D01*
X037996Y068131D01*
X037947Y068124D01*
X037897Y068121D01*
X037846Y068122D01*
X037797Y068127D01*
X037747Y068136D01*
X037699Y068149D01*
X037652Y068165D01*
X037606Y068186D01*
X037562Y068210D01*
X037520Y068237D01*
X037480Y068267D01*
X037443Y068301D01*
X037409Y068338D01*
X037377Y068377D01*
X037349Y068418D01*
X037324Y068462D01*
X037303Y068507D01*
X037286Y068554D01*
X037272Y068602D01*
X037262Y068651D01*
X037256Y068701D01*
X037254Y068751D01*
X037004Y046501D02*
X037006Y046551D01*
X037012Y046601D01*
X037022Y046650D01*
X037036Y046698D01*
X037053Y046745D01*
X037074Y046790D01*
X037099Y046834D01*
X037127Y046875D01*
X037159Y046914D01*
X037193Y046951D01*
X037230Y046985D01*
X037270Y047015D01*
X037312Y047042D01*
X037356Y047066D01*
X037402Y047087D01*
X037449Y047103D01*
X037497Y047116D01*
X037547Y047125D01*
X037596Y047130D01*
X037647Y047131D01*
X037697Y047128D01*
X037746Y047121D01*
X037795Y047110D01*
X037843Y047095D01*
X037889Y047077D01*
X037934Y047055D01*
X037977Y047029D01*
X038018Y047000D01*
X038057Y046968D01*
X038093Y046933D01*
X038125Y046895D01*
X038155Y046855D01*
X038182Y046812D01*
X038205Y046768D01*
X038224Y046722D01*
X038240Y046674D01*
X038252Y046625D01*
X038260Y046576D01*
X038264Y046526D01*
X038264Y046476D01*
X038260Y046426D01*
X038252Y046377D01*
X038240Y046328D01*
X038224Y046280D01*
X038205Y046234D01*
X038182Y046190D01*
X038155Y046147D01*
X038125Y046107D01*
X038093Y046069D01*
X038057Y046034D01*
X038018Y046002D01*
X037977Y045973D01*
X037934Y045947D01*
X037889Y045925D01*
X037843Y045907D01*
X037795Y045892D01*
X037746Y045881D01*
X037697Y045874D01*
X037647Y045871D01*
X037596Y045872D01*
X037547Y045877D01*
X037497Y045886D01*
X037449Y045899D01*
X037402Y045915D01*
X037356Y045936D01*
X037312Y045960D01*
X037270Y045987D01*
X037230Y046017D01*
X037193Y046051D01*
X037159Y046088D01*
X037127Y046127D01*
X037099Y046168D01*
X037074Y046212D01*
X037053Y046257D01*
X037036Y046304D01*
X037022Y046352D01*
X037012Y046401D01*
X037006Y046451D01*
X037004Y046501D01*
X036924Y041976D02*
X036926Y042005D01*
X036932Y042033D01*
X036941Y042061D01*
X036954Y042087D01*
X036971Y042110D01*
X036990Y042132D01*
X037012Y042151D01*
X037037Y042166D01*
X037063Y042179D01*
X037091Y042187D01*
X037119Y042192D01*
X037148Y042193D01*
X037177Y042190D01*
X037205Y042183D01*
X037232Y042173D01*
X037258Y042159D01*
X037281Y042142D01*
X037302Y042122D01*
X037320Y042099D01*
X037335Y042074D01*
X037346Y042047D01*
X037354Y042019D01*
X037358Y041990D01*
X037358Y041962D01*
X037354Y041933D01*
X037346Y041905D01*
X037335Y041878D01*
X037320Y041853D01*
X037302Y041830D01*
X037281Y041810D01*
X037258Y041793D01*
X037232Y041779D01*
X037205Y041769D01*
X037177Y041762D01*
X037148Y041759D01*
X037119Y041760D01*
X037091Y041765D01*
X037063Y041773D01*
X037037Y041786D01*
X037012Y041801D01*
X036990Y041820D01*
X036971Y041842D01*
X036954Y041865D01*
X036941Y041891D01*
X036932Y041919D01*
X036926Y041947D01*
X036924Y041976D01*
X033261Y018794D02*
X033263Y018844D01*
X033269Y018894D01*
X033279Y018943D01*
X033293Y018991D01*
X033310Y019038D01*
X033331Y019083D01*
X033356Y019127D01*
X033384Y019168D01*
X033416Y019207D01*
X033450Y019244D01*
X033487Y019278D01*
X033527Y019308D01*
X033569Y019335D01*
X033613Y019359D01*
X033659Y019380D01*
X033706Y019396D01*
X033754Y019409D01*
X033804Y019418D01*
X033853Y019423D01*
X033904Y019424D01*
X033954Y019421D01*
X034003Y019414D01*
X034052Y019403D01*
X034100Y019388D01*
X034146Y019370D01*
X034191Y019348D01*
X034234Y019322D01*
X034275Y019293D01*
X034314Y019261D01*
X034350Y019226D01*
X034382Y019188D01*
X034412Y019148D01*
X034439Y019105D01*
X034462Y019061D01*
X034481Y019015D01*
X034497Y018967D01*
X034509Y018918D01*
X034517Y018869D01*
X034521Y018819D01*
X034521Y018769D01*
X034517Y018719D01*
X034509Y018670D01*
X034497Y018621D01*
X034481Y018573D01*
X034462Y018527D01*
X034439Y018483D01*
X034412Y018440D01*
X034382Y018400D01*
X034350Y018362D01*
X034314Y018327D01*
X034275Y018295D01*
X034234Y018266D01*
X034191Y018240D01*
X034146Y018218D01*
X034100Y018200D01*
X034052Y018185D01*
X034003Y018174D01*
X033954Y018167D01*
X033904Y018164D01*
X033853Y018165D01*
X033804Y018170D01*
X033754Y018179D01*
X033706Y018192D01*
X033659Y018208D01*
X033613Y018229D01*
X033569Y018253D01*
X033527Y018280D01*
X033487Y018310D01*
X033450Y018344D01*
X033416Y018381D01*
X033384Y018420D01*
X033356Y018461D01*
X033331Y018505D01*
X033310Y018550D01*
X033293Y018597D01*
X033279Y018645D01*
X033269Y018694D01*
X033263Y018744D01*
X033261Y018794D01*
X037504Y001001D02*
X037506Y001051D01*
X037512Y001101D01*
X037522Y001150D01*
X037536Y001198D01*
X037553Y001245D01*
X037574Y001290D01*
X037599Y001334D01*
X037627Y001375D01*
X037659Y001414D01*
X037693Y001451D01*
X037730Y001485D01*
X037770Y001515D01*
X037812Y001542D01*
X037856Y001566D01*
X037902Y001587D01*
X037949Y001603D01*
X037997Y001616D01*
X038047Y001625D01*
X038096Y001630D01*
X038147Y001631D01*
X038197Y001628D01*
X038246Y001621D01*
X038295Y001610D01*
X038343Y001595D01*
X038389Y001577D01*
X038434Y001555D01*
X038477Y001529D01*
X038518Y001500D01*
X038557Y001468D01*
X038593Y001433D01*
X038625Y001395D01*
X038655Y001355D01*
X038682Y001312D01*
X038705Y001268D01*
X038724Y001222D01*
X038740Y001174D01*
X038752Y001125D01*
X038760Y001076D01*
X038764Y001026D01*
X038764Y000976D01*
X038760Y000926D01*
X038752Y000877D01*
X038740Y000828D01*
X038724Y000780D01*
X038705Y000734D01*
X038682Y000690D01*
X038655Y000647D01*
X038625Y000607D01*
X038593Y000569D01*
X038557Y000534D01*
X038518Y000502D01*
X038477Y000473D01*
X038434Y000447D01*
X038389Y000425D01*
X038343Y000407D01*
X038295Y000392D01*
X038246Y000381D01*
X038197Y000374D01*
X038147Y000371D01*
X038096Y000372D01*
X038047Y000377D01*
X037997Y000386D01*
X037949Y000399D01*
X037902Y000415D01*
X037856Y000436D01*
X037812Y000460D01*
X037770Y000487D01*
X037730Y000517D01*
X037693Y000551D01*
X037659Y000588D01*
X037627Y000627D01*
X037599Y000668D01*
X037574Y000712D01*
X037553Y000757D01*
X037536Y000804D01*
X037522Y000852D01*
X037512Y000901D01*
X037506Y000951D01*
X037504Y001001D01*
D11*
X009134Y000126D02*
X000492Y000126D01*
X001260Y000126D02*
X001157Y001149D01*
X001134Y001149D02*
X001385Y001149D01*
X001260Y000126D01*
X001362Y001149D01*
X001311Y001149D02*
X001260Y000126D01*
X001208Y001149D01*
X001134Y001149D02*
X001260Y000126D01*
X001260Y045401D01*
X001362Y044378D01*
X001385Y044378D02*
X001260Y045401D01*
X001157Y044378D01*
X001134Y044378D02*
X001385Y044378D01*
X001311Y044378D02*
X001260Y045401D01*
X001208Y044378D01*
X001134Y044378D02*
X001260Y045401D01*
X000492Y045401D02*
X009134Y045401D01*
X003509Y069102D02*
X003384Y070126D01*
X003486Y069102D01*
X003509Y069102D02*
X003258Y069102D01*
X003384Y070126D01*
X003281Y069102D01*
X003332Y069102D02*
X003384Y070126D01*
X003435Y069102D01*
X003384Y070126D02*
X003384Y000126D01*
X003486Y001149D01*
X003509Y001149D02*
X003384Y000126D01*
X003281Y001149D01*
X003258Y001149D02*
X003509Y001149D01*
X003435Y001149D02*
X003384Y000126D01*
X003332Y001149D01*
X003258Y001149D02*
X003384Y000126D01*
X002616Y000126D02*
X009134Y000126D01*
X009134Y070126D02*
X002616Y070126D01*
X009134Y070126D02*
X009134Y079643D01*
X009134Y078876D02*
X010157Y078773D01*
X010157Y078750D02*
X009134Y078876D01*
X010157Y078978D01*
X010157Y079001D02*
X010157Y078750D01*
X010157Y078824D02*
X009134Y078876D01*
X010157Y078927D01*
X010157Y079001D02*
X009134Y078876D01*
X039134Y078876D01*
X038110Y078773D01*
X038110Y078750D02*
X039134Y078876D01*
X038110Y078978D01*
X038110Y079001D02*
X038110Y078750D01*
X038110Y078824D02*
X039134Y078876D01*
X038110Y078927D01*
X038110Y079001D02*
X039134Y078876D01*
X039134Y079643D02*
X039134Y070126D01*
D12*
X024311Y079239D02*
X024311Y079345D01*
X024204Y079452D01*
X024098Y079452D01*
X024204Y079452D02*
X024311Y079559D01*
X024311Y079666D01*
X024204Y079772D01*
X023991Y079772D01*
X023884Y079666D01*
X023884Y079239D02*
X023991Y079132D01*
X024204Y079132D01*
X024311Y079239D01*
X002594Y035303D02*
X003021Y034876D01*
X003127Y034876D01*
X002487Y034876D02*
X002487Y035303D01*
X002594Y035303D01*
X000897Y023855D02*
X000790Y023855D01*
X000683Y023748D01*
X000683Y023641D01*
X000683Y023748D02*
X000576Y023855D01*
X000470Y023855D01*
X000363Y023748D01*
X000363Y023535D01*
X000470Y023428D01*
X000363Y023210D02*
X000363Y022783D01*
X000683Y022783D01*
X000576Y022997D01*
X000576Y023104D01*
X000683Y023210D01*
X000897Y023210D01*
X001003Y023104D01*
X001003Y022890D01*
X000897Y022783D01*
X000897Y022568D02*
X001003Y022568D01*
X001003Y022461D01*
X000897Y022461D01*
X000897Y022568D01*
X000683Y022243D02*
X000683Y021816D01*
X000363Y022137D01*
X001003Y022137D01*
X000897Y023428D02*
X001003Y023535D01*
X001003Y023748D01*
X000897Y023855D01*
D13*
X009372Y060348D02*
X009372Y066348D01*
X013872Y066348D01*
X013872Y060348D01*
X009372Y060348D01*
X009634Y060348D02*
X009634Y066348D01*
X009372Y066126D02*
X013872Y066126D01*
X013634Y066348D02*
X013634Y060348D01*
X013872Y060626D02*
X009372Y060626D01*
X009372Y061126D02*
X013872Y061126D01*
X013872Y061626D02*
X009372Y061626D01*
X009372Y062126D02*
X013872Y062126D01*
X013872Y062626D02*
X009372Y062626D01*
X009372Y063126D02*
X013872Y063126D01*
X013872Y063626D02*
X009372Y063626D01*
X009372Y064126D02*
X013872Y064126D01*
X013872Y064626D02*
X009372Y064626D01*
X009372Y065126D02*
X013872Y065126D01*
X013872Y065626D02*
X009372Y065626D01*
X010134Y066348D02*
X010134Y060348D01*
X010634Y060348D02*
X010634Y066348D01*
X011134Y066348D02*
X011134Y060348D01*
X011634Y060348D02*
X011634Y066348D01*
X012134Y066348D02*
X012134Y060348D01*
X012634Y060348D02*
X012634Y066348D01*
X013134Y066348D02*
X013134Y060348D01*
M02*
