G75*
%MOIN*%
%OFA0B0*%
%FSLAX24Y24*%
%IPPOS*%
%LPD*%
%AMOC8*
5,1,8,0,0,1.08239X$1,22.5*
%
%ADD10C,0.0020*%
%ADD11R,0.0098X0.0177*%
%ADD12C,0.0050*%
%ADD13C,0.0060*%
%ADD14C,0.0040*%
%ADD15C,0.0080*%
%ADD16R,0.0040X0.0010*%
%ADD17R,0.0060X0.0010*%
%ADD18R,0.0020X0.0010*%
%ADD19R,0.0070X0.0010*%
%ADD20R,0.0080X0.0010*%
%ADD21R,0.0110X0.0010*%
%ADD22R,0.0170X0.0010*%
%ADD23R,0.0100X0.0010*%
%ADD24R,0.0200X0.0010*%
%ADD25R,0.0370X0.0010*%
%ADD26R,0.0390X0.0010*%
%ADD27R,0.0400X0.0010*%
%ADD28R,0.0050X0.0010*%
%ADD29R,0.0380X0.0010*%
%ADD30R,0.0090X0.0010*%
%ADD31R,0.0490X0.0010*%
%ADD32R,0.0480X0.0010*%
%ADD33R,0.0500X0.0010*%
%ADD34R,0.0510X0.0010*%
%ADD35R,0.0470X0.0010*%
%ADD36R,0.0450X0.0010*%
%ADD37R,0.0410X0.0010*%
%ADD38R,0.0520X0.0010*%
%ADD39R,0.0530X0.0010*%
%ADD40R,0.0670X0.0010*%
%ADD41R,0.0680X0.0010*%
%ADD42R,0.0690X0.0010*%
%ADD43R,0.0710X0.0010*%
%ADD44R,0.0780X0.0010*%
%ADD45R,0.0120X0.0010*%
%ADD46R,0.0790X0.0010*%
%ADD47R,0.0130X0.0010*%
%ADD48R,0.0800X0.0010*%
%ADD49R,0.0140X0.0010*%
%ADD50R,0.0810X0.0010*%
%ADD51R,0.0820X0.0010*%
%ADD52R,0.0150X0.0010*%
%ADD53R,0.0840X0.0010*%
%ADD54R,0.0190X0.0010*%
%ADD55R,0.0830X0.0010*%
%ADD56R,0.0210X0.0010*%
%ADD57R,0.0230X0.0010*%
%ADD58R,0.1010X0.0010*%
%ADD59R,0.0270X0.0010*%
%ADD60R,0.1040X0.0010*%
%ADD61R,0.1480X0.0010*%
%ADD62R,0.1610X0.0010*%
%ADD63R,0.1670X0.0010*%
%ADD64R,0.1740X0.0010*%
%ADD65R,0.1770X0.0010*%
%ADD66R,0.1780X0.0010*%
%ADD67R,0.1760X0.0010*%
%ADD68R,0.1750X0.0010*%
%ADD69R,0.1730X0.0010*%
%ADD70R,0.1720X0.0010*%
%ADD71R,0.1710X0.0010*%
%ADD72R,0.1690X0.0010*%
%ADD73R,0.1630X0.0010*%
%ADD74R,0.1620X0.0010*%
%ADD75R,0.1600X0.0010*%
%ADD76R,0.1580X0.0010*%
%ADD77R,0.0990X0.0010*%
%ADD78R,0.0540X0.0010*%
%ADD79R,0.0980X0.0010*%
%ADD80R,0.0440X0.0010*%
%ADD81R,0.1030X0.0010*%
%ADD82R,0.1100X0.0010*%
%ADD83R,0.0350X0.0010*%
%ADD84R,0.1110X0.0010*%
%ADD85R,0.0310X0.0010*%
%ADD86R,0.0290X0.0010*%
%ADD87R,0.1090X0.0010*%
%ADD88R,0.0260X0.0010*%
%ADD89R,0.1070X0.0010*%
%ADD90R,0.0220X0.0010*%
%ADD91R,0.0180X0.0010*%
%ADD92R,0.0010X0.0010*%
%ADD93R,0.1050X0.0010*%
%ADD94R,0.1130X0.0010*%
%ADD95R,0.1150X0.0010*%
%ADD96R,0.1170X0.0010*%
%ADD97R,0.1190X0.0010*%
%ADD98R,0.1200X0.0010*%
%ADD99R,0.1210X0.0010*%
%ADD100R,0.1240X0.0010*%
%ADD101R,0.1260X0.0010*%
%ADD102R,0.1270X0.0010*%
%ADD103R,0.1280X0.0010*%
%ADD104R,0.1310X0.0010*%
%ADD105R,0.1320X0.0010*%
%ADD106R,0.1330X0.0010*%
%ADD107R,0.1340X0.0010*%
%ADD108R,0.1290X0.0010*%
%ADD109R,0.1300X0.0010*%
%ADD110R,0.1250X0.0010*%
%ADD111R,0.1230X0.0010*%
%ADD112R,0.1120X0.0010*%
%ADD113R,0.1060X0.0010*%
%ADD114R,0.1080X0.0010*%
%ADD115R,0.0920X0.0010*%
%ADD116R,0.0730X0.0010*%
%ADD117R,0.0720X0.0010*%
%ADD118R,0.0740X0.0010*%
%ADD119R,0.0750X0.0010*%
%ADD120R,0.0760X0.0010*%
%ADD121R,0.0770X0.0010*%
%ADD122R,0.0250X0.0010*%
%ADD123R,0.0240X0.0010*%
%ADD124R,0.0550X0.0010*%
%ADD125R,0.0560X0.0010*%
%ADD126R,0.0160X0.0010*%
%ADD127R,0.0570X0.0010*%
%ADD128R,0.0580X0.0010*%
%ADD129R,0.0030X0.0010*%
%ADD130R,0.0590X0.0010*%
%ADD131R,0.0600X0.0010*%
%ADD132R,0.0430X0.0010*%
%ADD133R,0.0420X0.0010*%
%ADD134C,0.0039*%
%ADD135C,0.0010*%
%ADD136C,0.0079*%
%ADD137C,0.0120*%
%ADD138R,0.0039X0.0079*%
D10*
X030366Y048230D02*
X030366Y049431D01*
X031566Y049431D01*
X031566Y048230D01*
X030366Y048230D01*
X031350Y048565D02*
X031352Y048577D01*
X031357Y048588D01*
X031366Y048597D01*
X031377Y048602D01*
X031389Y048604D01*
X031401Y048602D01*
X031412Y048597D01*
X031421Y048588D01*
X031426Y048577D01*
X031428Y048565D01*
X031426Y048553D01*
X031421Y048542D01*
X031412Y048533D01*
X031401Y048528D01*
X031389Y048526D01*
X031377Y048528D01*
X031366Y048533D01*
X031357Y048542D01*
X031352Y048553D01*
X031350Y048565D01*
D11*
X031409Y048317D03*
X031232Y048317D03*
X031055Y048317D03*
X030878Y048317D03*
X030700Y048317D03*
X030523Y048317D03*
X030523Y049340D03*
X030700Y049340D03*
X030878Y049340D03*
X031055Y049340D03*
X031232Y049340D03*
X031409Y049340D03*
D12*
X010635Y033476D02*
X010635Y029976D01*
X037385Y029976D01*
X037385Y033476D01*
X038135Y033476D01*
X038135Y044226D01*
X009885Y044226D01*
X009885Y033476D01*
X010635Y033476D01*
X017773Y052021D02*
X017773Y063675D01*
X018128Y063675D01*
X017543Y065484D02*
X018882Y065484D01*
X018882Y065992D01*
X018882Y066004D02*
X017543Y066004D01*
X017543Y065992D02*
X017543Y065484D01*
X019309Y063675D02*
X019821Y063675D01*
X019821Y062848D01*
X021433Y062393D02*
X021433Y061212D01*
X022614Y061212D01*
X022614Y062393D01*
X021433Y062393D01*
X019821Y052887D02*
X019821Y052021D01*
X019309Y052021D01*
X018128Y052021D02*
X017773Y052021D01*
X028171Y065037D02*
X030033Y065037D01*
X030033Y066380D01*
X028171Y066380D01*
X028171Y065037D01*
X035437Y064337D02*
X035437Y064187D01*
X035512Y064112D01*
X035812Y064412D01*
X035512Y064412D01*
X035437Y064337D01*
X035512Y064112D02*
X035812Y064112D01*
X035887Y064187D01*
X035887Y064337D01*
X035812Y064412D01*
X035437Y063952D02*
X035437Y063651D01*
X035437Y063802D02*
X035887Y063802D01*
X035737Y063651D01*
X035887Y063491D02*
X035887Y063341D01*
X035887Y063416D02*
X035512Y063416D01*
X035437Y063341D01*
X035437Y063266D01*
X035512Y063191D01*
X035512Y063031D02*
X035437Y062956D01*
X035437Y062806D01*
X035512Y062731D01*
X035662Y062806D02*
X035662Y062956D01*
X035587Y063031D01*
X035512Y063031D01*
X035662Y062806D02*
X035737Y062731D01*
X035812Y062731D01*
X035887Y062806D01*
X035887Y062956D01*
X035812Y063031D01*
X036382Y062956D02*
X036382Y062806D01*
X036457Y062731D01*
X036390Y062774D02*
X036465Y062849D01*
X036765Y062849D01*
X036840Y062774D01*
X036840Y062624D01*
X036765Y062549D01*
X036690Y062549D01*
X036615Y062624D01*
X036615Y062849D01*
X036607Y062806D02*
X036607Y062956D01*
X036532Y063031D01*
X036457Y063031D01*
X036382Y062956D01*
X036390Y062774D02*
X036390Y062624D01*
X036465Y062549D01*
X036465Y062314D02*
X036840Y062314D01*
X036840Y062239D02*
X036840Y062389D01*
X036757Y062731D02*
X036682Y062731D01*
X036607Y062806D01*
X036757Y062731D02*
X036832Y062806D01*
X036832Y062956D01*
X036757Y063031D01*
X036832Y063341D02*
X036832Y063491D01*
X036832Y063416D02*
X036457Y063416D01*
X036382Y063341D01*
X036382Y063266D01*
X036457Y063191D01*
X036382Y063651D02*
X036382Y063952D01*
X036382Y063802D02*
X036832Y063802D01*
X036682Y063651D01*
X036682Y064112D02*
X036832Y064262D01*
X036382Y064262D01*
X036382Y064112D02*
X036382Y064412D01*
X036465Y062314D02*
X036390Y062239D01*
X036390Y062164D01*
X036465Y062088D01*
X036465Y061928D02*
X036390Y061853D01*
X036390Y061703D01*
X036465Y061628D01*
X036615Y061703D02*
X036615Y061853D01*
X036540Y061928D01*
X036465Y061928D01*
X036615Y061703D02*
X036690Y061628D01*
X036765Y061628D01*
X036840Y061703D01*
X036840Y061853D01*
X036765Y061928D01*
X038703Y063351D02*
X038778Y063276D01*
X038703Y063351D02*
X038703Y063501D01*
X038778Y063576D01*
X038853Y063576D01*
X038928Y063501D01*
X038928Y063351D01*
X039003Y063276D01*
X039078Y063276D01*
X039153Y063351D01*
X039153Y063501D01*
X039078Y063576D01*
X039153Y063887D02*
X039153Y064037D01*
X039153Y063962D02*
X038778Y063962D01*
X038703Y063887D01*
X038703Y063812D01*
X038778Y063737D01*
X038778Y064197D02*
X038703Y064272D01*
X038703Y064422D01*
X038778Y064497D01*
X038853Y064497D01*
X038928Y064422D01*
X038928Y064272D01*
X039003Y064197D01*
X039078Y064197D01*
X039153Y064272D01*
X039153Y064422D01*
X039078Y064497D01*
X039003Y064497D01*
X038928Y064422D01*
X038928Y064272D02*
X038853Y064197D01*
X038778Y064197D01*
X031261Y049135D02*
X030671Y049135D01*
X030671Y048525D01*
X031124Y048525D01*
X031261Y048673D01*
X031261Y049135D01*
X031261Y049111D02*
X030671Y049111D01*
X030671Y049062D02*
X031261Y049062D01*
X031261Y049014D02*
X030671Y049014D01*
X030671Y048965D02*
X031261Y048965D01*
X031261Y048917D02*
X030671Y048917D01*
X030671Y048868D02*
X031261Y048868D01*
X031261Y048820D02*
X030671Y048820D01*
X030671Y048771D02*
X031261Y048771D01*
X031261Y048723D02*
X030671Y048723D01*
X030671Y048674D02*
X031261Y048674D01*
X031218Y048626D02*
X030671Y048626D01*
X030671Y048577D02*
X031172Y048577D01*
X031127Y048529D02*
X030671Y048529D01*
X029947Y036960D02*
X029947Y036781D01*
X029947Y035700D01*
X032941Y035700D01*
X032941Y035781D01*
X032941Y036960D01*
X029947Y036960D01*
X029947Y036879D02*
X029947Y036781D01*
X031164Y036505D02*
X031164Y036155D01*
X031314Y036155D02*
X031164Y036330D01*
X031314Y036505D01*
X031314Y036155D01*
X032941Y035804D02*
X032941Y035781D01*
D13*
X030163Y048085D02*
X029736Y048085D01*
X029518Y048085D02*
X029091Y048512D01*
X029091Y048619D01*
X029198Y048725D01*
X029411Y048725D01*
X029518Y048619D01*
X029518Y048085D02*
X029091Y048085D01*
X028778Y049168D02*
X028351Y049168D01*
X028134Y049168D02*
X027707Y049168D01*
X027920Y049168D02*
X027920Y049809D01*
X028134Y049595D01*
X028778Y049809D02*
X028778Y049168D01*
X030163Y048725D02*
X030163Y048085D01*
X030913Y056322D02*
X030913Y056370D01*
X030913Y056322D02*
X031551Y056322D01*
X031551Y056370D01*
X031551Y056688D02*
X031551Y057099D01*
X031551Y057416D02*
X031551Y057464D01*
X030913Y057464D01*
X030913Y057416D01*
X030913Y057099D02*
X030913Y057062D01*
X030913Y056725D02*
X030913Y056688D01*
X028118Y062822D02*
X028118Y062870D01*
X028118Y062822D02*
X027480Y062822D01*
X027480Y062870D01*
X027480Y063188D02*
X027480Y063225D01*
X027480Y063562D02*
X027480Y063599D01*
X027480Y063916D02*
X027480Y063964D01*
X028118Y063964D01*
X028118Y063916D01*
X028118Y063599D02*
X028118Y063188D01*
X021332Y051670D02*
X021289Y051584D01*
X021202Y051497D01*
X021202Y051627D01*
X021159Y051670D01*
X021115Y051670D01*
X021072Y051627D01*
X021072Y051540D01*
X021115Y051497D01*
X021202Y051497D01*
X021289Y051376D02*
X021115Y051376D01*
X021072Y051332D01*
X021072Y051245D01*
X021115Y051202D01*
X021289Y051202D01*
X021332Y051245D01*
X021332Y051332D01*
X021289Y051376D01*
X021159Y051289D02*
X021072Y051376D01*
X020417Y052080D02*
X020417Y052254D01*
X020417Y052167D02*
X020156Y052167D01*
X020156Y052375D02*
X020417Y052375D01*
X020417Y052549D01*
X020417Y052670D02*
X020417Y052843D01*
X020417Y052756D02*
X020156Y052756D01*
X020156Y052964D02*
X020156Y053138D01*
X020156Y053051D02*
X020417Y053051D01*
X020330Y052964D01*
X020287Y052462D02*
X020287Y052375D01*
X016421Y042242D02*
X016101Y042242D01*
X015994Y042135D01*
X015994Y041708D01*
X016101Y041601D01*
X016421Y041601D01*
X016421Y042242D01*
X015777Y042242D02*
X015777Y041601D01*
X015457Y041601D01*
X015350Y041708D01*
X015350Y042135D01*
X015457Y042242D01*
X015777Y042242D01*
X015132Y042242D02*
X015132Y041601D01*
X015132Y041815D02*
X014812Y041815D01*
X014705Y041922D01*
X014705Y042135D01*
X014812Y042242D01*
X015132Y042242D01*
X014919Y041815D02*
X014705Y041601D01*
X014488Y041601D02*
X014061Y042028D01*
X014061Y042135D01*
X014167Y042242D01*
X014381Y042242D01*
X014488Y042135D01*
X014488Y041601D02*
X014061Y041601D01*
X013199Y041708D02*
X013092Y041601D01*
X012878Y041601D01*
X012772Y041708D01*
X012772Y041815D01*
X012878Y041922D01*
X013092Y041922D01*
X013199Y042028D01*
X013199Y042135D01*
X013092Y042242D01*
X012878Y042242D01*
X012772Y042135D01*
X012554Y042242D02*
X012127Y042242D01*
X012341Y042242D02*
X012341Y041601D01*
X011910Y041601D02*
X011910Y042242D01*
X011589Y042242D01*
X011482Y042135D01*
X011482Y041708D01*
X011589Y041601D01*
X011910Y041601D01*
X035962Y063347D02*
X035962Y064447D01*
X035964Y064464D01*
X035968Y064481D01*
X035975Y064497D01*
X035985Y064511D01*
X035998Y064524D01*
X036012Y064534D01*
X036028Y064541D01*
X036045Y064545D01*
X036062Y064547D01*
X036662Y064547D01*
X036679Y064545D01*
X036696Y064541D01*
X036712Y064534D01*
X036726Y064524D01*
X036739Y064511D01*
X036749Y064497D01*
X036756Y064481D01*
X036760Y064464D01*
X036762Y064447D01*
X036762Y063347D01*
X036760Y063330D01*
X036756Y063313D01*
X036749Y063297D01*
X036739Y063283D01*
X036726Y063270D01*
X036712Y063260D01*
X036696Y063253D01*
X036679Y063249D01*
X036662Y063247D01*
X036062Y063247D01*
X036045Y063249D01*
X036028Y063253D01*
X036012Y063260D01*
X035998Y063270D01*
X035985Y063283D01*
X035975Y063297D01*
X035968Y063313D01*
X035964Y063330D01*
X035962Y063347D01*
X036907Y063347D02*
X036907Y064447D01*
X036909Y064464D01*
X036913Y064481D01*
X036920Y064497D01*
X036930Y064511D01*
X036943Y064524D01*
X036957Y064534D01*
X036973Y064541D01*
X036990Y064545D01*
X037007Y064547D01*
X037607Y064547D01*
X037624Y064545D01*
X037641Y064541D01*
X037657Y064534D01*
X037671Y064524D01*
X037684Y064511D01*
X037694Y064497D01*
X037701Y064481D01*
X037705Y064464D01*
X037707Y064447D01*
X037707Y063347D01*
X037705Y063330D01*
X037701Y063313D01*
X037694Y063297D01*
X037684Y063283D01*
X037671Y063270D01*
X037657Y063260D01*
X037641Y063253D01*
X037624Y063249D01*
X037607Y063247D01*
X037007Y063247D01*
X036990Y063249D01*
X036973Y063253D01*
X036957Y063260D01*
X036943Y063270D01*
X036930Y063283D01*
X036920Y063297D01*
X036913Y063313D01*
X036909Y063330D01*
X036907Y063347D01*
X037015Y062984D02*
X037615Y062984D01*
X037632Y062982D01*
X037649Y062978D01*
X037665Y062971D01*
X037679Y062961D01*
X037692Y062948D01*
X037702Y062934D01*
X037709Y062918D01*
X037713Y062901D01*
X037715Y062884D01*
X037715Y061784D01*
X037713Y061767D01*
X037709Y061750D01*
X037702Y061734D01*
X037692Y061720D01*
X037679Y061707D01*
X037665Y061697D01*
X037649Y061690D01*
X037632Y061686D01*
X037615Y061684D01*
X037015Y061684D01*
X036998Y061686D01*
X036981Y061690D01*
X036965Y061697D01*
X036951Y061707D01*
X036938Y061720D01*
X036928Y061734D01*
X036921Y061750D01*
X036917Y061767D01*
X036915Y061784D01*
X036915Y062884D01*
X036917Y062901D01*
X036921Y062918D01*
X036928Y062934D01*
X036938Y062948D01*
X036951Y062961D01*
X036965Y062971D01*
X036981Y062978D01*
X036998Y062982D01*
X037015Y062984D01*
X037828Y063351D02*
X037828Y064451D01*
X037830Y064468D01*
X037834Y064485D01*
X037841Y064501D01*
X037851Y064515D01*
X037864Y064528D01*
X037878Y064538D01*
X037894Y064545D01*
X037911Y064549D01*
X037928Y064551D01*
X038528Y064551D01*
X038545Y064549D01*
X038562Y064545D01*
X038578Y064538D01*
X038592Y064528D01*
X038605Y064515D01*
X038615Y064501D01*
X038622Y064485D01*
X038626Y064468D01*
X038628Y064451D01*
X038628Y063351D01*
X038626Y063334D01*
X038622Y063317D01*
X038615Y063301D01*
X038605Y063287D01*
X038592Y063274D01*
X038578Y063264D01*
X038562Y063257D01*
X038545Y063253D01*
X038528Y063251D01*
X037928Y063251D01*
X037911Y063253D01*
X037894Y063257D01*
X037878Y063264D01*
X037864Y063274D01*
X037851Y063287D01*
X037841Y063301D01*
X037834Y063317D01*
X037830Y063334D01*
X037828Y063351D01*
D14*
X039117Y061677D02*
X038810Y061370D01*
X038733Y061370D01*
X038810Y061216D02*
X038733Y061140D01*
X038733Y060986D01*
X038810Y060909D01*
X039117Y060909D01*
X039194Y060986D01*
X039194Y061140D01*
X039117Y061216D01*
X039194Y061370D02*
X039194Y061677D01*
X039117Y061677D01*
X037168Y060323D02*
X037168Y059862D01*
X037168Y060016D02*
X036938Y060016D01*
X036861Y060092D01*
X036861Y060246D01*
X036938Y060323D01*
X037168Y060323D01*
X037015Y060016D02*
X036861Y059862D01*
X036708Y059939D02*
X036631Y059862D01*
X036478Y059862D01*
X036401Y059939D01*
X036401Y060016D01*
X036478Y060092D01*
X036708Y060092D01*
X036708Y059939D01*
X036708Y060092D02*
X036554Y060246D01*
X036401Y060323D01*
X036325Y059386D02*
X036248Y059309D01*
X036248Y059232D01*
X036325Y059155D01*
X036248Y059079D01*
X036248Y059002D01*
X036325Y058925D01*
X036478Y058925D01*
X036555Y059002D01*
X036708Y058925D02*
X036862Y059079D01*
X036785Y059079D02*
X037015Y059079D01*
X037015Y058925D02*
X037015Y059386D01*
X036785Y059386D01*
X036708Y059309D01*
X036708Y059155D01*
X036785Y059079D01*
X036555Y059309D02*
X036478Y059386D01*
X036325Y059386D01*
X036094Y059386D02*
X035787Y059386D01*
X035787Y059309D01*
X036094Y059002D01*
X036094Y058925D01*
X036325Y059155D02*
X036401Y059155D01*
X036422Y056510D02*
X036269Y056510D01*
X036192Y056434D01*
X036192Y056357D01*
X036269Y056280D01*
X036422Y056280D01*
X036499Y056357D01*
X036499Y056434D01*
X036422Y056510D01*
X036422Y056280D02*
X036499Y056203D01*
X036499Y056127D01*
X036422Y056050D01*
X036269Y056050D01*
X036192Y056127D01*
X036192Y056203D01*
X036269Y056280D01*
X036653Y056127D02*
X036729Y056050D01*
X036883Y056050D01*
X036960Y056127D01*
X036960Y056434D01*
X036883Y056510D01*
X036729Y056510D01*
X036653Y056434D01*
X037291Y056405D02*
X037291Y056251D01*
X037368Y056174D01*
X037521Y056174D01*
X037598Y056251D01*
X037751Y056251D02*
X037828Y056174D01*
X037982Y056174D01*
X038058Y056251D01*
X038058Y056558D01*
X037982Y056635D01*
X037828Y056635D01*
X037751Y056558D01*
X037598Y056635D02*
X037598Y056405D01*
X037445Y056481D01*
X037368Y056481D01*
X037291Y056405D01*
X037291Y056635D02*
X037598Y056635D01*
X037466Y055237D02*
X037313Y055237D01*
X037236Y055160D01*
X037236Y055084D01*
X037313Y055007D01*
X037236Y054930D01*
X037236Y054853D01*
X037313Y054777D01*
X037466Y054777D01*
X037543Y054853D01*
X037696Y054853D02*
X037773Y054777D01*
X037927Y054777D01*
X038003Y054853D01*
X038003Y055160D01*
X037927Y055237D01*
X037773Y055237D01*
X037696Y055160D01*
X037543Y055160D02*
X037466Y055237D01*
X037389Y055007D02*
X037313Y055007D01*
X037083Y055160D02*
X037006Y055237D01*
X036852Y055237D01*
X036776Y055160D01*
X036776Y055084D01*
X037083Y054777D01*
X036776Y054777D01*
X037313Y054174D02*
X037466Y054174D01*
X037543Y054097D01*
X037543Y054021D01*
X037466Y053944D01*
X037236Y053944D01*
X037236Y054097D02*
X037313Y054174D01*
X037236Y054097D02*
X037236Y053790D01*
X037313Y053714D01*
X037466Y053714D01*
X037543Y053790D01*
X037696Y053790D02*
X037773Y053714D01*
X037927Y053714D01*
X038003Y053790D01*
X038003Y054097D01*
X037927Y054174D01*
X037773Y054174D01*
X037696Y054097D01*
X037777Y053154D02*
X037930Y053154D01*
X038007Y053078D01*
X038007Y052771D01*
X037930Y052694D01*
X037777Y052694D01*
X037700Y052771D01*
X037547Y052771D02*
X037470Y052694D01*
X037317Y052694D01*
X037240Y052771D01*
X037240Y052847D01*
X037317Y052924D01*
X037393Y052924D01*
X037317Y052924D02*
X037240Y053001D01*
X037240Y053078D01*
X037317Y053154D01*
X037470Y053154D01*
X037547Y053078D01*
X037700Y053078D02*
X037777Y053154D01*
X037086Y053001D02*
X036933Y053154D01*
X036933Y052694D01*
X037086Y052694D02*
X036780Y052694D01*
X036896Y051847D02*
X037049Y051847D01*
X037126Y051771D01*
X037126Y051694D01*
X037049Y051617D01*
X036819Y051617D01*
X036819Y051464D02*
X036819Y051771D01*
X036896Y051847D01*
X037279Y051771D02*
X037356Y051847D01*
X037509Y051847D01*
X037586Y051771D01*
X037740Y051771D02*
X037816Y051847D01*
X037970Y051847D01*
X038047Y051771D01*
X038047Y051464D01*
X037970Y051387D01*
X037816Y051387D01*
X037740Y051464D01*
X037586Y051387D02*
X037279Y051694D01*
X037279Y051771D01*
X037126Y051464D02*
X037049Y051387D01*
X036896Y051387D01*
X036819Y051464D01*
X037279Y051387D02*
X037586Y051387D01*
X036388Y050390D02*
X036388Y050083D01*
X036312Y050007D01*
X036158Y050007D01*
X036081Y050083D01*
X035928Y050083D02*
X035851Y050007D01*
X035698Y050007D01*
X035621Y050083D01*
X035621Y050160D01*
X035698Y050237D01*
X035775Y050237D01*
X035698Y050237D02*
X035621Y050314D01*
X035621Y050390D01*
X035698Y050467D01*
X035851Y050467D01*
X035928Y050390D01*
X036081Y050390D02*
X036158Y050467D01*
X036312Y050467D01*
X036388Y050390D01*
X035843Y051298D02*
X035690Y051298D01*
X035613Y051375D01*
X035460Y051375D02*
X035383Y051298D01*
X035230Y051298D01*
X035153Y051375D01*
X035153Y051451D01*
X035230Y051528D01*
X035306Y051528D01*
X035230Y051528D02*
X035153Y051605D01*
X035153Y051682D01*
X035230Y051758D01*
X035383Y051758D01*
X035460Y051682D01*
X035613Y051682D02*
X035690Y051758D01*
X035843Y051758D01*
X035920Y051682D01*
X035920Y051375D01*
X035843Y051298D01*
X035391Y050467D02*
X035237Y050467D01*
X035161Y050390D01*
X035468Y050083D01*
X035391Y050007D01*
X035237Y050007D01*
X035161Y050083D01*
X035161Y050390D01*
X035391Y050467D02*
X035468Y050390D01*
X035468Y050083D01*
X035739Y047113D02*
X035663Y047037D01*
X035663Y046883D01*
X035739Y046807D01*
X035663Y046653D02*
X035663Y046346D01*
X035663Y046500D02*
X036123Y046500D01*
X035970Y046346D01*
X036046Y046193D02*
X036123Y046116D01*
X036123Y045962D01*
X036046Y045886D01*
X035739Y045886D01*
X035663Y045962D01*
X035663Y046116D01*
X035739Y046193D01*
X035166Y046120D02*
X035166Y045966D01*
X035090Y045890D01*
X034783Y045890D01*
X034706Y045966D01*
X034706Y046120D01*
X034783Y046197D01*
X034706Y046350D02*
X034706Y046657D01*
X034706Y046504D02*
X035166Y046504D01*
X035013Y046350D01*
X035090Y046197D02*
X035166Y046120D01*
X034936Y046810D02*
X034936Y047117D01*
X034706Y047041D02*
X035166Y047041D01*
X034936Y046810D01*
X035739Y047113D02*
X035816Y047113D01*
X035893Y047037D01*
X035893Y046960D01*
X035893Y047037D02*
X035970Y047113D01*
X036046Y047113D01*
X036123Y047037D01*
X036123Y046883D01*
X036046Y046807D01*
X036714Y046795D02*
X037021Y047102D01*
X037097Y047102D01*
X037174Y047025D01*
X037174Y046871D01*
X037097Y046795D01*
X037174Y046488D02*
X037021Y046334D01*
X037097Y046181D02*
X037174Y046104D01*
X037174Y045951D01*
X037097Y045874D01*
X036790Y045874D01*
X036714Y045951D01*
X036714Y046104D01*
X036790Y046181D01*
X036714Y046334D02*
X036714Y046641D01*
X036714Y046488D02*
X037174Y046488D01*
X036714Y046795D02*
X036714Y047102D01*
X032462Y056163D02*
X032079Y056163D01*
X032002Y056240D01*
X032002Y056394D01*
X032079Y056470D01*
X032462Y056470D01*
X032386Y056624D02*
X032462Y056700D01*
X032462Y056854D01*
X032386Y056931D01*
X032462Y057084D02*
X032232Y057084D01*
X032309Y057238D01*
X032309Y057314D01*
X032232Y057391D01*
X032079Y057391D01*
X032002Y057314D01*
X032002Y057161D01*
X032079Y057084D01*
X032079Y056931D02*
X032155Y056931D01*
X032232Y056854D01*
X032232Y056700D01*
X032309Y056624D01*
X032386Y056624D01*
X032539Y056777D02*
X031925Y056777D01*
X032002Y056700D02*
X032002Y056854D01*
X032079Y056931D01*
X032002Y056700D02*
X032079Y056624D01*
X032462Y057084D02*
X032462Y057391D01*
X034231Y059823D02*
X034155Y059899D01*
X034155Y060053D01*
X034231Y060130D01*
X034231Y060283D02*
X034155Y060360D01*
X034155Y060513D01*
X034231Y060590D01*
X034308Y060590D01*
X034385Y060513D01*
X034385Y060283D01*
X034231Y060283D01*
X034385Y060283D02*
X034538Y060437D01*
X034615Y060590D01*
X034538Y060130D02*
X034615Y060053D01*
X034615Y059899D01*
X034538Y059823D01*
X034231Y059823D01*
X034204Y061495D02*
X034511Y061495D01*
X034204Y061802D01*
X034204Y061878D01*
X034281Y061955D01*
X034434Y061955D01*
X034511Y061878D01*
X034664Y061878D02*
X034741Y061955D01*
X034895Y061955D01*
X034971Y061878D01*
X034971Y061572D01*
X034895Y061495D01*
X034741Y061495D01*
X034664Y061572D01*
X031992Y061473D02*
X031992Y061703D01*
X031915Y061780D01*
X031762Y061780D01*
X031685Y061703D01*
X031685Y061473D01*
X031685Y061626D02*
X031531Y061780D01*
X031418Y061818D02*
X031265Y061818D01*
X031188Y061894D01*
X031165Y061885D02*
X031088Y061808D01*
X030935Y061808D01*
X030858Y061885D01*
X030881Y061818D02*
X030881Y062278D01*
X031034Y062125D01*
X031165Y062192D02*
X031165Y061885D01*
X031034Y061818D02*
X030727Y061818D01*
X030574Y061818D02*
X030267Y061818D01*
X030420Y061818D02*
X030420Y062278D01*
X030574Y062125D01*
X030704Y062038D02*
X030397Y062038D01*
X030474Y061808D02*
X030474Y062269D01*
X030704Y062038D01*
X030858Y062192D02*
X030935Y062269D01*
X031088Y062269D01*
X031165Y062192D01*
X031188Y062201D02*
X031265Y062278D01*
X031418Y062278D01*
X031495Y062201D01*
X031495Y061894D01*
X031418Y061818D01*
X031531Y061933D02*
X031531Y062240D01*
X031531Y062087D02*
X031992Y062087D01*
X031838Y061933D01*
X031992Y061473D02*
X031531Y061473D01*
X030524Y063074D02*
X030371Y063074D01*
X030294Y063150D01*
X030141Y063074D02*
X029834Y063074D01*
X029987Y063074D02*
X029987Y063534D01*
X030141Y063380D01*
X030294Y063457D02*
X030371Y063534D01*
X030524Y063534D01*
X030601Y063457D01*
X030601Y063150D01*
X030524Y063074D01*
X029680Y063150D02*
X029373Y063457D01*
X029373Y063150D01*
X029450Y063074D01*
X029603Y063074D01*
X029680Y063150D01*
X029680Y063457D01*
X029603Y063534D01*
X029450Y063534D01*
X029373Y063457D01*
X029106Y063277D02*
X028492Y063277D01*
X028569Y063200D02*
X028569Y063354D01*
X028646Y063431D01*
X028722Y063431D01*
X028799Y063354D01*
X028799Y063200D01*
X028876Y063124D01*
X028953Y063124D01*
X029029Y063200D01*
X029029Y063354D01*
X028953Y063431D01*
X028799Y063584D02*
X029029Y063814D01*
X028569Y063814D01*
X028799Y063891D02*
X028799Y063584D01*
X028569Y063200D02*
X028646Y063124D01*
X028646Y062970D02*
X029029Y062970D01*
X029029Y062663D02*
X028646Y062663D01*
X028569Y062740D01*
X028569Y062894D01*
X028646Y062970D01*
X027110Y062273D02*
X027033Y062350D01*
X026957Y062350D01*
X026880Y062273D01*
X026803Y062350D01*
X026726Y062350D01*
X026650Y062273D01*
X026650Y062119D01*
X026726Y062043D01*
X026650Y061889D02*
X026650Y061582D01*
X026650Y061429D02*
X026803Y061275D01*
X026803Y061352D02*
X026803Y061122D01*
X026650Y061122D02*
X027110Y061122D01*
X027110Y061352D01*
X027033Y061429D01*
X026880Y061429D01*
X026803Y061352D01*
X026957Y061582D02*
X027110Y061736D01*
X026650Y061736D01*
X027033Y062043D02*
X027110Y062119D01*
X027110Y062273D01*
X026880Y062273D02*
X026880Y062196D01*
X027318Y059500D02*
X027318Y059193D01*
X027318Y059040D02*
X027318Y058733D01*
X027625Y059040D01*
X027701Y059040D01*
X027778Y058963D01*
X027778Y058809D01*
X027701Y058733D01*
X027701Y058579D02*
X027778Y058502D01*
X027778Y058349D01*
X027701Y058272D01*
X027394Y058272D01*
X027318Y058349D01*
X027318Y058502D01*
X027394Y058579D01*
X027625Y059193D02*
X027778Y059347D01*
X027318Y059347D01*
X027277Y057137D02*
X027200Y057137D01*
X026893Y056830D01*
X026816Y056830D01*
X026921Y056740D02*
X026844Y056587D01*
X026691Y056433D01*
X026691Y056663D01*
X026614Y056740D01*
X026537Y056740D01*
X026461Y056663D01*
X026461Y056510D01*
X026537Y056433D01*
X026691Y056433D01*
X026816Y056370D02*
X026816Y056677D01*
X026816Y056523D02*
X027277Y056523D01*
X027123Y056370D01*
X027200Y056216D02*
X027277Y056140D01*
X027277Y055986D01*
X027200Y055909D01*
X026893Y055909D01*
X026816Y055986D01*
X026816Y056140D01*
X026893Y056216D01*
X026921Y056203D02*
X026844Y056280D01*
X026768Y056280D01*
X026691Y056203D01*
X026614Y056280D01*
X026537Y056280D01*
X026461Y056203D01*
X026461Y056050D01*
X026537Y055973D01*
X026461Y055819D02*
X026614Y055666D01*
X026614Y055743D02*
X026614Y055512D01*
X026461Y055512D02*
X026921Y055512D01*
X026921Y055743D01*
X026844Y055819D01*
X026691Y055819D01*
X026614Y055743D01*
X026844Y055973D02*
X026921Y056050D01*
X026921Y056203D01*
X026691Y056203D02*
X026691Y056126D01*
X027277Y056830D02*
X027277Y057137D01*
X025924Y058353D02*
X025847Y058276D01*
X025540Y058276D01*
X025463Y058353D01*
X025463Y058506D01*
X025540Y058583D01*
X025463Y058737D02*
X025770Y059044D01*
X025847Y059044D01*
X025924Y058967D01*
X025924Y058813D01*
X025847Y058737D01*
X025847Y058583D02*
X025924Y058506D01*
X025924Y058353D01*
X025419Y058344D02*
X025265Y058344D01*
X025342Y058344D02*
X025342Y058805D01*
X025419Y058805D02*
X025265Y058805D01*
X025112Y058728D02*
X025112Y058421D01*
X025035Y058344D01*
X024882Y058344D01*
X024805Y058421D01*
X024651Y058344D02*
X024344Y058344D01*
X024498Y058344D02*
X024498Y058805D01*
X024651Y058651D01*
X024805Y058728D02*
X024882Y058805D01*
X025035Y058805D01*
X025112Y058728D01*
X025463Y058737D02*
X025463Y059044D01*
X025540Y059197D02*
X025847Y059504D01*
X025540Y059504D01*
X025463Y059427D01*
X025463Y059274D01*
X025540Y059197D01*
X025847Y059197D01*
X025924Y059274D01*
X025924Y059427D01*
X025847Y059504D01*
X024287Y059584D02*
X024287Y059891D01*
X024287Y059738D02*
X023827Y059738D01*
X023827Y060045D02*
X024287Y060045D01*
X024134Y060198D01*
X024287Y060352D01*
X023827Y060352D01*
X023827Y060505D02*
X024287Y060505D01*
X024287Y060735D01*
X024210Y060812D01*
X024057Y060812D01*
X023980Y060735D01*
X023980Y060505D01*
X024057Y060965D02*
X024057Y061119D01*
X024287Y061272D02*
X024287Y060965D01*
X023827Y060965D01*
X023827Y061272D01*
X023903Y061426D02*
X023980Y061426D01*
X024057Y061503D01*
X024057Y061656D01*
X023980Y061733D01*
X023903Y061733D01*
X023827Y061656D01*
X023827Y061503D01*
X023903Y061426D01*
X024057Y061503D02*
X024134Y061426D01*
X024210Y061426D01*
X024287Y061503D01*
X024287Y061656D01*
X024210Y061733D01*
X024134Y061733D01*
X024057Y061656D01*
X024134Y061886D02*
X024287Y062040D01*
X023827Y062040D01*
X023827Y062193D02*
X023827Y061886D01*
X023618Y061772D02*
X023618Y061465D01*
X023488Y061455D02*
X023411Y061532D01*
X023258Y061532D01*
X023181Y061455D01*
X023181Y061225D01*
X023157Y061235D02*
X023234Y061312D01*
X023618Y061312D01*
X023488Y061225D02*
X023488Y061455D01*
X023618Y061619D02*
X023157Y061619D01*
X023104Y061685D02*
X023028Y061762D01*
X023028Y061916D01*
X023104Y061992D01*
X023181Y061992D01*
X023258Y061916D01*
X023258Y061839D01*
X023258Y061916D02*
X023334Y061992D01*
X023411Y061992D01*
X023488Y061916D01*
X023488Y061762D01*
X023411Y061685D01*
X023464Y061926D02*
X023388Y062002D01*
X023388Y062156D01*
X023311Y062233D01*
X023234Y062233D01*
X023157Y062156D01*
X023157Y062002D01*
X023234Y061926D01*
X023464Y061926D02*
X023541Y061926D01*
X023618Y062002D01*
X023618Y062156D01*
X023541Y062233D01*
X023488Y062223D02*
X023411Y062146D01*
X023488Y062223D02*
X023488Y062376D01*
X023411Y062453D01*
X023334Y062453D01*
X023028Y062146D01*
X023028Y062453D01*
X023157Y062463D02*
X023157Y062616D01*
X023234Y062693D01*
X023157Y062463D02*
X023234Y062386D01*
X023541Y062386D01*
X023618Y062463D01*
X023618Y062616D01*
X023541Y062693D01*
X023827Y062654D02*
X023827Y062347D01*
X023827Y062500D02*
X024287Y062500D01*
X024134Y062347D01*
X023488Y061225D02*
X023028Y061225D01*
X023157Y061235D02*
X023157Y061082D01*
X023234Y061005D01*
X023618Y061005D01*
X023181Y061379D02*
X023028Y061532D01*
X022566Y062807D02*
X022566Y063267D01*
X022335Y063267D01*
X022259Y063191D01*
X022259Y063037D01*
X022335Y062960D01*
X022566Y062960D01*
X022412Y062960D02*
X022259Y062807D01*
X022105Y062884D02*
X022028Y062807D01*
X021875Y062807D01*
X021798Y062884D01*
X021798Y062960D01*
X021875Y063037D01*
X021952Y063037D01*
X021875Y063037D02*
X021798Y063114D01*
X021798Y063191D01*
X021875Y063267D01*
X022028Y063267D01*
X022105Y063191D01*
X021645Y063037D02*
X021338Y063037D01*
X021415Y062807D02*
X021415Y063267D01*
X021645Y063037D01*
X021529Y060437D02*
X021376Y060437D01*
X021299Y060360D01*
X021299Y060283D01*
X021376Y060206D01*
X021299Y060130D01*
X021299Y060053D01*
X021376Y059976D01*
X021529Y059976D01*
X021606Y060053D01*
X021759Y059976D02*
X021913Y060130D01*
X021836Y060130D02*
X022066Y060130D01*
X022066Y059976D02*
X022066Y060437D01*
X021836Y060437D01*
X021759Y060360D01*
X021759Y060206D01*
X021836Y060130D01*
X021606Y060360D02*
X021529Y060437D01*
X021452Y060206D02*
X021376Y060206D01*
X021146Y060283D02*
X020992Y060437D01*
X020992Y059976D01*
X020839Y059976D02*
X021146Y059976D01*
X020939Y059173D02*
X021169Y058943D01*
X020862Y058943D01*
X020939Y058713D02*
X020939Y059173D01*
X021476Y059173D02*
X021476Y058713D01*
X021323Y058713D02*
X021630Y058713D01*
X021783Y058713D02*
X021936Y058866D01*
X021860Y058866D02*
X022090Y058866D01*
X022090Y058713D02*
X022090Y059173D01*
X021860Y059173D01*
X021783Y059096D01*
X021783Y058943D01*
X021860Y058866D01*
X021630Y059019D02*
X021476Y059173D01*
X021659Y057145D02*
X021583Y057068D01*
X021583Y056915D01*
X021659Y056838D01*
X021966Y057145D01*
X021659Y057145D01*
X021659Y056838D02*
X021966Y056838D01*
X022043Y056915D01*
X022043Y057068D01*
X021966Y057145D01*
X021966Y056685D02*
X021890Y056685D01*
X021813Y056608D01*
X021736Y056685D01*
X021659Y056685D01*
X021583Y056608D01*
X021583Y056454D01*
X021659Y056378D01*
X021583Y056224D02*
X021736Y056071D01*
X021736Y056147D02*
X021736Y055917D01*
X021583Y055917D02*
X022043Y055917D01*
X022043Y056147D01*
X021966Y056224D01*
X021813Y056224D01*
X021736Y056147D01*
X021966Y056378D02*
X022043Y056454D01*
X022043Y056608D01*
X021966Y056685D01*
X021813Y056608D02*
X021813Y056531D01*
X021752Y054823D02*
X021752Y054362D01*
X021905Y054362D02*
X021598Y054362D01*
X021905Y054669D02*
X021752Y054823D01*
X022212Y054823D02*
X022212Y054362D01*
X022059Y054362D02*
X022366Y054362D01*
X022519Y054362D02*
X022673Y054516D01*
X022596Y054516D02*
X022826Y054516D01*
X022826Y054362D02*
X022826Y054823D01*
X022596Y054823D01*
X022519Y054746D01*
X022519Y054592D01*
X022596Y054516D01*
X022366Y054669D02*
X022212Y054823D01*
X023299Y055894D02*
X023760Y055894D01*
X023760Y056124D01*
X023683Y056201D01*
X023529Y056201D01*
X023453Y056124D01*
X023453Y055894D01*
X023453Y056047D02*
X023299Y056201D01*
X023299Y056354D02*
X023606Y056661D01*
X023683Y056661D01*
X023760Y056584D01*
X023760Y056431D01*
X023683Y056354D01*
X023299Y056354D02*
X023299Y056661D01*
X023376Y056814D02*
X023299Y056891D01*
X023299Y057045D01*
X023376Y057121D01*
X023683Y057121D01*
X023760Y057045D01*
X023760Y056891D01*
X023683Y056814D01*
X023606Y056814D01*
X023529Y056891D01*
X023529Y057121D01*
X023903Y059124D02*
X023827Y059201D01*
X023827Y059354D01*
X023903Y059431D01*
X023980Y059431D01*
X024057Y059354D01*
X024057Y059201D01*
X024134Y059124D01*
X024210Y059124D01*
X024287Y059201D01*
X024287Y059354D01*
X024210Y059431D01*
X024346Y054815D02*
X024346Y054354D01*
X024193Y054354D02*
X024500Y054354D01*
X024519Y054336D02*
X024519Y054413D01*
X024596Y054490D01*
X024826Y054490D01*
X024826Y054336D01*
X024749Y054260D01*
X024596Y054260D01*
X024519Y054336D01*
X024653Y054354D02*
X024807Y054508D01*
X024826Y054490D02*
X024672Y054643D01*
X024519Y054720D01*
X024500Y054661D02*
X024346Y054815D01*
X024039Y054738D02*
X023962Y054815D01*
X023809Y054815D01*
X023732Y054738D01*
X023732Y054661D01*
X024039Y054354D01*
X023732Y054354D01*
X024653Y054584D02*
X024730Y054508D01*
X024960Y054508D01*
X024960Y054354D02*
X024960Y054815D01*
X024730Y054815D01*
X024653Y054738D01*
X024653Y054584D01*
X024979Y054260D02*
X025286Y054260D01*
X025133Y054260D02*
X025133Y054720D01*
X025286Y054567D01*
X025440Y054643D02*
X025440Y054490D01*
X025516Y054413D01*
X025747Y054413D01*
X025747Y054260D02*
X025747Y054720D01*
X025516Y054720D01*
X025440Y054643D01*
X025593Y054413D02*
X025440Y054260D01*
X029096Y055939D02*
X029096Y056092D01*
X029172Y056169D01*
X029096Y056323D02*
X029096Y056629D01*
X029096Y056476D02*
X029556Y056476D01*
X029403Y056323D01*
X029479Y056169D02*
X029556Y056092D01*
X029556Y055939D01*
X029479Y055862D01*
X029172Y055862D01*
X029096Y055939D01*
X030340Y068213D02*
X030264Y068290D01*
X030264Y068366D01*
X030340Y068443D01*
X030724Y068443D01*
X030724Y068366D02*
X030724Y068520D01*
X030647Y068673D02*
X030724Y068750D01*
X030724Y068904D01*
X030647Y068980D01*
X030571Y068980D01*
X030264Y068673D01*
X030264Y068980D01*
X033458Y069105D02*
X033518Y069045D01*
X033698Y069045D01*
X033698Y069405D01*
X033518Y069405D01*
X033458Y069345D01*
X033458Y069285D01*
X033518Y069225D01*
X033698Y069225D01*
X033826Y069165D02*
X033826Y069105D01*
X033887Y069045D01*
X034007Y069045D01*
X034067Y069105D01*
X034195Y069105D02*
X034195Y069405D01*
X034067Y069345D02*
X034067Y069285D01*
X034007Y069225D01*
X033887Y069225D01*
X033826Y069165D01*
X033826Y069345D02*
X033887Y069405D01*
X034007Y069405D01*
X034067Y069345D01*
X034195Y069105D02*
X034255Y069045D01*
X034375Y069045D01*
X034435Y069105D01*
X034435Y069405D01*
X033518Y069225D02*
X033458Y069165D01*
X033458Y069105D01*
X020600Y050406D02*
X020523Y050406D01*
X020447Y050329D01*
X020447Y050175D01*
X020523Y050099D01*
X020600Y050099D01*
X020677Y050175D01*
X020677Y050329D01*
X020600Y050406D01*
X020447Y050329D02*
X020370Y050406D01*
X020293Y050406D01*
X020217Y050329D01*
X020217Y050175D01*
X020293Y050099D01*
X020370Y050099D01*
X020447Y050175D01*
X020523Y049945D02*
X020600Y049945D01*
X020677Y049868D01*
X020677Y049715D01*
X020600Y049638D01*
X020600Y049485D02*
X020447Y049485D01*
X020370Y049408D01*
X020370Y049178D01*
X020370Y049331D02*
X020217Y049485D01*
X020217Y049638D02*
X020523Y049945D01*
X020217Y049945D02*
X020217Y049638D01*
X020600Y049485D02*
X020677Y049408D01*
X020677Y049178D01*
X020217Y049178D01*
X019252Y049182D02*
X019252Y049412D01*
X019175Y049489D01*
X019022Y049489D01*
X018945Y049412D01*
X018945Y049182D01*
X018945Y049335D02*
X018791Y049489D01*
X018791Y049642D02*
X019098Y049949D01*
X019175Y049949D01*
X019252Y049872D01*
X019252Y049719D01*
X019175Y049642D01*
X018791Y049642D02*
X018791Y049949D01*
X018791Y050103D02*
X018868Y050103D01*
X019175Y050409D01*
X019252Y050409D01*
X019252Y050103D01*
X019252Y049182D02*
X018791Y049182D01*
X011315Y043177D02*
X011462Y042881D01*
X011167Y042881D01*
X011315Y043177D01*
X011311Y043169D02*
X011319Y043169D01*
X011338Y043130D02*
X011291Y043130D01*
X011272Y043092D02*
X011357Y043092D01*
X011376Y043053D02*
X011253Y043053D01*
X011234Y043015D02*
X011396Y043015D01*
X011415Y042976D02*
X011214Y042976D01*
X011195Y042938D02*
X011434Y042938D01*
X011453Y042899D02*
X011176Y042899D01*
X015370Y064331D02*
X015830Y064331D01*
X015830Y064562D01*
X015754Y064638D01*
X015600Y064638D01*
X015524Y064562D01*
X015524Y064331D01*
X015524Y064485D02*
X015370Y064638D01*
X015447Y064792D02*
X015370Y064868D01*
X015370Y065022D01*
X015447Y065099D01*
X015524Y065099D01*
X015600Y065022D01*
X015600Y064945D01*
X015600Y065022D02*
X015677Y065099D01*
X015754Y065099D01*
X015830Y065022D01*
X015830Y064868D01*
X015754Y064792D01*
X015754Y065252D02*
X015830Y065329D01*
X015830Y065482D01*
X015754Y065559D01*
X015677Y065559D01*
X015600Y065482D01*
X015524Y065559D01*
X015447Y065559D01*
X015370Y065482D01*
X015370Y065329D01*
X015447Y065252D01*
X015600Y065406D02*
X015600Y065482D01*
X015472Y067323D02*
X015395Y067399D01*
X015395Y067553D01*
X015472Y067630D01*
X015395Y067783D02*
X015702Y068090D01*
X015779Y068090D01*
X015855Y068013D01*
X015855Y067860D01*
X015779Y067783D01*
X015779Y067630D02*
X015855Y067553D01*
X015855Y067399D01*
X015779Y067323D01*
X015472Y067323D01*
X015395Y067783D02*
X015395Y068090D01*
X015472Y068244D02*
X015395Y068320D01*
X015395Y068474D01*
X015472Y068550D01*
X015548Y068550D01*
X015625Y068474D01*
X015625Y068320D01*
X015702Y068244D01*
X015779Y068244D01*
X015855Y068320D01*
X015855Y068474D01*
X015779Y068550D01*
X015702Y068550D01*
X015625Y068474D01*
X015625Y068320D02*
X015548Y068244D01*
X015472Y068244D01*
X017715Y066553D02*
X018021Y066553D01*
X018021Y066323D01*
X017868Y066399D01*
X017791Y066399D01*
X017715Y066323D01*
X017715Y066169D01*
X017791Y066092D01*
X017945Y066092D01*
X018021Y066169D01*
X018175Y066092D02*
X018482Y066092D01*
X018328Y066092D02*
X018328Y066553D01*
X018482Y066399D01*
X018635Y066476D02*
X018712Y066553D01*
X018866Y066553D01*
X018942Y066476D01*
X018942Y066169D01*
X018866Y066092D01*
X018712Y066092D01*
X018635Y066169D01*
X012689Y066938D02*
X012689Y067168D01*
X012612Y067245D01*
X012459Y067245D01*
X012382Y067168D01*
X012382Y066938D01*
X012382Y067091D02*
X012228Y067245D01*
X012305Y067398D02*
X012228Y067475D01*
X012228Y067628D01*
X012305Y067705D01*
X012382Y067705D01*
X012459Y067628D01*
X012459Y067551D01*
X012459Y067628D02*
X012535Y067705D01*
X012612Y067705D01*
X012689Y067628D01*
X012689Y067475D01*
X012612Y067398D01*
X012689Y066938D02*
X012228Y066938D01*
X012305Y067858D02*
X012228Y067935D01*
X012228Y068089D01*
X012305Y068165D01*
X012459Y068165D01*
X012535Y068089D01*
X012535Y068012D01*
X012459Y067858D01*
X012689Y067858D01*
X012689Y068165D01*
D15*
X021102Y053170D02*
X021102Y052792D01*
X021102Y053170D02*
X021619Y053170D01*
X021622Y052604D02*
X021622Y052424D01*
X021102Y052230D02*
X021102Y051853D01*
X021619Y051853D01*
X016866Y041248D02*
X016866Y040460D01*
X016862Y040437D01*
X016855Y040416D01*
X016844Y040395D01*
X016830Y040377D01*
X016813Y040362D01*
X016794Y040349D01*
X016773Y040340D01*
X016751Y040334D01*
X016728Y040332D01*
X016705Y040334D01*
X016683Y040340D01*
X016662Y040349D01*
X016643Y040362D01*
X016626Y040377D01*
X016612Y040395D01*
X016601Y040416D01*
X016594Y040437D01*
X016590Y040460D01*
X016590Y041248D01*
X011137Y043472D02*
X011137Y043905D01*
X010035Y043905D01*
X010035Y041287D01*
X037948Y041287D01*
X037948Y043905D01*
X036846Y043905D01*
X036846Y043472D01*
X037574Y041248D02*
X037574Y038610D01*
X038027Y038078D01*
X038027Y035539D01*
X036165Y064641D02*
X035417Y064641D01*
X034826Y064641D02*
X034433Y064641D01*
X033842Y064641D02*
X033645Y064641D01*
X033055Y064641D02*
X032661Y064641D01*
X032071Y064641D02*
X031323Y064641D01*
X031323Y069956D01*
X031500Y069956D01*
X031500Y070074D01*
X033153Y070074D01*
X033153Y069838D01*
X034334Y069838D01*
X034334Y070074D01*
X035988Y070074D01*
X035988Y069956D01*
X036165Y069956D01*
X036165Y064641D01*
X036204Y065586D02*
X036697Y065783D01*
X036697Y066374D01*
X036204Y066570D01*
X035515Y067948D02*
X035122Y069523D01*
X034728Y069523D01*
X034334Y067948D01*
X033153Y067948D02*
X032760Y069523D01*
X032366Y069523D01*
X031972Y067948D01*
X031283Y066570D02*
X030791Y066374D01*
X030791Y065783D01*
X031283Y065586D01*
X031322Y069956D02*
X031320Y069976D01*
X031315Y069996D01*
X031306Y070015D01*
X031294Y070032D01*
X031280Y070046D01*
X031263Y070058D01*
X031244Y070067D01*
X031224Y070072D01*
X031204Y070074D01*
X036165Y069956D02*
X036167Y069976D01*
X036172Y069996D01*
X036181Y070015D01*
X036193Y070032D01*
X036207Y070046D01*
X036224Y070058D01*
X036243Y070067D01*
X036263Y070072D01*
X036283Y070074D01*
X010409Y041248D02*
X010409Y038610D01*
X009956Y038078D01*
X009956Y035539D01*
D16*
X011540Y032936D03*
X011730Y032916D03*
X012570Y032426D03*
X011790Y031206D03*
X012370Y030496D03*
X012740Y030516D03*
D17*
X012370Y030506D03*
X012890Y032016D03*
X012080Y032696D03*
X011730Y032906D03*
X011540Y032926D03*
X011640Y031306D03*
X011790Y031226D03*
X011790Y031216D03*
D18*
X011730Y032926D03*
D19*
X011725Y032896D03*
X011535Y032916D03*
X011645Y031316D03*
X011785Y031236D03*
X012375Y030516D03*
X012835Y030646D03*
D20*
X012730Y030526D03*
X012370Y030526D03*
X012920Y030866D03*
X011640Y031326D03*
X011330Y032526D03*
X011540Y032906D03*
D21*
X011545Y032896D03*
X011715Y032876D03*
X011325Y032506D03*
X012345Y030586D03*
X012355Y030576D03*
X012355Y030566D03*
D22*
X012625Y030646D03*
X012635Y030636D03*
X012645Y030626D03*
X011525Y032886D03*
X011335Y032436D03*
X011345Y032426D03*
D23*
X011330Y032516D03*
X011720Y032886D03*
X011620Y031376D03*
X011630Y031356D03*
X011780Y031256D03*
X012360Y030556D03*
X012360Y030546D03*
X012730Y030536D03*
X012910Y030876D03*
D24*
X012840Y030926D03*
X012750Y030726D03*
X012760Y030716D03*
X012510Y030746D03*
X011530Y032876D03*
D25*
X011615Y032866D03*
D26*
X011625Y032856D03*
X011635Y032826D03*
X012745Y032096D03*
D27*
X011630Y032836D03*
X011630Y032846D03*
D28*
X011905Y032826D03*
X012325Y032556D03*
X012445Y032516D03*
X011645Y031296D03*
X011335Y032536D03*
X012935Y030856D03*
D29*
X011640Y032816D03*
D30*
X011905Y032816D03*
X012565Y032416D03*
X011785Y031246D03*
X011635Y031336D03*
X011635Y031346D03*
X011625Y031366D03*
X012365Y030536D03*
X012825Y030656D03*
D31*
X011895Y032686D03*
X011775Y032726D03*
X011715Y032806D03*
D32*
X011720Y032796D03*
D33*
X011730Y032786D03*
X011760Y032746D03*
X011770Y032736D03*
X011940Y032656D03*
X011950Y032646D03*
X011950Y032636D03*
X011950Y032626D03*
X011950Y032606D03*
D34*
X011955Y032616D03*
X011955Y032596D03*
X011755Y032756D03*
X011745Y032766D03*
X011735Y032776D03*
D35*
X011795Y032716D03*
X011915Y032676D03*
X011925Y032666D03*
D36*
X011805Y032706D03*
D37*
X011825Y032696D03*
D38*
X011960Y032586D03*
X011960Y032576D03*
D39*
X011965Y032566D03*
X011965Y032556D03*
D40*
X012035Y032546D03*
D41*
X012040Y032536D03*
D42*
X012045Y032526D03*
D43*
X012055Y032516D03*
D44*
X012090Y032506D03*
X012440Y031036D03*
X012450Y031026D03*
D45*
X012330Y030626D03*
X012340Y030606D03*
X012340Y030596D03*
X012720Y030546D03*
X012820Y030666D03*
X012890Y030886D03*
X012550Y032406D03*
X011320Y032486D03*
X011320Y032496D03*
D46*
X012095Y032496D03*
X012095Y032486D03*
X012465Y031016D03*
X012475Y031006D03*
D47*
X012315Y030666D03*
X012325Y030646D03*
X012325Y030636D03*
X012335Y030616D03*
X012695Y030576D03*
X012705Y030566D03*
X012715Y030556D03*
X011315Y032476D03*
D48*
X012090Y032476D03*
X012480Y030996D03*
X012490Y030986D03*
D49*
X012280Y030746D03*
X012290Y030726D03*
X012290Y030716D03*
X012300Y030706D03*
X012300Y030696D03*
X012310Y030686D03*
X012310Y030676D03*
X012320Y030656D03*
X012800Y030686D03*
X012810Y030676D03*
X012880Y030896D03*
X011320Y032456D03*
X011320Y032466D03*
D50*
X012085Y032466D03*
X012505Y030976D03*
D51*
X012060Y032436D03*
X012070Y032446D03*
X012080Y032456D03*
D52*
X011325Y032446D03*
X012265Y030796D03*
X012265Y030786D03*
X012275Y030776D03*
X012275Y030766D03*
X012275Y030756D03*
X012285Y030736D03*
X012665Y030606D03*
X012675Y030596D03*
X012685Y030586D03*
X012865Y032026D03*
D53*
X012050Y032426D03*
X012030Y032406D03*
D54*
X011355Y032416D03*
X012525Y030736D03*
X012535Y030726D03*
X012545Y030716D03*
X012555Y030706D03*
X012565Y030696D03*
D55*
X012035Y032416D03*
D56*
X011365Y032406D03*
X012725Y030746D03*
X012735Y030736D03*
D57*
X012815Y030946D03*
X011375Y032396D03*
D58*
X012105Y032396D03*
X012075Y032026D03*
X012105Y031996D03*
X012415Y031176D03*
D59*
X011395Y032386D03*
D60*
X012100Y032386D03*
X012060Y032036D03*
X012200Y031376D03*
X012420Y031186D03*
D61*
X012010Y032376D03*
D62*
X012075Y032366D03*
X012185Y032146D03*
D63*
X012105Y032356D03*
D64*
X012140Y032346D03*
X012180Y032246D03*
X012190Y032226D03*
D65*
X012165Y032286D03*
X012165Y032306D03*
X012165Y032316D03*
X012155Y032336D03*
D66*
X012160Y032326D03*
X012170Y032296D03*
D67*
X012170Y032276D03*
D68*
X012165Y032266D03*
X012175Y032256D03*
X012185Y032236D03*
D69*
X012195Y032216D03*
D70*
X012190Y032206D03*
D71*
X012195Y032196D03*
D72*
X012195Y032186D03*
D73*
X012175Y032176D03*
D74*
X012180Y032166D03*
X012180Y032156D03*
D75*
X012190Y032136D03*
D76*
X012190Y032126D03*
D77*
X012085Y032016D03*
X012095Y032006D03*
X011905Y032116D03*
D78*
X012700Y032116D03*
X012370Y030966D03*
X012380Y030956D03*
D79*
X012410Y031166D03*
X011910Y032106D03*
D80*
X012720Y032106D03*
X012570Y030796D03*
D81*
X012105Y031986D03*
X011945Y032096D03*
D82*
X012000Y032086D03*
X012030Y032066D03*
X012240Y031346D03*
X012240Y031336D03*
X012250Y031316D03*
D83*
X012765Y032086D03*
D84*
X012095Y031946D03*
X012015Y032076D03*
D85*
X012785Y032076D03*
D86*
X012805Y032066D03*
D87*
X012245Y031326D03*
X012255Y031306D03*
X012255Y031296D03*
X012235Y031356D03*
X012225Y031366D03*
X012095Y031956D03*
X012035Y032056D03*
D88*
X012820Y032056D03*
D89*
X012255Y031286D03*
X012385Y031246D03*
X012105Y031966D03*
X012045Y032046D03*
D90*
X012840Y032046D03*
X012830Y030936D03*
D91*
X012850Y030916D03*
X012780Y030706D03*
X012610Y030656D03*
X012600Y030666D03*
X012590Y030676D03*
X012580Y030686D03*
X012850Y032036D03*
D92*
X012825Y032016D03*
D93*
X012415Y031196D03*
X012105Y031976D03*
D94*
X012095Y031936D03*
D95*
X012095Y031926D03*
X012305Y031266D03*
D96*
X012155Y031386D03*
X012095Y031916D03*
D97*
X012095Y031906D03*
X012155Y031396D03*
D98*
X012090Y031896D03*
D99*
X012085Y031886D03*
X012165Y031406D03*
D100*
X012170Y031426D03*
X012110Y031566D03*
X012090Y031876D03*
D101*
X012090Y031866D03*
X012090Y031856D03*
X012100Y031596D03*
X012120Y031556D03*
D102*
X012135Y031546D03*
X012105Y031606D03*
X012105Y031616D03*
X012175Y031456D03*
X012175Y031446D03*
X012085Y031846D03*
D103*
X012090Y031836D03*
X012140Y031536D03*
X012150Y031516D03*
X012170Y031476D03*
X012170Y031466D03*
D104*
X012095Y031826D03*
D105*
X012100Y031816D03*
X012100Y031806D03*
X012100Y031796D03*
X012100Y031696D03*
X012100Y031686D03*
D106*
X012105Y031706D03*
X012105Y031716D03*
X012105Y031726D03*
X012105Y031736D03*
X012095Y031756D03*
X012095Y031766D03*
X012095Y031776D03*
X012095Y031786D03*
D107*
X012100Y031746D03*
D108*
X012095Y031676D03*
X012105Y031646D03*
X012105Y031636D03*
X012105Y031626D03*
X012145Y031526D03*
X012155Y031506D03*
X012165Y031496D03*
X012165Y031486D03*
D109*
X012100Y031656D03*
X012100Y031666D03*
D110*
X012105Y031586D03*
X012105Y031576D03*
X012175Y031436D03*
D111*
X012165Y031416D03*
D112*
X012280Y031276D03*
D113*
X012370Y031256D03*
X012410Y031206D03*
D114*
X012410Y031216D03*
X012400Y031226D03*
X012390Y031236D03*
D115*
X012390Y031156D03*
D116*
X012365Y031106D03*
X012335Y031126D03*
X012315Y031136D03*
X012305Y031146D03*
D117*
X012350Y031116D03*
D118*
X012380Y031096D03*
X012390Y031086D03*
D119*
X012405Y031076D03*
D120*
X012410Y031066D03*
X012420Y031056D03*
D121*
X012435Y031046D03*
D122*
X012785Y030966D03*
D123*
X012800Y030956D03*
D124*
X012405Y030916D03*
X012395Y030936D03*
X012385Y030946D03*
D125*
X012400Y030926D03*
X012410Y030906D03*
X012420Y030896D03*
D126*
X012650Y030616D03*
X012790Y030696D03*
X012870Y030906D03*
D127*
X012445Y030866D03*
X012435Y030876D03*
X012425Y030886D03*
D128*
X012450Y030856D03*
X012450Y030846D03*
X012460Y030836D03*
D129*
X012945Y030846D03*
D130*
X012475Y030816D03*
X012465Y030826D03*
D131*
X012480Y030806D03*
D132*
X012585Y030786D03*
D133*
X012590Y030776D03*
X012600Y030766D03*
X012610Y030756D03*
D134*
X021256Y062511D02*
X021258Y062526D01*
X021263Y062539D01*
X021272Y062551D01*
X021283Y062561D01*
X021297Y062567D01*
X021311Y062570D01*
X021326Y062569D01*
X021340Y062564D01*
X021353Y062556D01*
X021363Y062546D01*
X021370Y062533D01*
X021374Y062518D01*
X021374Y062504D01*
X021370Y062489D01*
X021363Y062476D01*
X021353Y062466D01*
X021340Y062458D01*
X021326Y062453D01*
X021311Y062452D01*
X021297Y062455D01*
X021283Y062461D01*
X021272Y062471D01*
X021263Y062483D01*
X021258Y062496D01*
X021256Y062511D01*
D135*
X030506Y035575D02*
X030481Y035550D01*
X030481Y035525D01*
X030506Y035500D01*
X030556Y035500D01*
X030581Y035525D01*
X030581Y035550D01*
X030556Y035575D01*
X030506Y035575D01*
X030506Y035500D02*
X030481Y035475D01*
X030481Y035450D01*
X030506Y035425D01*
X030556Y035425D01*
X030581Y035450D01*
X030581Y035475D01*
X030556Y035500D01*
X030628Y035425D02*
X030729Y035425D01*
X030679Y035425D02*
X030679Y035575D01*
X030729Y035525D01*
X030776Y035550D02*
X030801Y035575D01*
X030876Y035575D01*
X030876Y035425D01*
X030801Y035425D01*
X030776Y035450D01*
X030776Y035550D01*
D136*
X029917Y046421D02*
X029917Y046933D01*
X028028Y046933D02*
X028013Y046883D01*
X028002Y046832D01*
X027994Y046781D01*
X027989Y046729D01*
X027987Y046677D01*
X027989Y046625D01*
X027994Y046573D01*
X028002Y046522D01*
X028013Y046471D01*
X028028Y046421D01*
X027712Y046421D02*
X027712Y046933D01*
X029602Y046933D02*
X029617Y046883D01*
X029628Y046832D01*
X029636Y046781D01*
X029641Y046729D01*
X029643Y046677D01*
X029641Y046625D01*
X029636Y046573D01*
X029628Y046522D01*
X029617Y046471D01*
X029602Y046421D01*
X030000Y050960D02*
X030000Y051472D01*
X028110Y051472D02*
X028095Y051422D01*
X028084Y051371D01*
X028076Y051320D01*
X028071Y051268D01*
X028069Y051216D01*
X028071Y051164D01*
X028076Y051112D01*
X028084Y051061D01*
X028095Y051010D01*
X028110Y050960D01*
X027795Y050960D02*
X027795Y051472D01*
X029684Y051472D02*
X029699Y051422D01*
X029710Y051371D01*
X029718Y051320D01*
X029723Y051268D01*
X029725Y051216D01*
X029723Y051164D01*
X029718Y051112D01*
X029710Y051061D01*
X029699Y051010D01*
X029684Y050960D01*
D137*
X033704Y066039D02*
X033783Y066039D01*
X033842Y066098D01*
X033882Y066177D01*
X033921Y066315D01*
X034039Y066826D01*
X034078Y066964D01*
X034118Y067043D01*
X034177Y067102D01*
X034256Y067102D01*
X034315Y067043D01*
X034354Y066964D01*
X034393Y066826D01*
X034452Y066570D01*
X034433Y066570D02*
X033055Y066570D01*
X033035Y066570D02*
X033094Y066826D01*
X033134Y066964D01*
X033173Y067043D01*
X033232Y067102D01*
X033311Y067102D01*
X033370Y067043D01*
X033409Y066964D01*
X033448Y066826D01*
X033567Y066315D01*
X033606Y066177D01*
X033645Y066098D01*
X033704Y066039D01*
X032838Y066610D02*
X032840Y066670D01*
X032846Y066729D01*
X032856Y066789D01*
X032870Y066847D01*
X032887Y066904D01*
X032908Y066960D01*
X032933Y067015D01*
X032962Y067067D01*
X032994Y067118D01*
X033029Y067166D01*
X033067Y067213D01*
X033109Y067256D01*
X033153Y067296D01*
X033199Y067334D01*
X033248Y067368D01*
X033300Y067400D01*
X033353Y067427D01*
X033408Y067451D01*
X033464Y067472D01*
X033522Y067488D01*
X033580Y067501D01*
X033639Y067510D01*
X033699Y067515D01*
X033759Y067516D01*
X033819Y067513D01*
X033878Y067506D01*
X033937Y067495D01*
X033995Y067480D01*
X034052Y067462D01*
X034108Y067440D01*
X034162Y067414D01*
X034214Y067384D01*
X034264Y067352D01*
X034312Y067316D01*
X034358Y067277D01*
X034400Y067235D01*
X034440Y067190D01*
X034477Y067143D01*
X034511Y067093D01*
X034541Y067041D01*
X034568Y066988D01*
X034591Y066932D01*
X034610Y066876D01*
X034626Y066818D01*
X034638Y066759D01*
X034646Y066700D01*
X034650Y066640D01*
X034650Y066580D01*
X034646Y066520D01*
X034638Y066461D01*
X034626Y066402D01*
X034610Y066344D01*
X034591Y066288D01*
X034568Y066232D01*
X034541Y066179D01*
X034511Y066127D01*
X034477Y066077D01*
X034440Y066030D01*
X034400Y065985D01*
X034358Y065943D01*
X034312Y065904D01*
X034264Y065868D01*
X034214Y065836D01*
X034162Y065806D01*
X034108Y065780D01*
X034052Y065758D01*
X033995Y065740D01*
X033937Y065725D01*
X033878Y065714D01*
X033819Y065707D01*
X033759Y065704D01*
X033699Y065705D01*
X033639Y065710D01*
X033580Y065719D01*
X033522Y065732D01*
X033464Y065748D01*
X033408Y065769D01*
X033353Y065793D01*
X033300Y065820D01*
X033248Y065852D01*
X033199Y065886D01*
X033153Y065924D01*
X033109Y065964D01*
X033067Y066007D01*
X033029Y066054D01*
X032994Y066102D01*
X032962Y066153D01*
X032933Y066205D01*
X032908Y066260D01*
X032887Y066316D01*
X032870Y066373D01*
X032856Y066431D01*
X032846Y066491D01*
X032840Y066550D01*
X032838Y066610D01*
D138*
X031185Y070074D03*
X036303Y070074D03*
M02*
